<svg id="OBJECTS" xmlns="http://www.w3.org/2000/svg" viewBox="0 0 463.35 339.35"><defs><style>.cls-1{fill:#bbe2f2;}.cls-2{fill:#003087;}.cls-3{fill:#0099da;}.cls-4{fill:#006bde;}.cls-5{fill:#1c31b5;}.cls-6{fill:#18315b;}.cls-7{fill:#000b29;}.cls-8{fill:#f97853;}.cls-9{fill:#ea5143;}.cls-10{fill:#ffa681;}.cls-11{fill:#fff;}.cls-12{fill:#0b469b;}.cls-13{fill:#155baf;}.cls-14{fill:#e3e3e3;}.cls-15{fill:#009cf8;}.cls-16{fill:#264cbe;}.cls-17{fill:#32e2a9;}.cls-18{fill:#16d892;}.cls-19{fill:#14c682;}</style></defs><title>about</title><path class="cls-1" d="M216.79,158.1c-15.63-56.68-86-74.95-126.41-32.58q-.87.92-1.74,1.86c-57.86,62.89-30.52,217.88,90.23,257.17S425.21,352.09,432.27,288s-48.65-84.28-135.11-66.35C248.32,231.75,226.52,193.4,216.79,158.1Z" transform="translate(-15.72 -85.33)"/><path class="cls-1" d="M317.23,167.8c-16.15,2.63-20.63,16.94-8.15,27.1,4.12,3.36,10,6.14,18.4,7.54,31.95,5.3,48.91-8.84,36.1-27.17C355.67,164,333.25,165.19,317.23,167.8Z" transform="translate(-15.72 -85.33)"/><path class="cls-1" d="M59.64,282.34c-10-12.92-24.76-10-27.7,5.81-1,5.23-.6,11.74,2.19,19.77,10.65,30.59,31.18,38.71,41.14,18.69C81.41,314.25,69.59,295.15,59.64,282.34Z" transform="translate(-15.72 -85.33)"/><path class="cls-1" d="M443.66,295.42c-1.49,7.79,4.94,13.31,12.23,10.31a15.42,15.42,0,0,0,7-6.27c8.24-12.81,4.07-23.8-7.4-22.68C448.41,277.48,445.13,287.7,443.66,295.42Z" transform="translate(-15.72 -85.33)"/><path class="cls-1" d="M402.82,213.2c7.76,1.62,13.39-4.71,10.51-12a15.39,15.39,0,0,0-6.15-7.11c-12.67-8.46-23.73-4.47-22.8,7C385,208.14,395.12,211.6,402.82,213.2Z" transform="translate(-15.72 -85.33)"/><path class="cls-1" d="M214.09,129.83c6.15,5,14.06,2,14.88-5.87a15.44,15.44,0,0,0-2.18-9.14c-7.36-13.33-19-14.88-23.47-4.26C200.57,117.12,208,124.86,214.09,129.83Z" transform="translate(-15.72 -85.33)"/><path class="cls-2" d="M462.91,334.4c12.33-12.4,21.72-26.4,12.38-28.59S450.24,328,447.5,350.25l-2.74,7.34c2.28-16.16-3.26-35.84-11.36-36.65s-3.18,12,3.22,22.88c4.87,8.31,6.15,14.86,6.47,18.25l-12.93,34.64c3.53-25.59-5.24-56.64-18.07-57.93s-5,19,5.11,36.3c7.67,13.09,9.73,23.44,10.26,28.85l-2.58,6.91c1.13.64,2.26,1.26,3.4,1.89l15.38-41.22a49.65,49.65,0,0,1,13.9-7.06c12-4.06,24-10.51,17.42-15.18-5.74-4-19.23,3.75-28.52,14.76l5.32-14.26C454.18,345.65,457.59,339.75,462.91,334.4Z" transform="translate(-15.72 -85.33)"/><path class="cls-2" d="M74.27,172.7c1.6-15,.36-29.44-7.09-25.87s-4.85,28.43,5.29,44.82l2.12,6.41C67.41,186,53.08,175.75,47.2,179.57s4.31,9.75,14.49,13.63c7.75,3,12.15,6.67,14.19,8.77l10,30.23C74.44,213.11,51.82,197,42.51,203s6.84,15.46,23,21.62c12.2,4.66,19.17,10.5,22.44,13.85l2,6c1.1-.18,2.2-.36,3.3-.56L81.35,208a43,43,0,0,1,5.52-12.23c5.87-9.19,10.48-20,3.53-19.58-6,.37-10.9,12.88-11.2,25.28L75.09,189A62,62,0,0,1,74.27,172.7Z" transform="translate(-15.72 -85.33)"/><path class="cls-3" d="M379.68,375.57c.16.85.34,1.77.55,2.76h0c2.22,10.32,7.67,27.22,19.94,30.54,0,0-6.68-34.8,17.11-43.87s21.16-17.69,19.8-33.06-6.61-18.29,9.89-32.68,13.35-35.83,13.35-35.83S444.7,287.91,428,288.48s-19.6,14.81-18.89,25.4S395.66,325.67,388,331.81s-9.11,38.41-9.11,38.41S379.09,372.33,379.68,375.57Z" transform="translate(-15.72 -85.33)"/><path class="cls-4" d="M379.68,375.57c.16.85.34,1.77.55,2.76a52.83,52.83,0,0,1,6.37-12.87c5.34-7.91,12.86-14.4,19.61-16.95,10.77-4.06,16-14.61,17-34.23.59-11.38,12.5-18.11,12.63-18.18a.72.72,0,0,0-.7-1.26c-.52.29-12.74,7.17-13.37,19.37-1,19-5.95,29.12-16.1,33-7.14,2.69-14.73,9.23-20.3,17.49A54.73,54.73,0,0,0,379.68,375.57Z" transform="translate(-15.72 -85.33)"/><path class="cls-3" d="M116.36,408.68h16.71c-9-1.49-31.42-11.11-33.42-30.39-2.53-24.41-11.22-24.11-25.88-26.66s-18.68,1.61-28-17.35-30.06-21.34-30.06-21.34S34.64,333.58,31,349.27s8.93,22,19,23.92,7.64,15.47,11.46,24.14c1.74,4,8.87,8.06,16.11,11.35Z" transform="translate(-15.72 -85.33)"/><path class="cls-5" d="M80.15,384.64c.73,7.32,4.93,16,11.25,23.27l.69.77H94c-.55-.57-1.06-1.14-1.54-1.69-6-6.94-10.22-15.55-10.92-22.49-1.1-11-9.63-18.55-27.65-24.38-10.46-3.38-13.77-16.15-13.8-16.28a.69.69,0,1,0-1.35.33c.14.56,3.51,13.65,14.72,17.28C70.87,367.08,79.11,374.23,80.15,384.64Z" transform="translate(-15.72 -85.33)"/><path class="cls-3" d="M125.37,363.36c-.35,1.19-.75,2.48-1.2,3.85h0c-4.75,14.38-14.5,38.61-32.5,41.46,0,0,14.25-49.58-18.3-66.17S45.9,314,50.2,292.3s12.25-25.08-9.09-48.14S27.58,191,27.58,191s18.52,37.31,42.24,40.69,25.69,24.14,23.05,39.14,17.39,18.89,27.38,28.84,7.09,56.19,7.09,56.19S126.72,358.83,125.37,363.36Z" transform="translate(-15.72 -85.33)"/><path class="cls-4" d="M125.37,363.36c-.35,1.19-.75,2.48-1.2,3.85a75.87,75.87,0,0,0-7.11-19.33c-6.4-12.1-16.12-22.52-25.37-27.2-14.73-7.44-20.61-23.3-19-51.45.91-16.33-15-27.76-15.21-27.87a1,1,0,0,1,1.19-1.7c.7.49,17.07,12.19,16.1,29.69-1.52,27.2,4,42.46,17.9,49.48,9.76,4.93,19.58,15.43,26.27,28.08A78.32,78.32,0,0,1,125.37,363.36Z" transform="translate(-15.72 -85.33)"/><path class="cls-6" d="M138.28,397c.06,3.77.13,7.69.21,11.66h36.36c.07-4.34.12-8.5.16-12.41.11-10.58.12-19.29.11-24.71,0-3.83,0-6,0-6l-37.07-.4s0,3.21,0,8.45C138.08,379.42,138.14,387.76,138.28,397Z" transform="translate(-15.72 -85.33)"/><path class="cls-7" d="M138.06,373.6c0,5.82.08,14.16.22,23.42a182.33,182.33,0,0,0,36.73-.75c.11-10.58.12-19.29.11-24.71Z" transform="translate(-15.72 -85.33)"/><path class="cls-6" d="M92.46,388.66c0,5.93.11,12.72.23,20h36.36c.09-4.28.16-8.5.22-12.54.13-8.66.19-16.47.23-22.07s0-8.92,0-8.92l-37.09.4s0,3.93,0,10.55C92.41,379.6,92.43,383.84,92.46,388.66Z" transform="translate(-15.72 -85.33)"/><path class="cls-7" d="M92.41,376.1c0,3.5,0,7.74,0,12.56a227.13,227.13,0,0,0,36.81,7.48c.13-8.66.19-16.47.23-22.07Z" transform="translate(-15.72 -85.33)"/><path class="cls-6" d="M153.37,170.08s5.84-5.63,5.82-11.18-3.8-3.92-5.82-9.1-8.05-8.33-11.36-7.7-10.27-12.25-19.73-10-8.64,14.4-12.71,16.17-2.94,9-.79,10.61,3,8.24,4.26,8.09S153.37,170.08,153.37,170.08Z" transform="translate(-15.72 -85.33)"/><path class="cls-8" d="M114,170s-3.67-4.9-6.4-.85,1.13,16,7.81,13.09Z" transform="translate(-15.72 -85.33)"/><path class="cls-9" d="M114,178.5a.57.57,0,0,1-.54-.42c-1-3.69-4.86-5.19-4.9-5.2a.57.57,0,1,1,.4-1.06,9.74,9.74,0,0,1,5.59,6,.56.56,0,0,1-.39.69A.45.45,0,0,1,114,178.5Z" transform="translate(-15.72 -85.33)"/><path class="cls-9" d="M110.13,176.64a.55.55,0,0,1-.3-.09.57.57,0,0,1-.17-.79,5.22,5.22,0,0,1,2.12-1.71.56.56,0,0,1,.74.29.57.57,0,0,1-.28.75,4,4,0,0,0-1.63,1.29A.59.59,0,0,1,110.13,176.64Z" transform="translate(-15.72 -85.33)"/><path class="cls-8" d="M151.9,170s3.67-4.9,6.4-.85-1.13,16-7.81,13.09Z" transform="translate(-15.72 -85.33)"/><path class="cls-9" d="M152,178.5a.57.57,0,0,0,.54-.42c1-3.69,4.86-5.19,4.9-5.2a.57.57,0,0,0-.4-1.06,9.74,9.74,0,0,0-5.59,6,.56.56,0,0,0,.39.69A.45.45,0,0,0,152,178.5Z" transform="translate(-15.72 -85.33)"/><path class="cls-9" d="M155.81,176.64a.55.55,0,0,0,.3-.09.57.57,0,0,0,.17-.79,5.22,5.22,0,0,0-2.12-1.71.56.56,0,0,0-.74.29.57.57,0,0,0,.28.75,4,4,0,0,1,1.63,1.29A.59.59,0,0,0,155.81,176.64Z" transform="translate(-15.72 -85.33)"/><path class="cls-10" d="M142,192.34v11.89s-3.55,6.06-8.34,6.48-9.06-5.22-9.06-5.22V193.18Z" transform="translate(-15.72 -85.33)"/><path class="cls-8" d="M142,192.34v5.28c-3.22,3.57-8.93,4.46-17.4,3.21v-7.65Z" transform="translate(-15.72 -85.33)"/><path class="cls-10" d="M154.55,161.79a115.86,115.86,0,0,1-1.54,15c-.22,1.16-.47,2.24-.74,3.21-2.51,8.77-8.77,23.8-26.3,17.54-7.74-2.76-11.33-11.39-12.93-20.16a84.24,84.24,0,0,1-1.17-16.27,12.39,12.39,0,0,1,6.3-10.57c10.35-5.87,21.27-3.68,28.46-.92A12.37,12.37,0,0,1,154.55,161.79Z" transform="translate(-15.72 -85.33)"/><path class="cls-6" d="M113,177.4s1.7,10.14,3.31,13.83,6,4.39,7.65,7.51c2.35,4.46,5.93,8,11.83,5.83,4.9-1.78,4.68-4.29,7.43-6.23,4.7-3.33,7-7,7.23-10S153,176.81,153,176.81l-2.52-.17a65.26,65.26,0,0,1-3.56,6.26c-2.13-4.67-12.37-1.27-12.37-1.27l-1.95.63-2-.63s-10.36-3.25-12.41,1.64a18.64,18.64,0,0,1-2.74-6.35Zm19.57,6.44c11.74-2,9.64,4.86,9.57,5.11h0a11.81,11.81,0,0,1-2.41,1.83c-4.55,2.46-5,2.08-6.84,2.16a13.42,13.42,0,0,1-6.9-1.88,19.44,19.44,0,0,1-3.29-2.5S120.88,182.26,132.61,183.84Z" transform="translate(-15.72 -85.33)"/><path class="cls-6" d="M125.55,171.5c0,1.27-.66,2.3-1.47,2.3s-1.46-1-1.46-2.3.66-2.3,1.46-2.3S125.55,170.23,125.55,171.5Z" transform="translate(-15.72 -85.33)"/><path class="cls-6" d="M142.92,171.5c0,1.27-.65,2.3-1.46,2.3s-1.46-1-1.46-2.3.66-2.3,1.46-2.3S142.92,170.23,142.92,171.5Z" transform="translate(-15.72 -85.33)"/><path class="cls-6" d="M147.22,163.93s-6-2.39-10.69-.38l.46,2.59s6.83-.58,10.27.81A4.54,4.54,0,0,0,147.22,163.93Z" transform="translate(-15.72 -85.33)"/><path class="cls-6" d="M118.5,163.94s6.08-2.4,10.77-.38l-.47,2.61s-6.88-.59-10.34.82A4.5,4.5,0,0,1,118.5,163.94Z" transform="translate(-15.72 -85.33)"/><path class="cls-8" d="M133.17,181.14a6,6,0,0,0,2-.43.57.57,0,1,0-.43-1.05,3.34,3.34,0,0,1-2.26.21.62.62,0,0,1-.28-.52c-.2-2,.34-8.59.34-8.66a.56.56,0,1,0-1.12-.09,80.49,80.49,0,0,0-.34,8.86,1.7,1.7,0,0,0,.82,1.38A2.34,2.34,0,0,0,133.17,181.14Z" transform="translate(-15.72 -85.33)"/><path class="cls-11" d="M126,185c.43,2.16,1.86,6.13,6.66,6.13s6.17-3.63,6.63-6.13Z" transform="translate(-15.72 -85.33)"/><path class="cls-6" d="M154.55,161.79a115.86,115.86,0,0,1-1.54,15l-2.52-.17s.61-3.91.89-6.45.76-7.3-1.41-7.89-.89-6-3.9-8.36-9.71-4.43-14.15-1.7-9.49,1.22-11.54,1.7-4.83,3.29-4.08,5.93-1.5,4.24-2,7,1.2,10.08,1.2,10.08l-2.41.48a84.24,84.24,0,0,1-1.17-16.27,12.39,12.39,0,0,1,6.3-10.57c10.35-5.87,21.27-3.68,28.46-.92A12.37,12.37,0,0,1,154.55,161.79Z" transform="translate(-15.72 -85.33)"/><path class="cls-12" d="M182.79,383.42a200.49,200.49,0,0,1-34.32,5.63l-1.55.12c-1.57.1-3.14.19-4.72.26a195.72,195.72,0,0,1-23.35-.4q-2.35-.18-4.71-.42l-1.51-.16a203.8,203.8,0,0,1-27.89-5c-.09-8.57,0-35.66.54-65,.06-3.53.13-7.09.21-10.66.82-38.72,2.41-78,5.28-82,2.74-3.77,11-8.56,18.9-12.88l1.41-.77,5.15-2.79c3.5-1.9,6.52-3.6,8.39-4.9v1.07s4.25,5.63,9,5.22c4.38-.38,7.7-5.43,8.27-6.33a111.61,111.61,0,0,0,10,5.72l3.69,2,1.4.74c8.74,4.63,18.16,9.86,21,13.74a4.86,4.86,0,0,1,.6,1.43c1.68,5.67,2.72,24.47,3.35,47.24v.25c0,.92,0,1.84.07,2.78,0,.12,0,.24,0,.36.21,8,.36,16.4.48,24.85,0,.67,0,1.34,0,2,0,.34,0,.67,0,1q0,2.49.06,5c0,1.22,0,2.44,0,3.66C183,345.64,182.91,374.45,182.79,383.42Z" transform="translate(-15.72 -85.33)"/><path class="cls-13" d="M182.09,278.23c-2.75-4.5-5.71-9.09-8.49-13.14l0,0c-1.17-1.71-2.31-3.32-3.39-4.78a.22.22,0,0,0-.05-.08l-1-1.35a.57.57,0,0,1-.12-.23h0a.74.74,0,0,1,.27-.81.75.75,0,0,1,1.06.14c3.34,4.43,7.62,10.8,11.66,17.26v.25C182,276.37,182.07,277.29,182.09,278.23Z" transform="translate(-15.72 -85.33)"/><path class="cls-12" d="M178.18,225.91s17.24,31.59,27.75,47.6c0,0,6-5.49,13.76-12.84,8.43-8,19.95-21.27,19.95-21.27L246,247s-25.9,46.62-37.52,52.48-33-35.61-33-35.61Z" transform="translate(-15.72 -85.33)"/><path class="cls-13" d="M105.16,350.43h0a.78.78,0,0,1-.75-.81c.9-25.52-12.33-33.78-12.46-33.86a.78.78,0,0,1,.8-1.34c.15.09,3.65,2.21,7,7.66,3.1,5,6.68,13.79,6.19,27.59A.78.78,0,0,1,105.16,350.43Z" transform="translate(-15.72 -85.33)"/><path class="cls-13" d="M161.6,326.39a.77.77,0,0,1-.77-.72c-.42-5.37,1.35-9.29,3.59-14.25.65-1.46,1.33-3,2-4.64,4.34-10.55,2.16-22.61,2.14-22.73a.78.78,0,1,1,1.53-.28c.1.51,2.29,12.63-2.23,23.61-.71,1.7-1.39,3.21-2,4.68-2.23,4.94-3.85,8.51-3.46,13.49a.78.78,0,0,1-.72.84Z" transform="translate(-15.72 -85.33)"/><path class="cls-11" d="M116.23,209.32c.33,2.51.82,5.77,1.36,9.47.16,1.1.32,2.24.49,3.41.54,3.83,1.1,8,1.58,12.19.13,1.13.25,2.27.36,3.4.42,4.16.74,8.3.86,12.14,0,1.17.05,2.3,0,3.4a54,54,0,0,1-.53,7.95c-.22,1.46-.42,2.88-.6,4.27-.15,1.16-.28,2.3-.4,3.41-.45,4.34-.68,8.38-.75,12.19,0,1.16,0,2.29,0,3.4,0,4.32.28,8.35.64,12.18.11,1.15.22,2.28.34,3.39.47,4.2,1,8.19,1.57,12.13.16,1.13.31,2.25.46,3.38.23,1.8.45,3.61.64,5.42s.33,4.18.39,6.67c0,1.09,0,2.24,0,3.41,0,3.74-.08,7.87-.26,12.19,0,1.13-.09,2.28-.15,3.43-.19,4-.45,8.15-.73,12.22-.08,1.15-.17,2.29-.25,3.43-.32,4.24-.67,8.38-1,12.22-.1,1.17-.21,2.31-.32,3.42-.4,4.23-.8,8-1.14,11a195.72,195.72,0,0,0,23.35.4c.19-3.2.68-8.35,1.17-14.42q.13-1.67.27-3.42c.29-3.86.55-8,.73-12.14q.07-1.71.12-3.42c.12-4.16.12-8.28-.06-12.15-.05-1.18-.12-2.32-.21-3.44s-.2-2.26-.33-3.34a66.82,66.82,0,0,1-.5-8.84c0-1.14,0-2.28.08-3.42.18-4,.61-7.92,1.11-12.13.14-1.12.28-2.25.42-3.41.45-3.75.92-7.72,1.29-12.06.1-1.12.18-2.26.27-3.42.25-3.73.43-7.74.46-12.1,0-1.13,0-2.28,0-3.45,0-3.78-.2-7.82-.5-12.17l-.09-1.17c0-.77-.1-1.54-.14-2.3a117,117,0,0,1,.08-12.13c.06-1.15.14-2.29.22-3.44.32-4.07.78-8.11,1.31-12q.23-1.74.48-3.42c.64-4.24,1.32-8.23,1.95-11.8l.6-3.38c.43-2.41.8-4.56,1.07-6.38a111.61,111.61,0,0,1-10-5.72c-.57.9-3.89,6-8.27,6.33-4.79.41-9-5.22-9-5.22v-1.07C122.75,205.72,119.73,207.42,116.23,209.32Z" transform="translate(-15.72 -85.33)"/><path class="cls-14" d="M117.59,218.79c.16,1.1.32,2.24.49,3.41a63.05,63.05,0,0,0,15.44-1.95,40.92,40.92,0,0,1,16.79-.39l.6-3.38a44.53,44.53,0,0,0-18.16.45A58.93,58.93,0,0,1,117.59,218.79Z" transform="translate(-15.72 -85.33)"/><path class="cls-14" d="M119.66,234.39c.13,1.13.25,2.27.36,3.4a69.6,69.6,0,0,0,13.5-1.95,40.67,40.67,0,0,1,14.36-.76q.23-1.74.48-3.42a44.89,44.89,0,0,0-15.61.85A65.13,65.13,0,0,1,119.66,234.39Z" transform="translate(-15.72 -85.33)"/><path class="cls-14" d="M120.88,249.93c0,1.17.05,2.3,0,3.4a71.25,71.25,0,0,0,12.6-1.91,41,41,0,0,1,12.83-.92c.06-1.15.14-2.29.22-3.44a45,45,0,0,0-13.82,1A69.59,69.59,0,0,1,120.88,249.93Z" transform="translate(-15.72 -85.33)"/><path class="cls-14" d="M119.39,269A67,67,0,0,0,133.52,267a41.08,41.08,0,0,1,13-.91l-.09-1.17c0-.77-.1-1.54-.14-2.3a44.91,44.91,0,0,0-13.52,1.05,65.8,65.8,0,0,1-13,1.87C119.64,266.71,119.51,267.85,119.39,269Z" transform="translate(-15.72 -85.33)"/><path class="cls-14" d="M118.63,284.55a65.46,65.46,0,0,0,14.89-2,41.17,41.17,0,0,1,13.5-.87c0-1.13,0-2.28,0-3.45a45,45,0,0,0-14.25,1,62.09,62.09,0,0,1-14.11,1.88C118.63,282.31,118.62,283.44,118.63,284.55Z" transform="translate(-15.72 -85.33)"/><path class="cls-14" d="M119.27,296.73c.11,1.15.22,2.28.34,3.39a67.41,67.41,0,0,0,13.91-1.95,41.3,41.3,0,0,1,12.77-.93c.1-1.12.18-2.26.27-3.42a44.56,44.56,0,0,0-13.81,1A64.42,64.42,0,0,1,119.27,296.73Z" transform="translate(-15.72 -85.33)"/><path class="cls-14" d="M121.18,312.25c.16,1.13.31,2.25.46,3.38a74.89,74.89,0,0,0,11.88-1.87,41.63,41.63,0,0,1,11.06-1.05c.14-1.12.28-2.25.42-3.41a45,45,0,0,0-12.25,1.13A70.68,70.68,0,0,1,121.18,312.25Z" transform="translate(-15.72 -85.33)"/><path class="cls-14" d="M122.67,327.72c0,1.09,0,2.24,0,3.41a77.29,77.29,0,0,0,10.8-1.79,41.74,41.74,0,0,1,9.87-1.08c0-1.14,0-2.28.08-3.42A45.62,45.62,0,0,0,132.75,326,75.74,75.74,0,0,1,122.67,327.72Z" transform="translate(-15.72 -85.33)"/><path class="cls-14" d="M122.31,346.75a75.6,75.6,0,0,0,11.21-1.83,41.23,41.23,0,0,1,10.91-1c-.05-1.18-.12-2.32-.21-3.44a45,45,0,0,0-11.47,1.16,74.68,74.68,0,0,1-10.29,1.72C122.42,344.45,122.37,345.6,122.31,346.75Z" transform="translate(-15.72 -85.33)"/><path class="cls-14" d="M121.33,362.4a73.69,73.69,0,0,0,12.19-1.89,41.22,41.22,0,0,1,10.85-1.06q.07-1.71.12-3.42a45.34,45.34,0,0,0-11.74,1.15A71.48,71.48,0,0,1,121.58,359C121.5,360.12,121.41,361.26,121.33,362.4Z" transform="translate(-15.72 -85.33)"/><path class="cls-14" d="M120,378a69.1,69.1,0,0,0,13.53-2,41.58,41.58,0,0,1,9.85-1.08q.13-1.67.27-3.42a45,45,0,0,0-10.89,1.18,67.68,67.68,0,0,1-12.44,1.85C120.21,375.79,120.1,376.93,120,378Z" transform="translate(-15.72 -85.33)"/><path class="cls-13" d="M146.92,389.17l1.55-.11c3.07-18.05,1.3-44.53.64-52.65-.68-8.43.63-19.26,3.6-29.72,2.3-8.12.89-27-.24-42.09-.32-4.25-.62-8.26-.8-11.56-.58-10.65,3.28-30.37,5.4-40.25l-1.4-.74c-2.13,9.78-6.12,29.94-5.52,41.08.19,3.31.49,7.33.81,11.58,1.12,15,2.52,33.7.3,41.56-3,10.63-4.35,21.66-3.65,30.26C148.26,344.66,150,371.31,146.92,389.17Z" transform="translate(-15.72 -85.33)"/><path class="cls-13" d="M115.48,315.75c1.81,11.09,1.24,18.3.58,26.64-.21,2.7-.43,5.48-.59,8.56-.48,9.65-2.11,29.1-2.84,37.5l1.51.16c.73-8.41,2.36-27.9,2.85-37.58.15-3.06.37-5.84.58-8.52.66-8.44,1.24-15.73-.59-27-.39-2.42-.81-4.88-1.22-7.32-2.05-12.09-4.16-24.6-3.16-30.59.24-1.46.55-3.12.89-4.88,1.35-7.23,3.05-16.22,2.51-24s-3.7-28.68-4.91-36.58l-1.42.77c1.27,8.26,4.31,28.4,4.82,35.92s-1.15,16.5-2.49,23.64c-.34,1.77-.65,3.44-.9,4.91-1,6.24,1,18.31,3.16,31.09C114.68,310.88,115.09,313.33,115.48,315.75Z" transform="translate(-15.72 -85.33)"/><path class="cls-10" d="M85.66,238.62S70.22,290.1,66.4,308.45s-4.12,56.48-4.12,56.48-6.75,14-6.91,20.25c-.17,6.64,3.32,11.93,2.92,16.28s4.9,2,3.41-6.82,2.74-16.79,4.58-16.53-1.52,9.62.11,13,3.73-3.18,5.82-7.16,2.05-13.14,1.06-19.57S83.94,318.87,84,307.55l14.77-49.89S93.88,236.84,85.66,238.62Z" transform="translate(-15.72 -85.33)"/><path class="cls-12" d="M100.65,256.41c-.52,3.31-2.35,9-4.72,16.13h0l-.61,1.84,0,.08c-.59,1.78-1.21,3.64-1.84,5.57v0c-2.62,7.95-5.52,17-8,26.39-.84,3.19-1.62,6.43-2.31,9.65-.89,4.11-1.64,8.21-2.19,12.22-2,14.45-5.75,32.76-5.75,32.76-5.53,2.28-14.19-.72-14.19-.72s-.22-26.37,1-36.62a275.19,275.19,0,0,1,5.88-32c6.63-28.49,18.3-56.37,21.51-63.76l.59-1.37H92.8C98.22,230,102.06,247.5,100.65,256.41Z" transform="translate(-15.72 -85.33)"/><path class="cls-15" d="M60.6,355.09l.44,6.06s8.22,2.68,14.39.79l1.63-5.41C71.12,356.85,65.64,356.7,60.6,355.09Z" transform="translate(-15.72 -85.33)"/><path class="cls-13" d="M95.93,272.54h0a.82.82,0,0,1,0,.26c-.19.51-.38,1-.57,1.58l0,.08c-.6,1.72-1.22,3.6-1.84,5.57v0a296.32,296.32,0,0,0-8,31.37q0-2.49.06-5c-.84,3.19-1.62,6.43-2.31,9.65a115.29,115.29,0,0,1,2.35-12.67,296.62,296.62,0,0,1,8.93-31.15.75.75,0,0,1,1-.45A.74.74,0,0,1,95.93,272.54Z" transform="translate(-15.72 -85.33)"/><path class="cls-6" d="M372.07,408.68h36.47c-.12-2.53-.24-4.95-.36-7.24-.64-12.49-1.18-21-1.18-21l-29.65,1.32-2.46.11-4.36.19s.42,7.61,1.07,18.74C371.75,403.28,371.91,405.91,372.07,408.68Z" transform="translate(-15.72 -85.33)"/><path class="cls-7" d="M374.89,381.88l-4.36.19s.42,7.61,1.07,18.74a265.25,265.25,0,0,0,36.58.63c-.64-12.49-1.18-21-1.18-21l-29.65,1.32Z" transform="translate(-15.72 -85.33)"/><path class="cls-7" d="M378.86,408.68c-.67-11.56-1.21-21.43-1.51-26.91l-2.46.11c.3,5.46.84,15.28,1.51,26.8Z" transform="translate(-15.72 -85.33)"/><path class="cls-6" d="M361.37,408.68c.19-3.13.37-6.1.53-8.84.63-10.61,1-17.77,1-17.77l-4.73-.21-2.46-.11-29.29-1.3s-.32,5.07-.76,13.12c-.23,4.29-.5,9.44-.77,15.11Z" transform="translate(-15.72 -85.33)"/><path class="cls-7" d="M325.68,393.57a322.06,322.06,0,0,0,36.22,6.27c.63-10.61,1-17.77,1-17.77l-4.73-.21-2.46-.11-29.29-1.3S326.12,385.52,325.68,393.57Z" transform="translate(-15.72 -85.33)"/><path class="cls-7" d="M356.68,408.68c.66-11.53,1.21-21.36,1.51-26.82l-2.46-.11c-.3,5.48-.85,15.36-1.51,26.93Z" transform="translate(-15.72 -85.33)"/><path class="cls-12" d="M412.3,386.13A174.88,174.88,0,0,1,390,390.76q-3.87.54-7.74.9-5.22.48-10.44.65a165.74,165.74,0,0,1-17.26-.38,174.65,174.65,0,0,1-33.39-5.8c-.1-10.37.06-47.58.83-83.47q.06-2.43.12-4.83c0-.34,0-.68,0-1l0-1.11c0-1.14.05-2.27.08-3.4.06-2.31.12-4.59.19-6.86,0-1.35.08-2.7.12-4,0-.28,0-.55,0-.83l.09-2.62h0c0-.27,0-.54,0-.81,0-.8.06-1.6.08-2.39s.05-1.33.07-2c.86-24.21,2.12-43.31,3.93-46,3.06-4.56,13.48-10.62,21.86-15.55,3-1.76,6.56-3.58,8.6-4.94,3,2.4,5.13,4.57,9.55,4.42,4.93-.17,6.15-3.14,8-5.69,1.15.75,4.07,3.14,5.59,4,1.3.77,2.7,1.58,4.17,2.43,2.27,1.29,4.68,2.67,7.07,4.08,3.54,2.08,7,4.23,9.93,6.29s5.19,4,6.32,5.72c1.64,2.46,2.7,18.38,3.38,39.34,0,.73.05,1.48.08,2.23v.27c0,.76.05,1.54.07,2.33.07,2.35.13,4.76.2,7.21l0,1.56,0,1.17.06,3c0,.2,0,.41,0,.61.05,2.69.1,5.42.15,8.17,0,.8,0,1.61,0,2.42C412.58,333.63,412.44,375,412.3,386.13Z" transform="translate(-15.72 -85.33)"/><path class="cls-13" d="M412,295.9,400.2,307.83l-11-11.11-11,11.11-11-11.16-11,11.16L345.21,296.6l-11.07,11.23-12-12.13c0-1.14.05-2.27.08-3.4.06-2.31.12-4.59.19-6.86l11.69-11.85,11.07,11.23,11.07-11.23,11,11.15,11-11.15,11,11.11,11-11.11,11.57,11.72c.05,2.69.1,5.42.15,8.17C411.94,294.28,412,295.09,412,295.9Z" transform="translate(-15.72 -85.33)"/><path class="cls-13" d="M391.66,357.39h0c-15.75-.07-29.2-7.23-37.7-13.23A86.83,86.83,0,0,1,339.13,331a.76.76,0,1,1,1.16-1,85.5,85.5,0,0,0,14.58,12.89c8.32,5.87,21.45,12.87,36.79,12.94a.76.76,0,0,1,.76.76A.75.75,0,0,1,391.66,357.39Z" transform="translate(-15.72 -85.33)"/><path class="cls-13" d="M381.84,348.08c-13.42-2.64-25.29-12.91-25.82-13.38a.75.75,0,1,1,1-1.14c.14.12,14.11,12.2,28.35,13.5a.75.75,0,0,1,.68.82.75.75,0,0,1-.82.69C384.08,348.46,383,348.3,381.84,348.08Z" transform="translate(-15.72 -85.33)"/><path class="cls-13" d="M355,231.53a.77.77,0,0,1-.75-.62.76.76,0,0,1,.61-.88c19.2-3.65,25-16,25-16.13a.76.76,0,0,1,1-.37.75.75,0,0,1,.37,1c-.24.54-6.17,13.2-26.14,17Z" transform="translate(-15.72 -85.33)"/><path class="cls-16" d="M331.55,264.78h0a1.09,1.09,0,0,1-.1.25c-.29.46-.59.93-.89,1.42l-.05.08c-1,1.55-2,3.25-3,5l0,0c-1.61,2.82-3.27,5.88-4.91,9l.09-2.62h0c0-.27,0-.54,0-.81,2.64-4.89,5.26-9.46,7.47-12.93a.75.75,0,0,1,1-.24A.77.77,0,0,1,331.55,264.78Z" transform="translate(-15.72 -85.33)"/><path class="cls-10" d="M428.31,236.69s24.55-7.89,31.82-24c2.1-4.67-15.21-52.05-15.21-52.05l-8.36.41s2.38,16.44,3.83,25.74c1.18,7.66,3.1,16.8,3.75,19.81.14.66.22,1,.22,1l-1.24.23c-11.47,2.33-26.12,9.81-26.12,9.81Z" transform="translate(-15.72 -85.33)"/><path class="cls-8" d="M450.53,212.16a.78.78,0,0,0,1.09-.17.77.77,0,0,0-.17-1.1,61.82,61.82,0,0,0-7.31-4.29c.14.66.22,1,.22,1l-1.24.23A63.12,63.12,0,0,1,450.53,212.16Z" transform="translate(-15.72 -85.33)"/><path class="cls-12" d="M390.74,215s-7.43,17.43,11.48,27.13c13.08,6.72,42.89-10.82,42.89-10.82l-10.62-22.56S407.21,220,390.74,215Z" transform="translate(-15.72 -85.33)"/><path class="cls-10" d="M440.64,134c-.74.52-.59,3.72-.26,6.74l-.32,0c-.88-4-2.63-10.87-4.13-9.56-1,.85.34,6.76,1.23,10.29l-.56.17c-1.12-4.19-3.55-12.26-5.17-10.69-1.08,1.05,1,8.15,2.14,11.78l-.47.18c-1.1-3.51-3.45-10.17-5.06-8.6-1.46,1.41,2.72,11.47,2.72,11.47h0l1.1,3.95s-1.3.56-3.34-1.74-4.46-2.7-2.77.62c1.91,3.76,4.73,6.46,6,9.11s5.15,3.54,5.15,3.54l7.85-.38s1.52-13.26-1.41-19.58h0C442.81,137.59,441.93,133.1,440.64,134Z" transform="translate(-15.72 -85.33)"/><path class="cls-6" d="M343.55,164.59c0,13.37,8.23,22.58,21.59,22.58s22.68-9.9,22.68-23.27a28.53,28.53,0,0,0-1.76-10.17,4.33,4.33,0,0,0-.21-.54c-.14-.35-.28-.69-.44-1-.24-.52-.5-1-.77-1.51-3.48-6.26-9.72-10.24-18.1-10.24C350.51,140.41,343.55,151.23,343.55,164.59Z" transform="translate(-15.72 -85.33)"/><path class="cls-8" d="M346.55,170.35s-3.71-4.95-6.47-.86,1.14,16.18,7.9,13.23Z" transform="translate(-15.72 -85.33)"/><path class="cls-9" d="M346.5,179a.58.58,0,0,1-.55-.42c-1.05-3.73-4.91-5.25-4.95-5.26a.57.57,0,0,1,.4-1.07c.18.07,4.45,1.72,5.65,6a.58.58,0,0,1-.39.71Z" transform="translate(-15.72 -85.33)"/><path class="cls-9" d="M342.6,177.11a.59.59,0,0,1-.31-.09.57.57,0,0,1-.17-.79,5.15,5.15,0,0,1,2.14-1.73.58.58,0,0,1,.76.29.57.57,0,0,1-.29.75,4.09,4.09,0,0,0-1.65,1.3A.57.57,0,0,1,342.6,177.11Z" transform="translate(-15.72 -85.33)"/><path class="cls-8" d="M384.82,170.35s3.71-4.95,6.47-.86-1.14,16.18-7.9,13.23Z" transform="translate(-15.72 -85.33)"/><path class="cls-9" d="M384.86,179a.58.58,0,0,0,.55-.42c1-3.73,4.92-5.25,5-5.26a.57.57,0,0,0-.41-1.07c-.18.07-4.44,1.72-5.65,6a.59.59,0,0,0,.4.71Z" transform="translate(-15.72 -85.33)"/><path class="cls-9" d="M388.77,177.11a.59.59,0,0,0,.31-.09.58.58,0,0,0,.17-.79,5.14,5.14,0,0,0-2.15-1.73.57.57,0,0,0-.46,1,4.28,4.28,0,0,1,1.65,1.3A.57.57,0,0,0,388.77,177.11Z" transform="translate(-15.72 -85.33)"/><path class="cls-10" d="M374.82,193v12s-3.58,6.13-8.43,6.55-9.15-5.28-9.15-5.28V193.82Z" transform="translate(-15.72 -85.33)"/><path class="cls-8" d="M374.82,193v5.33c-3.25,3.62-9,4.52-17.58,3.26v-7.75Z" transform="translate(-15.72 -85.33)"/><path class="cls-10" d="M387.5,162.1a116.92,116.92,0,0,1-1.56,15.19c-.22,1.16-.47,2.26-.75,3.24-2.53,8.86-8.86,24.06-26.58,17.73-7.83-2.8-11.46-11.51-13.07-20.38a85.49,85.49,0,0,1-1.19-16.45,12.55,12.55,0,0,1,6.37-10.68c10.46-5.93,21.5-3.72,28.77-.93A12.52,12.52,0,0,1,387.5,162.1Z" transform="translate(-15.72 -85.33)"/><path class="cls-6" d="M358.09,171.92c0,1.28-.67,2.32-1.48,2.32s-1.48-1-1.48-2.32.66-2.33,1.48-2.33S358.09,170.63,358.09,171.92Z" transform="translate(-15.72 -85.33)"/><path class="cls-6" d="M375.5,171.87c0,1.28-.66,2.32-1.48,2.32s-1.47-1-1.47-2.32.66-2.33,1.47-2.33S375.5,170.58,375.5,171.87Z" transform="translate(-15.72 -85.33)"/><path class="cls-6" d="M378.84,163.88s-4.66-1.84-8.25-.29l.36,2s5.27-.45,7.92.63A3.48,3.48,0,0,0,378.84,163.88Z" transform="translate(-15.72 -85.33)"/><path class="cls-6" d="M351.68,163.88s4.66-1.84,8.25-.29l-.36,2s-5.27-.45-7.92.63A3.42,3.42,0,0,1,351.68,163.88Z" transform="translate(-15.72 -85.33)"/><path class="cls-8" d="M365.88,181.66a6.05,6.05,0,0,0,2.07-.44.57.57,0,0,0-.43-1.06,3.44,3.44,0,0,1-2.29.22.6.6,0,0,1-.28-.53,87.38,87.38,0,0,1,.34-8.75.57.57,0,0,0-.52-.62.58.58,0,0,0-.62.52,85,85,0,0,0-.34,9,1.74,1.74,0,0,0,.83,1.4A2.4,2.4,0,0,0,365.88,181.66Z" transform="translate(-15.72 -85.33)"/><path class="cls-11" d="M358.21,184.56c1,3.29,3.65,6.58,7.37,6.63s6.41-3.34,7.36-6.63Z" transform="translate(-15.72 -85.33)"/><path class="cls-8" d="M365.26,194.77a6.06,6.06,0,0,0,2.79-.78.57.57,0,0,0-.6-1,5,5,0,0,1-2.19.61,4.59,4.59,0,0,1-2.08-.61.57.57,0,0,0-.78.19.56.56,0,0,0,.18.78A5.61,5.61,0,0,0,365.26,194.77Z" transform="translate(-15.72 -85.33)"/><path class="cls-6" d="M386.9,170.45h-2.59c.28-2.6.7-7.18-1.44-7.84-6.75-2.07,2-6.84-1.05-9.21s-10.62-1.36-15.89-1.53-13.83-.1-15.9.38-.93,3.92-.17,6.58-2.55,5.61-3.1,8.37a12,12,0,0,0,0,3.25H344.6c-.25-3.36-.29-6.49-.25-9a12.55,12.55,0,0,1,6.37-10.68c10.46-5.93,21.5-3.72,28.77-.93a12.52,12.52,0,0,1,8,12.28C387.38,164.66,387.19,167.57,386.9,170.45Z" transform="translate(-15.72 -85.33)"/><path class="cls-11" d="M356.35,178.65a6.47,6.47,0,1,1,6.46-6.47A6.48,6.48,0,0,1,356.35,178.65Zm0-11.93a5.46,5.46,0,1,0,5.46,5.46A5.47,5.47,0,0,0,356.35,166.72Z" transform="translate(-15.72 -85.33)"/><path class="cls-11" d="M374,178.65a6.47,6.47,0,1,1,6.47-6.47A6.48,6.48,0,0,1,374,178.65Zm0-11.93a5.46,5.46,0,1,0,5.46,5.46A5.46,5.46,0,0,0,374,166.72Z" transform="translate(-15.72 -85.33)"/><path class="cls-11" d="M351,170.1a.49.49,0,0,1-.35-.15h0a7.94,7.94,0,0,0-6.82-2,.52.52,0,0,1-.61-.38.5.5,0,0,1,.38-.6,8.84,8.84,0,0,1,7.76,2.24.51.51,0,0,1-.36.87Z" transform="translate(-15.72 -85.33)"/><path class="cls-11" d="M379.52,170.1a.54.54,0,0,1-.43-.23.51.51,0,0,1,.15-.7c.19-.13,4.77-3.08,8.66-2.44a.51.51,0,0,1,.42.58.51.51,0,0,1-.58.42c-3.5-.58-7.9,2.25-7.95,2.28A.46.46,0,0,1,379.52,170.1Z" transform="translate(-15.72 -85.33)"/><path class="cls-11" d="M367.91,170.73a4.06,4.06,0,0,0-2.78-1.64,3.72,3.72,0,0,0-2.65,1.63l-.85-.55a4.71,4.71,0,0,1,3.5-2.09,5,5,0,0,1,3.6,2.06Z" transform="translate(-15.72 -85.33)"/><path class="cls-10" d="M329.42,263.83a183,183,0,0,1-14.84,23.64,60.63,60.63,0,0,1-7.27,8.12c-3.94,3.56-7.79,5.42-10.92,3.84C284.77,293.58,258.87,247,258.87,247l6.38-7.56s11.53,13.31,20,21.28C293,268,299,273.51,299,273.51c1.08-1.63,2.22-3.43,3.42-5.33s2.58-4.15,3.92-6.34c9.71-15.94,20.48-35.08,20.48-35.08Z" transform="translate(-15.72 -85.33)"/><path class="cls-8" d="M314.58,287.47a60.63,60.63,0,0,1-7.27,8.12l-4.93-27.41c1.26-2,2.58-4.15,3.92-6.34Z" transform="translate(-15.72 -85.33)"/><path class="cls-12" d="M326.78,226.76l-23.29,36.62,7.82,32.21,19.27-31.37S332.91,242.75,326.78,226.76Z" transform="translate(-15.72 -85.33)"/><path class="cls-3" d="M297.5,408.68c-1.66-9.22-3.3-19.61-4.79-29.7-.33-2.23-.65-4.45-1-6.63-1.2-8.36-2.26-16.26-3.12-22.82-.33-2.49-.62-4.79-.89-6.84-.83-6.55-1.32-10.61-1.32-10.61l-36.77,1.39-36.88-1.39s-1,8-2.47,19.71c-.28,2.12-.58,4.36-.89,6.7-.82,6.12-1.75,12.88-2.76,19.8,0,.1,0,.2,0,.3q-.48,3.24-1,6.5s0,.06,0,.09h0c-.79,5.24-1.62,10.49-2.46,15.53-.35,2.08-.7,4.13-1,6.12l-.33,1.84Z" transform="translate(-15.72 -85.33)"/><path class="cls-16" d="M221.25,343.12a3.47,3.47,0,1,1-3.47-3.46A3.47,3.47,0,0,1,221.25,343.12Z" transform="translate(-15.72 -85.33)"/><path class="cls-16" d="M229.85,356.55a3.47,3.47,0,1,1-3.47-3.47A3.46,3.46,0,0,1,229.85,356.55Z" transform="translate(-15.72 -85.33)"/><path class="cls-16" d="M246.77,349.62a3.47,3.47,0,1,1-3.47-3.47A3.47,3.47,0,0,1,246.77,349.62Z" transform="translate(-15.72 -85.33)"/><path class="cls-16" d="M220.06,370.81a3.47,3.47,0,1,1-3.46-3.47A3.46,3.46,0,0,1,220.06,370.81Z" transform="translate(-15.72 -85.33)"/><path class="cls-16" d="M241.2,369.32a3.47,3.47,0,1,1-3.46-3.46A3.46,3.46,0,0,1,241.2,369.32Z" transform="translate(-15.72 -85.33)"/><path class="cls-16" d="M212.55,355a3.46,3.46,0,0,1-3.14,3.45c.31-2.34.61-4.58.89-6.7A3.46,3.46,0,0,1,212.55,355Z" transform="translate(-15.72 -85.33)"/><path class="cls-16" d="M275.66,389.68a3.47,3.47,0,1,1-3.47-3.46A3.47,3.47,0,0,1,275.66,389.68Z" transform="translate(-15.72 -85.33)"/><path class="cls-16" d="M274,370.81a3.47,3.47,0,1,1-3.46-3.47A3.46,3.46,0,0,1,274,370.81Z" transform="translate(-15.72 -85.33)"/><path class="cls-16" d="M292.71,379a3.62,3.62,0,0,1-1.36.27,3.47,3.47,0,1,1,0-6.93,2.69,2.69,0,0,1,.4,0C292.06,374.53,292.38,376.75,292.71,379Z" transform="translate(-15.72 -85.33)"/><path class="cls-16" d="M277.49,403.52a3.47,3.47,0,1,1-3.47-3.47A3.47,3.47,0,0,1,277.49,403.52Z" transform="translate(-15.72 -85.33)"/><path class="cls-16" d="M292.31,398a3.47,3.47,0,1,1-3.47-3.47A3.46,3.46,0,0,1,292.31,398Z" transform="translate(-15.72 -85.33)"/><path class="cls-16" d="M261.46,408.68a3.45,3.45,0,0,0-5.71,0Z" transform="translate(-15.72 -85.33)"/><path class="cls-16" d="M217.78,392.7a3.47,3.47,0,1,1-3.46-3.47A3.46,3.46,0,0,1,217.78,392.7Z" transform="translate(-15.72 -85.33)"/><path class="cls-16" d="M208.64,381.75a3.46,3.46,0,0,1-3,3.43s0-.06,0-.09q.5-3.25,1-6.5A3.49,3.49,0,0,1,208.64,381.75Z" transform="translate(-15.72 -85.33)"/><path class="cls-16" d="M204.59,403.51a3.49,3.49,0,0,1-2.47,3.33c.35-2,.7-4,1-6.12A3.46,3.46,0,0,1,204.59,403.51Z" transform="translate(-15.72 -85.33)"/><path class="cls-16" d="M226.38,405a3.47,3.47,0,1,1-3.46-3.46A3.46,3.46,0,0,1,226.38,405Z" transform="translate(-15.72 -85.33)"/><path class="cls-16" d="M244.67,402.27a3.47,3.47,0,1,1-3.47-3.47A3.46,3.46,0,0,1,244.67,402.27Z" transform="translate(-15.72 -85.33)"/><path class="cls-16" d="M231.62,385.23a3.47,3.47,0,1,1-3.46-3.47A3.46,3.46,0,0,1,231.62,385.23Z" transform="translate(-15.72 -85.33)"/><path class="cls-16" d="M250.23,381.76a3.47,3.47,0,1,1-3.46-3.46A3.46,3.46,0,0,1,250.23,381.76Z" transform="translate(-15.72 -85.33)"/><path class="cls-16" d="M258.61,363.48a3.47,3.47,0,1,1-3.47-3.47A3.46,3.46,0,0,1,258.61,363.48Z" transform="translate(-15.72 -85.33)"/><path class="cls-16" d="M288.63,349.53a3.08,3.08,0,0,1-.75.08,3.46,3.46,0,0,1-.14-6.92C288,344.74,288.3,347,288.63,349.53Z" transform="translate(-15.72 -85.33)"/><path class="cls-16" d="M270.56,349.62a3.47,3.47,0,1,1-3.47-3.47A3.47,3.47,0,0,1,270.56,349.62Z" transform="translate(-15.72 -85.33)"/><path class="cls-16" d="M283.25,362a3.47,3.47,0,1,1-3.47-3.47A3.46,3.46,0,0,1,283.25,362Z" transform="translate(-15.72 -85.33)"/><path class="cls-16" d="M262.07,392.7a3.47,3.47,0,1,1-3.46-3.47A3.46,3.46,0,0,1,262.07,392.7Z" transform="translate(-15.72 -85.33)"/><path class="cls-3" d="M288.66,333c-19.4,12.66-55,11.67-77.39,0,2.13-13.32,4.95-26.65,4.34-44.38-.06-1.94-.15-3.87-.24-5.78-.09-1.67-.19-3.32-.29-5-1.94-29.48-7-53.59-4.49-56.71a23.29,23.29,0,0,1,5.1-4.34c.87-.6,1.8-1.2,2.78-1.8,2.33-1.41,4.91-2.84,7.5-4.23,6.15-3.29,12.4-6.33,15.53-8.42a19.68,19.68,0,0,0,8.24,2.08h.45a19.75,19.75,0,0,0,8.24-2.08c2.91,1.94,8.37,4.63,13.95,7.57a119.61,119.61,0,0,1,11.5,6.68,22.88,22.88,0,0,1,4.91,4.22c1.23,1.54.71,8.31-.33,18.34-1,9.88-2.59,22.91-3.53,37.24-.26,4-.48,8.06-.62,12.19C283.71,306.34,286.52,319.67,288.66,333Z" transform="translate(-15.72 -85.33)"/><path class="cls-4" d="M276.8,318.26h0c-15.62-.07-29-7.18-37.38-13.13a85.61,85.61,0,0,1-14.71-13,.75.75,0,0,1,1.15-1,84.55,84.55,0,0,0,14.46,12.79c8.25,5.81,21.28,12.76,36.49,12.83a.75.75,0,0,1,0,1.5Z" transform="translate(-15.72 -85.33)"/><path class="cls-4" d="M266.46,309.17c-13.3-2.62-25.08-12.8-25.61-13.27a.75.75,0,0,1,1-1.13c.14.12,14,12.1,28.11,13.39a.74.74,0,0,1,.68.81.75.75,0,0,1-.82.68A31.78,31.78,0,0,1,266.46,309.17Z" transform="translate(-15.72 -85.33)"/><path class="cls-4" d="M246.77,240.36a.75.75,0,0,1-.14-1.49c19-3.61,24.78-15.86,24.84-16a.74.74,0,0,1,1-.37.73.73,0,0,1,.37,1c-.24.53-6.12,13.09-25.92,16.85Z" transform="translate(-15.72 -85.33)"/><path class="cls-10" d="M272.38,209.94c-3.78,8.62-13.07,17.55-25.15,15.46-11.7-2-17.25-8.21-21.26-14.61,6.15-3.29,12.4-6.33,15.53-8.42a19.68,19.68,0,0,0,8.24,2.08h.45a19.71,19.71,0,0,0,8.24-2.08C261.34,204.3,266.81,207,272.38,209.94Z" transform="translate(-15.72 -85.33)"/><path class="cls-11" d="M262.28,203a.59.59,0,0,0-.6.59c0,.48-.2,11.88-10.43,12.76-9.49.83-13.42-8.26-14.63-12a.54.54,0,0,0-.51-.37H236a.53.53,0,0,0-.51.7c1.29,3.89,5.43,13.28,15.1,12.93.25,0,.5,0,.76,0,11.32-1,11.52-13.81,11.53-13.94A.6.6,0,0,0,262.28,203Z" transform="translate(-15.72 -85.33)"/><path class="cls-6" d="M269.51,142.43s9.15,14.16,8.14,28.91,1.35,31.78-11.85,31-36.74,5.3-44.22-6.19S269.51,142.43,269.51,142.43Z" transform="translate(-15.72 -85.33)"/><path class="cls-7" d="M272.9,168.47s2.37,21.38-7.77,27.27-17.49-.69-17.49-.69S269,165.25,272.9,168.47Z" transform="translate(-15.72 -85.33)"/><path class="cls-8" d="M230.76,168.37s-3.65-4.86-6.36-.84,1.13,15.88,7.76,13Z" transform="translate(-15.72 -85.33)"/><path class="cls-9" d="M230.71,176.85a.56.56,0,0,1-.54-.41c-1-3.66-4.82-5.15-4.86-5.16a.56.56,0,1,1,.4-1.05c.17.07,4.36,1.69,5.54,5.91a.57.57,0,0,1-.39.69Z" transform="translate(-15.72 -85.33)"/><path class="cls-9" d="M226.88,175a.56.56,0,0,1-.47-.86,5.18,5.18,0,0,1,2.1-1.7.56.56,0,0,1,.46,1,4,4,0,0,0-1.62,1.28A.57.57,0,0,1,226.88,175Z" transform="translate(-15.72 -85.33)"/><path class="cls-8" d="M268.3,168.37s3.64-4.86,6.35-.84-1.12,15.88-7.75,13Z" transform="translate(-15.72 -85.33)"/><path class="cls-9" d="M268.35,176.85a.56.56,0,0,0,.54-.41c1-3.66,4.82-5.15,4.86-5.16a.56.56,0,0,0-.4-1.05c-.18.07-4.36,1.69-5.54,5.91a.57.57,0,0,0,.39.69Z" transform="translate(-15.72 -85.33)"/><path class="cls-9" d="M272.18,175a.56.56,0,0,0,.47-.86,5.18,5.18,0,0,0-2.1-1.7.56.56,0,0,0-.46,1,4.09,4.09,0,0,1,1.62,1.28A.55.55,0,0,0,272.18,175Z" transform="translate(-15.72 -85.33)"/><path class="cls-10" d="M258.5,190.58v11.8s-3.52,6-8.28,6.41-9-5.17-9-5.17V191.41Z" transform="translate(-15.72 -85.33)"/><path class="cls-8" d="M258.5,190.58v5.23c-3.2,3.54-8.86,4.8-17.26,3.56v-8Z" transform="translate(-15.72 -85.33)"/><path class="cls-10" d="M270.94,160.28a115.78,115.78,0,0,1-1.53,14.9c-.22,1.14-.47,2.22-.74,3.18-2.49,8.7-8.7,23.61-26.08,17.4-7.68-2.74-11.24-11.3-12.83-20a84.39,84.39,0,0,1-1.16-16.14,12.34,12.34,0,0,1,6.25-10.48c10.26-5.82,21.09-3.65,28.22-.91A12.29,12.29,0,0,1,270.94,160.28Z" transform="translate(-15.72 -85.33)"/><path class="cls-6" d="M241.87,169.06c0,1.26-.65,2.28-1.45,2.28s-1.45-1-1.45-2.28.65-2.28,1.45-2.28S241.87,167.8,241.87,169.06Z" transform="translate(-15.72 -85.33)"/><path class="cls-6" d="M259.78,169.06c0,1.26-.65,2.28-1.45,2.28s-1.45-1-1.45-2.28.64-2.28,1.45-2.28S259.78,167.8,259.78,169.06Z" transform="translate(-15.72 -85.33)"/><path class="cls-6" d="M237.55,162.27a24,24,0,0,1,6.2-.92,1.07,1.07,0,0,1,1.08,1.26h0a1.07,1.07,0,0,1-1.11.89c-1.74-.09-6.32.16-8.49,1a1.64,1.64,0,0,1,.5-1.16A3.74,3.74,0,0,1,237.55,162.27Z" transform="translate(-15.72 -85.33)"/><path class="cls-6" d="M261,162.32a24.41,24.41,0,0,0-6.21-.93,1.08,1.08,0,0,0-1.07,1.26v0a1.07,1.07,0,0,0,1.11.88c1.75-.08,6.33.17,8.49,1a1.58,1.58,0,0,0-.49-1.15A3.79,3.79,0,0,0,261,162.32Z" transform="translate(-15.72 -85.33)"/><path class="cls-8" d="M249.72,179.47a2.36,2.36,0,0,1-1.21-.29,1.73,1.73,0,0,1-.82-1.37A81.61,81.61,0,0,1,248,169a.56.56,0,1,1,1.11.09,84.85,84.85,0,0,0-.33,8.58.59.59,0,0,0,.27.52,3.31,3.31,0,0,0,2.25-.21.56.56,0,1,1,.42,1A5.88,5.88,0,0,1,249.72,179.47Z" transform="translate(-15.72 -85.33)"/><path class="cls-11" d="M242.61,183c.42,2.13,1.83,6.05,6.57,6.05s6.09-3.58,6.55-6.05Z" transform="translate(-15.72 -85.33)"/><path class="cls-8" d="M249.11,192.33a5.6,5.6,0,0,1-2.62-.77.56.56,0,0,1-.19-.77.57.57,0,0,1,.77-.18h0a4.63,4.63,0,0,0,2,.6,4.93,4.93,0,0,0,2.16-.6.56.56,0,0,1,.77.19.57.57,0,0,1-.19.77A5.9,5.9,0,0,1,249.11,192.33Z" transform="translate(-15.72 -85.33)"/><path class="cls-6" d="M273.19,159.36a1.87,1.87,0,0,1-1.35,1,35.9,35.9,0,0,1-.2,4.15c-.69,8.1-2.73,9.52-3.2,7.52a95.78,95.78,0,0,1-.14-11.45,27.85,27.85,0,0,1-3-.37l-1.88-7.87-.66,7.77c-2.82,1-9.4-.59-9.4-.59l-2.2-7.75-1.37,7.46c-4.22,2.06-9.51.68-9.51.68l-1.21-8-2.8,8s-9,3.24-9.12,0c-.06-1.88,1.32-7.18,2.48-11.29a17,17,0,0,1,8.2-10.4c11.18-6,23-2.81,27.07-.38C273.55,143,273.19,159.36,273.19,159.36Z" transform="translate(-15.72 -85.33)"/><path class="cls-6" d="M232.16,143s-7.43,8.83-9.87,24.6-5.82,27.42,3.68,32.63c10.29,5.64,9.39-5.92,9.25-9.06s-8.9-11.73-3.06-35.92C234,147.47,232.16,143,232.16,143Z" transform="translate(-15.72 -85.33)"/><path class="cls-7" d="M230.42,175.62v0c0,.11,0,.74.06,1.72,0,.61.06,1.35.12,2.19.34,5.32,1.38,14.49,4.41,17.68,1.2,1.25,3.51,1.89,6.23,2.14V195.2a16.55,16.55,0,0,1-6.83-6.35,39,39,0,0,1-3.78-11.66Z" transform="translate(-15.72 -85.33)"/><path class="cls-11" d="M271.07,180.78a1.32,1.32,0,1,1-1.31-1.31A1.31,1.31,0,0,1,271.07,180.78Z" transform="translate(-15.72 -85.33)"/><path class="cls-3" d="M297.83,279.7c-3.72,10.65-20.38,9.88-39.35,4.05l-.08,0-.18-.06-2.61-.83-1.08-.36q-3.06-1-6.17-2.21a208.69,208.69,0,0,1-20.05-8.88l0-.11,1.94-5,.66-1.72s35.18,3.84,52.86.14l.88-.19a10.56,10.56,0,0,0-.2-1.17c-9.37-31.9.87-38,4.3-42.47C288.79,220.83,304.85,259.6,297.83,279.7Z" transform="translate(-15.72 -85.33)"/><path class="cls-4" d="M292.1,269.83a.78.78,0,0,1-.33.07.73.73,0,0,1-.67-.42c-1.34-2.74-5.89-4.37-7.29-4.82l.88-.19c-.07-.4-.14-.79-.2-1.17,1.77.59,6.42,2.38,7.95,5.53A.74.74,0,0,1,292.1,269.83Z" transform="translate(-15.72 -85.33)"/><path class="cls-4" d="M242.84,268.49c-7.18,0-13-.41-13.52-.45a.75.75,0,1,1,.11-1.49c.27,0,26.65,1.88,37.05-2.34a.76.76,0,0,1,1,.42.75.75,0,0,1-.41,1C261.29,267.94,251.16,268.49,242.84,268.49Z" transform="translate(-15.72 -85.33)"/><path class="cls-4" d="M255.61,282.84h0c6-1.66,11.5-3.28,14.65-4.29,4.39-1.41,8-5.84,9.67-9.61a.75.75,0,0,1,1.38.6c-1.79,4.08-5.75,8.89-10.59,10.44-2.29.74-5.79,1.79-9.84,2.94a9.1,9.1,0,0,1-5.27-.08Z" transform="translate(-15.72 -85.33)"/><path class="cls-3" d="M271.84,277.68C217.48,296,200.76,284,200.76,284c-3.66-33.09,9.82-62.85,9.82-62.85,4,6.57,8.49,18,8.49,18l1.19,25.36-.09.71,0,.33-.22,1.73v0l.35.07c16.44,3.47,46.51-.4,46.51-.4Z" transform="translate(-15.72 -85.33)"/><path class="cls-4" d="M220.25,267.44A54,54,0,0,0,212,276a.75.75,0,1,1-1.19-.91h0a55,55,0,0,1,9.28-9.49l-.22,1.73v0Z" transform="translate(-15.72 -85.33)"/><path class="cls-10" d="M266.76,267s6-13.67,15.17-12.46l2.76,9.89c-5,2.12-5.74,10.71-12.85,13.21Z" transform="translate(-15.72 -85.33)"/><path class="cls-10" d="M231,264.52a21.75,21.75,0,0,0-13.8-11.5c-10-2.59-16.37,2.12-17,3.9s3.77.08,3.77.08a8.65,8.65,0,0,0-4.55,3.53c-1.66,2.72,4-.21,4-.21s-4.09,1.79-4.61,3.45,4.87-1.14,5.88-1.09c0,0-4.81,1.91-4.78,3.63s5.53-1.08,9.64-.86a64.84,64.84,0,0,1,10.4,1.92,69.73,69.73,0,0,0,9.48,1.25Z" transform="translate(-15.72 -85.33)"/><path class="cls-3" d="M327.54,125.83a6.72,6.72,0,1,1,6.71-6.71A6.72,6.72,0,0,1,327.54,125.83Zm0-11.32a4.61,4.61,0,1,0,4.6,4.61A4.61,4.61,0,0,0,327.54,114.51Z" transform="translate(-15.72 -85.33)"/><path class="cls-3" d="M386.11,114.42a6.71,6.71,0,1,1,6.71-6.71A6.72,6.72,0,0,1,386.11,114.42Zm0-11.32a4.61,4.61,0,1,0,4.61,4.61A4.62,4.62,0,0,0,386.11,103.1Z" transform="translate(-15.72 -85.33)"/><path class="cls-2" d="M394.41,136.24a1.05,1.05,0,0,1-1.06-1.05v-4.65a1.06,1.06,0,0,1,2.11,0v4.65A1,1,0,0,1,394.41,136.24Z" transform="translate(-15.72 -85.33)"/><path class="cls-2" d="M394.41,144.37a1.05,1.05,0,0,1-1.06-1.05v-4.65a1.06,1.06,0,0,1,2.11,0v4.65A1,1,0,0,1,394.41,144.37Z" transform="translate(-15.72 -85.33)"/><path class="cls-2" d="M400.92,138h-4.17a1,1,0,0,1,0-2.1h4.17a1.05,1.05,0,1,1,0,2.1Z" transform="translate(-15.72 -85.33)"/><path class="cls-2" d="M392.06,138h-4.17a1.05,1.05,0,1,1,0-2.1h4.17a1.05,1.05,0,0,1,0,2.1Z" transform="translate(-15.72 -85.33)"/><path class="cls-2" d="M358.94,108.11a1.05,1.05,0,0,1-1.05-1.06v-4.64a1.06,1.06,0,0,1,2.11,0v4.64A1.06,1.06,0,0,1,358.94,108.11Z" transform="translate(-15.72 -85.33)"/><path class="cls-2" d="M358.94,116.23a1,1,0,0,1-1.05-1v-4.64a1.06,1.06,0,1,1,2.11,0v4.64A1.06,1.06,0,0,1,358.94,116.23Z" transform="translate(-15.72 -85.33)"/><path class="cls-2" d="M365.46,109.85h-4.17a1.06,1.06,0,0,1,0-2.11h4.17a1.06,1.06,0,1,1,0,2.11Z" transform="translate(-15.72 -85.33)"/><path class="cls-2" d="M356.6,109.85h-4.18a1.06,1.06,0,0,1,0-2.11h4.18a1.06,1.06,0,0,1,0,2.11Z" transform="translate(-15.72 -85.33)"/><path class="cls-2" d="M87.57,102.08a6.72,6.72,0,1,1,6.71,6.72A6.72,6.72,0,0,1,87.57,102.08Zm2.1,0a4.61,4.61,0,1,0,4.61-4.61A4.62,4.62,0,0,0,89.67,102.08Z" transform="translate(-15.72 -85.33)"/><path class="cls-3" d="M60.61,127.67a6.71,6.71,0,1,1,6.71,6.72A6.72,6.72,0,0,1,60.61,127.67Zm2.1,0a4.61,4.61,0,1,0,4.61-4.61A4.62,4.62,0,0,0,62.71,127.67Z" transform="translate(-15.72 -85.33)"/><path class="cls-3" d="M46.65,137.09A1,1,0,0,0,47.7,136V131.4a1.05,1.05,0,1,0-2.1,0V136A1,1,0,0,0,46.65,137.09Z" transform="translate(-15.72 -85.33)"/><path class="cls-3" d="M46.65,145.22a1,1,0,0,0,1.05-1.05v-4.65a1.05,1.05,0,1,0-2.1,0v4.65A1,1,0,0,0,46.65,145.22Z" transform="translate(-15.72 -85.33)"/><path class="cls-3" d="M40.13,138.84H44.3a1.06,1.06,0,0,0,0-2.11H40.13a1.06,1.06,0,0,0,0,2.11Z" transform="translate(-15.72 -85.33)"/><path class="cls-3" d="M49,138.84h4.17a1.06,1.06,0,0,0,0-2.11H49a1.06,1.06,0,1,0,0,2.11Z" transform="translate(-15.72 -85.33)"/><path class="cls-2" d="M70.91,101.39a1.05,1.05,0,0,0,1.06-1V95.7a1.06,1.06,0,1,0-2.11,0v4.64A1,1,0,0,0,70.91,101.39Z" transform="translate(-15.72 -85.33)"/><path class="cls-2" d="M70.91,109.52a1.05,1.05,0,0,0,1.06-1v-4.65a1.06,1.06,0,0,0-2.11,0v4.65A1,1,0,0,0,70.91,109.52Z" transform="translate(-15.72 -85.33)"/><path class="cls-2" d="M64.4,103.13h4.17a1,1,0,1,0,0-2.1H64.4a1.05,1.05,0,1,0,0,2.1Z" transform="translate(-15.72 -85.33)"/><path class="cls-2" d="M73.26,103.13h4.17a1.05,1.05,0,1,0,0-2.1H73.26a1.05,1.05,0,0,0,0,2.1Z" transform="translate(-15.72 -85.33)"/><path class="cls-1" d="M271.69,102.56a.68.68,0,0,1-.37,0c-1.28-.54-2-.79-2-.79a.75.75,0,1,1,.47-1.42s.8.27,2.14.83a.75.75,0,0,1,.4,1A.73.73,0,0,1,271.69,102.56Z" transform="translate(-15.72 -85.33)"/><path class="cls-1" d="M309.8,142.67c.51,1.36,1,2.76,1.42,4.16a.75.75,0,0,0,.79.53l.14,0a.75.75,0,0,0,.49-.94c-.44-1.43-.92-2.86-1.44-4.24a.75.75,0,0,0-1.4.52Z" transform="translate(-15.72 -85.33)"/><path class="cls-1" d="M312.38,151.07c.34,1.4.65,2.85.92,4.3a.74.74,0,0,0,.81.6h.06a.75.75,0,0,0,.6-.88c-.27-1.47-.59-2.94-.94-4.38a.75.75,0,1,0-1.45.36Z" transform="translate(-15.72 -85.33)"/><path class="cls-1" d="M315.53,173.65a.74.74,0,0,0,.67-.73c0-1.5,0-3,0-4.48a.75.75,0,0,0-.77-.72.73.73,0,0,0-.72.77c0,1.44.05,2.93,0,4.41a.73.73,0,0,0,.73.75Z" transform="translate(-15.72 -85.33)"/><path class="cls-1" d="M314.63,158.87a.76.76,0,0,0-.65.84c.09.68.17,1.36.24,2s.16,1.57.22,2.35a.75.75,0,0,0,.8.69h0a.75.75,0,0,0,.67-.8c-.06-.79-.14-1.6-.22-2.39s-.15-1.37-.24-2.06a.75.75,0,0,0-.82-.65Z" transform="translate(-15.72 -85.33)"/><path class="cls-1" d="M308.13,138.61a.76.76,0,0,0,.76.44,1,1,0,0,0,.23-.06.76.76,0,0,0,.38-1c-.61-1.36-1.27-2.72-2-4a.76.76,0,0,0-1-.31.75.75,0,0,0-.32,1C306.89,136,307.53,137.28,308.13,138.61Z" transform="translate(-15.72 -85.33)"/><path class="cls-1" d="M275.29,104.37c1.29.65,2.58,1.37,3.86,2.12a.67.67,0,0,0,.45.1.75.75,0,0,0,.57-.36.76.76,0,0,0-.26-1c-1.3-.76-2.62-1.49-3.94-2.16a.74.74,0,0,0-1,.32A.76.76,0,0,0,275.29,104.37Z" transform="translate(-15.72 -85.33)"/><path class="cls-1" d="M286.44,111.41a.75.75,0,1,0,.9-1.19c-1.18-.9-2.41-1.78-3.64-2.62a.75.75,0,1,0-.84,1.24C284.07,109.66,285.28,110.52,286.44,111.41Z" transform="translate(-15.72 -85.33)"/><path class="cls-1" d="M299,123.65a.76.76,0,0,0,.66.28.79.79,0,0,0,.39-.16.74.74,0,0,0,.12-1c-.93-1.16-1.91-2.31-2.91-3.42a.76.76,0,0,0-1.06,0,.75.75,0,0,0-.05,1.06C297.13,121.39,298.09,122.52,299,123.65Z" transform="translate(-15.72 -85.33)"/><path class="cls-1" d="M293.09,117.15a.78.78,0,0,0,.61.21.74.74,0,0,0,.45-.22.75.75,0,0,0,0-1.06c-1.07-1-2.18-2.06-3.31-3a.75.75,0,1,0-1,1.13C291,115.14,292.05,116.14,293.09,117.15Z" transform="translate(-15.72 -85.33)"/><path class="cls-1" d="M304.05,130.84a.73.73,0,0,0,.71.35.67.67,0,0,0,.31-.1.74.74,0,0,0,.25-1c-.77-1.27-1.6-2.53-2.46-3.75a.75.75,0,1,0-1.22.86C302.48,128.36,303.29,129.6,304.05,130.84Z" transform="translate(-15.72 -85.33)"/><polygon class="cls-17" points="255.95 12.12 259.22 0 219.13 0.34 255.95 12.12"/><polygon class="cls-18" points="219.13 0.34 254 15.05 254.1 15.09 255.6 17.57 255.95 12.12 219.13 0.34"/><polygon class="cls-19" points="255.6 17.57 252.35 17.06 254.1 15.09 255.6 17.57"/><polygon class="cls-17" points="249.71 13.24 254.1 15.09 245.06 25.27 219.13 0.34 249.71 13.24"/><rect class="cls-2" x="29.12" y="323.35" width="411.21" height="15.99" rx="7.63"/><path class="cls-3" d="M456.06,416.31v.37H44.84v-.37a7.64,7.64,0,0,1,7.63-7.63h396A7.64,7.64,0,0,1,456.06,416.31Z" transform="translate(-15.72 -85.33)"/><rect class="cls-6" x="165.55" y="223.5" width="135.15" height="75.84" rx="5.38"/><rect class="cls-7" x="222.66" y="299.26" width="20.93" height="23.86"/><circle class="cls-17" cx="232.89" cy="262.35" r="10.39"/><path class="cls-6" d="M212.44,314.65h40.7a6.65,6.65,0,0,1,6.65,6.65v1.82a0,0,0,0,1,0,0h-54a0,0,0,0,1,0,0V321.3A6.65,6.65,0,0,1,212.44,314.65Z"/></svg>