<?xml version="1.0" encoding="utf-8"?>
<!-- Generator: Adobe Illustrator 23.1.0, SVG Export Plug-In . SVG Version: 6.00 Build 0)  -->
<svg version="1.1" xmlns="http://www.w3.org/2000/svg" xmlns:xlink="http://www.w3.org/1999/xlink" x="0px" y="0px"
	 viewBox="0 0 500 500" style="enable-background:new 0 0 500 500;" xml:space="preserve">
<style type="text/css">
	.st0{fill:#EBEBEB;}
	.st1{fill:#E1E7F4;}
	.st2{fill:#F7F9FF;}
	.st3{fill:#E6E6E6;}
	.st4{fill:#F7F9FF;stroke:#E1E7F4;stroke-width:2;stroke-linecap:round;stroke-linejoin:round;stroke-miterlimit:10;}
	.st5{opacity:0.2;fill:#E1E7F4;enable-background:new    ;}
	.st6{fill:#407BFF;}
	.st7{opacity:0.2;enable-background:new    ;}
	.st8{opacity:0.5;fill:#FFFFFF;enable-background:new    ;}
	.st9{opacity:0.2;fill:#FFFFFF;enable-background:new    ;}
	.st10{fill:#263238;}
	.st11{opacity:0.3;fill:#FFFFFF;enable-background:new    ;}
	.st12{opacity:0.6;fill:#FFFFFF;enable-background:new    ;}
	.st13{fill:#E4897B;}
	.st14{opacity:0.1;enable-background:new    ;}
	.st15{fill:#FFFFFF;}
	.st16{fill:#DE5753;}
	.st17{fill:none;stroke:#263238;stroke-width:0.7247;stroke-linecap:round;stroke-linejoin:round;stroke-miterlimit:10;}
	.st18{fill:none;stroke:#263238;stroke-width:0.5;stroke-linecap:round;stroke-linejoin:round;stroke-miterlimit:10;}
	.st19{opacity:0.4;enable-background:new    ;}
	.st20{opacity:0.7;fill:#FFFFFF;enable-background:new    ;}
	.st21{opacity:0.4;fill:#FFFFFF;enable-background:new    ;}
	.st22{fill:none;stroke:#407BFF;stroke-width:0.75;stroke-linecap:round;stroke-linejoin:round;}
	.st23{fill:none;stroke:#407BFF;stroke-width:0.75;stroke-linecap:round;stroke-linejoin:round;stroke-dasharray:6.0301,6.0301;}
	.st24{opacity:0.1;fill:#FFFFFF;enable-background:new    ;}
</style>
<g id="Background_Complete">
	<g>
		<rect x="0" y="382.4" class="st0" width="500" height="0.3"/>
		<rect x="50.1" y="398.5" class="st0" width="33.1" height="0.3"/>
		<rect x="168.8" y="401.2" class="st0" width="8.7" height="0.3"/>
		<rect x="84.2" y="389.2" class="st0" width="19.2" height="0.3"/>
		<rect x="404.3" y="390.9" class="st0" width="43.2" height="0.3"/>
		<rect x="389.1" y="390.9" class="st0" width="6.3" height="0.3"/>
		<rect x="274.9" y="395.1" class="st0" width="93.7" height="0.3"/>
		<path class="st0" d="M257.3,332.1V60.7c0-3.1,2.6-5.7,5.7-5.7h193.1c3.1,0,5.7,2.6,5.7,5.7v271.4c0,3.1-2.6,5.7-5.7,5.7H263
			C259.8,337.8,257.3,335.2,257.3,332.1z M263,55.2c-3,0-5.5,2.4-5.5,5.5v271.4c0,3,2.4,5.5,5.5,5.5h193.1c3,0,5.5-2.4,5.5-5.5V60.7
			c0-3-2.4-5.5-5.5-5.5H263z"/>
		<path class="st0" d="M41,332.1V60.7c0-3.1,2.6-5.7,5.7-5.7h193.1c3.1,0,5.7,2.6,5.7,5.7v271.4c0,3.1-2.6,5.7-5.7,5.7H46.7
			C43.5,337.8,41,335.2,41,332.1z M46.7,55.2c-3,0-5.5,2.4-5.5,5.5v271.4c0,3,2.4,5.5,5.5,5.5h193.1c3,0,5.5-2.4,5.5-5.5V60.7
			c0-3-2.4-5.5-5.5-5.5H46.7z"/>
	</g>
	<g>
		<g>
			<rect x="54.6" y="117.2" class="st1" width="242.3" height="233.5"/>
			<rect x="54.6" y="121.4" class="st2" width="238.4" height="225.2"/>
			<g>
				<polygon class="st1" points="291.2,292.1 291.2,224.4 284.2,224.4 284.2,215.4 268.3,208 268.3,198.8 265.7,198.8 265.7,224.4 
					263.1,224.4 263.1,292.1 259.5,292.1 259.5,256.9 251.6,256.9 251.6,238.4 249,238.4 249,292.1 242.8,292.1 242.8,271.9 
					238.4,271.9 238.4,266.6 228.7,266.6 228.7,248.1 223.5,248.1 223.5,235.8 217.3,235.8 217.3,217.3 214.7,217.3 214.7,235.8 
					208.5,235.8 208.5,248.1 203.2,248.1 203.2,266.6 193.6,266.6 193.6,271.9 189.2,271.9 189.2,292.1 183.9,292.1 183.9,266.6 
					174.2,266.6 174.2,210.3 171.6,210.3 171.6,204.1 150.4,204.1 150.4,210.3 146,210.3 146,250.7 128.5,250.7 128.5,255.1 
					122.3,255.1 122.3,257.8 128.5,257.8 128.5,273.6 110,273.6 110,220.8 106.5,220.8 106.5,210.3 97.7,210.3 97.7,169.8 95,169.8 
					95,210.3 88.9,210.3 88.9,220.8 54.6,220.8 54.6,346.6 293,346.6 293,292.1 				"/>
				<g>
					<rect x="72.9" y="223.6" class="st2" width="2.5" height="2.5"/>
					<rect x="72.9" y="227.8" class="st2" width="2.5" height="2.5"/>
					<rect x="72.9" y="244.5" class="st2" width="2.5" height="2.5"/>
					<rect x="72.9" y="248.7" class="st2" width="2.5" height="2.5"/>
					<rect x="72.9" y="252.8" class="st2" width="2.5" height="2.5"/>
					<rect x="72.9" y="265.4" class="st2" width="2.5" height="2.5"/>
					<rect x="72.9" y="269.6" class="st2" width="2.5" height="2.5"/>
					<rect x="76.9" y="240.3" class="st2" width="2.5" height="2.5"/>
					<rect x="76.9" y="244.5" class="st2" width="2.5" height="2.5"/>
					<rect x="76.9" y="248.7" class="st2" width="2.5" height="2.5"/>
					<rect x="76.9" y="252.8" class="st2" width="2.5" height="2.5"/>
					<rect x="76.9" y="257" class="st2" width="2.5" height="2.5"/>
					<rect x="76.9" y="265.4" class="st2" width="2.5" height="2.5"/>
					<rect x="76.9" y="269.6" class="st2" width="2.5" height="2.5"/>
					<rect x="80.8" y="223.6" class="st2" width="2.5" height="2.5"/>
					<rect x="80.8" y="227.8" class="st2" width="2.5" height="2.5"/>
					<rect x="80.8" y="231.9" class="st2" width="2.5" height="2.5"/>
					<rect x="80.8" y="236.1" class="st2" width="2.5" height="2.5"/>
					<rect x="80.8" y="240.3" class="st2" width="2.5" height="2.5"/>
					<rect x="80.8" y="244.5" class="st2" width="2.5" height="2.5"/>
					<rect x="80.8" y="248.7" class="st2" width="2.5" height="2.5"/>
					<rect x="80.8" y="252.8" class="st2" width="2.5" height="2.5"/>
					<rect x="80.8" y="257" class="st2" width="2.5" height="2.5"/>
					<rect x="80.8" y="261.2" class="st2" width="2.5" height="2.5"/>
					<rect x="80.8" y="269.6" class="st2" width="2.5" height="2.5"/>
					<rect x="84.8" y="223.6" class="st2" width="2.5" height="2.5"/>
					<rect x="84.8" y="227.8" class="st2" width="2.5" height="2.5"/>
					<rect x="84.8" y="231.9" class="st2" width="2.5" height="2.5"/>
					<rect x="84.8" y="236.1" class="st2" width="2.5" height="2.5"/>
					<rect x="84.8" y="240.3" class="st2" width="2.5" height="2.5"/>
					<rect x="84.8" y="244.5" class="st2" width="2.5" height="2.5"/>
					<rect x="84.8" y="248.7" class="st2" width="2.5" height="2.5"/>
					<rect x="84.8" y="286.3" class="st2" width="2.5" height="2.5"/>
					<rect x="88.7" y="223.6" class="st2" width="2.5" height="2.5"/>
					<rect x="88.7" y="227.8" class="st2" width="2.5" height="2.5"/>
					<rect x="88.7" y="231.9" class="st2" width="2.5" height="2.5"/>
					<rect x="88.7" y="236.1" class="st2" width="2.5" height="2.5"/>
					<rect x="88.7" y="240.3" class="st2" width="2.5" height="2.5"/>
					<rect x="88.7" y="244.5" class="st2" width="2.5" height="2.5"/>
					<rect x="88.7" y="248.7" class="st2" width="2.5" height="2.5"/>
					<rect x="88.7" y="252.8" class="st2" width="2.5" height="2.5"/>
					<rect x="88.7" y="277.9" class="st2" width="2.5" height="2.5"/>
					<rect x="88.7" y="282.1" class="st2" width="2.5" height="2.5"/>
					<rect x="88.7" y="286.3" class="st2" width="2.5" height="2.5"/>
					<rect x="88.7" y="290.5" class="st2" width="2.5" height="2.5"/>
					<rect x="88.7" y="307.2" class="st2" width="2.5" height="2.5"/>
					<rect x="92.7" y="223.6" class="st2" width="2.5" height="2.5"/>
					<rect x="92.7" y="227.8" class="st2" width="2.5" height="2.5"/>
					<rect x="92.7" y="231.9" class="st2" width="2.5" height="2.5"/>
					<rect x="92.7" y="236.1" class="st2" width="2.5" height="2.5"/>
					<rect x="92.7" y="240.3" class="st2" width="2.5" height="2.5"/>
					<rect x="92.7" y="244.5" class="st2" width="2.5" height="2.5"/>
					<rect x="92.7" y="248.7" class="st2" width="2.5" height="2.5"/>
					<rect x="92.7" y="252.8" class="st2" width="2.5" height="2.5"/>
					<rect x="92.7" y="257" class="st2" width="2.5" height="2.5"/>
					<rect x="92.7" y="261.2" class="st2" width="2.5" height="2.5"/>
					<rect x="92.7" y="273.7" class="st2" width="2.5" height="2.5"/>
					<rect x="92.7" y="277.9" class="st2" width="2.5" height="2.5"/>
					<rect x="92.7" y="282.1" class="st2" width="2.5" height="2.5"/>
					<rect x="92.7" y="286.3" class="st2" width="2.5" height="2.5"/>
					<rect x="92.7" y="290.5" class="st2" width="2.5" height="2.5"/>
					<rect x="92.7" y="307.2" class="st2" width="2.5" height="2.5"/>
					<rect x="96.7" y="223.6" class="st2" width="2.5" height="2.5"/>
					<rect x="96.7" y="227.8" class="st2" width="2.5" height="2.5"/>
					<rect x="96.7" y="231.9" class="st2" width="2.5" height="2.5"/>
					<rect x="96.7" y="236.1" class="st2" width="2.5" height="2.5"/>
					<rect x="96.7" y="240.3" class="st2" width="2.5" height="2.5"/>
					<rect x="96.7" y="244.5" class="st2" width="2.5" height="2.5"/>
					<rect x="96.7" y="248.7" class="st2" width="2.5" height="2.5"/>
					<rect x="96.7" y="252.8" class="st2" width="2.5" height="2.5"/>
					<rect x="96.7" y="257" class="st2" width="2.5" height="2.5"/>
					<rect x="96.7" y="261.2" class="st2" width="2.5" height="2.5"/>
					<rect x="96.7" y="265.4" class="st2" width="2.5" height="2.5"/>
					<rect x="96.7" y="269.6" class="st2" width="2.5" height="2.5"/>
					<rect x="96.7" y="273.7" class="st2" width="2.5" height="2.5"/>
					<rect x="96.7" y="277.9" class="st2" width="2.5" height="2.5"/>
					<rect x="96.7" y="282.1" class="st2" width="2.5" height="2.5"/>
					<rect x="96.7" y="286.3" class="st2" width="2.5" height="2.5"/>
					<rect x="96.7" y="290.5" class="st2" width="2.5" height="2.5"/>
					<rect x="96.7" y="294.6" class="st2" width="2.5" height="2.5"/>
					<rect x="100.6" y="223.6" class="st2" width="2.5" height="2.5"/>
					<rect x="100.6" y="227.8" class="st2" width="2.5" height="2.5"/>
					<rect x="100.6" y="231.9" class="st2" width="2.5" height="2.5"/>
					<rect x="100.6" y="236.1" class="st2" width="2.5" height="2.5"/>
					<rect x="100.6" y="240.3" class="st2" width="2.5" height="2.5"/>
					<rect x="100.6" y="244.5" class="st2" width="2.5" height="2.5"/>
					<rect x="100.6" y="248.7" class="st2" width="2.5" height="2.5"/>
					<rect x="100.6" y="252.8" class="st2" width="2.5" height="2.5"/>
					<rect x="100.6" y="257" class="st2" width="2.5" height="2.5"/>
					<rect x="100.6" y="261.2" class="st2" width="2.5" height="2.5"/>
					<rect x="100.6" y="273.7" class="st2" width="2.5" height="2.5"/>
					<rect x="100.6" y="277.9" class="st2" width="2.5" height="2.5"/>
					<rect x="100.6" y="282.1" class="st2" width="2.5" height="2.5"/>
					<rect x="100.6" y="286.3" class="st2" width="2.5" height="2.5"/>
					<rect x="104.6" y="223.6" class="st2" width="2.5" height="2.5"/>
					<rect x="104.6" y="227.8" class="st2" width="2.5" height="2.5"/>
					<rect x="104.6" y="231.9" class="st2" width="2.5" height="2.5"/>
					<rect x="104.6" y="236.1" class="st2" width="2.5" height="2.5"/>
					<rect x="104.6" y="240.3" class="st2" width="2.5" height="2.5"/>
					<rect x="104.6" y="244.5" class="st2" width="2.5" height="2.5"/>
					<rect x="104.6" y="248.7" class="st2" width="2.5" height="2.5"/>
					<rect x="104.6" y="252.8" class="st2" width="2.5" height="2.5"/>
					<rect x="104.6" y="257" class="st2" width="2.5" height="2.5"/>
					<rect x="104.6" y="261.2" class="st2" width="2.5" height="2.5"/>
					<rect x="104.6" y="273.7" class="st2" width="2.5" height="2.5"/>
					<rect x="104.6" y="277.9" class="st2" width="2.5" height="2.5"/>
					<rect x="104.6" y="282.1" class="st2" width="2.5" height="2.5"/>
					<rect x="149.1" y="212.7" class="st2" width="2.5" height="2.5"/>
					<rect x="149.1" y="216.9" class="st2" width="2.5" height="2.5"/>
					<rect x="149.1" y="221.1" class="st2" width="2.5" height="2.5"/>
					<rect x="149.1" y="225.3" class="st2" width="2.5" height="2.5"/>
					<rect x="149.1" y="229.5" class="st2" width="2.5" height="2.5"/>
					<rect x="149.1" y="233.6" class="st2" width="2.5" height="2.5"/>
					<rect x="149.1" y="237.8" class="st2" width="2.5" height="2.5"/>
					<rect x="149.1" y="242" class="st2" width="2.5" height="2.5"/>
					<rect x="149.1" y="254.5" class="st2" width="2.5" height="2.5"/>
					<rect x="149.1" y="258.7" class="st2" width="2.5" height="2.5"/>
					<rect x="153.1" y="212.7" class="st2" width="2.5" height="2.5"/>
					<rect x="153.1" y="216.9" class="st2" width="2.5" height="2.5"/>
					<rect x="153.1" y="221.1" class="st2" width="2.5" height="2.5"/>
					<rect x="153.1" y="225.3" class="st2" width="2.5" height="2.5"/>
					<rect x="153.1" y="229.5" class="st2" width="2.5" height="2.5"/>
					<rect x="153.1" y="233.6" class="st2" width="2.5" height="2.5"/>
					<rect x="153.1" y="237.8" class="st2" width="2.5" height="2.5"/>
					<rect x="153.1" y="242" class="st2" width="2.5" height="2.5"/>
					<rect x="153.1" y="258.7" class="st2" width="2.5" height="2.5"/>
					<rect x="157.1" y="212.7" class="st2" width="2.5" height="2.5"/>
					<rect x="157.1" y="216.9" class="st2" width="2.5" height="2.5"/>
					<rect x="157.1" y="221.1" class="st2" width="2.5" height="2.5"/>
					<rect x="157.1" y="225.3" class="st2" width="2.5" height="2.5"/>
					<rect x="157.1" y="229.5" class="st2" width="2.5" height="2.5"/>
					<rect x="157.1" y="233.6" class="st2" width="2.5" height="2.5"/>
					<rect x="157.1" y="237.8" class="st2" width="2.5" height="2.5"/>
					<rect x="157.1" y="242" class="st2" width="2.5" height="2.5"/>
					<rect x="161" y="212.7" class="st2" width="2.5" height="2.5"/>
					<rect x="161" y="216.9" class="st2" width="2.5" height="2.5"/>
					<rect x="161" y="221.1" class="st2" width="2.5" height="2.5"/>
					<rect x="161" y="225.3" class="st2" width="2.5" height="2.5"/>
					<rect x="161" y="229.5" class="st2" width="2.5" height="2.5"/>
					<rect x="161" y="233.6" class="st2" width="2.5" height="2.5"/>
					<rect x="161" y="242" class="st2" width="2.5" height="2.5"/>
					<rect x="161" y="246.2" class="st2" width="2.5" height="2.5"/>
					<rect x="161" y="258.7" class="st2" width="2.5" height="2.5"/>
					<rect x="161" y="262.9" class="st2" width="2.5" height="2.5"/>
					<rect x="161" y="267.1" class="st2" width="2.5" height="2.5"/>
					<rect x="161" y="271.2" class="st2" width="2.5" height="2.5"/>
					<rect x="161" y="275.4" class="st2" width="2.5" height="2.5"/>
					<rect x="161" y="279.6" class="st2" width="2.5" height="2.5"/>
					<rect x="161" y="283.8" class="st2" width="2.5" height="2.5"/>
					<rect x="165" y="212.7" class="st2" width="2.5" height="2.5"/>
					<rect x="165" y="216.9" class="st2" width="2.5" height="2.5"/>
					<rect x="165" y="221.1" class="st2" width="2.5" height="2.5"/>
					<rect x="165" y="225.3" class="st2" width="2.5" height="2.5"/>
					<rect x="165" y="229.5" class="st2" width="2.5" height="2.5"/>
					<rect x="165" y="233.6" class="st2" width="2.5" height="2.5"/>
					<rect x="165" y="246.2" class="st2" width="2.5" height="2.5"/>
					<rect x="165" y="250.4" class="st2" width="2.5" height="2.5"/>
					<rect x="165" y="254.5" class="st2" width="2.5" height="2.5"/>
					<rect x="165" y="258.7" class="st2" width="2.5" height="2.5"/>
					<rect x="165" y="262.9" class="st2" width="2.5" height="2.5"/>
					<rect x="165" y="267.1" class="st2" width="2.5" height="2.5"/>
					<rect x="165" y="271.2" class="st2" width="2.5" height="2.5"/>
					<rect x="165" y="275.4" class="st2" width="2.5" height="2.5"/>
					<rect x="165" y="279.6" class="st2" width="2.5" height="2.5"/>
					<rect x="165" y="283.8" class="st2" width="2.5" height="2.5"/>
					<rect x="165" y="288" class="st2" width="2.5" height="2.5"/>
					<rect x="165" y="296.3" class="st2" width="2.5" height="2.5"/>
					<rect x="168.9" y="212.7" class="st2" width="2.5" height="2.5"/>
					<rect x="168.9" y="216.9" class="st2" width="2.5" height="2.5"/>
					<rect x="168.9" y="221.1" class="st2" width="2.5" height="2.5"/>
					<rect x="168.9" y="225.3" class="st2" width="2.5" height="2.5"/>
					<rect x="168.9" y="229.5" class="st2" width="2.5" height="2.5"/>
					<rect x="168.9" y="233.6" class="st2" width="2.5" height="2.5"/>
					<rect x="168.9" y="246.2" class="st2" width="2.5" height="2.5"/>
					<rect x="168.9" y="250.4" class="st2" width="2.5" height="2.5"/>
					<rect x="168.9" y="254.5" class="st2" width="2.5" height="2.5"/>
					<rect x="168.9" y="258.7" class="st2" width="2.5" height="2.5"/>
					<rect x="168.9" y="271.2" class="st2" width="2.5" height="2.5"/>
					<rect x="168.9" y="275.4" class="st2" width="2.5" height="2.5"/>
					<rect x="168.9" y="279.6" class="st2" width="2.5" height="2.5"/>
					<rect x="168.9" y="283.8" class="st2" width="2.5" height="2.5"/>
					<rect x="168.9" y="288" class="st2" width="2.5" height="2.5"/>
					<rect x="168.9" y="296.3" class="st2" width="2.5" height="2.5"/>
					<rect x="168.9" y="300.5" class="st2" width="2.5" height="2.5"/>
					<rect x="204.9" y="251.6" class="st2" width="2.5" height="2.5"/>
					<rect x="204.9" y="255.8" class="st2" width="2.5" height="2.5"/>
					<rect x="204.9" y="260" class="st2" width="2.5" height="2.5"/>
					<rect x="204.9" y="264.1" class="st2" width="2.5" height="2.5"/>
					<rect x="204.9" y="268.3" class="st2" width="2.5" height="2.5"/>
					<rect x="204.9" y="272.5" class="st2" width="2.5" height="2.5"/>
					<rect x="204.9" y="276.7" class="st2" width="2.5" height="2.5"/>
					<rect x="204.9" y="289.2" class="st2" width="2.5" height="2.5"/>
					<rect x="204.9" y="293.4" class="st2" width="2.5" height="2.5"/>
					<rect x="204.9" y="297.6" class="st2" width="2.5" height="2.5"/>
					<rect x="208.8" y="251.6" class="st2" width="2.5" height="2.5"/>
					<rect x="208.8" y="255.8" class="st2" width="2.5" height="2.5"/>
					<rect x="208.8" y="260" class="st2" width="2.5" height="2.5"/>
					<rect x="208.8" y="264.1" class="st2" width="2.5" height="2.5"/>
					<rect x="208.8" y="268.3" class="st2" width="2.5" height="2.5"/>
					<rect x="208.8" y="272.5" class="st2" width="2.5" height="2.5"/>
					<rect x="208.8" y="276.7" class="st2" width="2.5" height="2.5"/>
					<rect x="212.8" y="251.6" class="st2" width="2.5" height="2.5"/>
					<rect x="212.8" y="255.8" class="st2" width="2.5" height="2.5"/>
					<rect x="212.8" y="260" class="st2" width="2.5" height="2.5"/>
					<rect x="212.8" y="264.1" class="st2" width="2.5" height="2.5"/>
					<rect x="212.8" y="268.3" class="st2" width="2.5" height="2.5"/>
					<rect x="212.8" y="272.5" class="st2" width="2.5" height="2.5"/>
					<rect x="212.8" y="276.7" class="st2" width="2.5" height="2.5"/>
					<rect x="216.7" y="251.6" class="st2" width="2.5" height="2.5"/>
					<rect x="216.7" y="255.8" class="st2" width="2.5" height="2.5"/>
					<rect x="216.7" y="260" class="st2" width="2.5" height="2.5"/>
					<rect x="216.7" y="264.1" class="st2" width="2.5" height="2.5"/>
					<rect x="216.7" y="268.3" class="st2" width="2.5" height="2.5"/>
					<rect x="216.7" y="272.5" class="st2" width="2.5" height="2.5"/>
					<rect x="216.7" y="276.7" class="st2" width="2.5" height="2.5"/>
					<rect x="216.7" y="280.9" class="st2" width="2.5" height="2.5"/>
					<rect x="216.7" y="285" class="st2" width="2.5" height="2.5"/>
					<rect x="216.7" y="289.2" class="st2" width="2.5" height="2.5"/>
					<rect x="216.7" y="293.4" class="st2" width="2.5" height="2.5"/>
					<rect x="220.7" y="251.6" class="st2" width="2.5" height="2.5"/>
					<rect x="220.7" y="255.8" class="st2" width="2.5" height="2.5"/>
					<rect x="220.7" y="260" class="st2" width="2.5" height="2.5"/>
					<rect x="220.7" y="264.1" class="st2" width="2.5" height="2.5"/>
					<rect x="220.7" y="268.3" class="st2" width="2.5" height="2.5"/>
					<rect x="220.7" y="272.5" class="st2" width="2.5" height="2.5"/>
					<rect x="220.7" y="276.7" class="st2" width="2.5" height="2.5"/>
					<rect x="220.7" y="280.9" class="st2" width="2.5" height="2.5"/>
					<rect x="220.7" y="285" class="st2" width="2.5" height="2.5"/>
					<rect x="220.7" y="289.2" class="st2" width="2.5" height="2.5"/>
					<rect x="220.7" y="293.4" class="st2" width="2.5" height="2.5"/>
					<rect x="220.7" y="297.6" class="st2" width="2.5" height="2.5"/>
					<rect x="220.7" y="310.1" class="st2" width="2.5" height="2.5"/>
					<rect x="220.7" y="314.3" class="st2" width="2.5" height="2.5"/>
					<rect x="224.7" y="251.6" class="st2" width="2.5" height="2.5"/>
					<rect x="224.7" y="255.8" class="st2" width="2.5" height="2.5"/>
					<rect x="224.7" y="260" class="st2" width="2.5" height="2.5"/>
					<rect x="224.7" y="272.5" class="st2" width="2.5" height="2.5"/>
					<rect x="224.7" y="276.7" class="st2" width="2.5" height="2.5"/>
					<rect x="224.7" y="280.9" class="st2" width="2.5" height="2.5"/>
					<rect x="224.7" y="285" class="st2" width="2.5" height="2.5"/>
					<rect x="224.7" y="289.2" class="st2" width="2.5" height="2.5"/>
					<rect x="224.7" y="293.4" class="st2" width="2.5" height="2.5"/>
					<rect x="224.7" y="297.6" class="st2" width="2.5" height="2.5"/>
					<rect x="224.7" y="310.1" class="st2" width="2.5" height="2.5"/>
					<rect x="224.7" y="314.3" class="st2" width="2.5" height="2.5"/>
					<rect x="224.7" y="318.5" class="st2" width="2.5" height="2.5"/>
					<rect x="266.2" y="226.5" class="st2" width="2.5" height="2.5"/>
					<rect x="266.2" y="230.7" class="st2" width="2.5" height="2.5"/>
					<rect x="266.2" y="234.9" class="st2" width="2.5" height="2.5"/>
					<rect x="266.2" y="239.1" class="st2" width="2.5" height="2.5"/>
					<rect x="266.2" y="243.2" class="st2" width="2.5" height="2.5"/>
					<rect x="266.2" y="247.4" class="st2" width="2.5" height="2.5"/>
					<rect x="266.2" y="251.6" class="st2" width="2.5" height="2.5"/>
					<rect x="266.2" y="255.8" class="st2" width="2.5" height="2.5"/>
					<rect x="266.2" y="260" class="st2" width="2.5" height="2.5"/>
					<rect x="266.2" y="264.1" class="st2" width="2.5" height="2.5"/>
					<rect x="266.2" y="268.3" class="st2" width="2.5" height="2.5"/>
					<rect x="266.2" y="272.5" class="st2" width="2.5" height="2.5"/>
					<rect x="266.2" y="276.7" class="st2" width="2.5" height="2.5"/>
					<rect x="266.2" y="280.9" class="st2" width="2.5" height="2.5"/>
					<rect x="266.2" y="285" class="st2" width="2.5" height="2.5"/>
					<rect x="266.2" y="289.2" class="st2" width="2.5" height="2.5"/>
					<rect x="266.2" y="293.4" class="st2" width="2.5" height="2.5"/>
					<rect x="266.2" y="297.6" class="st2" width="2.5" height="2.5"/>
					<rect x="266.2" y="301.7" class="st2" width="2.5" height="2.5"/>
					<rect x="266.2" y="305.9" class="st2" width="2.5" height="2.5"/>
					<rect x="266.2" y="310.1" class="st2" width="2.5" height="2.5"/>
					<rect x="266.2" y="314.3" class="st2" width="2.5" height="2.5"/>
					<rect x="266.2" y="318.5" class="st2" width="2.5" height="2.5"/>
					<rect x="270.1" y="226.5" class="st2" width="2.5" height="2.5"/>
					<rect x="270.1" y="230.7" class="st2" width="2.5" height="2.5"/>
					<rect x="270.1" y="234.9" class="st2" width="2.5" height="2.5"/>
					<rect x="270.1" y="239.1" class="st2" width="2.5" height="2.5"/>
					<rect x="270.1" y="243.2" class="st2" width="2.5" height="2.5"/>
					<rect x="270.1" y="247.4" class="st2" width="2.5" height="2.5"/>
					<rect x="270.1" y="251.6" class="st2" width="2.5" height="2.5"/>
					<rect x="270.1" y="255.8" class="st2" width="2.5" height="2.5"/>
					<rect x="270.1" y="260" class="st2" width="2.5" height="2.5"/>
					<rect x="270.1" y="264.1" class="st2" width="2.5" height="2.5"/>
					<rect x="270.1" y="268.3" class="st2" width="2.5" height="2.5"/>
					<rect x="270.1" y="272.5" class="st2" width="2.5" height="2.5"/>
					<rect x="270.1" y="276.7" class="st2" width="2.5" height="2.5"/>
					<rect x="270.1" y="280.9" class="st2" width="2.5" height="2.5"/>
					<rect x="270.1" y="285" class="st2" width="2.5" height="2.5"/>
					<rect x="270.1" y="289.2" class="st2" width="2.5" height="2.5"/>
					<rect x="270.1" y="293.4" class="st2" width="2.5" height="2.5"/>
					<rect x="270.1" y="297.6" class="st2" width="2.5" height="2.5"/>
					<rect x="270.1" y="301.7" class="st2" width="2.5" height="2.5"/>
					<rect x="274.1" y="226.5" class="st2" width="2.5" height="2.5"/>
					<rect x="274.1" y="230.7" class="st2" width="2.5" height="2.5"/>
					<rect x="274.1" y="234.9" class="st2" width="2.5" height="2.5"/>
					<rect x="274.1" y="239.1" class="st2" width="2.5" height="2.5"/>
					<rect x="274.1" y="243.2" class="st2" width="2.5" height="2.5"/>
					<rect x="274.1" y="247.4" class="st2" width="2.5" height="2.5"/>
					<rect x="274.1" y="251.6" class="st2" width="2.5" height="2.5"/>
					<rect x="274.1" y="255.8" class="st2" width="2.5" height="2.5"/>
					<rect x="274.1" y="260" class="st2" width="2.5" height="2.5"/>
					<rect x="274.1" y="264.1" class="st2" width="2.5" height="2.5"/>
					<rect x="274.1" y="268.3" class="st2" width="2.5" height="2.5"/>
					<rect x="274.1" y="272.5" class="st2" width="2.5" height="2.5"/>
					<rect x="274.1" y="276.7" class="st2" width="2.5" height="2.5"/>
					<rect x="274.1" y="280.9" class="st2" width="2.5" height="2.5"/>
					<rect x="274.1" y="285" class="st2" width="2.5" height="2.5"/>
					<rect x="274.1" y="289.2" class="st2" width="2.5" height="2.5"/>
					<rect x="274.1" y="293.4" class="st2" width="2.5" height="2.5"/>
					<rect x="274.1" y="297.6" class="st2" width="2.5" height="2.5"/>
					<rect x="274.1" y="301.7" class="st2" width="2.5" height="2.5"/>
					<rect x="278" y="226.5" class="st2" width="2.5" height="2.5"/>
					<rect x="278" y="230.7" class="st2" width="2.5" height="2.5"/>
					<rect x="278" y="234.9" class="st2" width="2.5" height="2.5"/>
					<rect x="278" y="239.1" class="st2" width="2.5" height="2.5"/>
					<rect x="278" y="243.2" class="st2" width="2.5" height="2.5"/>
					<rect x="278" y="247.4" class="st2" width="2.5" height="2.5"/>
					<rect x="278" y="251.6" class="st2" width="2.5" height="2.5"/>
					<rect x="278" y="255.8" class="st2" width="2.5" height="2.5"/>
					<rect x="278" y="260" class="st2" width="2.5" height="2.5"/>
					<rect x="278" y="264.1" class="st2" width="2.5" height="2.5"/>
					<rect x="278" y="268.3" class="st2" width="2.5" height="2.5"/>
					<rect x="278" y="272.5" class="st2" width="2.5" height="2.5"/>
					<rect x="278" y="276.7" class="st2" width="2.5" height="2.5"/>
					<rect x="278" y="280.9" class="st2" width="2.5" height="2.5"/>
					<rect x="278" y="285" class="st2" width="2.5" height="2.5"/>
					<rect x="282" y="226.5" class="st2" width="2.5" height="2.5"/>
					<rect x="282" y="230.7" class="st2" width="2.5" height="2.5"/>
					<rect x="282" y="234.9" class="st2" width="2.5" height="2.5"/>
					<rect x="282" y="239.1" class="st2" width="2.5" height="2.5"/>
					<rect x="282" y="243.2" class="st2" width="2.5" height="2.5"/>
					<rect x="282" y="247.4" class="st2" width="2.5" height="2.5"/>
					<rect x="282" y="251.6" class="st2" width="2.5" height="2.5"/>
					<rect x="282" y="255.8" class="st2" width="2.5" height="2.5"/>
					<rect x="282" y="260" class="st2" width="2.5" height="2.5"/>
					<rect x="282" y="264.1" class="st2" width="2.5" height="2.5"/>
					<rect x="282" y="268.3" class="st2" width="2.5" height="2.5"/>
					<rect x="282" y="272.5" class="st2" width="2.5" height="2.5"/>
					<rect x="282" y="276.7" class="st2" width="2.5" height="2.5"/>
					<rect x="286" y="226.5" class="st2" width="2.5" height="2.5"/>
					<rect x="286" y="230.7" class="st2" width="2.5" height="2.5"/>
					<rect x="286" y="234.9" class="st2" width="2.5" height="2.5"/>
					<rect x="286" y="239.1" class="st2" width="2.5" height="2.5"/>
					<rect x="286" y="243.2" class="st2" width="2.5" height="2.5"/>
					<rect x="286" y="247.4" class="st2" width="2.5" height="2.5"/>
					<rect x="286" y="251.6" class="st2" width="2.5" height="2.5"/>
					<rect x="286" y="255.8" class="st2" width="2.5" height="2.5"/>
					<rect x="286" y="260" class="st2" width="2.5" height="2.5"/>
					<rect x="286" y="264.1" class="st2" width="2.5" height="2.5"/>
					<rect x="286" y="268.3" class="st2" width="2.5" height="2.5"/>
					<rect x="286" y="272.5" class="st2" width="2.5" height="2.5"/>
					<rect x="54.9" y="225.3" class="st2" width="2.5" height="2.5"/>
					<rect x="54.9" y="229.5" class="st2" width="2.5" height="2.5"/>
					<rect x="54.9" y="233.6" class="st2" width="2.5" height="2.5"/>
					<rect x="54.9" y="237.8" class="st2" width="2.5" height="2.5"/>
					<rect x="54.9" y="242" class="st2" width="2.5" height="2.5"/>
					<rect x="54.9" y="246.2" class="st2" width="2.5" height="2.5"/>
					<rect x="54.9" y="250.4" class="st2" width="2.5" height="2.5"/>
					<rect x="54.9" y="254.5" class="st2" width="2.5" height="2.5"/>
					<rect x="54.9" y="258.7" class="st2" width="2.5" height="2.5"/>
					<rect x="54.9" y="262.9" class="st2" width="2.5" height="2.5"/>
					<rect x="54.9" y="267.1" class="st2" width="2.5" height="2.5"/>
					<rect x="54.9" y="271.2" class="st2" width="2.5" height="2.5"/>
					<rect x="54.9" y="275.4" class="st2" width="2.5" height="2.5"/>
					<rect x="54.9" y="279.6" class="st2" width="2.5" height="2.5"/>
					<rect x="54.9" y="283.8" class="st2" width="2.5" height="2.5"/>
					<rect x="54.9" y="288" class="st2" width="2.5" height="2.5"/>
					<rect x="54.9" y="292.1" class="st2" width="2.5" height="2.5"/>
					<rect x="54.9" y="300.5" class="st2" width="2.5" height="2.5"/>
					<rect x="54.9" y="304.7" class="st2" width="2.5" height="2.5"/>
					<rect x="54.9" y="308.9" class="st2" width="2.5" height="2.5"/>
					<rect x="54.9" y="313" class="st2" width="2.5" height="2.5"/>
					<rect x="54.9" y="317.2" class="st2" width="2.5" height="2.5"/>
					<rect x="58.8" y="225.3" class="st2" width="2.5" height="2.5"/>
					<rect x="58.8" y="229.5" class="st2" width="2.5" height="2.5"/>
					<rect x="58.8" y="233.6" class="st2" width="2.5" height="2.5"/>
					<rect x="58.8" y="237.8" class="st2" width="2.5" height="2.5"/>
					<rect x="58.8" y="242" class="st2" width="2.5" height="2.5"/>
					<rect x="58.8" y="246.2" class="st2" width="2.5" height="2.5"/>
					<rect x="58.8" y="250.4" class="st2" width="2.5" height="2.5"/>
					<rect x="58.8" y="254.5" class="st2" width="2.5" height="2.5"/>
					<rect x="58.8" y="258.7" class="st2" width="2.5" height="2.5"/>
					<rect x="58.8" y="262.9" class="st2" width="2.5" height="2.5"/>
					<rect x="58.8" y="267.1" class="st2" width="2.5" height="2.5"/>
					<rect x="58.8" y="271.2" class="st2" width="2.5" height="2.5"/>
					<rect x="58.8" y="275.4" class="st2" width="2.5" height="2.5"/>
					<rect x="58.8" y="279.6" class="st2" width="2.5" height="2.5"/>
					<rect x="58.8" y="283.8" class="st2" width="2.5" height="2.5"/>
					<rect x="58.8" y="288" class="st2" width="2.5" height="2.5"/>
					<rect x="58.8" y="313" class="st2" width="2.5" height="2.5"/>
					<rect x="58.8" y="317.2" class="st2" width="2.5" height="2.5"/>
					<rect x="62.8" y="225.3" class="st2" width="2.5" height="2.5"/>
					<rect x="62.8" y="229.5" class="st2" width="2.5" height="2.5"/>
					<rect x="62.8" y="233.6" class="st2" width="2.5" height="2.5"/>
					<rect x="62.8" y="237.8" class="st2" width="2.5" height="2.5"/>
					<rect x="62.8" y="242" class="st2" width="2.5" height="2.5"/>
					<rect x="62.8" y="246.2" class="st2" width="2.5" height="2.5"/>
					<rect x="62.8" y="250.4" class="st2" width="2.5" height="2.5"/>
					<rect x="62.8" y="254.5" class="st2" width="2.5" height="2.5"/>
					<rect x="62.8" y="258.7" class="st2" width="2.5" height="2.5"/>
					<rect x="62.8" y="262.9" class="st2" width="2.5" height="2.5"/>
					<rect x="62.8" y="267.1" class="st2" width="2.5" height="2.5"/>
					<rect x="62.8" y="271.2" class="st2" width="2.5" height="2.5"/>
					<rect x="62.8" y="275.4" class="st2" width="2.5" height="2.5"/>
					<rect x="62.8" y="279.6" class="st2" width="2.5" height="2.5"/>
					<rect x="62.8" y="283.8" class="st2" width="2.5" height="2.5"/>
					<rect x="62.8" y="288" class="st2" width="2.5" height="2.5"/>
					<rect x="62.8" y="296.3" class="st2" width="2.5" height="2.5"/>
					<rect x="62.8" y="300.5" class="st2" width="2.5" height="2.5"/>
					<rect x="62.8" y="304.7" class="st2" width="2.5" height="2.5"/>
					<rect x="62.8" y="308.9" class="st2" width="2.5" height="2.5"/>
					<rect x="62.8" y="317.2" class="st2" width="2.5" height="2.5"/>
					<rect x="131.8" y="254.5" class="st2" width="2.5" height="2.5"/>
					<rect x="131.8" y="258.7" class="st2" width="2.5" height="2.5"/>
					<rect x="131.8" y="262.9" class="st2" width="2.5" height="2.5"/>
					<rect x="131.8" y="267.1" class="st2" width="2.5" height="2.5"/>
					<rect x="131.8" y="271.2" class="st2" width="2.5" height="2.5"/>
					<rect x="131.8" y="275.4" class="st2" width="2.5" height="2.5"/>
					<rect x="131.8" y="279.6" class="st2" width="2.5" height="2.5"/>
					<rect x="131.8" y="283.8" class="st2" width="2.5" height="2.5"/>
					<rect x="131.8" y="288" class="st2" width="2.5" height="2.5"/>
					<rect x="131.8" y="292.1" class="st2" width="2.5" height="2.5"/>
					<rect x="131.8" y="296.3" class="st2" width="2.5" height="2.5"/>
					<rect x="131.8" y="300.5" class="st2" width="2.5" height="2.5"/>
					<rect x="131.8" y="304.7" class="st2" width="2.5" height="2.5"/>
					<rect x="131.8" y="313" class="st2" width="2.5" height="2.5"/>
					<rect x="131.8" y="317.2" class="st2" width="2.5" height="2.5"/>
					<rect x="131.8" y="321.4" class="st2" width="2.5" height="2.5"/>
					<rect x="131.8" y="325.6" class="st2" width="2.5" height="2.5"/>
					<rect x="131.8" y="333.9" class="st2" width="2.5" height="2.5"/>
					<rect x="131.8" y="338.1" class="st2" width="2.5" height="2.5"/>
					<rect x="131.8" y="342.3" class="st2" width="2.5" height="2.5"/>
					<rect x="135.8" y="254.5" class="st2" width="2.5" height="2.5"/>
					<rect x="135.8" y="258.7" class="st2" width="2.5" height="2.5"/>
					<rect x="135.8" y="262.9" class="st2" width="2.5" height="2.5"/>
					<rect x="135.8" y="267.1" class="st2" width="2.5" height="2.5"/>
					<rect x="135.8" y="271.2" class="st2" width="2.5" height="2.5"/>
					<rect x="135.8" y="275.4" class="st2" width="2.5" height="2.5"/>
					<rect x="135.8" y="279.6" class="st2" width="2.5" height="2.5"/>
					<rect x="135.8" y="283.8" class="st2" width="2.5" height="2.5"/>
					<rect x="135.8" y="288" class="st2" width="2.5" height="2.5"/>
					<rect x="135.8" y="292.1" class="st2" width="2.5" height="2.5"/>
					<rect x="135.8" y="296.3" class="st2" width="2.5" height="2.5"/>
					<rect x="135.8" y="300.5" class="st2" width="2.5" height="2.5"/>
					<rect x="135.8" y="304.7" class="st2" width="2.5" height="2.5"/>
					<rect x="135.8" y="317.2" class="st2" width="2.5" height="2.5"/>
					<rect x="135.8" y="321.4" class="st2" width="2.5" height="2.5"/>
					<rect x="135.8" y="329.8" class="st2" width="2.5" height="2.5"/>
					<rect x="135.8" y="333.9" class="st2" width="2.5" height="2.5"/>
					<rect x="135.8" y="338.1" class="st2" width="2.5" height="2.5"/>
					<rect x="135.8" y="342.3" class="st2" width="2.5" height="2.5"/>
					<rect x="139.8" y="254.5" class="st2" width="2.5" height="2.5"/>
					<rect x="139.8" y="258.7" class="st2" width="2.5" height="2.5"/>
					<rect x="139.8" y="262.9" class="st2" width="2.5" height="2.5"/>
					<rect x="139.8" y="267.1" class="st2" width="2.5" height="2.5"/>
					<rect x="139.8" y="271.2" class="st2" width="2.5" height="2.5"/>
					<rect x="139.8" y="275.4" class="st2" width="2.5" height="2.5"/>
					<rect x="139.8" y="279.6" class="st2" width="2.5" height="2.5"/>
					<rect x="139.8" y="283.8" class="st2" width="2.5" height="2.5"/>
					<rect x="139.8" y="288" class="st2" width="2.5" height="2.5"/>
					<rect x="139.8" y="292.1" class="st2" width="2.5" height="2.5"/>
					<rect x="139.8" y="296.3" class="st2" width="2.5" height="2.5"/>
					<rect x="139.8" y="300.5" class="st2" width="2.5" height="2.5"/>
					<rect x="139.8" y="304.7" class="st2" width="2.5" height="2.5"/>
					<rect x="139.8" y="308.9" class="st2" width="2.5" height="2.5"/>
					<rect x="139.8" y="317.2" class="st2" width="2.5" height="2.5"/>
					<rect x="139.8" y="325.6" class="st2" width="2.5" height="2.5"/>
					<rect x="139.8" y="329.8" class="st2" width="2.5" height="2.5"/>
					<rect x="139.8" y="333.9" class="st2" width="2.5" height="2.5"/>
					<rect x="139.8" y="338.1" class="st2" width="2.5" height="2.5"/>
					<rect x="139.8" y="342.3" class="st2" width="2.5" height="2.5"/>
					<rect x="115.7" y="278.4" class="st2" width="2.5" height="2.5"/>
					<rect x="115.7" y="282.5" class="st2" width="2.5" height="2.5"/>
					<rect x="115.7" y="286.7" class="st2" width="2.5" height="2.5"/>
					<rect x="115.7" y="290.9" class="st2" width="2.5" height="2.5"/>
					<rect x="115.7" y="295.1" class="st2" width="2.5" height="2.5"/>
					<rect x="115.7" y="299.3" class="st2" width="2.5" height="2.5"/>
					<rect x="115.7" y="311.8" class="st2" width="2.5" height="2.5"/>
					<rect x="115.7" y="316" class="st2" width="2.5" height="2.5"/>
					<rect x="115.7" y="320.1" class="st2" width="2.5" height="2.5"/>
					<rect x="115.7" y="324.3" class="st2" width="2.5" height="2.5"/>
					<rect x="115.7" y="328.5" class="st2" width="2.5" height="2.5"/>
					<rect x="115.7" y="332.7" class="st2" width="2.5" height="2.5"/>
					<rect x="115.7" y="336.9" class="st2" width="2.5" height="2.5"/>
					<rect x="119.7" y="278.4" class="st2" width="2.5" height="2.5"/>
					<rect x="119.7" y="282.5" class="st2" width="2.5" height="2.5"/>
					<rect x="119.7" y="286.7" class="st2" width="2.5" height="2.5"/>
					<rect x="119.7" y="290.9" class="st2" width="2.5" height="2.5"/>
					<rect x="119.7" y="295.1" class="st2" width="2.5" height="2.5"/>
					<rect x="119.7" y="299.3" class="st2" width="2.5" height="2.5"/>
					<rect x="119.7" y="311.8" class="st2" width="2.5" height="2.5"/>
					<rect x="119.7" y="316" class="st2" width="2.5" height="2.5"/>
					<rect x="119.7" y="320.1" class="st2" width="2.5" height="2.5"/>
					<rect x="119.7" y="324.3" class="st2" width="2.5" height="2.5"/>
					<rect x="119.7" y="328.5" class="st2" width="2.5" height="2.5"/>
					<rect x="119.7" y="332.7" class="st2" width="2.5" height="2.5"/>
					<rect x="119.7" y="341" class="st2" width="2.5" height="2.5"/>
					<rect x="251.2" y="260" class="st2" width="2.5" height="2.5"/>
					<rect x="251.2" y="264.1" class="st2" width="2.5" height="2.5"/>
					<rect x="251.2" y="268.3" class="st2" width="2.5" height="2.5"/>
					<rect x="251.2" y="272.5" class="st2" width="2.5" height="2.5"/>
					<rect x="251.2" y="276.7" class="st2" width="2.5" height="2.5"/>
					<rect x="251.2" y="280.9" class="st2" width="2.5" height="2.5"/>
					<rect x="251.2" y="285" class="st2" width="2.5" height="2.5"/>
					<rect x="251.2" y="289.2" class="st2" width="2.5" height="2.5"/>
					<rect x="251.2" y="293.4" class="st2" width="2.5" height="2.5"/>
					<rect x="251.2" y="297.6" class="st2" width="2.5" height="2.5"/>
					<rect x="251.2" y="301.7" class="st2" width="2.5" height="2.5"/>
					<rect x="251.2" y="310.1" class="st2" width="2.5" height="2.5"/>
					<rect x="251.2" y="314.3" class="st2" width="2.5" height="2.5"/>
					<rect x="251.2" y="318.5" class="st2" width="2.5" height="2.5"/>
					<rect x="251.2" y="322.6" class="st2" width="2.5" height="2.5"/>
					<rect x="251.2" y="326.8" class="st2" width="2.5" height="2.5"/>
					<rect x="251.2" y="331" class="st2" width="2.5" height="2.5"/>
					<rect x="251.2" y="335.2" class="st2" width="2.5" height="2.5"/>
					<rect x="251.2" y="339.4" class="st2" width="2.5" height="2.5"/>
					<rect x="255.2" y="260" class="st2" width="2.5" height="2.5"/>
					<rect x="255.2" y="264.1" class="st2" width="2.5" height="2.5"/>
					<rect x="255.2" y="268.3" class="st2" width="2.5" height="2.5"/>
					<rect x="255.2" y="272.5" class="st2" width="2.5" height="2.5"/>
					<rect x="255.2" y="276.7" class="st2" width="2.5" height="2.5"/>
					<rect x="255.2" y="280.9" class="st2" width="2.5" height="2.5"/>
					<rect x="255.2" y="285" class="st2" width="2.5" height="2.5"/>
					<rect x="255.2" y="289.2" class="st2" width="2.5" height="2.5"/>
					<rect x="255.2" y="293.4" class="st2" width="2.5" height="2.5"/>
					<rect x="255.2" y="297.6" class="st2" width="2.5" height="2.5"/>
					<rect x="255.2" y="301.7" class="st2" width="2.5" height="2.5"/>
					<rect x="255.2" y="305.9" class="st2" width="2.5" height="2.5"/>
					<rect x="255.2" y="310.1" class="st2" width="2.5" height="2.5"/>
					<rect x="255.2" y="314.3" class="st2" width="2.5" height="2.5"/>
					<rect x="255.2" y="318.5" class="st2" width="2.5" height="2.5"/>
					<rect x="255.2" y="322.6" class="st2" width="2.5" height="2.5"/>
					<rect x="255.2" y="326.8" class="st2" width="2.5" height="2.5"/>
					<rect x="255.2" y="331" class="st2" width="2.5" height="2.5"/>
					<rect x="255.2" y="335.2" class="st2" width="2.5" height="2.5"/>
					<rect x="255.2" y="339.4" class="st2" width="2.5" height="2.5"/>
					<rect x="231.7" y="276.2" class="st2" width="2.5" height="2.5"/>
					<rect x="231.7" y="280.4" class="st2" width="2.5" height="2.5"/>
					<rect x="231.7" y="284.6" class="st2" width="2.5" height="2.5"/>
					<rect x="231.7" y="288.8" class="st2" width="2.5" height="2.5"/>
					<rect x="231.7" y="292.9" class="st2" width="2.5" height="2.5"/>
					<rect x="231.7" y="297.1" class="st2" width="2.5" height="2.5"/>
					<rect x="231.7" y="301.3" class="st2" width="2.5" height="2.5"/>
					<rect x="231.7" y="305.5" class="st2" width="2.5" height="2.5"/>
					<rect x="231.7" y="309.7" class="st2" width="2.5" height="2.5"/>
					<rect x="231.7" y="313.8" class="st2" width="2.5" height="2.5"/>
					<rect x="235.7" y="276.2" class="st2" width="2.5" height="2.5"/>
					<rect x="235.7" y="280.4" class="st2" width="2.5" height="2.5"/>
					<rect x="235.7" y="284.6" class="st2" width="2.5" height="2.5"/>
					<rect x="235.7" y="288.8" class="st2" width="2.5" height="2.5"/>
					<rect x="235.7" y="292.9" class="st2" width="2.5" height="2.5"/>
					<rect x="235.7" y="297.1" class="st2" width="2.5" height="2.5"/>
					<rect x="235.7" y="301.3" class="st2" width="2.5" height="2.5"/>
					<rect x="235.7" y="305.5" class="st2" width="2.5" height="2.5"/>
					<rect x="235.7" y="309.7" class="st2" width="2.5" height="2.5"/>
				</g>
			</g>
			<g>
				<rect x="212.1" y="117.6" class="st1" width="4.2" height="233.1"/>
				<rect x="133.4" y="117.6" class="st1" width="4.2" height="233.1"/>
				<rect x="54.7" y="117.6" class="st1" width="4.2" height="233.1"/>
			</g>
		</g>
		<g>
			<path class="st2" d="M322,382.3h34.6v-49.8c0-2.4-2-4.4-4.4-4.4h-25.8c-2.4,0-4.4,2-4.4,4.4V382.3z"/>
			
				<rect x="322" y="335.4" transform="matrix(-1 -4.490998e-11 4.490998e-11 -1 678.5752 674.6389)" class="st1" width="34.6" height="3.9"/>
			<path class="st1" d="M328.3,375.7h8.6c1.3,0,2.4,1.1,2.4,2.4v4.2h-13.4v-4.2C325.9,376.8,327,375.7,328.3,375.7z"/>
			<path class="st3" d="M325.9,382.3h9.6c0.8,0,1.5-0.7,1.5-1.5l0,0c0-0.8-0.7-1.5-1.5-1.5h-9.6c-0.8,0-1.5,0.7-1.5,1.5l0,0
				C324.3,381.6,325,382.3,325.9,382.3z"/>
		</g>
		<g>
			
				<ellipse transform="matrix(0.2298 -0.9732 0.9732 0.2298 55.3473 237.4669)" class="st1" cx="177.7" cy="83.8" rx="23.6" ry="23.6"/>
			<ellipse transform="matrix(0.1602 -0.9871 0.9871 0.1602 66.5509 245.7537)" class="st2" cx="177.7" cy="83.8" rx="20" ry="20"/>
			<polyline class="st4" points="176.8,70 176.8,84 167.5,78.8 			"/>
		</g>
		<g>
			<g>
				<path class="st1" d="M403.1,313.6c1.8-3,4.8-0.4,4.8-0.4c-0.4-5.7,4.8-9.6,4.8-9.6s-6.1,0-6.9-5.8c-0.8-5.8,2.1-3.1,4.9-3.1
					c2.8,0,5.7,8.1,2,12.7c-3.7,4.6-2.7,12.4,5.8,19.9c2.1,1.8,3.5,4.3,4.4,6.9c-0.6-6.9-1-16.6,1-23.1c3.4-11-3.1-14-5-19.5
					c-1.9-5.5,5-10.2,5-10.2s-6.5-3-3.3-6.4c3.2-3.4,9.7-2.9,9.7,1.5c0,4.4-4.4,6.1-4.4,6.1s-5.1,5.3-5.1,8c0,2.8,5.1,8.7,5.1,8.7
					s-2.3-5.1,2.3-5.3c4.7-0.2,6.1,5.9,4.2,8.7c-1.9,2.8-5.1,0.4-5.1,0.4s-0.4,5.9-1.5,9.5c-0.5,1.6-0.3,7.8,0.1,14.3
					c0.9-2.3,2.3-4.5,4.1-6.1c8.5-7.5,9.5-15.3,5.8-19.9c-3.7-4.6-0.8-12.7,2-12.7c2.8,0,5.7-2.7,4.9,3.1c-0.8,5.8-6.9,5.8-6.9,5.8
					s5.2,3.9,4.8,9.6c0,0,3-2.6,4.8,0.4c3.2,5.3-4.2,8.6-5.5,6c0,0-15.8,11.2-12,27.3l-0.9,1.3c0.1,1.3,0.2,2.1,0.2,2.1l-1.2-0.5
					l-1.4,2.1c0.1,4-0.4,7-0.4,7l-3.8-5.6c3.8-16.1-12-27.3-12-27.3C407.3,322.2,399.9,318.9,403.1,313.6z"/>
				<path class="st5" d="M403.1,313.6c1.8-3,4.8-0.4,4.8-0.4c-0.4-5.7,4.8-9.6,4.8-9.6s-6.1,0-6.9-5.8c-0.8-5.8,2.1-3.1,4.9-3.1
					c2.8,0,5.7,8.1,2,12.7c-3.7,4.6-2.7,12.4,5.8,19.9c2.1,1.8,3.5,4.3,4.4,6.9c-0.6-6.9-1-16.6,1-23.1c3.4-11-3.1-14-5-19.5
					c-1.9-5.5,5-10.2,5-10.2s-6.5-3-3.3-6.4c3.2-3.4,9.7-2.9,9.7,1.5c0,4.4-4.4,6.1-4.4,6.1s-5.1,5.3-5.1,8c0,2.8,5.1,8.7,5.1,8.7
					s-2.3-5.1,2.3-5.3c4.7-0.2,6.1,5.9,4.2,8.7c-1.9,2.8-5.1,0.4-5.1,0.4s-0.4,5.9-1.5,9.5c-0.5,1.6-0.3,7.8,0.1,14.3
					c0.9-2.3,2.3-4.5,4.1-6.1c8.5-7.5,9.5-15.3,5.8-19.9c-3.7-4.6-0.8-12.7,2-12.7c2.8,0,5.7-2.7,4.9,3.1c-0.8,5.8-6.9,5.8-6.9,5.8
					s5.2,3.9,4.8,9.6c0,0,3-2.6,4.8,0.4c3.2,5.3-4.2,8.6-5.5,6c0,0-15.8,11.2-12,27.3l-0.9,1.3c0.1,1.3,0.2,2.1,0.2,2.1l-1.2-0.5
					l-1.4,2.1c0.1,4-0.4,7-0.4,7l-3.8-5.6c3.8-16.1-12-27.3-12-27.3C407.3,322.2,399.9,318.9,403.1,313.6z"/>
			</g>
			<polygon class="st1" points="406.2,382.3 442.3,382.3 446.2,342.7 402.3,342.7 			"/>
			
				<rect x="400.3" y="338.3" transform="matrix(-1 -4.490198e-11 4.490198e-11 -1 848.4905 685.3501)" class="st2" width="47.8" height="8.7"/>
		</g>
	</g>
</g>
<g id="Shadow">
	<ellipse id="_x3C_Path_x3E__1_" class="st2" cx="250" cy="416.2" rx="193.9" ry="11.3"/>
</g>
<g id="Plant">
	<g>
		<g>
			<path class="st6" d="M89.6,384.7c-0.2-1-3.7-25.2,3.4-33.5c1.6-1.8,3.5-2.8,5.8-2.9c14.2-0.3,16.1,11,16.1,11.2l-1.7,0.3
				c-0.1-0.4-1.7-10-14.4-9.7c-1.8,0-3.3,0.8-4.6,2.3c-6.5,7.8-3,31.9-3,32.2L89.6,384.7z"/>
		</g>
		<g>
			<path class="st6" d="M88.7,383.6l-1.7-0.1c0-0.2,0.6-22.2-10.3-26.8c-10.6-4.5-15.4,4.7-15.6,5.1l-1.5-0.8
				c0.1-0.1,5.7-11,17.8-5.9C89.3,360.2,88.7,382.7,88.7,383.6z"/>
		</g>
		<g>
			<path class="st6" d="M88.7,385.3c0-0.4-0.1-35.2-6.9-45.4c-6.5-9.8-17-5.2-17.5-5l-0.7-1.5c0.1-0.1,12.3-5.4,19.6,5.6
				c7.1,10.6,7.2,44.9,7.2,46.3L88.7,385.3z"/>
		</g>
		<path class="st6" d="M100.8,349.2c0,0-6.2,2.3-4.3,7.7c1.8,5.4,21.4,14.2,21.4,14.2s8.2-7.5,0.7-19.7
			C110.9,339.2,100.9,345.3,100.8,349.2z"/>
		<path class="st6" d="M81.5,338.1c0,0,4.4-0.5,4-3.1c-0.4-2.7-17.1-9.5-26.9,1.6c0,0,6.3,10.8,15.4,11
			C83.2,347.7,81.5,338.1,81.5,338.1z"/>
		<path class="st6" d="M77,356c0,0,3-2.4-0.2-3.6c-3.3-1.2-19.3-0.9-19.5,15c0,0,18.7,3.1,21-2.9S77,356,77,356z"/>
		<path class="st7" d="M100.8,349.2c0,0-6.2,2.3-4.3,7.7c1.8,5.4,21.4,14.2,21.4,14.2s8.2-7.5,0.7-19.7
			C110.9,339.2,100.9,345.3,100.8,349.2z"/>
		<path class="st7" d="M81.5,338.1c0,0,4.4-0.5,4-3.1c-0.4-2.7-17.1-9.5-26.9,1.6c0,0,6.3,10.8,15.4,11
			C83.2,347.7,81.5,338.1,81.5,338.1z"/>
		<path class="st7" d="M77,356c0,0,3-2.4-0.2-3.6c-3.3-1.2-19.3-0.9-19.5,15c0,0,18.7,3.1,21-2.9S77,356,77,356z"/>
		<polygon class="st6" points="104.1,417.1 75.1,417.1 72,385.3 107.2,385.3 		"/>
		<polygon class="st8" points="104.1,417.1 75.1,417.1 72,385.3 107.2,385.3 		"/>
		<rect x="70.4" y="381.8" class="st6" width="38.3" height="7"/>
		<rect x="70.4" y="381.8" class="st9" width="38.3" height="7"/>
	</g>
</g>
<g id="Chair">
	<g>
		<path class="st10" d="M136.9,394.3l28.8-2.8V351h11.4v40.5l28.9,2.8c2.9,0.3,5.1,2.7,5.1,5.6v4.3h-38.6h-2.1h-38.6v-4.3
			C131.8,397,134,394.6,136.9,394.3z"/>
		<path class="st9" d="M136.9,394.3l28.8-2.8V351h11.4v40.5l28.9,2.8c2.9,0.3,5.1,2.7,5.1,5.6v4.3h-38.6h-2.1h-38.6v-4.3
			C131.8,397,134,394.6,136.9,394.3z"/>
		<circle class="st10" cx="208" cy="409.6" r="7.5"/>
		<circle class="st10" cx="134.9" cy="409.6" r="7.5"/>
		<path class="st10" d="M167.9,359.7h7.1c2.3,0,4.1-1.9,4.1-4.1v-31.9h-15.4v31.9C163.7,357.9,165.6,359.7,167.9,359.7z"/>
		<path class="st11" d="M167.9,359.7h7.1c2.3,0,4.1-1.9,4.1-4.1v-31.9h-15.4v31.9C163.7,357.9,165.6,359.7,167.9,359.7z"/>
		<path class="st10" d="M144.1,260.3c0,0-2.2,54,12.9,63.3h-17.2c0,0-13.3-18.4-9.5-63.3H144.1z"/>
		<path class="st11" d="M144.1,260.3c0,0-2.2,54,12.9,63.3h-17.2c0,0-13.3-18.4-9.5-63.3H144.1z"/>
		<path class="st10" d="M205.9,316.1h-66.9c-2.8,0-5,2.2-5,5v6.7h76.9v-6.7C210.9,318.3,208.6,316.1,205.9,316.1z"/>
		<g>
			<path class="st10" d="M212.1,321.9h-79.3c-1.1,0-2,0.9-2,2v1.8c0,1.1,0.9,2,2,2h79.3c1.1,0,2-0.9,2-2v-1.8
				C214.1,322.8,213.2,321.9,212.1,321.9z"/>
			<path class="st12" d="M212.1,321.9h-79.3c-1.1,0-2,0.9-2,2v1.8c0,1.1,0.9,2,2,2h79.3c1.1,0,2-0.9,2-2v-1.8
				C214.1,322.8,213.2,321.9,212.1,321.9z"/>
		</g>
		<path class="st10" d="M126,271.3h27.5c8.1,0,14.6-6.5,14.6-14.6V246c0-8.1-6.5-14.6-14.6-14.6H126c-8.1,0-14.6,6.5-14.6,14.6v10.8
			C111.5,264.8,118,271.3,126,271.3z"/>
	</g>
</g>
<g id="Character">
	<g>
		<path class="st13" d="M236.9,187.3l5.5-14.5c0,0-2.4-2.2-0.7-4.4c1.6-2.2,11.7-8.4,13.6-7.3c1.8,1.1,5.9,5.2,3.7,7.5
			c-2.2,2.3-12,6.1-12,6.1l-4.9,19L236.9,187.3z"/>
		<g>
			<path class="st6" d="M198.6,214.8c0,0,25-5.1,27.7-6.4c2.7-1.2,12.8-30.7,12.8-30.7l7.7,3.6c0,0-6.2,29.5-12.5,36.6
				c-6.3,7-33.4,13-33.4,13L198.6,214.8z"/>
			<path class="st7" d="M200.8,230.9c0,0,0.2,0,0.5-0.1c1.4-0.3,5.6-1.3,10.7-2.8c8.2-2.4,18.6-6,22.2-10.1
				c6.3-7,12.5-36.6,12.5-36.6l-7.7-3.6c0,0-10.1,29.4-12.8,30.7c-2.7,1.2-27.7,6.4-27.7,6.4L200.8,230.9z"/>
			<polygon class="st6" points="238.9,177.2 237.3,180.3 247.2,183.7 246.9,179.9 			"/>
		</g>
		<path class="st7" d="M200.6,230.5c1.4-0.2,5.7-0.9,10.9-2c-3-5.1-11.6-7.7-11.6-7.7L200.6,230.5z"/>
		<path class="st10" d="M163.4,194.4c0,0-1.5,13.8,3.7,17.2c5.1,3.4,30.3-0.6,33.2-6.1c2.9-5.6-7.9-20.7-7.9-20.7L163.4,194.4z"/>
		<polygon class="st13" points="265.4,376.4 258.8,378 255.5,368.9 252.5,360.6 260,357.4 262.9,367.5 		"/>
		<polygon class="st7" points="262.9,367.5 255.5,368.9 252.5,360.6 260,357.4 		"/>
		<g>
			<path class="st6" d="M262.2,362.7l-9.1,3.4c0,0-24.3-60.8-29.3-61s-55.9,23.2-68.7,10.2c-12.8-13,5.7-44.2,5.7-44.2
				s30.7-4.4,33,2.5c0.5,1.3,0.9,4,1.3,6.2c0.4,2.1,0.6,3.9,0.6,3.9s0,0,0,0c0.9-0.2,31.8-8.2,43.9,0
				C251.9,292,262.2,362.7,262.2,362.7z"/>
			<path class="st12" d="M262.2,362.7l-9.1,3.4c0,0-24.3-60.8-29.3-61s-55.9,23.2-68.7,10.2c-12.8-13,5.7-44.2,5.7-44.2
				s30.7-4.4,33,2.5c0.5,1.3,0.9,4,1.3,6.2c0.4,2.1,0.6,3.9,0.6,3.9s0,0,0,0c0.9-0.2,31.8-8.2,43.9,0
				C251.9,292,262.2,362.7,262.2,362.7z"/>
		</g>
		<polygon class="st13" points="209.7,402.3 203.2,400.7 204.4,391.3 205.6,382.6 213.7,383.4 211.6,393.4 		"/>
		<polygon class="st7" points="211.6,393.6 204.4,391.4 205.6,382.7 213.7,383.4 		"/>
		<polygon class="st6" points="249.3,362.7 262.6,358.2 263.2,363.6 253.1,367.2 		"/>
		<g>
			<path class="st6" d="M177.1,318.4c0,0,2.1,0,34.3-1.5c0,0-4.8,40.2-7.4,70.4l9.6,1.6c0,0,23-64.5,22.8-74.8s-12-13.3-12-13.3
				S201.4,314.2,177.1,318.4z"/>
			<path class="st12" d="M177.1,318.4c0,0,2.1,0,34.3-1.5c0,0-4.8,40.2-7.4,70.4l9.6,1.6c0,0,23-64.5,22.8-74.8s-12-13.3-12-13.3
				S201.4,314.2,177.1,318.4z"/>
			<path class="st14" d="M177.1,318.4c0,0,2.1,0,34.3-1.5c0,0-4.8,40.2-7.4,70.4l9.6,1.6c0,0,23-64.5,22.8-74.8s-12-13.3-12-13.3
				S201.4,314.2,177.1,318.4z"/>
		</g>
		<polygon class="st6" points="202.5,384.4 215.8,385.9 213.2,391.1 202.5,389.7 		"/>
		<path class="st14" d="M195.7,283.7l-18,3.7c0,0,9.9-5.5,17.4-7.6C195.4,281.9,195.7,283.7,195.7,283.7z"/>
		<g>
			<g>
				<polygon class="st10" points="161.5,266.2 160.8,271 193.8,273.5 194.6,267.9 				"/>
				<polygon class="st7" points="161.5,266.2 160.8,271 193.8,273.5 194.6,267.9 				"/>
			</g>
			
				<rect x="170.7" y="265.8" transform="matrix(0.9948 0.1023 -0.1023 0.9948 28.5086 -16.1247)" class="st6" width="1.6" height="8.3"/>
			
				<rect x="179.5" y="267.7" transform="matrix(0.9979 6.413041e-02 -6.413041e-02 0.9979 17.7182 -11.1872)" class="st15" width="7.2" height="5.5"/>
			
				<rect x="191" y="266.7" transform="matrix(0.9947 0.1023 -0.1023 0.9947 28.7275 -18.204)" class="st6" width="1.6" height="8.3"/>
			
				<rect x="170.7" y="265.8" transform="matrix(0.9948 0.1023 -0.1023 0.9948 28.5086 -16.1247)" class="st12" width="1.6" height="8.3"/>
			
				<rect x="191" y="266.7" transform="matrix(0.9947 0.1023 -0.1023 0.9947 28.7275 -18.204)" class="st12" width="1.6" height="8.3"/>
		</g>
		<path class="st6" d="M199.2,214.3c0,0-8.4,2.6-19,2.1c-10.6-0.5-23.2,4.6-23.2,4.6l4.5,45.2l33.1,1.7
			C194.6,267.9,205.8,230.2,199.2,214.3z"/>
		<path class="st10" d="M193.9,188.8c0,0-1.9-21.9-20.2-14c-23,10-4.7,36.7,6.5,31.3C191.5,200.6,193.9,188.8,193.9,188.8z"/>
		<path class="st7" d="M188.8,217.7l-0.5,12.4l-4.1-5.8c0,0,1.5,13.7,0.6,21.2c0,0-0.8-13.4-2.6-21.2l-4.4,5.8l-6.3-12.3
			C171.4,217.7,181.6,214.1,188.8,217.7z"/>
		<path class="st13" d="M183.1,220l-9.5-2.7c5.8-4,2.9-13,2.9-13l9.4,3.3c-0.5,1.6-0.8,2.9-1,4c-1,5.9,1.7,6.3,1.7,6.3L183.1,220z"
			/>
		<path class="st7" d="M185.9,207.6c-0.5,1.6-0.8,2.9-1,4c-4.5-1.8-8.4-7.3-8.4-7.3L185.9,207.6z"/>
		<g>
			<path class="st13" d="M179.7,179.4c8.3-1.8,12,2,14.5,10.5c3.1,10.5,2.4,18.7-8.5,18.7C170.9,208.6,165.9,182.5,179.7,179.4z"/>
			<path class="st16" d="M188.8,190.6c0,0,1.6,1.9,3.2,2.9c0,0-0.5,1.3-2,1.4L188.8,190.6z"/>
			<g>
				<path class="st10" d="M183.5,191.1c0.2,0.7-0.1,1.3-0.5,1.4c-0.5,0.1-1-0.3-1.1-1c-0.2-0.7,0.1-1.3,0.5-1.4
					C182.8,189.9,183.3,190.4,183.5,191.1z"/>
				<path class="st10" d="M182.2,190.1l1.3-0.9C183.5,189.2,183.1,190.6,182.2,190.1z"/>
			</g>
			<g>
				<path class="st10" d="M191.9,188.9c0.2,0.7-0.1,1.3-0.5,1.4c-0.5,0.1-1-0.3-1.1-1c-0.2-0.7,0.1-1.3,0.5-1.4
					C191.3,187.7,191.8,188.2,191.9,188.9z"/>
				<path class="st10" d="M190.6,187.9l1.3-0.9C192,187,191.5,188.4,190.6,187.9z"/>
			</g>
			<path class="st17" d="M182.2,185.4c0,0-2.4,0.2-3.3,2.1"/>
			<path class="st17" d="M188.1,183.7c0,0,1.3-0.9,3.5,0"/>
			<path class="st10" d="M173.8,195.5c0,0,2.4-7.7,0.6-12.8c0,0,15-10.4,19.5,6.2c0,0-1.7-15.2-16.1-12.4
				c-14.4,2.8-9.7,23.8-0.9,28.4C176.9,204.8,172.3,200.3,173.8,195.5z"/>
			<path class="st13" d="M175.5,196.9c-0.4-1.3-2.2-3.3-4.7-2.5c-2.5,0.9-2.6,6.4,4.1,6.3C175.9,200.7,176.2,199.7,175.5,196.9z"/>
			<g>
				<path class="st10" d="M191.4,198.1c-0.3,1.1-0.4,3.1-0.4,3.1c-0.2,0-0.4,0-0.5,0.1c-2.5,0.2-3.7-0.5-4.3-1.4
					c-0.3-0.5-0.5-1-0.5-1.4c-0.1-0.5,0-0.9,0-0.9c1.4,0.7,3.7,0.7,5,0.6C191.1,198.2,191.4,198.1,191.4,198.1z"/>
				<path class="st15" d="M190.6,198.2l-0.2,0.9c-2.3,0.2-4,0-4.8-0.6c-0.1-0.5,0-0.9,0-0.9C187,198.3,189.4,198.3,190.6,198.2z"/>
				<path class="st16" d="M190.5,201.3c-2.5,0.2-3.7-0.5-4.3-1.4c0.8,0,1.9,0,2.8,0.3C189.7,200.5,190.1,200.9,190.5,201.3z"/>
			</g>
			<path class="st10" d="M179.7,180.1c0,0-0.3,14.4-9,16.2c-8.7,1.7,0.8-18.6,0.8-18.6s12.9-8.4,21.5-2.5c8.6,5.9,0.9,13.6,0.9,13.6
				S192.1,178.1,179.7,180.1z"/>
			<path class="st18" d="M179.4,179.2c0,0,3.1,9.1-3,13.9"/>
		</g>
		<g>
			<path class="st6" d="M168.2,199.3c1.1,2.9,3.9,4.6,6.3,3.7c2.4-0.9,3.4-4,2.3-6.9c-1.1-2.9-3.9-4.6-6.3-3.7
				C168.1,193.2,167.1,196.3,168.2,199.3z"/>
			<path class="st19" d="M168.2,199.3c1.1,2.9,3.9,4.6,6.3,3.7c2.4-0.9,3.4-4,2.3-6.9c-1.1-2.9-3.9-4.6-6.3-3.7
				C168.1,193.2,167.1,196.3,168.2,199.3z"/>
			<path class="st6" d="M171,194.4c0,0-3.6-16.1,4.5-20.3c0,0-1.7,0.2-2.7,0.5c-1,0.3-7.5,6.8-4.2,21.3L171,194.4z"/>
			<path class="st7" d="M171,194.4c0,0-3.6-16.1,4.5-20.3c0,0-1.7,0.2-2.7,0.5c-1,0.3-7.5,6.8-4.2,21.3L171,194.4z"/>
			<g>
				<g>
					<path class="st6" d="M186.1,203.6c0.2,0,0.4-0.1,0.6-0.1l-0.2-1c-7.2,1.2-12.6-2.7-12.7-2.7l-0.6,0.8
						C173.4,200.8,178.7,204.6,186.1,203.6z"/>
				</g>
				<g class="st7">
					<path d="M186.1,203.6c0.2,0,0.4-0.1,0.6-0.1l-0.2-1c-7.2,1.2-12.6-2.7-12.7-2.7l-0.6,0.8C173.4,200.8,178.7,204.6,186.1,203.6z
						"/>
				</g>
			</g>
			<path class="st6" d="M168.5,198.9c0.7,1.9,2.6,3,4.2,2.4c1.6-0.6,2.3-2.6,1.5-4.6c-0.7-1.9-2.6-3-4.2-2.4
				C168.5,194.9,167.8,196.9,168.5,198.9z"/>
			<g>
				<path class="st6" d="M186.9,204l0.8-0.1c0.6-0.1,1-0.6,0.9-1.2l0,0c-0.1-0.6-0.6-1-1.2-0.9l-0.8,0.1c-0.6,0.1-1,0.6-0.9,1.2l0,0
					C185.8,203.6,186.3,204,186.9,204z"/>
				<path class="st19" d="M186.9,204l0.8-0.1c0.6-0.1,1-0.6,0.9-1.2l0,0c-0.1-0.6-0.6-1-1.2-0.9l-0.8,0.1c-0.6,0.1-1,0.6-0.9,1.2
					l0,0C185.8,203.6,186.3,204,186.9,204z"/>
			</g>
		</g>
		<polygon class="st6" points="176.1,213.8 182.1,219.7 179.7,226.8 171.4,217.7 		"/>
		<polygon class="st6" points="184.7,215.1 183.8,219.6 186.8,225.9 188.8,217.7 		"/>
		<path class="st13" d="M177.4,218.9l-3.5-12.6c0,0,1.7-3.1,1.3-3.8c-0.4-0.7-2.2-9.1-3.4-10.1c-1.3-0.9-6.5,0.7-7.1,1.5
			c-0.5,0.9,5,12.4,5,12.4l2,13.7L177.4,218.9z"/>
		<g>
			<path class="st6" d="M157,221c-9.5,9.7,9.5,31.7,20.4,30.8c10.9-0.9-0.3-40.9-0.3-40.9l-7,1.1c0,0,2.5,17.3,1.7,18.6
				C171,232.1,160.1,217.8,157,221z"/>
			<path class="st7" d="M157,221c-9.5,9.7,9.5,31.7,20.4,30.8c10.9-0.9-0.3-40.9-0.3-40.9l-7,1.1c0,0,2.5,17.3,1.7,18.6
				C171,232.1,160.1,217.8,157,221z"/>
			<polygon class="st6" points="177.7,209.7 178.7,213 169,213.8 169,211 			"/>
		</g>
		<g>
			<path class="st12" d="M192.4,244.8h3.9c0.4,0,0.8-0.4,0.8-0.8v-7.4c0-0.4-0.4-0.8-0.8-0.8h-3.9c-0.4,0-0.8,0.4-0.8,0.8v7.4
				C191.7,244.5,192,244.8,192.4,244.8z"/>
			
				<rect x="192.4" y="236.4" transform="matrix(-1 -4.503254e-11 4.503254e-11 -1 389.2088 478.9231)" class="st7" width="4.5" height="6.1"/>
			<rect x="194" y="233.6" class="st10" width="1" height="3.6"/>
		</g>
		<path class="st6" d="M276.3,389.2c-1-0.5-2.1-0.7-3.2-0.8l0,0c0,0-3.8-2.2-7.6-10.9l-4.2,0c-1.5,0-2.8,0.9-3.3,2.3
			c-0.1,0.2-0.1,0.4-0.1,0.6c0,1,0.2,2,0.3,3.1c0.4,3.2,2.5,10,2.5,10l0.7-0.2l-1.3-6.3c-0.4-2.1,1.8-0.1,2.9,2.1
			c1,2.2,2.7,4.3,7.3,3.3C275.8,390.9,278,390.1,276.3,389.2z"/>
		<path class="st13" d="M264.8,375.2c0,0,5.3,11.1,8.3,13.2c0,0-4.1,2.4-8.3-3c-5.5-7-6.8-5-6.8-5s0.2-2.4,0.7-3.6
			C259.4,374.5,264.8,375.2,264.8,375.2z"/>
		<path class="st6" d="M218.1,415.5c-0.9-0.7-1.8-1.2-2.9-1.5l0,0c0,0-3.2-3.1-4.8-12.4l-4.1-1c-1.4-0.3-2.9,0.3-3.7,1.5
			c-0.1,0.2-0.2,0.3-0.3,0.5c-0.2,1-0.3,2-0.4,3c-0.4,3.2,0,10.3,0,10.3l0.7,0l0.2-6.4c0.1-2.2,1.8,0.4,2.3,2.7
			c0.5,2.4,1.5,4.8,6.3,4.9C217.2,417.1,219.5,416.9,218.1,415.5z"/>
		<path class="st13" d="M210.2,399.2c0,0,2.5,12,5,14.8c0,0-4.5,1.4-7.4-4.9c-3.7-8.1-5.4-6.5-5.4-6.5s0.8-2.3,1.5-3.3
			C205.2,397.3,210.2,399.2,210.2,399.2z"/>
	</g>
</g>
<g id="Speech_bubble">
	<g>
		<path class="st6" d="M117.2,182.2h34.9c2.8,0,5.1-2.3,5.1-5.1v-14.9c0-2.8-2.3-5.1-5.1-5.1h-34.9c-2.8,0-5.1,2.3-5.1,5.1v14.9
			C112.2,180,114.4,182.2,117.2,182.2z"/>
		<polygon class="st6" points="145.1,179.4 155.7,193.7 138.7,180.3 		"/>
		<g>
			<path class="st15" d="M144.8,169.7c0,0.8,0.7,1.5,1.5,1.5s1.5-0.7,1.5-1.5c0-0.8-0.7-1.5-1.5-1.5S144.8,168.9,144.8,169.7z"/>
			<path class="st15" d="M137.1,169.7c0,0.8,0.7,1.5,1.5,1.5s1.5-0.7,1.5-1.5c0-0.8-0.7-1.5-1.5-1.5S137.1,168.9,137.1,169.7z"/>
			<path class="st15" d="M129.4,169.7c0,0.8,0.7,1.5,1.5,1.5c0.8,0,1.5-0.7,1.5-1.5c0-0.8-0.7-1.5-1.5-1.5
				C130,168.2,129.4,168.9,129.4,169.7z"/>
			<path class="st15" d="M121.7,169.7c0,0.8,0.7,1.5,1.5,1.5s1.5-0.7,1.5-1.5c0-0.8-0.7-1.5-1.5-1.5S121.7,168.9,121.7,169.7z"/>
		</g>
	</g>
</g>
<g id="Bird">
	<g>
		<g>
			<path class="st6" d="M257.6,162.5l24.9-13.4c0.7-0.4,0.9-1.2,0.6-1.9l-7.9-14.7c-0.4-0.7-1.2-0.9-1.9-0.6l-24.9,13.4
				c-0.7,0.4-0.9,1.2-0.6,1.9l7.9,14.7C256.1,162.6,256.9,162.9,257.6,162.5z"/>
			<path class="st20" d="M257.6,162.5l24.9-13.4c0.7-0.4,0.9-1.2,0.6-1.9l-7.9-14.7c-0.4-0.7-1.2-0.9-1.9-0.6l-24.9,13.4
				c-0.7,0.4-0.9,1.2-0.6,1.9l7.9,14.7C256.1,162.6,256.9,162.9,257.6,162.5z"/>
			<path class="st7" d="M275.7,133.7l-7.8,14.5c-0.6,1.1-1.8,1.8-3.1,1.7l-16.2-1.6l16.5,2.4c1.5,0.2,2.9-0.6,3.6-1.9L275.7,133.7z"
				/>
		</g>
		<g>
			<path class="st6" d="M294.7,131c-0.3-5.6-4.4-16.8-9.4-20.2c-5-3.4-1.7,1.3-1.7,1.3s-4.7-4.6-7.3-4.5c-2.5,0.1,0,3,0,3
				s-5.1-3.2-7.5-3c-2.4,0.1,0,2.9,0,2.9s-4.2-3-5.9-1.6c-1.7,1.5,21.9,17,24.5,23.3C290,138.6,294.9,136.6,294.7,131z"/>
			<path class="st21" d="M294.7,131c-0.3-5.6-4.4-16.8-9.4-20.2c-5-3.4-1.7,1.3-1.7,1.3s-4.7-4.6-7.3-4.5c-2.5,0.1,0,3,0,3
				s-5.1-3.2-7.5-3c-2.4,0.1,0,2.9,0,2.9s-4.2-3-5.9-1.6c-1.7,1.5,21.9,17,24.5,23.3C290,138.6,294.9,136.6,294.7,131z"/>
		</g>
		<g>
			<path class="st6" d="M274.4,130.2l-3.2,2c-0.2,0.1-0.1,0.5,0.2,0.5l3.3-0.3l-0.3,2.5c0,0.3,0.3,0.4,0.5,0.2l1.9-2.2L274.4,130.2z
				"/>
			<path class="st11" d="M274.4,130.2l-3.2,2c-0.2,0.1-0.1,0.5,0.2,0.5l3.3-0.3l-0.3,2.5c0,0.3,0.3,0.4,0.5,0.2l1.9-2.2L274.4,130.2
				z"/>
		</g>
		<g>
			<path class="st6" d="M318.6,117.6c0,0-4.4-3-10.9-1.1c0,0-1.9,8.7-7.1,11.6c-2.8,1.6-9.8,1.5-15.3-0.3c-6.6-2.1-9.8-2.1-10.9,0.3
				c-1.1,2.3,0.1,5,5.1,6.2c5,1.2,9,9.9,18.1,10s13.9-9,11.6-17C309.1,127.4,311.9,121.4,318.6,117.6z"/>
			<path class="st8" d="M318.6,117.6c0,0-4.4-3-10.9-1.1c0,0-1.9,8.7-7.1,11.6c-2.8,1.6-9.8,1.5-15.3-0.3c-6.6-2.1-9.8-2.1-10.9,0.3
				c-1.1,2.3,0.1,5,5.1,6.2c5,1.2,9,9.9,18.1,10s13.9-9,11.6-17C309.1,127.4,311.9,121.4,318.6,117.6z"/>
		</g>
		<path class="st10" d="M276.8,129.8c0,0.2,0.2,0.4,0.4,0.4c0.2,0,0.4-0.2,0.4-0.4c0-0.2-0.2-0.4-0.4-0.4
			C277,129.4,276.8,129.6,276.8,129.8z"/>
		<path class="st6" d="M299.6,137.2c5.4,1.5,17.3,1,22.1-2.7c4.8-3.7-0.7-2-0.7-2s5.9-3.1,6.5-5.5c0.6-2.4-2.9-0.9-2.9-0.9
			s4.6-3.9,5.2-6.2c0.6-2.3-2.8-0.9-2.8-0.9s4.2-3.1,3.3-5.2c-0.9-2.1-22.9,15.6-29.8,16.1C293.8,130.4,294.2,135.7,299.6,137.2z"/>
		<path class="st21" d="M299.6,137.2c5.4,1.5,17.3,1,22.1-2.7c4.8-3.7-0.7-2-0.7-2s5.9-3.1,6.5-5.5c0.6-2.4-2.9-0.9-2.9-0.9
			s4.6-3.9,5.2-6.2c0.6-2.3-2.8-0.9-2.8-0.9s4.2-3.1,3.3-5.2c-0.9-2.1-22.9,15.6-29.8,16.1C293.8,130.4,294.2,135.7,299.6,137.2z"/>
		<g>
			<g>
				<path class="st22" d="M334.8,112.5c0.9-0.3,1.9-0.6,2.8-0.9"/>
				<path class="st23" d="M343.5,110c3.5-0.7,7.1-1.2,10.6-1.5c9.7-0.7,25-1.6,30.9,8c5.4,8.8-3.9,23.9-7.2,32.1
					c-4.1,10-8.9,22.5-4.1,33.1c9.9,21.8,52,10.5,66.3-9.6"/>
				<path class="st22" d="M441.6,169.6c0.5-0.9,0.9-1.8,1.3-2.7"/>
			</g>
		</g>
	</g>
</g>
<g id="Desk">
	<g>
		<g>
			
				<rect x="320.2" y="249" transform="matrix(-1 -4.490154e-11 4.490154e-11 -1 678.3418 505.8682)" class="st15" width="38" height="7.8"/>
			
				<rect x="320.2" y="249" transform="matrix(-1 -4.490154e-11 4.490154e-11 -1 678.3418 505.8682)" class="st14" width="38" height="7.8"/>
			
				<rect x="342.2" y="249" transform="matrix(-1 -4.483004e-11 4.483004e-11 -1 700.3135 505.8682)" class="st14" width="16" height="7.8"/>
			<polygon class="st14" points="358.2,250.2 324.4,250.2 358.2,251.1 			"/>
			<polygon class="st14" points="320.2,251.5 349.5,252.2 320.2,252.2 			"/>
			<polygon class="st14" points="356.6,253.7 342.2,253.1 320.9,253.7 342.2,254 			"/>
			<polygon class="st14" points="358.2,255.3 333.1,255.3 358.2,255.9 			"/>
			<polygon class="st14" points="320.2,255.9 337,256.2 320.2,256.2 			"/>
		</g>
		<g>
			
				<rect x="325.5" y="241.3" transform="matrix(-1 -4.490154e-11 4.490154e-11 -1 688.9069 490.2982)" class="st15" width="38" height="7.8"/>
			
				<rect x="325.5" y="241.3" transform="matrix(-1 -4.490154e-11 4.490154e-11 -1 688.9069 490.2982)" class="st14" width="38" height="7.8"/>
			
				<rect x="347.4" y="241.3" transform="matrix(-1 -4.494373e-11 4.494373e-11 -1 710.8787 490.2982)" class="st14" width="16" height="7.8"/>
			<polygon class="st14" points="363.4,242.4 329.6,242.4 363.4,243.3 			"/>
			<polygon class="st14" points="325.5,243.7 354.8,244.5 325.5,244.5 			"/>
			<polygon class="st14" points="361.9,245.9 347.4,245.3 326.2,245.9 347.4,246.2 			"/>
			<polygon class="st14" points="363.4,247.6 338.4,247.6 363.4,248.1 			"/>
			<polygon class="st14" points="325.5,248.1 342.2,248.5 325.5,248.5 			"/>
		</g>
		<g>
			
				<rect x="321.1" y="233.5" transform="matrix(-1 -4.490154e-11 4.490154e-11 -1 680.2389 474.7282)" class="st15" width="38" height="7.8"/>
			
				<rect x="321.1" y="233.5" transform="matrix(-1 -4.490154e-11 4.490154e-11 -1 680.2389 474.7282)" class="st14" width="38" height="7.8"/>
			
				<rect x="343.1" y="233.5" transform="matrix(-1 -4.494373e-11 4.494373e-11 -1 702.2107 474.7282)" class="st14" width="16" height="7.8"/>
			<polygon class="st14" points="359.1,234.6 325.3,234.6 359.1,235.5 			"/>
			<polygon class="st14" points="321.1,235.9 350.4,236.7 321.1,236.7 			"/>
			<polygon class="st14" points="357.6,238.1 343.1,237.5 321.9,238.1 343.1,238.5 			"/>
			<polygon class="st14" points="359.1,239.8 334.1,239.8 359.1,240.4 			"/>
			<polygon class="st14" points="321.2,240.4 337.9,240.7 321.1,240.7 			"/>
		</g>
		<g>
			<polygon class="st10" points="295.9,256.7 294.9,252.9 254.3,252.9 235.6,254.8 234.9,256.7 			"/>
			<polygon class="st19" points="254.3,252.9 254.3,256.7 295.9,256.7 294.9,252.9 			"/>
		</g>
		<g>
			<path class="st10" d="M262.5,235.1c-0.2,2,1.3,3.6,3.2,3.6h62.1c2,0,3.7-1.6,3.9-3.6l3.7-39.8c0-0.4,0-0.8-0.1-1.2
				c-0.3-1.4-1.6-2.4-3.1-2.4H270c-2,0-3.7,1.6-3.9,3.6L262.5,235.1z"/>
			<path class="st19" d="M265.9,238.6h61.9c2,0,3.7-1.6,3.9-3.6l3.7-39.8c0-0.4,0-0.8-0.1-1.2h-61.9c-2,0-3.7,1.6-3.9,3.6l-3.7,39.8
				C265.8,237.9,265.8,238.3,265.9,238.6z"/>
			<polygon class="st10" points="308.6,214.3 295.7,214.3 299.2,251.1 278.8,254.1 278.8,256.7 321.6,256.7 321.6,254.1 
				312.9,251.1 			"/>
			<polygon class="st24" points="295.7,214.3 305.2,256.1 312.9,255.9 308.6,214.3 			"/>
		</g>
		<g>
			<g>
				<polygon class="st10" points="295.8,417.1 301.9,417.1 312.9,263.8 304.8,263.8 				"/>
				<polygon class="st21" points="295.8,417.1 301.9,417.1 312.4,271.4 312.9,264.1 304.8,264.1 304.4,271.4 				"/>
				<polygon class="st7" points="304.4,271.1 312.4,271.1 312.9,264.1 304.8,264.1 				"/>
			</g>
			<g>
				<polygon class="st10" points="250.8,417.1 257,417.1 258,263.8 249.8,263.8 				"/>
				<polygon class="st8" points="249.8,264.1 250,288.8 250.8,417.1 257,417.1 257.8,288.8 258,264.1 				"/>
				<polygon class="st7" points="249.8,264.1 250,289.1 257.8,289.1 258,264.1 				"/>
			</g>
			<g>
				<polygon class="st10" points="185.8,417.1 191.9,417.1 202.9,263.8 194.8,263.8 				"/>
				<polygon class="st8" points="185.8,417.1 191.9,417.1 202.4,271.4 202.9,264.1 194.8,264.1 194.4,271.4 				"/>
				<polygon class="st7" points="194.4,271.1 202.4,271.1 202.9,264.1 194.8,264.1 				"/>
			</g>
			<g>
				<polygon class="st10" points="365.9,417.1 372,417.1 363,263.8 354.9,263.8 				"/>
				<polygon class="st8" points="354.9,264.1 355.4,271.4 365.9,417.1 372,417.1 363.4,271.4 363,264.1 				"/>
				<polygon class="st7" points="363,264.1 354.9,264.1 355.4,271.1 363.4,271.1 				"/>
			</g>
			<g>
				<path class="st6" d="M190.5,267.7h176.8c1.2,0,2.2-1,2.2-2.2V260H188.3v5.5C188.3,266.7,189.3,267.7,190.5,267.7z"/>
				<path class="st12" d="M190.5,267.7h176.8c1.2,0,2.2-1,2.2-2.2V260H188.3v5.5C188.3,266.7,189.3,267.7,190.5,267.7z"/>
			</g>
			
				<rect x="188.3" y="260" transform="matrix(-1 -4.490198e-11 4.490198e-11 -1 557.7811 523.8122)" class="st7" width="181.1" height="3.8"/>
			<g>
				<path class="st6" d="M184.6,261h188.7c1.2,0,2.2-1,2.2-2.2l0,0c0-1.2-1-2.2-2.2-2.2H184.6c-1.2,0-2.2,1-2.2,2.2l0,0
					C182.4,260,183.4,261,184.6,261z"/>
				<path class="st12" d="M184.6,261h188.7c1.2,0,2.2-1,2.2-2.2l0,0c0-1.2-1-2.2-2.2-2.2H184.6c-1.2,0-2.2,1-2.2,2.2l0,0
					C182.4,260,183.4,261,184.6,261z"/>
			</g>
		</g>
		<g>
			<path class="st6" d="M229.2,250l-2.3-3.5c-0.5-0.7-1.2-1.1-2.1-1.1h-2.9c-0.2,0-0.5,0-0.7,0.1l-10.5,3.2
				c-0.6,0.2-1.1,0.6-1.4,1.1l-1.5,2.5L229.2,250z"/>
			<path class="st7" d="M207.7,252.3l15.3-1.7l6.2-0.7l-2.3-3.5c-0.5-0.7-1.2-1.1-2.1-1.1h-2.9c-0.3,0-0.5,0-0.7,0.1l-0.2,0.1
				l-10.3,3.1c-0.6,0.2-1.1,0.6-1.4,1.1L207.7,252.3z"/>
			<path class="st7" d="M207.7,252.3l15.3-1.7l-2.1-5.1l-10.3,3.1c-0.6,0.2-1.1,0.6-1.4,1.1L207.7,252.3z"/>
			<path class="st6" d="M200.5,256.3v0.3h13.3h19.1l-1.2-4.7c-0.5-1.8-2.1-3-3.9-3h-14.4c-0.5,0-0.9,0.1-1.4,0.3l-1.8,0.7l-7.1,2.7
				C201.5,253.2,200.5,254.7,200.5,256.3z"/>
			<path class="st7" d="M200.5,256.3v0.3h13.3l0,0l-0.7-5.1c-0.2-1.3-1.6-2.2-2.8-1.7l-7.1,2.7C201.5,253.2,200.5,254.7,200.5,256.3
				z"/>
			<path class="st10" d="M211.7,253.2l-4.2-12.7c-0.2-0.5-0.8-0.8-1.3-0.5l0,0c-0.4,0.2-0.6,0.6-0.5,1.1l3.6,13.6
				C209.2,254.6,211.6,255.6,211.7,253.2z"/>
			<polygon class="st7" points="229.2,255.6 231.1,255.6 230.7,253.8 228.8,253.8 			"/>
			<polygon class="st7" points="226.4,255.5 228.3,255.5 227.9,253.7 226,253.7 			"/>
		</g>
	</g>
</g>
</svg>
