<svg id="Capa_1" data-name="Capa 1" xmlns="http://www.w3.org/2000/svg" viewBox="0 0 512 474.8"><defs><style>.cls-1{opacity:0.2;}.cls-2{fill:#0099da;}.cls-3{fill:#2626bc;opacity:0.1;isolation:isolate;}.cls-4{fill:#f5f4f9;}.cls-5{fill:#32e2a9;}.cls-6,.cls-8{fill:#003087;}.cls-6,.cls-7{opacity:0.1;}.cls-9{fill:#fff;}</style></defs><title>icon_mobile_apps</title><g class="cls-1"><path class="cls-2" d="M16.07,295.94C34.8,360,88.78,490.51,180,478.79c91.48-11.76,55.76-129.73,139.5-145.9,36.87-7.11,61.86,56.69,98.81,54.71,47.59-2.56,71.81-49.67,85.11-89.27,28.19-84-14-226.35-112.86-251-86.24-21.52-96.33,83.86-171.32,53.25C177.09,83.37,181.3,32,130,21.63-25.33-9.73-8.85,210.78,16.07,295.94Z" transform="translate(0 -18.6)"/></g><path class="cls-3" d="M350.23,493.4H161.77a30,30,0,0,1-30-30V82.72a30,30,0,0,1,30-30H350.23a30,30,0,0,1,30,30V463.4a30,30,0,0,1-30,30Z" transform="translate(0 -18.6)"/><path class="cls-4" d="M350.23,469.4H161.77a30,30,0,0,1-30-30V58.72a30,30,0,0,1,30-30H350.23a30,30,0,0,1,30,30V439.4a30,30,0,0,1-30,30Z" transform="translate(0 -18.6)"/><path class="cls-5" d="M131.77,71.63H380.23V426.49H131.77Z" transform="translate(0 -18.6)"/><path class="cls-6" d="M239.23,201.91H188.28a10,10,0,0,1-10-10v-47a10,10,0,0,1,10-10h50.95a10,10,0,0,1,10,10v47A10,10,0,0,1,239.23,201.91Z" transform="translate(0 -18.6)"/><path class="cls-6" d="M324.14,201.63H273.2a10,10,0,0,1-10-10v-47a10,10,0,0,1,10-10h50.94a10,10,0,0,1,10,10v47A10,10,0,0,1,324.14,201.63Z" transform="translate(0 -18.6)"/><g class="cls-7"><path class="cls-8" d="M380,134.62v67H358.4a10,10,0,0,1-10-10v-47a10,10,0,0,1,10-10Z" transform="translate(0 -18.6)"/></g><path class="cls-9" d="M309.84,93.06H202.16a5,5,0,0,0,0,10H309.84a5,5,0,0,0,0-10Z" transform="translate(0 -18.6)"/><path class="cls-9" d="M239.23,191.4H188.28a10,10,0,0,1-10-10v-47a10,10,0,0,1,10-10h50.95a10,10,0,0,1,10,10v47A10,10,0,0,1,239.23,191.4Z" transform="translate(0 -18.6)"/><path class="cls-5" d="M228.59,170.51H207.91a5,5,0,1,0,0,10h20.68a5,5,0,1,0,0-10Z" transform="translate(0 -18.6)"/><path class="cls-5" d="M228.59,154.18h-5.68a5,5,0,0,0,0,10h5.68a5,5,0,0,0,0-10Z" transform="translate(0 -18.6)"/><path class="cls-9" d="M324.14,191.12H273.2a10,10,0,0,1-10-10v-47a10,10,0,0,1,10-10h50.94a10,10,0,0,1,10,10v47A10,10,0,0,1,324.14,191.12Z" transform="translate(0 -18.6)"/><path class="cls-5" d="M313.51,170.23H292.83a5,5,0,0,0,0,10h20.68a5,5,0,0,0,0-10Z" transform="translate(0 -18.6)"/><path class="cls-5" d="M313.51,153.9h-5.68a5,5,0,0,0,0,10h5.68a5,5,0,0,0,0-10Z" transform="translate(0 -18.6)"/><path class="cls-9" d="M380,124.11v67H358.4a10,10,0,0,1-10-10v-47a10,10,0,0,1,10-10Z" transform="translate(0 -18.6)"/><path class="cls-9" d="M131.77,426.49V241.75a25,25,0,0,1,25-25H355.23a25,25,0,0,1,25,25V426.49Z" transform="translate(0 -18.6)"/><path class="cls-8" d="M350.23,474.4H161.77a35,35,0,0,1-35-35V58.72a35,35,0,0,1,35-35H350.23a35,35,0,0,1,35,35V439.4A35,35,0,0,1,350.23,474.4ZM161.77,33.72a25,25,0,0,0-25,25V439.4a25,25,0,0,0,25,25H350.23a25,25,0,0,0,25-25V58.72a25,25,0,0,0-25-25Z" transform="translate(0 -18.6)"/><path class="cls-8" d="M273.48,56.09h-35a5,5,0,0,1,0-10h35a5,5,0,0,1,0,10Z" transform="translate(0 -18.6)"/><circle class="cls-8" cx="296.81" cy="32.49" r="5"/><path class="cls-5" d="M234.59,249.06H213.91a5,5,0,0,0,0,10h20.68a5,5,0,0,0,0-10Z" transform="translate(0 -18.6)"/><path class="cls-5" d="M336.59,269.33H213.91a5,5,0,0,0,0,10H336.59a5,5,0,0,0,0-10Z" transform="translate(0 -18.6)"/><path class="cls-5" d="M184.93,279.33H164.65a5,5,0,0,1-5-5V254.06a5,5,0,0,1,5-5h20.28a5,5,0,0,1,5,5v20.27A5,5,0,0,1,184.93,279.33Z" transform="translate(0 -18.6)"/><path class="cls-5" d="M234.59,311H213.91a5,5,0,1,0,0,10h20.68a5,5,0,1,0,0-10Z" transform="translate(0 -18.6)"/><path class="cls-5" d="M336.59,331.28H213.91a5,5,0,1,0,0,10H336.59a5,5,0,0,0,0-10Z" transform="translate(0 -18.6)"/><path class="cls-5" d="M184.93,341.28H164.65a5,5,0,0,1-5-5V316a5,5,0,0,1,5-5h20.28a5,5,0,0,1,5,5v20.27A5,5,0,0,1,184.93,341.28Z" transform="translate(0 -18.6)"/><path class="cls-5" d="M234.59,373H213.91a5,5,0,0,0,0,10h20.68a5,5,0,0,0,0-10Z" transform="translate(0 -18.6)"/><path class="cls-5" d="M336.59,393.22H213.91a5,5,0,1,0,0,10H336.59a5,5,0,0,0,0-10Z" transform="translate(0 -18.6)"/><path class="cls-5" d="M184.93,403.22H164.65a5,5,0,0,1-5-5V378a5,5,0,0,1,5-5h20.28a5,5,0,0,1,5,5v20.27A5,5,0,0,1,184.93,403.22Z" transform="translate(0 -18.6)"/><path class="cls-5" d="M418.34,397.24A14.29,14.29,0,1,1,432.63,383,14.31,14.31,0,0,1,418.34,397.24Zm0-18.58a4.29,4.29,0,1,0,4.29,4.29A4.29,4.29,0,0,0,418.34,378.66Z" transform="translate(0 -18.6)"/><path class="cls-5" d="M82.92,184.41a5,5,0,0,1-5-5,6,6,0,0,0-6-6,5,5,0,1,1,0-10,6,6,0,0,0,6-6,5,5,0,0,1,10,0,6,6,0,0,0,6,6,5,5,0,0,1,0,10,6,6,0,0,0-6,6A5,5,0,0,1,82.92,184.41Z" transform="translate(0 -18.6)"/><path class="cls-5" d="M432.65,442.49a5,5,0,0,1-5-5,6,6,0,0,0-6-6,5,5,0,0,1,0-10,6,6,0,0,0,6-6,5,5,0,0,1,10,0,6,6,0,0,0,6,6,5,5,0,0,1,0,10,6,6,0,0,0-6,6A5,5,0,0,1,432.65,442.49Z" transform="translate(0 -18.6)"/><path class="cls-5" d="M443.65,150.62a5,5,0,0,1-5-5,6,6,0,0,0-6-6,5,5,0,0,1,0-10,6,6,0,0,0,6-6,5,5,0,0,1,10,0,6,6,0,0,0,6,6,5,5,0,0,1,0,10,6,6,0,0,0-6,6A5,5,0,0,1,443.65,150.62Z" transform="translate(0 -18.6)"/><path class="cls-5" d="M72.63,233.71a5,5,0,0,1-5-5,6,6,0,0,0-6-6,5,5,0,0,1,0-10,6,6,0,0,0,6-6,5,5,0,0,1,10,0,6,6,0,0,0,6,6,5,5,0,1,1,0,10,6,6,0,0,0-6,6A5,5,0,0,1,72.63,233.71Z" transform="translate(0 -18.6)"/></svg>