<svg id="Capa_1" data-name="Capa 1" xmlns="http://www.w3.org/2000/svg" viewBox="0 0 512 426.4"><defs><style>.cls-1{fill:#0099da;opacity:0.2;}.cls-2,.cls-7{fill:#003087;}.cls-2{opacity:0.1;}.cls-3{fill:#32e2a9;}.cls-4{fill:#01eca5;}.cls-5{fill:#f5f4f9;}.cls-6{fill:#e1dfed;}.cls-8{fill:#fff;}</style></defs><title>icon_digital_marketing</title><path class="cls-1" d="M501.87,153.05c-22.35-56.89-91.22-91-149.55-68.42-66.59,25.76-44.51,131.67-105,153.08-32.67,11.57-81-31.64-114-38.27C72.54,187.23,17.48,230.15,3.93,289.58c-13.84,60.63,8.35,141.61,75,158.06,79.35,19.6,120.69-51.73,187.25-72.21,68.31-21,144.26,28.62,200.82-31.77C508.74,299,524,209.38,501.87,153.05Z" transform="translate(0 -42.8)"/><path class="cls-2" d="M373,275.15A67.16,67.16,0,0,0,325.23,159.9l-12.87-31.07a26.71,26.71,0,0,0-50.1,18.4L242,158.81a44.61,44.61,0,1,0-73.13,41.76l-69.94,40A29,29,0,0,0,94,244.05a28.6,28.6,0,0,0-7.58,31.68h0a46.74,46.74,0,0,0,35.78,86.37h0a28.61,28.61,0,0,0,33.72,16.07l17-4.63,33.53,81a23.82,23.82,0,0,0,31.11,12.88l18.4-7.62a15.08,15.08,0,0,0,9-17l-4.22-20.29L288.53,411A12,12,0,0,0,295,395.33l-20.51-49.52,62.91-17.17a26.71,26.71,0,0,0,48.43-22.43Z" transform="translate(0 -42.8)"/><path class="cls-3" d="M423.92,336.72h-3.25v-3.25a5,5,0,0,0-10,0v3.25h-3.25a5,5,0,0,0,0,10h3.25V350a5,5,0,0,0,10,0v-3.25h3.25a5,5,0,1,0,0-10Z" transform="translate(0 -42.8)"/><path class="cls-3" d="M310.17,51.05h-3.25V47.8a5,5,0,0,0-10,0v3.25h-3.25a5,5,0,0,0,0,10h3.25V64.3a5,5,0,1,0,10,0V61.05h3.25a5,5,0,0,0,0-10Z" transform="translate(0 -42.8)"/><path class="cls-3" d="M122.75,157.46H119.5v-3.25a5,5,0,0,0-10,0v3.25h-3.25a5,5,0,0,0,0,10h3.25v3.25a5,5,0,1,0,10,0v-3.25h3.25a5,5,0,1,0,0-10Z" transform="translate(0 -42.8)"/><path class="cls-3" d="M338.22,425a14.59,14.59,0,1,1,10.33-4.27h0A14.52,14.52,0,0,1,338.22,425Zm6.79-7.81h0Zm-6.79-11.39a4.61,4.61,0,1,0,3.26,1.35,4.6,4.6,0,0,0-3.26-1.35Z" transform="translate(0 -42.8)"/><path class="cls-3" d="M110.27,406.07a14.45,14.45,0,0,1-7.94-2.38,14.59,14.59,0,1,1,11,2.06,15,15,0,0,1-3,.32Zm0-19.21a4.6,4.6,0,1,0,3.85,7.12h0a4.61,4.61,0,0,0-3.85-7.12Z" transform="translate(0 -42.8)"/><circle class="cls-3" cx="116.3" cy="257.79" r="46.74"/><path class="cls-3" d="M300.53,392.64l-39.13,16.2-23.1-55.77-12.38-29.88,50.19-20.78,15,36.24L307,377a12,12,0,0,1-6.47,15.64Z" transform="translate(0 -42.8)"/><path class="cls-2" d="M291.12,338.65,238.3,353.07l-12.38-29.88,50.19-20.78Z" transform="translate(0 -42.8)"/><path class="cls-3" d="M267.91,441.43l-18.4,7.62a23.82,23.82,0,0,1-31.11-12.89l-28.9-69.77-7.17-17.32L255,319l5.8,28,16.1,77.53a15.07,15.07,0,0,1-9,17Z" transform="translate(0 -42.8)"/><path class="cls-4" d="M260.79,346.93,189.5,366.39l-7.17-17.32L255,319Z" transform="translate(0 -42.8)"/><path class="cls-5" d="M373.89,303.62l-206,56.22a28.61,28.61,0,0,1-34-16.66L98.66,258a28.62,28.62,0,0,1,12.25-35.8l185.4-105.88Z" transform="translate(0 -42.8)"/><path class="cls-3" d="M253.57,202.48a3.52,3.52,0,0,1-4.64,4.64l-14.23-6.27a44.55,44.55,0,0,1-62.48-13.69L249.62,143a43.9,43.9,0,0,1,4.92,16.78,44.51,44.51,0,0,1-7.23,28.5Z" transform="translate(0 -42.8)"/><path class="cls-3" d="M282.73,277.14,230,291.54A6,6,0,0,0,226,299.6l5.91,14.29a6,6,0,0,0,7.11,3.48L291.8,303a6,6,0,0,0,3.95-8.06l-5.91-14.28A6,6,0,0,0,282.73,277.14Z" transform="translate(0 -42.8)"/><path class="cls-3" d="M235.17,266.57l-14,3.81a6,6,0,0,0-4,8.06l.42,1a6,6,0,0,0,7.11,3.48l14-3.81a6,6,0,0,0,4-8.06l-.43-1A6,6,0,0,0,235.17,266.57Z" transform="translate(0 -42.8)"/><path class="cls-6" d="M157.28,195.7l62.17,150.08-51.53,14.06a28.61,28.61,0,0,1-34-16.66L98.66,258a28.62,28.62,0,0,1,12.25-35.8Z" transform="translate(0 -42.8)"/><path class="cls-3" d="M312.38,146.67a67.16,67.16,0,1,1,51.41,124.1Z" transform="translate(0 -42.8)"/><path class="cls-5" d="M383.38,322.78a26.71,26.71,0,0,1-34.9-14.46L275,130.94a26.71,26.71,0,0,1,49.35-20.44l73.47,177.38a26.71,26.71,0,0,1-14.45,34.9Z" transform="translate(0 -42.8)"/><path class="cls-5" d="M324.36,110.5l73.47,177.38a26.69,26.69,0,0,1-23.55,36.9,26.7,26.7,0,0,0,6.6-29.88L307.41,117.53a26.72,26.72,0,0,0-25.8-16.47,26.7,26.7,0,0,1,28.29-5,26.63,26.63,0,0,1,14.46,14.45Z" transform="translate(0 -42.8)"/><path class="cls-3" d="M146.18,301.8l-34.56,14.31a12.26,12.26,0,1,1-9.39-22.66l34.56-14.32Z" transform="translate(0 -42.8)"/><path class="cls-3" d="M165.58,151.55a44.61,44.61,0,1,1,81.72,21.67l6.27,14.23a3.52,3.52,0,0,1-4.64,4.64l-14.23-6.27a44.6,44.6,0,0,1-69.12-34.27Z" transform="translate(0 -42.8)"/><path class="cls-7" d="M426.17,175.82l9.47-3.93a5,5,0,0,0-3.83-9.24l-9.47,3.93a5,5,0,0,0,1.92,9.62A5.2,5.2,0,0,0,426.17,175.82Z" transform="translate(0 -42.8)"/><path class="cls-7" d="M419.49,137.3a5,5,0,0,0-6.88,1.63L406,149.7a5,5,0,1,0,8.51,5.24l6.64-10.76A5,5,0,0,0,419.49,137.3Z" transform="translate(0 -42.8)"/><path class="cls-7" d="M441.15,192.52l-12.3-2.93a5,5,0,1,0-2.32,9.73l12.3,2.92a4.66,4.66,0,0,0,1.16.14,5,5,0,0,0,1.16-9.86Z" transform="translate(0 -42.8)"/><path class="cls-7" d="M404.76,181.1a72.06,72.06,0,0,0-64.18-44.51l-11.6-28a31.71,31.71,0,0,0-60.49,17.84l-11.34,6.48a49.61,49.61,0,0,0-96.56,19,49.36,49.36,0,0,0,12.13,29.25l-64.3,36.72a33.69,33.69,0,0,0-16,36.88A51.73,51.73,0,0,0,131.82,350a33.65,33.65,0,0,0,37.42,14.72l85.3-23.29L272,425.48a10.06,10.06,0,0,1-6,11.33l-18.39,7.62A18.84,18.84,0,0,1,223,434.25l-23.35-56.38a5,5,0,1,0-9.24,3.82l23.36,56.39a28.81,28.81,0,0,0,37.63,15.59l18.4-7.62a20.06,20.06,0,0,0,12-22.6l-3.37-16.24,24-9.95a17,17,0,0,0,9.18-22.17L293.28,330.8l29-7.92a5,5,0,0,0-2.64-9.65l-97.3,26.56L163.59,197.86l16.79-9.59A49,49,0,0,0,205.79,198c1.46.13,2.91.19,4.36.19a49.06,49.06,0,0,0,25-6.77l11.81,5.2a8.52,8.52,0,0,0,11.23-11.23L253,173.62a49.25,49.25,0,0,0,6.58-29.32c0-.39-.09-.77-.13-1.16l12.33-7,72.13,174.13A31.71,31.71,0,1,0,402.45,286l-11.6-28a72.06,72.06,0,0,0,13.91-76.86Zm-327,135.47a41.81,41.81,0,0,1,18.08-52.35l9.36,22.59-4.86,2a17.27,17.27,0,1,0,13.21,31.91l4.87-2,9.14,22.07A41.75,41.75,0,0,1,77.74,316.57Zm61.9-17.48-29.93,12.4a7.27,7.27,0,1,1-5.56-13.43l29.93-12.4Zm162.74,79.82a7,7,0,0,1-3.77,9.11l-22.27,9.22-12.14-58.5,19.36-5.28Zm-89.72-36.47L166.6,355a23.67,23.67,0,0,1-28-13.75l-10.92-26.38,15.83-6.56,2.67,6.44a5,5,0,0,0,4.62,3.09,5.16,5.16,0,0,0,1.91-.38,5,5,0,0,0,2.7-6.54l-18.76-45.3a5,5,0,0,0-9.24,3.83l2.88,7L114.42,283l-11.15-26.9a23.67,23.67,0,0,1,10.11-29.55l41.46-23.68Zm30.07-167.2L247.46,186l-10.74-4.72a5,5,0,0,0-4.77.4A39.61,39.61,0,1,1,210.16,109c.85,0,1.71,0,2.56.08a39.74,39.74,0,0,1,36.84,36.06,39.33,39.33,0,0,1-6.42,25.31,5,5,0,0,0-.41,4.78ZM393.21,306.41a21.71,21.71,0,0,1-40.11,0L279.62,129a21.71,21.71,0,0,1,40.12-16.62l73.47,177.38a21.57,21.57,0,0,1,0,16.62Zm-6.64-58.77L344.86,146.92a62.18,62.18,0,0,1,41.71,100.72Z" transform="translate(0 -42.8)"/><path class="cls-7" d="M166,306.53a5,5,0,0,0,4.62,3.08,4.93,4.93,0,0,0,1.91-.38,5,5,0,0,0,2.71-6.53l-18.77-45.3a5,5,0,1,0-9.23,3.83Z" transform="translate(0 -42.8)"/><circle class="cls-8" cx="190.19" cy="105.82" r="5.59"/><circle class="cls-8" cx="210.1" cy="105.82" r="5.59"/><circle class="cls-8" cx="230.01" cy="105.82" r="5.59"/></svg>