<svg id="Capa_1" data-name="Capa 1" xmlns="http://www.w3.org/2000/svg" viewBox="0 0 512 427"><defs><style>.cls-1{fill:#0099da;opacity:0.2;}.cls-2,.cls-8{fill:#003087;}.cls-2{opacity:0.1;}.cls-3{fill:#cecae0;}.cls-4{fill:#f5f4f9;}.cls-5,.cls-6{fill:#32e2a9;}.cls-5{opacity:0.3;}.cls-7{fill:#e1dfed;}</style></defs><title>icon_web_design</title><path class="cls-1" d="M505.63,289.42a117.78,117.78,0,0,0-69.86-72.2,42.76,42.76,0,0,1-27.58-39.43c0-.38,0-.77,0-1.15-1.51-64.59-55.49-116.33-120.08-115.23a117.91,117.91,0,0,0-92.91,47.92c-18.18,24.6-46.49,40-77.08,40l-2.7,0C53.49,150.67.84,203.79,0,265.72a118.06,118.06,0,0,0,228.92,42.15,24.16,24.16,0,0,1,29.28-14.77l.46.13a24.09,24.09,0,0,1,17.55,25.12A117.64,117.64,0,0,0,282,365.14c20.53,61.14,87.19,94.69,148.5,74.68a118,118,0,0,0,75.12-150.4Z" transform="translate(0 -42.5)"/><path class="cls-2" d="M406.79,130.73h-28V99.87a20,20,0,0,0-1.86-8.43L356.84,48.28a10,10,0,0,0-18.13,0L318.63,91.44a20,20,0,0,0-1.86,8.43v30.86H105.21A16.57,16.57,0,0,0,88.64,147.3V363.23a16.56,16.56,0,0,0,16.57,16.56H406.79a16.56,16.56,0,0,0,16.57-16.56V147.3a16.57,16.57,0,0,0-16.57-16.57Z" transform="translate(0 -42.5)"/><path class="cls-3" d="M305.69,464.5H206.31l12.95-51.35,6.92-27.42h59.64l6.92,27.42Z" transform="translate(0 -42.5)"/><path class="cls-4" d="M406.79,400.8H105.21a16.57,16.57,0,0,1-16.57-16.57V168.3a16.57,16.57,0,0,1,16.57-16.57H406.79a16.57,16.57,0,0,1,16.57,16.57V384.23a16.57,16.57,0,0,1-16.57,16.57Z" transform="translate(0 -42.5)"/><path class="cls-5" d="M88.64,289v95.23a16.57,16.57,0,0,0,16.57,16.57H406.79a16.57,16.57,0,0,0,16.57-16.57V289Z" transform="translate(0 -42.5)"/><path class="cls-6" d="M423.36,193.94V168.3a16.57,16.57,0,0,0-16.57-16.57H105.21A16.57,16.57,0,0,0,88.64,168.3v25.64Z" transform="translate(0 -42.5)"/><path class="cls-7" d="M88.64,356.64v27.59a16.57,16.57,0,0,0,16.57,16.57H406.79a16.57,16.57,0,0,0,16.57-16.57V356.64Z" transform="translate(0 -42.5)"/><path class="cls-4" d="M194.72,312.69H121a5,5,0,0,1,0-10h73.75a5,5,0,0,1,0,10Z" transform="translate(0 -42.5)"/><path class="cls-5" d="M137.71,276.69H121a5,5,0,0,1,0-10h16.74a5,5,0,0,1,0,10Z" transform="translate(0 -42.5)"/><path class="cls-4" d="M194.72,332.55H121a5,5,0,1,1,0-10h73.75a5,5,0,1,1,0,10Z" transform="translate(0 -42.5)"/><path class="cls-6" d="M134.12,252.87a5,5,0,0,1-3.53-1.46l-12-12a5,5,0,0,1,0-7.07l12-12a5,5,0,0,1,7.07,7.08l-8.5,8.5,8.5,8.5a5,5,0,0,1-3.54,8.53Z" transform="translate(0 -42.5)"/><path class="cls-6" d="M180.89,252.87a5,5,0,0,1-3.54-8.53l8.5-8.5-8.5-8.5a5,5,0,0,1,7.08-7.08l12,12c1.95,1.95,1.95-.88,0,1.07l-12,18a5,5,0,0,1-3.54,1.46Z" transform="translate(0 -42.5)"/><path class="cls-6" d="M150.71,252.87a5.07,5.07,0,0,1-2.46-.64,5,5,0,0,1-1.89-6.82L160,221.34a5,5,0,0,1,8.71,4.92l-13.6,24.07A5,5,0,0,1,150.71,252.87Z" transform="translate(0 -42.5)"/><path class="cls-6" d="M338.71,69.29l-20.08,43.15a20,20,0,0,0-1.86,8.44V356.64h62V120.88a20,20,0,0,0-1.86-8.44L356.84,69.29a10,10,0,0,0-18.13,0Z" transform="translate(0 -42.5)"/><path class="cls-6" d="M316.77,126.62h31v230h-31Z" transform="translate(0 -42.5)"/><path class="cls-7" d="M338.71,69.29l-20.08,43.15a20,20,0,0,0-1.86,8.44v12.74a25.37,25.37,0,0,0,25.61-1,10.19,10.19,0,0,1,10.91.08,25.36,25.36,0,0,0,25.48.88V120.88a20.13,20.13,0,0,0-1.86-8.44L356.84,69.29a10,10,0,0,0-18.13,0Z" transform="translate(0 -42.5)"/><path class="cls-6" d="M338.71,69.29l-11,23.62a31.62,31.62,0,0,0,40.09,0l-11-23.61a10,10,0,0,0-18.13,0Z" transform="translate(0 -42.5)"/><path class="cls-6" d="M244,180.3,224,223.45a20,20,0,0,0-1.87,8.44V356.64h62V231.89a20,20,0,0,0-1.87-8.44L262.17,180.3a10,10,0,0,0-18.14,0Z" transform="translate(0 -42.5)"/><path class="cls-6" d="M222.09,237.63h31v119h-31Z" transform="translate(0 -42.5)"/><path class="cls-7" d="M244,180.3,224,223.45a20,20,0,0,0-1.87,8.44v12.74a25.38,25.38,0,0,0,25.62-1,10.19,10.19,0,0,1,10.91.08,25.36,25.36,0,0,0,25.48.88V231.88a20,20,0,0,0-1.87-8.43L262.16,180.3a10,10,0,0,0-18.13,0Z" transform="translate(0 -42.5)"/><path class="cls-6" d="M244,180.3l-11,23.62a31.64,31.64,0,0,0,40.1,0l-11-23.61a10,10,0,0,0-18.14,0Z" transform="translate(0 -42.5)"/><path class="cls-8" d="M117,172.77v.13a5,5,0,0,0,10,0v-.13a5,5,0,0,0-10,0Z" transform="translate(0 -42.5)"/><path class="cls-8" d="M133.94,172.77v.13a5,5,0,1,0,10,0v-.13a5,5,0,0,0-10,0Z" transform="translate(0 -42.5)"/><path class="cls-8" d="M150.88,172.77v.13a5,5,0,0,0,10,0v-.13a5,5,0,1,0-10,0Z" transform="translate(0 -42.5)"/><path class="cls-8" d="M406.79,146.73h-23V120.88a25.18,25.18,0,0,0-2.32-10.54L361.38,67.18a15,15,0,0,0-27.21,0L314.1,110.34a25.23,25.23,0,0,0-2.33,10.54v68.06H271.7l-5-10.75a15,15,0,0,0-27.21,0l-5,10.75H93.64V168.3a11.57,11.57,0,0,1,11.57-11.56h184a5,5,0,0,0,0-10h-184A21.59,21.59,0,0,0,83.64,168.3V384.23a21.6,21.6,0,0,0,21.57,21.57H216l-13.55,53.7H189.47a5,5,0,0,0,0,10H322.53a5,5,0,0,0,0-10H309.59L296,405.8H406.79a21.6,21.6,0,0,0,21.57-21.57V168.3a21.6,21.6,0,0,0-21.57-21.57Zm-54,204.91V138.19a30.11,30.11,0,0,0,14,3.44,30.51,30.51,0,0,0,7-.82V351.64Zm-31,0V140.81a30.51,30.51,0,0,0,7,.82,30.19,30.19,0,0,0,14-3.44V351.64Zm62-152.7h34.58v152.7H383.78Zm23-42.21a11.58,11.58,0,0,1,11.57,11.57v20.64H383.78V156.73ZM343.24,71.39a5,5,0,0,1,9.07,0l9.21,19.82a26.59,26.59,0,0,1-13.75,3.86A26.24,26.24,0,0,1,334,91.22Zm-20.07,43.16,6.61-14.21a36.6,36.6,0,0,0,36,0l6.61,14.21a15.2,15.2,0,0,1,1.39,6.33v9.51A20.32,20.32,0,0,1,356,128.51a15.21,15.21,0,0,0-16.27-.06,20.27,20.27,0,0,1-10.92,3.18,20.52,20.52,0,0,1-7-1.24v-9.51A15.06,15.06,0,0,1,323.17,114.55Zm-11.4,84.39v152.7H289.1V231.89a25.23,25.23,0,0,0-2.33-10.54l-10.42-22.41Zm-53.68,152.7V249.2a30.26,30.26,0,0,0,21,2.62v99.82Zm-29.6-126.08,6.61-14.21a36.6,36.6,0,0,0,36,0l6.61,14.21a15.06,15.06,0,0,1,1.4,6.33v9.52a20.41,20.41,0,0,1-17.81-1.88,15.23,15.23,0,0,0-16.28-.07,20.26,20.26,0,0,1-17.92,1.94v-9.51a15.21,15.21,0,0,1,1.4-6.33Zm20.07-43.16a5,5,0,0,1,9.07,0l9.22,19.82a26.6,26.6,0,0,1-13.76,3.86,26.32,26.32,0,0,1-13.75-3.84Zm-18.72,16.54-10.41,22.41a25.08,25.08,0,0,0-2.33,10.54V329.1a5,5,0,0,0,10,0V251.82a30.21,30.21,0,0,0,21-2.62V351.64H93.64V198.94ZM299.28,459.5H212.72l13.56-53.7h59.44Zm107.51-63.7H105.21a11.58,11.58,0,0,1-11.57-11.57V361.64H418.36v22.59A11.58,11.58,0,0,1,406.79,395.8Z" transform="translate(0 -42.5)"/><path class="cls-6" d="M273.15,132.38a5,5,0,0,1-3.54-1.46l-11-11a5,5,0,0,1,0-7.07l11-11a5,5,0,0,1,7.07,0l11,11a5,5,0,0,1,0,7.07l-11,11A5,5,0,0,1,273.15,132.38Zm-3.93-16,3.93,3.92,3.92-3.92-3.92-3.93Z" transform="translate(0 -42.5)"/><path class="cls-6" d="M128.1,458.38a5,5,0,0,1-5-5,6,6,0,0,0-6-6,5,5,0,0,1,0-10,6,6,0,0,0,6-6,5,5,0,0,1,10,0,6,6,0,0,0,6,6,5,5,0,1,1,0,10,6,6,0,0,0-6,6A5,5,0,0,1,128.1,458.38Z" transform="translate(0 -42.5)"/><path class="cls-6" d="M229.6,99.94a5,5,0,0,1-5-5,6,6,0,0,0-6-6,5,5,0,1,1,0-10,6,6,0,0,0,6-6,5,5,0,0,1,10,0,6,6,0,0,0,6,6,5,5,0,0,1,0,10,6,6,0,0,0-6,6A5,5,0,0,1,229.6,99.94Z" transform="translate(0 -42.5)"/><path class="cls-6" d="M133.3,123.38a5,5,0,0,1-5-5,6,6,0,0,0-6-6,5,5,0,0,1,0-10,6,6,0,0,0,6-6,5,5,0,1,1,10,0,6,6,0,0,0,6,6,5,5,0,0,1,0,10,6,6,0,0,0-6,6A5,5,0,0,1,133.3,123.38Z" transform="translate(0 -42.5)"/></svg>