<svg id="Capa_1" data-name="Capa 1" xmlns="http://www.w3.org/2000/svg" viewBox="0 0 512 460.93"><defs><style>.cls-1{fill:#0099da;opacity:0.2;}.cls-12,.cls-2{fill:#003087;}.cls-2{opacity:0.1;}.cls-3{fill:#fff;}.cls-4{fill:#afabc6;}.cls-5{fill:#cecae0;}.cls-6{fill:#e1dfed;}.cls-7{fill:#ededf2;}.cls-8{fill:#32e2a9;}.cls-9{fill:#3fefaf;}.cls-10{fill:#55f9ba;}.cls-11{fill:#70fcc3;}</style></defs><title>icon_branding</title><path class="cls-1" d="M16.07,302.88C34.8,366.88,88.78,497.44,180,485.73,271.48,474,235.75,356,319.5,339.83c36.87-7.12,61.86,56.69,98.81,54.71,47.59-2.56,71.81-49.67,85.11-89.27,28.19-84-14-226.35-112.86-251-86.24-21.52-96.33,83.85-171.32,53.25C177.09,90.3,181.3,38.93,130,28.57-25.33-2.79-8.85,217.72,16.07,302.88Z" transform="translate(0 -25.54)"/><path class="cls-2" d="M449.42,357.64h-202L409.68,196.81a10,10,0,0,0,0-14.19l-66.42-65.84a10.19,10.19,0,0,0-14.32,0L166.69,277.6V77.48A10.08,10.08,0,0,0,156.61,67.4h-94A10.08,10.08,0,0,0,52.5,77.48V460.75a10.08,10.08,0,0,0,10.08,10.08H449.42a10.08,10.08,0,0,0,10.08-10.08v-93a10.08,10.08,0,0,0-10.08-10.08Z" transform="translate(0 -25.54)"/><path class="cls-3" d="M156.61,450.83h-94A10.08,10.08,0,0,1,52.5,440.75V57.48A10.08,10.08,0,0,1,62.58,47.39h94a10.08,10.08,0,0,1,10.08,10.09V440.75A10.08,10.08,0,0,1,156.61,450.83Z" transform="translate(0 -25.54)"/><path class="cls-4" d="M52.5,289H166.69v80.54H52.5Z" transform="translate(0 -25.54)"/><path class="cls-5" d="M52.5,208.47H166.69V289H52.5Z" transform="translate(0 -25.54)"/><path class="cls-6" d="M52.5,127.93H166.69v80.54H52.5Z" transform="translate(0 -25.54)"/><path class="cls-7" d="M62.63,47.4h93.93a10.08,10.08,0,0,1,10.13,10v70.5H52.5V57.43A10.07,10.07,0,0,1,62.63,47.4Z" transform="translate(0 -25.54)"/><path class="cls-3" d="M121.89,447.89,55.47,382.05a10,10,0,0,1,0-14.2L328.94,96.78a10.19,10.19,0,0,1,14.32,0l66.42,65.84a10,10,0,0,1,0,14.19L136.21,447.89a10.19,10.19,0,0,1-14.32,0Z" transform="translate(0 -25.54)"/><path class="cls-8" d="M163.74,260.52l80.75,80L187,397.51l-80.75-80Z" transform="translate(0 -25.54)"/><path class="cls-9" d="M221.2,203.57l80.74,80-57.45,56.95-80.75-80Z" transform="translate(0 -25.54)"/><path class="cls-10" d="M278.65,146.63l80.74,80-57.45,57-80.75-80Z" transform="translate(0 -25.54)"/><path class="cls-11" d="M343.26,96.78l66.42,65.84a10,10,0,0,1,0,14.19l-50.29,49.85-80.74-80,50.29-49.85a10.19,10.19,0,0,1,14.32,0Z" transform="translate(0 -25.54)"/><path class="cls-3" d="M52.5,440.75v-93a10.08,10.08,0,0,1,10.08-10.08H449.42a10.08,10.08,0,0,1,10.08,10.08v93a10.08,10.08,0,0,1-10.08,10.08H62.58A10.08,10.08,0,0,1,52.5,440.75Z" transform="translate(0 -25.54)"/><path class="cls-8" d="M134.51,337.64h81.25V450.83H134.51Z" transform="translate(0 -25.54)"/><path class="cls-9" d="M215.75,337.64H297V450.83H215.75Z" transform="translate(0 -25.54)"/><path class="cls-10" d="M297,337.64h81.25V450.83H297Z" transform="translate(0 -25.54)"/><path class="cls-11" d="M459.5,347.68v93.11a10.09,10.09,0,0,1-10.13,10H378.25V337.64h71.12A10.08,10.08,0,0,1,459.5,347.68Z" transform="translate(0 -25.54)"/><path class="cls-12" d="M449.42,332.64H409.33a5,5,0,0,0,0,10h40.09a5.09,5.09,0,0,1,5.08,5.08v93a5.09,5.09,0,0,1-5.08,5.08H62.58a5.09,5.09,0,0,1-5.08-5.08v-93a5.09,5.09,0,0,1,5.08-5.08H375.33a5,5,0,1,0,0-10H259.58L413.2,180.37a15,15,0,0,0,0-21.3L346.78,93.23a15.21,15.21,0,0,0-21.36,0L83.89,332.64H62.58a15,15,0,0,0-5.08.9V57.48a5.09,5.09,0,0,1,5.08-5.09h94a5.09,5.09,0,0,1,5.08,5.09V223.25a5,5,0,0,0,10,0V57.48a15.11,15.11,0,0,0-15.08-15.09h-94A15.1,15.1,0,0,0,47.5,57.48V440.75a15.1,15.1,0,0,0,15.08,15.08H449.42a15.1,15.1,0,0,0,15.08-15.08v-93a15.1,15.1,0,0,0-15.08-15.08Zm-117-232.31a5.18,5.18,0,0,1,7.28,0l66.42,65.84a5,5,0,0,1,0,7.09L245.4,332.61l0,0H98.09Z" transform="translate(0 -25.54)"/><circle class="cls-4" cx="95.46" cy="371.97" r="10.92"/><path class="cls-3" d="M91.67,111.68H76.78a5,5,0,0,1,0-10H91.67a5,5,0,1,1,0,10Z" transform="translate(0 -25.54)"/><path class="cls-3" d="M91.67,193.29H76.78a5,5,0,0,1,0-10H91.67a5,5,0,0,1,0,10Z" transform="translate(0 -25.54)"/><path class="cls-3" d="M91.67,274.9H76.78a5,5,0,1,1,0-10H91.67a5,5,0,1,1,0,10Z" transform="translate(0 -25.54)"/><path class="cls-3" d="M318.77,162.87l-10.53-10.52a5,5,0,1,1,7.08-7.07l10.52,10.52a5,5,0,0,1-7.07,7.07Z" transform="translate(0 -25.54)"/><path class="cls-3" d="M261.06,220.58l-10.52-10.53a5,5,0,1,1,7.07-7.07l10.52,10.53a5,5,0,1,1-7.07,7.07Z" transform="translate(0 -25.54)"/><path class="cls-3" d="M203.35,278.28l-10.52-10.52a5,5,0,0,1,7.07-7.07l10.52,10.52a5,5,0,1,1-7.07,7.07Z" transform="translate(0 -25.54)"/><path class="cls-3" d="M393.65,377V362.1a5,5,0,0,1,10,0V377a5,5,0,0,1-10,0Z" transform="translate(0 -25.54)"/><path class="cls-3" d="M312,377V362.1a5,5,0,0,1,10,0V377a5,5,0,0,1-10,0Z" transform="translate(0 -25.54)"/><path class="cls-3" d="M230.43,377V362.1a5,5,0,0,1,10,0V377a5,5,0,0,1-10,0Z" transform="translate(0 -25.54)"/><path class="cls-3" d="M148.82,377V362.1a5,5,0,0,1,10,0V377a5,5,0,0,1-10,0Z" transform="translate(0 -25.54)"/><path class="cls-8" d="M266.49,115.72a5,5,0,0,1-5-5,6,6,0,0,0-6-6,5,5,0,0,1,0-10,6,6,0,0,0,6-6,5,5,0,0,1,10,0,6,6,0,0,0,6,6,5,5,0,0,1,0,10,6,6,0,0,0-6,6A5,5,0,0,1,266.49,115.72Z" transform="translate(0 -25.54)"/><path class="cls-8" d="M448.5,272.61a5,5,0,0,1-5-5,6,6,0,0,0-6-6,5,5,0,0,1,0-10,6,6,0,0,0,6-6,5,5,0,0,1,10,0,6,6,0,0,0,6,6,5,5,0,0,1,0,10,6,6,0,0,0-6,6A5,5,0,0,1,448.5,272.61Z" transform="translate(0 -25.54)"/><path class="cls-8" d="M211.89,68.17a5,5,0,0,1-5-5,6,6,0,0,0-6-6,5,5,0,0,1,0-10,6,6,0,0,0,6-6,5,5,0,0,1,10,0,6,6,0,0,0,6,6,5,5,0,0,1,0,10,6,6,0,0,0-6,6A5,5,0,0,1,211.89,68.17Z" transform="translate(0 -25.54)"/><path class="cls-8" d="M354.39,299a5,5,0,0,1-3.54-8.53l10-10a5,5,0,1,1,7.08,7.07l-10,10A5,5,0,0,1,354.39,299Z" transform="translate(0 -25.54)"/><path class="cls-8" d="M398.65,73.17a5,5,0,0,1-3.54-8.53l10-10a5,5,0,0,1,7.08,7.07l-10,10A5,5,0,0,1,398.65,73.17Z" transform="translate(0 -25.54)"/></svg>