<?xml version="1.0" encoding="utf-8"?>
<!-- Generator: Adobe Illustrator 23.1.0, SVG Export Plug-In . SVG Version: 6.00 Build 0)  -->
<svg version="1.1" xmlns="http://www.w3.org/2000/svg" xmlns:xlink="http://www.w3.org/1999/xlink" x="0px" y="0px"
	 viewBox="0 0 500 500" style="enable-background:new 0 0 500 500;" xml:space="preserve">
<style type="text/css">
	.st0{fill:#EBEBEB;}
	.st1{fill:#F0F0F0;}
	.st2{fill:#E0E0E0;}
	.st3{fill:none;stroke:#E6E6E6;stroke-miterlimit:10;}
	.st4{fill:#E0E0E0;enable-background:new    ;}
	.st5{opacity:0.8;fill:#E0E0E0;}
	.st6{fill:#F5F5F5;}
	.st7{fill:#FAFAFA;}
	.st8{fill:#263238;}
	.st9{opacity:0.2;fill:#FFFFFF;}
	.st10{opacity:0.4;fill:#FFFFFF;}
	.st11{fill:#407BFF;}
	.st12{opacity:0.6;fill:#FFFFFF;enable-background:new    ;}
	.st13{fill:#FFFFFF;}
	.st14{opacity:0.6;fill:#FFFFFF;}
	.st15{opacity:0.1;enable-background:new    ;}
	.st16{opacity:0.7;fill:#FFFFFF;}
	.st17{opacity:0.2;enable-background:new    ;}
	.st18{fill:none;stroke:#FFFFFF;stroke-miterlimit:10;}
	.st19{fill:none;stroke:#FFFFFF;stroke-miterlimit:10;stroke-dasharray:5.2837,5.2837;}
	.st20{fill:none;stroke:#FFFFFF;stroke-miterlimit:10;stroke-dasharray:4.5294,4.5294;}
	.st21{fill:#407BFF;stroke:#FFFFFF;stroke-miterlimit:10;}
	.st22{fill:none;stroke:#FFFFFF;stroke-width:1.5;stroke-linecap:round;stroke-linejoin:round;stroke-miterlimit:10;}
	.st23{opacity:0.5;fill:#FFFFFF;}
	.st24{fill:none;stroke:#407BFF;stroke-miterlimit:10;}
	.st25{fill:#FFFFFF;stroke:#407BFF;stroke-miterlimit:10;}
	.st26{opacity:0.4;enable-background:new    ;}
	.st27{opacity:0.9;fill:#FFFFFF;}
	.st28{opacity:0.1;}
	.st29{opacity:0.3;enable-background:new    ;}
	.st30{fill:#EBB376;}
	.st31{fill:none;stroke:#263238;stroke-width:0.5;stroke-linecap:round;stroke-linejoin:round;stroke-miterlimit:10;}
	.st32{opacity:0.2;fill:#FFFFFF;enable-background:new    ;}
	.st33{opacity:0.3;fill:#FFFFFF;enable-background:new    ;}
	.st34{fill:#B97964;}
	.st35{opacity:0.4;fill:#FFFFFF;enable-background:new    ;}
	.st36{fill:#A24E3F;}
	.st37{fill:none;stroke:#FFFFFF;stroke-width:2;stroke-linecap:round;stroke-linejoin:round;stroke-miterlimit:10;}
</style>
<g id="Background_Complete">
	<g>
		<rect y="382.4" class="st0" width="500" height="0.3"/>
		<rect x="416.8" y="398.5" class="st0" width="33.1" height="0.3"/>
		<rect x="322.5" y="401.2" class="st0" width="8.7" height="0.3"/>
		<rect x="396.6" y="389.2" class="st0" width="19.2" height="0.3"/>
		<rect x="52.5" y="390.9" class="st0" width="43.2" height="0.3"/>
		<rect x="104.6" y="390.9" class="st0" width="6.3" height="0.3"/>
		<rect x="131.5" y="395.1" class="st0" width="93.7" height="0.3"/>
		<path class="st0" d="M237,337.8H43.9c-3.1,0-5.7-2.6-5.7-5.7V60.7c0-3.1,2.6-5.7,5.7-5.7H237c3.1,0,5.7,2.6,5.7,5.7v271.4
			C242.7,335.2,240.2,337.8,237,337.8z M43.9,55.2c-3,0-5.5,2.4-5.5,5.5v271.4c0,3,2.4,5.5,5.5,5.5H237c3,0,5.5-2.4,5.5-5.5V60.7
			c0-3-2.4-5.5-5.5-5.5H43.9z"/>
		<path class="st0" d="M453.3,337.8H260.2c-3.1,0-5.7-2.6-5.7-5.7V60.7c0-3.1,2.6-5.7,5.7-5.7h193.1c3.1,0,5.7,2.6,5.7,5.7v271.4
			C459,335.2,456.5,337.8,453.3,337.8z M260.2,55.2c-3,0-5.5,2.4-5.5,5.5v271.4c0,3,2.4,5.5,5.5,5.5h193.1c3,0,5.5-2.4,5.5-5.5V60.7
			c0-3-2.4-5.5-5.5-5.5H260.2z"/>
	</g>
	<g>
		<g>
			<path class="st1" d="M353.9,98.1c0-2.7-2.2-4.9-4.9-4.9c-0.5,0-1,0.1-1.4,0.2c0.1-0.5,0.1-1,0.1-1.5c0-5.7-4.6-10.4-10.4-10.4
				c-0.7,0-1.3,0.1-1.9,0.2c-1.6-2.6-4.5-4.3-7.7-4.3c-5,0-9,4-9.1,8.9c-0.1,0-0.1,0-0.2,0c-4.6,0-8.3,3.7-8.3,8.3s3.7,8.3,8.3,8.3
				h30.6l0,0C351.8,102.9,353.9,100.8,353.9,98.1z"/>
			<polygon class="st2" points="336,105.5 336,95.9 328.2,95.9 328.2,105.5 321.8,105.5 332.1,114.1 342.3,105.5 			"/>
		</g>
		<g>
			<path class="st1" d="M200.7,112.6c0-5.7-4.6-10.4-10.4-10.4c-1,0-2,0.2-3,0.4c0.2-1,0.2-2.1,0.2-3.2c0-12.1-9.8-22-22-22
				c-1.4,0-2.7,0.1-4.1,0.4c-3.4-5.5-9.5-9.2-16.4-9.2c-10.5,0-19.1,8.5-19.2,19c-0.1,0-0.2,0-0.3,0c-9.8,0-17.7,7.9-17.7,17.7
				c0,9.8,7.9,17.7,17.7,17.7h65.1l0,0C196.2,122.8,200.7,118.2,200.7,112.6z"/>
			<polygon class="st2" points="146,113.4 146,133.6 162.5,133.6 162.5,113.4 176,113.4 154.3,95 132.5,113.4 			"/>
		</g>
		<g>
			<polyline class="st3" points="209,163.1 209,135.9 292.4,135.9 292.4,162.9 			"/>
			<line class="st3" x1="251.9" y1="110.2" x2="251.9" y2="163.1"/>
			<g>
				<path class="st1" d="M266.1,99.9h-28.4c-0.7,0-1.2,0.5-1.2,1.2v16.9c0,0.7,0.5,1.2,1.2,1.2h28.4c0.7,0,1.2-0.5,1.2-1.2v-16.9
					C267.3,100.4,266.7,99.9,266.1,99.9z"/>
				<path class="st2" d="M265.8,118.4H238c-0.2,0-0.4-0.2-0.4-0.4v-15.4c0-0.2,0.2-0.4,0.4-0.4h27.8c0.2,0,0.4,0.2,0.4,0.4v15.4
					C266.2,118.2,266,118.4,265.8,118.4z"/>
			</g>
			<g>
				<path class="st1" d="M223.2,160.7h-28.4c-0.7,0-1.2,0.5-1.2,1.2v16.9c0,0.7,0.5,1.2,1.2,1.2h28.4c0.7,0,1.2-0.5,1.2-1.2v-16.9
					C224.3,161.2,223.8,160.7,223.2,160.7z"/>
				<path class="st2" d="M222.9,179.1h-27.8c-0.2,0-0.4-0.2-0.4-0.4v-15.4c0-0.2,0.2-0.4,0.4-0.4h27.8c0.2,0,0.4,0.2,0.4,0.4v15.4
					C223.3,179,223.1,179.1,222.9,179.1z"/>
			</g>
			<g>
				<path class="st1" d="M266.1,160.7h-28.4c-0.7,0-1.2,0.5-1.2,1.2v16.9c0,0.7,0.5,1.2,1.2,1.2h28.4c0.7,0,1.2-0.5,1.2-1.2v-16.9
					C267.3,161.2,266.7,160.7,266.1,160.7z"/>
				<path class="st2" d="M265.8,179.1H238c-0.2,0-0.4-0.2-0.4-0.4v-15.4c0-0.2,0.2-0.4,0.4-0.4h27.8c0.2,0,0.4,0.2,0.4,0.4v15.4
					C266.2,179,266,179.1,265.8,179.1z"/>
			</g>
			<g>
				<path class="st1" d="M306.6,160.7h-28.4c-0.7,0-1.2,0.5-1.2,1.2v16.9c0,0.7,0.5,1.2,1.2,1.2h28.4c0.7,0,1.2-0.5,1.2-1.2v-16.9
					C307.8,161.2,307.3,160.7,306.6,160.7z"/>
				<path class="st2" d="M306.3,179.1h-27.8c-0.2,0-0.4-0.2-0.4-0.4v-15.4c0-0.2,0.2-0.4,0.4-0.4h27.8c0.2,0,0.4,0.2,0.4,0.4v15.4
					C306.7,179,306.5,179.1,306.3,179.1z"/>
			</g>
			<path class="st4" d="M251.3,127.6l-7.7,7.7c-0.3,0.3-0.3,0.8,0,1.1l7.7,7.7c0.3,0.3,0.8,0.3,1.1,0l7.7-7.7c0.3-0.3,0.3-0.8,0-1.1
				l-7.7-7.7C252.1,127.3,251.6,127.3,251.3,127.6z"/>
		</g>
		<g>
			<path class="st5" d="M89.1,135.7h-20c-0.5,0-0.9-0.4-0.9-0.9v-11.3c0-0.5,0.4-0.9,0.9-0.9h20c0.5,0,0.9,0.4,0.9,0.9v11.3
				C90,135.3,89.6,135.7,89.1,135.7z"/>
			<path class="st2" d="M73.8,160.6H58c-0.5,0-0.9-0.4-0.9-0.9v-8.2c0-0.5,0.4-0.9,0.9-0.9h15.8c0.5,0,0.9,0.4,0.9,0.9v8.2
				C74.7,160.2,74.3,160.6,73.8,160.6z"/>
			<path class="st2" d="M100.5,160.6H84.7c-0.5,0-0.9-0.4-0.9-0.9v-8.2c0-0.5,0.4-0.9,0.9-0.9h15.8c0.5,0,0.9,0.4,0.9,0.9v8.2
				C101.4,160.2,101,160.6,100.5,160.6z"/>
			<g>
				<path class="st2" d="M84.1,180.2h-7.5c-0.5,0-0.9-0.4-0.9-0.9v-6.8c0-0.5,0.4-0.9,0.9-0.9h7.5c0.5,0,0.9,0.4,0.9,0.9v6.8
					C85,179.8,84.6,180.2,84.1,180.2z"/>
				<path class="st2" d="M95.8,180.2h-7.5c-0.5,0-0.9-0.4-0.9-0.9v-6.8c0-0.5,0.4-0.9,0.9-0.9h7.5c0.5,0,0.9,0.4,0.9,0.9v6.8
					C96.7,179.8,96.3,180.2,95.8,180.2z"/>
				<path class="st2" d="M107.6,180.2h-7.5c-0.5,0-0.9-0.4-0.9-0.9v-6.8c0-0.5,0.4-0.9,0.9-0.9h7.5c0.5,0,0.9,0.4,0.9,0.9v6.8
					C108.4,179.8,108,180.2,107.6,180.2z"/>
			</g>
			<path class="st2" d="M57,180.2h-7.5c-0.5,0-0.9-0.4-0.9-0.9v-6.8c0-0.5,0.4-0.9,0.9-0.9H57c0.5,0,0.9,0.4,0.9,0.9v6.8
				C57.8,179.8,57.4,180.2,57,180.2z"/>
			<path class="st2" d="M69.7,180.2h-7.5c-0.5,0-0.9-0.4-0.9-0.9v-6.8c0-0.5,0.4-0.9,0.9-0.9h7.5c0.5,0,0.9,0.4,0.9,0.9v6.8
				C70.6,179.8,70.2,180.2,69.7,180.2z"/>
			<g>
				<polygon class="st2" points="91.6,150.7 92.6,150.7 92.6,143.7 79.6,143.7 79.6,135.7 78.6,135.7 78.6,143.7 65.6,143.7 
					65.6,150.7 66.6,150.7 66.6,144.7 91.6,144.7 				"/>
				<polygon class="st2" points="65.6,166.7 52.6,166.7 52.6,171.7 53.6,171.7 53.6,167.7 65.6,167.7 65.6,171.7 66.6,171.7 
					66.6,160.7 65.6,160.7 				"/>
				<polygon class="st2" points="92.6,167.7 92.6,160.7 91.6,160.7 91.6,167.7 79.6,167.7 79.6,171.7 80.6,171.7 80.6,168.7 
					91.6,168.7 91.6,171.7 92.6,171.7 92.6,168.7 103.6,168.7 103.6,171.7 104.6,171.7 104.6,167.7 				"/>
			</g>
		</g>
		<g>
			<path class="st6" d="M381,125.8v7.2l3.7,0.3c0.5,2.4,1.5,4.6,2.8,6.6l-2.4,2.9l5.1,5.1l2.9-2.4c2,1.3,4.2,2.3,6.6,2.8l0.3,3.7
				h7.2l0.3-3.7c2.4-0.5,4.6-1.5,6.6-2.8l2.9,2.4l5.1-5.1l-2.4-2.9c1.3-2,2.3-4.2,2.8-6.6l3.7-0.3v-7.2l-3.7-0.3
				c-0.5-2.4-1.5-4.6-2.8-6.6l2.4-2.9l-5.1-5.1l-2.9,2.4c-2-1.3-4.2-2.3-6.6-2.8l-0.3-3.7H400l-0.3,3.7c-2.4,0.5-4.6,1.5-6.6,2.8
				l-2.9-2.4l-5.1,5.1l2.4,2.9c-1.3,2-2.3,4.2-2.8,6.6L381,125.8z M403.6,119.6c5.4,0,9.7,4.4,9.7,9.7c0,5.4-4.4,9.7-9.7,9.7
				c-5.4,0-9.7-4.4-9.7-9.7C393.9,124,398.2,119.6,403.6,119.6z"/>
			<path class="st6" d="M385.6,178.2c1.9-0.4,3.6-1.1,5.2-2.2l2.2,1.9l4-4l-1.9-2.2c1-1.6,1.8-3.3,2.2-5.2l2.9-0.3v-5.6l-2.9-0.3
				c-0.4-1.9-1.1-3.6-2.2-5.2l1.9-2.2l-4-4l-2.2,1.9c-1.6-1-3.3-1.8-5.2-2.2l-0.3-2.9h-5.6l-0.3,2.9c-1.9,0.4-3.6,1.1-5.2,2.2
				l-2.2-1.9l-4,4l1.9,2.2c-1,1.6-1.8,3.3-2.2,5.2l-2.9,0.3v5.6l2.9,0.3c0.4,1.9,1.1,3.6,2.2,5.2l-1.9,2.2l4,4l2.2-1.9
				c1.6,1,3.3,1.8,5.2,2.2l0.3,2.9h5.6L385.6,178.2z M374.9,163.4c0-4.2,3.4-7.6,7.6-7.6c4.2,0,7.6,3.4,7.6,7.6
				c0,4.2-3.4,7.6-7.6,7.6C378.3,171,374.9,167.6,374.9,163.4z"/>
			<path class="st6" d="M373.1,147.7l1.9,1.6l3.3-3.3l-1.6-1.9c0.9-1.3,1.5-2.8,1.8-4.4l2.4-0.2v-4.7l-2.4-0.2
				c-0.3-1.6-1-3.1-1.8-4.4l1.6-1.9l-3.3-3.3l-1.9,1.6c-1.3-0.9-2.8-1.5-4.4-1.8l-0.2-2.4l-4.7,0l-0.2,2.4c-1.6,0.3-3.1,1-4.4,1.8
				l-1.9-1.6l-3.3,3.3l1.6,1.9c-0.9,1.3-1.5,2.8-1.8,4.4l-2.4,0.2v4.7l2.4,0.2c0.3,1.6,1,3.1,1.8,4.4l-1.6,1.9l3.3,3.3l1.9-1.6
				c1.3,0.9,2.8,1.5,4.4,1.8l0.2,2.4h4.7l0.2-2.4C370.3,149.2,371.8,148.6,373.1,147.7z M359.7,137.1c0-3.5,2.9-6.4,6.4-6.4
				c3.5,0,6.4,2.9,6.4,6.4c0,3.5-2.9,6.4-6.4,6.4C362.6,143.5,359.7,140.6,359.7,137.1z"/>
		</g>
		<g>
			<g>
				<rect x="372.2" y="324" class="st6" width="67.1" height="43.7"/>
			</g>
			<rect x="374.7" y="332.2" class="st2" width="62.2" height="33.3"/>
			<g>
				<rect x="379.8" y="337.2" class="st6" width="46" height="1.4"/>
				<rect x="379.8" y="341.6" class="st6" width="22.1" height="1.4"/>
				<rect x="379.8" y="346" class="st6" width="27.8" height="1.4"/>
				<rect x="379.8" y="350.4" class="st6" width="9.8" height="1.4"/>
				<rect x="379.8" y="354.7" class="st6" width="6.3" height="1.4"/>
			</g>
		</g>
		<g>
			
				<rect x="47.9" y="323.9" transform="matrix(1 -4.558345e-03 4.558345e-03 1 -1.5428 0.3307)" class="st0" width="47.8" height="29.5"/>
			<g>
				<g>
					<path class="st7" d="M66.1,346.1c-0.2,0-0.4-0.1-0.6-0.2l-8.7-6.4c-0.3-0.2-0.4-0.5-0.4-0.8c0-0.3,0.1-0.6,0.4-0.8l8.7-6.4
						c0.4-0.3,1.1-0.2,1.4,0.2c0.3,0.4,0.2,1.1-0.2,1.4l-7.6,5.6l7.6,5.6c0.4,0.3,0.5,1,0.2,1.4C66.8,345.9,66.5,346.1,66.1,346.1z"
						/>
				</g>
				<g>
					<path class="st7" d="M77.5,346c-0.3,0-0.6-0.1-0.8-0.4c-0.3-0.4-0.2-1.1,0.2-1.4l7.6-5.6l-7.6-5.6c-0.4-0.3-0.5-1-0.2-1.4
						c0.3-0.4,1-0.5,1.4-0.2l8.7,6.4c0.3,0.2,0.4,0.5,0.4,0.8c0,0.3-0.1,0.6-0.4,0.8l-8.7,6.4C77.9,345.9,77.7,346,77.5,346z"/>
				</g>
				<g>
					<path class="st7" d="M69.5,346c-0.1,0-0.2,0-0.3-0.1c-0.5-0.2-0.8-0.8-0.6-1.3l4.5-12.8c0.2-0.5,0.8-0.8,1.3-0.6
						c0.5,0.2,0.8,0.8,0.6,1.3l-4.5,12.8C70.3,345.8,69.9,346,69.5,346z"/>
				</g>
			</g>
		</g>
	</g>
</g>
<g id="Shadow">
	<ellipse id="_x3C_Path_x3E__359_" class="st6" cx="250" cy="416.2" rx="193.9" ry="11.3"/>
</g>
<g id="Ladder">
	<g>
		<g>
			<polygon class="st8" points="334.4,416.2 341.7,416.2 351.7,361 344.4,361 			"/>
			<polygon class="st9" points="334.4,416.2 341.7,416.2 351.7,361 344.4,361 			"/>
			<polygon class="st9" points="334.4,416.2 339.7,416.2 349.7,361 344.4,361 			"/>
		</g>
		<path class="st8" d="M313.7,377.4h29.4c0.9,0,1.6-0.7,1.6-1.6l0,0c0-0.9-0.7-1.6-1.6-1.6h-29.4c-0.9,0-1.6,0.7-1.6,1.6l0,0
			C312.1,376.7,312.8,377.4,313.7,377.4z"/>
		<path class="st8" d="M310.4,395.9h29.4c0.9,0,1.6-0.7,1.6-1.6l0,0c0-0.9-0.7-1.6-1.6-1.6h-29.4c-0.9,0-1.6,0.7-1.6,1.6l0,0
			C308.8,395.2,309.5,395.9,310.4,395.9z"/>
		<g>
			<polygon class="st8" points="304.4,416.2 311.7,416.2 321.7,361 314.4,361 			"/>
			<polygon class="st9" points="304.4,416.2 311.7,416.2 321.7,361 314.4,361 			"/>
			<polygon class="st9" points="304.4,416.2 309.7,416.2 319.7,361 314.4,361 			"/>
		</g>
		<g>
			<polygon class="st8" points="372.7,416.2 365.4,416.2 355.4,361 362.7,361 			"/>
			<polygon class="st10" points="372.7,416.2 365.4,416.2 355.4,361 362.7,361 			"/>
			<polygon class="st9" points="370.7,416.2 365.4,416.2 355.4,361 360.7,361 			"/>
		</g>
		<path class="st8" d="M359.8,377.4h-29.4c-0.9,0-1.6-0.7-1.6-1.6l0,0c0-0.9,0.7-1.6,1.6-1.6h29.4c0.9,0,1.6,0.7,1.6,1.6l0,0
			C361.4,376.7,360.7,377.4,359.8,377.4z"/>
		<path class="st8" d="M363.1,395.9h-29.4c-0.9,0-1.6-0.7-1.6-1.6l0,0c0-0.9,0.7-1.6,1.6-1.6h29.4c0.9,0,1.6,0.7,1.6,1.6l0,0
			C364.7,395.2,364,395.9,363.1,395.9z"/>
		<path class="st9" d="M359.8,377.4h-29.4c-0.9,0-1.6-0.7-1.6-1.6l0,0c0-0.9,0.7-1.6,1.6-1.6h29.4c0.9,0,1.6,0.7,1.6,1.6l0,0
			C361.4,376.7,360.7,377.4,359.8,377.4z"/>
		<path class="st9" d="M363.1,395.9h-29.4c-0.9,0-1.6-0.7-1.6-1.6l0,0c0-0.9,0.7-1.6,1.6-1.6h29.4c0.9,0,1.6,0.7,1.6,1.6l0,0
			C364.7,395.2,364,395.9,363.1,395.9z"/>
		<g>
			<polygon class="st8" points="342.7,416.2 335.4,416.2 325.4,361 332.7,361 			"/>
			<polygon class="st10" points="342.7,416.2 335.4,416.2 325.4,361 332.7,361 			"/>
			<polygon class="st9" points="340.7,416.2 335.4,416.2 325.4,361 330.7,361 			"/>
		</g>
		<g>
			<path class="st8" d="M365.6,363.6h-53.1c-0.7,0-1.2-0.5-1.2-1.2v-2.9c0-0.7,0.5-1.2,1.2-1.2h53.1c0.7,0,1.2,0.5,1.2,1.2v2.9
				C366.8,363.1,366.2,363.6,365.6,363.6z"/>
			<path class="st9" d="M332.7,363.6h-20.2c-0.7,0-1.2-0.5-1.2-1.2v-2.9c0-0.7,0.5-1.2,1.2-1.2h20.2c0.7,0,1.2,0.5,1.2,1.2v2.9
				C333.9,363.1,333.3,363.6,332.7,363.6z"/>
		</g>
	</g>
</g>
<g id="interface">
	<g>
		<g>
			<rect x="127.2" y="371.8" class="st11" width="67.1" height="43.7"/>
			<rect x="127.2" y="371.8" class="st12" width="67.1" height="43.7"/>
		</g>
		<rect x="129.7" y="380" class="st11" width="62.2" height="33.3"/>
		<g>
			<rect x="134.7" y="385" class="st13" width="46" height="1.4"/>
			<rect x="134.7" y="389.4" class="st13" width="22.1" height="1.4"/>
			<rect x="134.7" y="393.8" class="st13" width="27.8" height="1.4"/>
			<rect x="134.7" y="398.2" class="st13" width="9.8" height="1.4"/>
			<rect x="134.7" y="402.6" class="st13" width="6.3" height="1.4"/>
		</g>
	</g>
</g>
<g id="Monitor">
	<g>
		<g>
			<polygon class="st11" points="277.3,416.2 222.7,416.2 231.9,343.6 268.1,343.6 			"/>
			<polygon class="st14" points="277.3,416.2 222.7,416.2 229,366.5 231.9,343.6 268.1,343.6 272.4,377.4 			"/>
			<polygon class="st15" points="272.4,377.4 229,366.5 231.9,343.6 268.1,343.6 			"/>
		</g>
		<g>
			<path class="st11" d="M378.9,164.4h-5.5H126.6h-5.5c-3.6,0-6.6,3-6.6,6.6v174.5c0,3.6,3,6.6,6.6,6.6h5.5h246.8h5.5
				c3.6,0,6.6-3,6.6-6.6V171C385.5,167.3,382.5,164.4,378.9,164.4z"/>
			<path class="st16" d="M378.9,164.4h-5.5H126.6h-5.5c-3.6,0-6.6,3-6.6,6.6v174.5c0,3.6,3,6.6,6.6,6.6h5.5h246.8h5.5
				c3.6,0,6.6-3,6.6-6.6V171C385.5,167.3,382.5,164.4,378.9,164.4z"/>
		</g>
		<rect x="123.2" y="170.8" class="st11" width="253.6" height="168.3"/>
		<g>
			<path class="st11" d="M295.9,410.8h-91.8c-0.6,0-1,0.5-1,1v3.3c0,0.6,0.5,1,1,1h91.8c0.6,0,1-0.5,1-1v-3.3
				C296.9,411.2,296.5,410.8,295.9,410.8z"/>
			<path class="st16" d="M295.9,410.8h-91.8c-0.6,0-1,0.5-1,1v3.3c0,0.6,0.5,1,1,1h91.8c0.6,0,1-0.5,1-1v-3.3
				C296.9,411.2,296.5,410.8,295.9,410.8z"/>
		</g>
		<g>
			<rect x="123.2" y="171" class="st17" width="253.6" height="25.1"/>
			<rect x="123.2" y="196.4" class="st10" width="108.7" height="142.7"/>
			<g>
				<g>
					<g>
						<polyline class="st18" points="337.8,232.8 337.8,235.3 335.3,235.3 						"/>
						<line class="st19" x1="330" y1="235.3" x2="248.1" y2="235.3"/>
						<polyline class="st18" points="245.4,235.3 242.9,235.3 242.9,232.8 						"/>
						<line class="st20" x1="242.9" y1="228.3" x2="242.9" y2="185.2"/>
						<polyline class="st18" points="242.9,183 242.9,180.5 245.4,180.5 						"/>
						<line class="st19" x1="250.7" y1="180.5" x2="332.6" y2="180.5"/>
						<polyline class="st18" points="335.3,180.5 337.8,180.5 337.8,183 						"/>
						<line class="st20" x1="337.8" y1="187.5" x2="337.8" y2="230.5"/>
					</g>
				</g>
				<g>
					<rect x="336.2" y="178.9" class="st21" width="3.2" height="3.2"/>
					<rect x="336.2" y="233.7" class="st21" width="3.2" height="3.2"/>
					<rect x="241.4" y="178.9" class="st21" width="3.2" height="3.2"/>
					<rect x="241.4" y="233.7" class="st21" width="3.2" height="3.2"/>
				</g>
				<g>
					<rect x="288.8" y="178.9" class="st21" width="3.2" height="3.2"/>
					<rect x="288.8" y="233.7" class="st21" width="3.2" height="3.2"/>
				</g>
				<g>
					<rect x="336.2" y="206.3" class="st21" width="3.2" height="3.2"/>
					<rect x="241.4" y="206.3" class="st21" width="3.2" height="3.2"/>
				</g>
			</g>
			<path class="st16" d="M329.2,208.9h-23.2c-1,0-1.9-0.8-1.9-1.9v-6.2c0-1,0.8-1.9,1.9-1.9h23.2c1,0,1.9,0.8,1.9,1.9v6.2
				C331,208,330.2,208.9,329.2,208.9z"/>
			<path class="st16" d="M289.2,208.9h-23.2c-1,0-1.9-0.8-1.9-1.9v-6.2c0-1,0.8-1.9,1.9-1.9h23.2c1,0,1.9,0.8,1.9,1.9v6.2
				C291,208,290.2,208.9,289.2,208.9z"/>
			<path class="st16" d="M237.7,330.4h-23.2c-1,0-1.9-0.8-1.9-1.9v-6.2c0-1,0.8-1.9,1.9-1.9h23.2c1,0,1.9,0.8,1.9,1.9v6.2
				C239.5,329.6,238.7,330.4,237.7,330.4z"/>
			<g>
				<line class="st22" x1="360.1" y1="179.9" x2="368.5" y2="179.9"/>
				<line class="st22" x1="360.1" y1="183.9" x2="368.5" y2="183.9"/>
				<line class="st22" x1="360.1" y1="187.9" x2="368.5" y2="187.9"/>
			</g>
			<rect x="140.4" y="218.5" class="st23" width="85.1" height="85.1"/>
			<g>
				<line class="st24" x1="176" y1="225.5" x2="176" y2="298.8"/>
				<path class="st24" d="M212.7,298.8L212.7,298.8c-20.3,0-36.7-16.4-36.7-36.7v0c0-20.3,16.4-36.7,36.7-36.7l0,0"/>
				<rect x="211.1" y="223.9" class="st25" width="3.2" height="3.2"/>
				<rect x="211.1" y="297.2" class="st25" width="3.2" height="3.2"/>
				<rect x="174.4" y="260.5" class="st25" width="3.2" height="3.2"/>
				<path class="st25" d="M176.8,225.5c0,0.5-0.4,0.8-0.8,0.8s-0.8-0.4-0.8-0.8c0-0.5,0.4-0.8,0.8-0.8S176.8,225,176.8,225.5z"/>
				<path class="st25" d="M176.8,298.8c0,0.5-0.4,0.8-0.8,0.8s-0.8-0.4-0.8-0.8c0-0.5,0.4-0.8,0.8-0.8S176.8,298.4,176.8,298.8z"/>
			</g>
			<path class="st16" d="M316.9,321.7h-25.7c-4.1,0-7.4-3.3-7.4-7.4l0,0c0-4.1,3.3-7.4,7.4-7.4h25.7c4.1,0,7.4,3.3,7.4,7.4l0,0
				C324.4,318.3,321,321.7,316.9,321.7z"/>
			<path class="st16" d="M339.6,258.2H260c-0.9,0-1.6-0.7-1.6-1.6l0,0c0-0.9,0.7-1.6,1.6-1.6h79.5c0.9,0,1.6,0.7,1.6,1.6l0,0
				C341.2,257.5,340.4,258.2,339.6,258.2z"/>
			<path class="st16" d="M339.6,270.1H260c-0.9,0-1.6-0.7-1.6-1.6l0,0c0-0.9,0.7-1.6,1.6-1.6h79.5c0.9,0,1.6,0.7,1.6,1.6l0,0
				C341.2,269.4,340.4,270.1,339.6,270.1z"/>
			<path class="st16" d="M339.6,282H290c-0.9,0-1.6-0.7-1.6-1.6l0,0c0-0.9,0.7-1.6,1.6-1.6h49.5c0.9,0,1.6,0.7,1.6,1.6l0,0
				C341.2,281.2,340.4,282,339.6,282z"/>
			<g>
				<rect x="131.2" y="178" class="st26" width="5.6" height="5.6"/>
				<path class="st26" d="M146.3,183.6h-2.7c-0.8,0-1.4-0.6-1.4-1.4v-2.7c0-0.8,0.6-1.4,1.4-1.4h2.7c0.8,0,1.4,0.6,1.4,1.4v2.7
					C147.8,182.9,147.1,183.6,146.3,183.6z"/>
				<path class="st26" d="M156.1,183.6h-0.5c-1.4,0-2.6-1.2-2.6-2.6v-0.5c0-1.4,1.2-2.6,2.6-2.6h0.5c1.4,0,2.6,1.2,2.6,2.6v0.5
					C158.7,182.4,157.5,183.6,156.1,183.6z"/>
			</g>
			<g>
				<g>
					<path class="st27" d="M148.5,316.5v-2.2l-1.1-0.1c-0.2-0.7-0.4-1.4-0.8-2l0.7-0.9l-1.5-1.5l-0.9,0.7c-0.6-0.4-1.3-0.7-2-0.8
						l-0.1-1.1h-2.2l-0.1,1.1c-0.7,0.2-1.4,0.4-2,0.8l-0.9-0.7l-1.5,1.5l0.7,0.9c-0.4,0.6-0.7,1.3-0.8,2l-1.1,0.1v2.2l1.1,0.1
						c0.2,0.7,0.4,1.4,0.8,2l-0.7,0.9l1.5,1.5l0.9-0.7c0.6,0.4,1.3,0.7,2,0.8l0.1,1.1h2.2l0.1-1.1c0.7-0.2,1.4-0.4,2-0.8l0.9,0.7
						l1.5-1.5l-0.7-0.9c0.4-0.6,0.7-1.3,0.8-2L148.5,316.5z M141.6,318.4c-1.6,0-3-1.3-3-3s1.3-3,3-3c1.6,0,3,1.3,3,3
						S143.2,318.4,141.6,318.4z"/>
					<path class="st14" d="M157.3,322.7V321l-0.9-0.1c-0.1-0.6-0.3-1.1-0.7-1.6l0.6-0.7l-1.2-1.2l-0.7,0.6c-0.5-0.3-1-0.5-1.6-0.7
						l-0.1-0.9h-1.7l-0.1,0.9c-0.6,0.1-1.1,0.3-1.6,0.7l-0.7-0.6l-1.2,1.2l0.6,0.7c-0.3,0.5-0.5,1-0.7,1.6l-0.9,0.1v1.7l0.9,0.1
						c0.1,0.6,0.3,1.1,0.7,1.6l-0.6,0.7l1.2,1.2l0.7-0.6c0.5,0.3,1,0.5,1.6,0.7l0.1,0.9h1.7l0.1-0.9c0.6-0.1,1.1-0.3,1.6-0.7
						l0.7,0.6l1.2-1.2l-0.6-0.7c0.3-0.5,0.5-1,0.7-1.6L157.3,322.7z M151.9,324.1c-1.3,0-2.3-1-2.3-2.3c0-1.3,1-2.3,2.3-2.3
						s2.3,1,2.3,2.3C154.3,323.1,153.2,324.1,151.9,324.1z"/>
					<path class="st10" d="M148.5,327.6v-1.4l-0.7-0.1c-0.1-0.5-0.3-0.9-0.6-1.3l0.5-0.6l-1-1l-0.6,0.5c-0.4-0.3-0.8-0.5-1.3-0.6
						l-0.1-0.7h-1.4l-0.1,0.7c-0.5,0.1-0.9,0.3-1.3,0.6l-0.6-0.5l-1,1l0.5,0.6c-0.3,0.4-0.5,0.8-0.6,1.3l-0.7,0.1l0,1.4l0.7,0.1
						c0.1,0.5,0.3,0.9,0.6,1.3l-0.5,0.6l1,1l0.6-0.5c0.4,0.3,0.8,0.5,1.3,0.6l0.1,0.7h1.4l0.1-0.7c0.5-0.1,0.9-0.3,1.3-0.6l0.6,0.5
						l1-1l-0.5-0.6c0.3-0.4,0.5-0.8,0.6-1.3L148.5,327.6z M143.9,328.8c-1.1,0-2-0.9-2-2c0-1.1,0.9-2,2-2c1.1,0,2,0.9,2,2
						C145.9,327.9,145,328.8,143.9,328.8z"/>
				</g>
			</g>
		</g>
		<g>
			<g>
				<polygon class="st11" points="337.2,179.9 341.4,191.2 348.5,184.1 				"/>
				
					<rect x="343.8" y="185.2" transform="matrix(0.7071 -0.7071 0.7071 0.7071 -31.673 298.8996)" class="st11" width="2.2" height="5"/>
			</g>
			<polygon class="st10" points="348.5,184.1 337.2,179.9 341.4,191.2 344.2,188.5 345.9,190.2 347.5,188.6 345.8,186.9 			"/>
		</g>
		<g>
			<path class="st8" d="M163.5,220.4l10.7,4l-5.6-5.6c-0.4,0.2-1,0.2-1.3-0.2c-0.4-0.4-0.4-1.1,0-1.6c0.4-0.4,1.1-0.4,1.6,0
				c0.4,0.4,0.4,0.9,0.2,1.3l5.6,5.6l-4-10.7l-3.5,0.8l-0.1-1.3l-0.7-0.7l-3.9,3.9l0.7,0.7l1.3,0.1L163.5,220.4z"/>
			<path class="st9" d="M163.5,220.4l10.7,4l-5.6-5.6c-0.4,0.2-1,0.2-1.3-0.2c-0.4-0.4-0.4-1.1,0-1.6c0.4-0.4,1.1-0.4,1.6,0
				c0.4,0.4,0.4,0.9,0.2,1.3l5.6,5.6l-4-10.7l-3.5,0.8l-0.1-1.3l-0.7-0.7l-3.9,3.9l0.7,0.7l1.3,0.1L163.5,220.4z"/>
		</g>
		<g class="st28">
			<polygon class="st13" points="160.3,170.8 122.7,311.3 122.7,170.8 			"/>
			<polygon class="st13" points="202.7,170.8 157.7,339.1 126.7,339.1 171.7,170.8 			"/>
			<polygon class="st13" points="247.8,170.8 202.8,339.1 188.8,339.1 233.8,170.8 			"/>
			<polygon class="st13" points="289.3,170.8 244.3,339.1 239.3,339.1 284.3,170.8 			"/>
		</g>
	</g>
</g>
<g id="Character_2">
	<g>
		<g>
			<path class="st8" d="M441.9,208c3.5,4.1,21.6,38.9,18.1,47c-3.5,8.1-32.4-1.2-32.4-1.2l1.7-11.5c0,0,11.2,0.4,12.3-0.7
				c1.1-1.1-15.2-17.3-15.2-17.3L441.9,208z"/>
			<g class="st17">
				<path class="st13" d="M460,255c-0.4,0.9-1.1,1.6-2.1,2.1c0,0,0,0,0,0c-0.2,0.1-0.4,0.2-0.6,0.3c0,0,0,0-0.1,0
					c-0.2,0.1-0.4,0.1-0.6,0.2c-0.8,0.3-1.6,0.4-2.5,0.5c-0.2,0-0.5,0-0.7,0.1c-0.4,0-0.7,0-1.1,0.1c-0.3,0-0.6,0-1,0
					c-9.7,0-23.8-4.6-23.8-4.6l1.7-11.5c0,0,11.2,0.4,12.3-0.7c0.3-0.3-0.5-1.4-1.8-3c0,0,0,0,0,0c-3.2-3.9-9.5-10.4-12.2-13.1
					c-0.7-0.8-1.2-1.2-1.2-1.2l15.5-16.3C445.5,212.1,463.5,246.8,460,255z"/>
			</g>
		</g>
		<path class="st17" d="M457.9,257.1C457.9,257.1,457.9,257.1,457.9,257.1c-0.2,0.1-0.4,0.2-0.6,0.3c0,0,0,0-0.1,0
			c-0.2,0.1-0.4,0.1-0.6,0.2c-0.8,0.3-1.6,0.4-2.5,0.5c-0.2,0-0.5,0-0.7,0.1c-0.4,0-0.7,0-1.1,0.1c-0.3,0-0.6,0-1,0
			c-9.7,0-23.8-4.6-23.8-4.6l1.7-11.5c0,0,12.7,1.1,13.7,0c0,0,0,0,0,0c0.2-0.4-1.2-1.8-3.3-3.7c0,0,0,0,0,0
			c-3.2-3.9-9.5-10.4-12.2-13.1l7.3-7.8l5.6-0.6C440.5,217,452.8,236.9,457.9,257.1z"/>
		<g>
			<path class="st8" d="M405.4,206.8c-2,1.5-3,3.5-2.2,4.6l52.8,72.9c0.8,1.1,3.1,0.8,5.1-0.7c2-1.5,3-3.5,2.2-4.6l-52.8-72.9
				C409.7,205.1,407.4,205.4,405.4,206.8z"/>
			<path class="st16" d="M410.5,206.2l52.8,72.9c0.8,1.1-0.2,3.1-2.2,4.6c-2,1.5-4.3,1.7-5.1,0.7l-52.8-72.9
				c-0.4-0.6-0.3-1.5,0.2-2.4c0.2-0.4,0.6-0.9,1-1.3c0.3-0.3,0.6-0.6,1-0.9C407.4,205.4,409.7,205.1,410.5,206.2z"/>
			<path class="st29" d="M463.3,279c0.8,1.1-0.2,3.1-2.2,4.6c-2,1.5-4.3,1.7-5.1,0.7c-0.4-0.6,0.7-1.5,1.3-2.8L403.4,209
				c0.2-0.4,0.6-0.9,1-1.3l52.8,72.9c0.3-0.3,0.6-0.6,1-0.9C460.3,278.2,462.5,277.9,463.3,279z"/>
		</g>
		<g>
			<path class="st11" d="M398.9,204.8c-1.7,1.8-2.3,4-1.3,4.9l65.7,61.5c1,0.9,3.1,0.2,4.8-1.6c1.7-1.8,2.3-4,1.3-4.9l-65.7-61.5
				C402.7,202.3,400.6,203,398.9,204.8z"/>
			<path class="st16" d="M403.7,203.2l65.7,61.5c1,0.9,0.4,3.1-1.3,4.9c-1.7,1.8-3.9,2.5-4.8,1.6l-65.7-61.5
				c-0.5-0.5-0.6-1.4-0.3-2.4c0.2-0.5,0.4-1,0.7-1.5c0.2-0.3,0.5-0.7,0.8-1C400.6,203,402.7,202.3,403.7,203.2z"/>
			<path class="st29" d="M469.4,264.7c1,0.9,0.4,3.1-1.3,4.9c-1.7,1.8-3.9,2.5-4.8,1.6c-0.5-0.5,0.4-1.6,0.7-3l-66.7-60.9
				c0.2-0.5,0.4-1,0.7-1.5l65.7,61.5c0.2-0.4,0.5-0.7,0.8-1C466.3,264.5,468.4,263.8,469.4,264.7z"/>
		</g>
		<path class="st30" d="M414.7,401.1l-5,0.1c-5.1-23.9-8.7-53.5-10.9-75.8c-0.3-3.5-0.7-6.8-1-9.9c-0.1-1.5-0.3-2.9-0.4-4.2
			c-0.6-6.7-1-12-1.3-15.3c-0.2-2.4-0.3-3.7-0.3-3.7H414l-0.2,4.6l-0.6,15.2l-0.1,1.7l-0.4,10l-0.6,17.1
			C418.4,365,414.7,401.1,414.7,401.1z"/>
		<path class="st30" d="M455.3,399.8l-4.9,0.9c-9.9-24.7-19.1-56.3-25.2-78.3c-0.9-3.4-1.8-6.6-2.6-9.5c0-0.1-0.1-0.3-0.1-0.4
			c-1.5-5.8-2.7-10.4-3.4-13.3c-0.6-2.3-0.9-3.5-0.9-3.5l17.8-3.1l1,7.5l1.5,11l0.3,2.2l1,7.5l2.7,20.1
			C452.8,363.6,455.3,399.8,455.3,399.8z"/>
		<path class="st17" d="M438.5,311.1l-15.9,1.8c0-0.1-0.1-0.3-0.1-0.4c-1.5-5.8-2.7-10.4-3.4-13.3l18,0.9L438.5,311.1z"/>
		<path class="st17" d="M413.8,296.8l-0.6,15.2l-0.1,1.7l-15.4,1.7c-0.1-1.5-0.3-2.9-0.4-4.2c-0.6-6.7-1-12-1.3-15.3L413.8,296.8z"
			/>
		<path class="st8" d="M399.9,417.7c0.9-0.8,2-1.3,3.1-1.7l0,0c0,0,3.4-3.4,5.1-13.6l4.5-1.2c1.6-0.4,3.2,0.3,4.1,1.6
			c0.1,0.2,0.2,0.4,0.3,0.6c0.2,1.1,0.4,2.2,0.5,3.3c0.4,3.4,0.1,11.2,0.1,11.2h-0.8l-0.3-7c-0.1-2.4-1.9,0.4-2.5,3
			s-1.6,5.3-6.9,5.4C400.9,419.5,398.3,419.2,399.9,417.7z"/>
		<path class="st8" d="M416.7,403c0.3-2.4,0.4-6.5,0.4-6.5l-9.9,1.1c0,0,1.2,4.7,0.2,8.3C412.4,404.5,416.7,403,416.7,403z"/>
		<path class="st8" d="M440.2,417.7c0.9-0.8,2-1.3,3.1-1.7l0,0c0,0,3.4-3.4,5.1-13.6l4.5-1.2c1.6-0.4,3.2,0.3,4.1,1.6
			c0.1,0.2,0.2,0.4,0.3,0.6c0.2,1.1,0.4,2.2,0.5,3.3c0.4,3.4,0.1,11.2,0.1,11.2H457l-0.3-7c-0.1-2.4-1.9,0.4-2.5,3s-1.6,5.3-6.9,5.4
			C441.2,419.5,438.7,419.2,440.2,417.7z"/>
		<path class="st8" d="M457.1,403c0.3-2.4,0.4-6.5,0.4-6.5l-9.9,1.1c0,0,1.2,4.7,0.2,8.3C452.8,404.5,457.1,403,457.1,403z"/>
		<path class="st11" d="M440.3,306.2l-18.9,2.4l-0.7,0.1l-3.9-14.2l-1,15.2l-20.2-1.1c-9-52.9,6.4-65.4,6.4-65.4l27.4,5.5
			c12.4,21.1,9.5,45.7,9.5,45.7L440.3,306.2z"/>
		<g>
			<path class="st31" d="M414.3,177.4c0,2.1-0.9,3.8-2.1,3.8c-1.1,0-2.1-1.7-2.1-3.8c0-2.1,0.9-3.8,2.1-3.8
				C413.4,173.7,414.3,175.4,414.3,177.4z"/>
			<path class="st30" d="M427.8,190c-0.1,0.1-0.2,0.1-0.2,0.2c-1.1,0.8-2.4,1.5-3.8,1.9c-4.1,0.9-6.8,0.4-8.6-1.5c0,0,0,0,0,0
				c-2.5-2.8-3.2-7.6-2.8-13.5c0.2-2.7,0.5-5,1.3-6.9c0,0,0-0.1,0-0.1c0-0.1,0.1-0.2,0.1-0.2c1.1-2.5,3-4.2,5.9-4.9
				c1-0.2,2.2-0.4,3.5-0.4C434.5,164.5,436.6,183.5,427.8,190z"/>
			<path class="st17" d="M427.6,190.2c-1.1,0.8-2.4,1.4-3.8,1.7c-4.1,0.9-6.8,0.2-8.6-1.6c2,0.4,4.7,0.6,7.3-0.6
				C424,189,425.9,189.3,427.6,190.2z"/>
			<path class="st30" d="M428.8,200.6c0.7,3.3-3.5,4.6-3.5,4.6c-6.9-3-8.2-6.6-8.2-6.6c5.8-3,4.1-11.5,4.1-11.5l1.2,0.6l8.2,1.6
				c0,0-2.3,4.4-2.6,5.4c0,0,0,0,0,0C426.4,199.8,428.8,200.6,428.8,200.6z"/>
			<path class="st8" d="M413.6,170.2c0,0-0.6,8,7,11.5c0,0,3.3,8.3,8.1,8.5c6.6,0.2,12.3-9.2,10.1-18.7
				C435.8,159.1,417.1,158.1,413.6,170.2z"/>
			<path class="st30" d="M416.7,179.4c0-1.3,1-3.4,3-3.1c2,0.3,3.1,5.3-1.8,6.4C417.2,182.8,416.7,182,416.7,179.4z"/>
			<path class="st8" d="M427.6,161.7c0,0-7.7-1.9-11.9,1.1c-4.9,3.6-6.8,7.3-1,13.1c0,0,12.9-4.2,17.1-3.3c4.3,0.9,7.3,2.1,7.3,2.1
				C440.1,166.2,431.9,159.9,427.6,161.7z"/>
			<path class="st8" d="M416.7,177.4c0,0,2,9.3-1.1,17.2c0,0,18.2,6.3,24.5,2.9c6.3-3.4,0.5-14.9,0.3-21.6
				c-0.3-6.6-3.1-16.4-12.8-14.2C418,163.9,416.7,177.4,416.7,177.4z"/>
			<line class="st31" x1="410.2" y1="176.8" x2="417.9" y2="176.8"/>
		</g>
		<path class="st17" d="M421.4,308.6l-0.7,0.1l-3.9-14.2c0,0,8.3-14.2,5.7-21.6C422.9,273.4,431.8,286.7,421.4,308.6z"/>
		<g>
			<path class="st8" d="M405.8,199.8c0,0,9.1-3.3,22.9,0.7c13.8,4,14.3,9.9,14.3,9.9s-8.7,19.8-10.1,42.2l-35.9-1.3
				C397,251.3,392.7,219.7,405.8,199.8z"/>
			<path class="st32" d="M443.1,210.4c0,0-8.7,19.8-10.1,42.2l-35.9-1.3c0,0-0.6-4.4-0.7-11c-0.1-4.6,0.2-10.2,1-16.1
				c1.2-8.3,3.7-17.2,8.5-24.4c0,0,9.1-3.3,22.9,0.7C442.5,204.5,443.1,210.4,443.1,210.4z"/>
		</g>
		<path class="st17" d="M405.3,225.6c0,0-1.5,9.1-9,14.7c-0.1-4.6,0.2-10.2,1-16.1L405.3,225.6z"/>
		<path class="st30" d="M365.6,199.2l-4.5-6.7c0,0-0.7-2.9-1.6-3.6c-0.9-0.7-9.6-4.4-10.6-4.3c-1,0-1,6.8,0,7.9c1,1.2,6.5,3.6,8,3.9
			c1.4,0.3,0.7,0,0.7,0l4,8L365.6,199.2z"/>
		<g>
			<path class="st8" d="M405.8,199.8c0,0-12.6,5-28,14.5l-14.6-20c0,0-3.9,1.2-5.4,8.1c0,0,7.5,28.6,17.3,31.5
				c9.8,2.8,30.3-8.3,30.3-8.3S411.3,210.7,405.8,199.8z"/>
			<path class="st32" d="M405.8,199.8c0,0-12.6,5-28,14.5l-14.6-20c0,0-3.9,1.2-5.4,8.1c0,0,7.5,28.6,17.3,31.5
				c9.8,2.8,30.3-8.3,30.3-8.3S411.3,210.7,405.8,199.8z"/>
		</g>
		<g>
			<path class="st8" d="M415.1,198.6c0,0,3.2,22.8,13.3,23.8c10.1,0.9,14.6-15.9,12.9-18C439.6,202.3,426.5,198.4,415.1,198.6z"/>
			<path class="st33" d="M415.1,198.6c0,0,3.2,22.8,13.3,23.8c10.1,0.9,14.6-15.9,12.9-18C439.6,202.3,426.5,198.4,415.1,198.6z"/>
		</g>
	</g>
</g>
<g id="Character_1">
	<g id="_x3C_Group_x3E__81_">
		<polygon class="st34" points="55.4,408.7 62.8,408.7 63.4,391.5 56,391.5 		"/>
		<path class="st8" d="M63.8,407.8h-9c-0.3,0-0.6,0.2-0.6,0.5l-1.5,6.6c-0.1,0.6,0.3,1.2,0.8,1.3c0.1,0,0.2,0,0.2,0
			c2.9,0,5-0.2,8.7-0.2c2.3,0,9,0.2,12.2,0.2c3.1,0,3.5-3.1,2.2-3.4c-5.7-1.2-10-3-11.8-4.6C64.7,408,64.3,407.8,63.8,407.8z"/>
		<path class="st11" d="M64.3,408.8c-0.1,0-0.1-0.1-0.1-0.2c0-0.1,0-0.1,0.1-0.2c0.3-0.2,2.7-1.6,3.5-1.2c0.2,0.1,0.3,0.3,0.3,0.5
			c0,0.4-0.1,0.7-0.4,0.9c-0.4,0.3-0.9,0.4-1.4,0.4C65.6,409.1,64.9,409,64.3,408.8z M64.8,408.6c0.9,0.3,1.8,0.2,2.6-0.1
			c0.2-0.2,0.3-0.4,0.2-0.6c0-0.1-0.1-0.2-0.1-0.2c-0.1,0-0.1-0.1-0.2,0C66.4,407.7,65.6,408.1,64.8,408.6z"/>
		<path class="st11" d="M64.3,408.9c-0.1,0-0.1-0.1-0.1-0.2c0-0.1,0.2-2.2,1-2.9c0.2-0.2,0.5-0.3,0.7-0.2c0.3,0,0.5,0.2,0.6,0.5
			c0.2,0.8-1.3,2.4-2.1,2.8L64.3,408.9C64.3,408.9,64.3,408.9,64.3,408.9z M65.4,406c-0.5,0.7-0.8,1.5-0.9,2.3
			c0.8-0.6,1.7-1.8,1.6-2.3c0,0,0-0.2-0.3-0.2h-0.1C65.7,405.8,65.6,405.9,65.4,406z"/>
		<polygon class="st17" points="56,391.5 63.4,391.5 63.1,400.4 55.6,400.4 		"/>
		<polygon class="st34" points="93.5,409.2 101.1,410 102.6,393.5 94.9,392.7 		"/>
		<path class="st8" d="M101.9,407.6h-9c-0.3,0-0.6,0.2-0.6,0.5l-1.5,6.6c-0.1,0.6,0.3,1.2,0.8,1.3c0.1,0,0.2,0,0.2,0
			c2.9,0,5-0.2,8.7-0.2c2.3,0,9,0.2,12.2,0.2c3.1,0,3.5-3.1,2.2-3.4c-5.7-1.2-10-3-11.8-4.6C102.8,407.7,102.4,407.6,101.9,407.6z"
			/>
		<path class="st11" d="M102.5,408.6c-0.1,0-0.1-0.1-0.1-0.2c0-0.1,0-0.1,0.1-0.2c0.3-0.2,2.7-1.6,3.5-1.2c0.2,0.1,0.3,0.3,0.3,0.5
			c0,0.4-0.1,0.7-0.4,0.9c-0.4,0.3-0.9,0.4-1.4,0.4C103.7,408.9,103.1,408.8,102.5,408.6z M103,408.4c0.9,0.3,1.8,0.2,2.6-0.1
			c0.2-0.2,0.3-0.4,0.2-0.6c0-0.1-0.1-0.2-0.1-0.2c-0.1,0-0.1-0.1-0.2,0C104.6,407.5,103.7,407.9,103,408.4z"/>
		<path class="st11" d="M102.4,408.6c-0.1,0-0.1-0.1-0.1-0.2c0-0.1,0.2-2.2,1-2.9c0.2-0.2,0.5-0.3,0.7-0.2c0.3,0,0.5,0.2,0.6,0.5
			c0.2,0.8-1.3,2.4-2.1,2.8L102.4,408.6C102.5,408.6,102.4,408.6,102.4,408.6z M103.6,405.8c-0.5,0.7-0.8,1.5-0.9,2.3
			c0.8-0.6,1.7-1.8,1.6-2.3c0,0,0-0.2-0.3-0.2H104C103.8,405.6,103.7,405.7,103.6,405.8z"/>
		<polygon class="st17" points="94.9,392.7 102.6,393.5 101.8,402 94.2,401.2 		"/>
		<path class="st8" d="M59,241h39.3c3.7,20.4,15.4,92.6,7,157l-13.3-1.6c0,0,1.2-85.4-10.5-117c-1.4,16.9-3,34.9-4.3,44.5
			c-3.4,23.6-10.7,75-10.7,75H52.9c0,0,2.8-49.3,4.1-72.4C58.4,301.3,59,246.2,59,241z"/>
		<g>
			<polygon class="st11" points="106.9,401.1 90.4,398.7 90.9,394.1 108.1,396.4 			"/>
		</g>
		<g>
			<polygon class="st11" points="68.1,398.9 52.1,398.9 52.1,394.2 68.7,393.9 			"/>
		</g>
		<path class="st17" d="M81.6,279.4c1.7,4.7,3.2,10.5,4.4,17c1.1-15-3.3-31-3.3-31L81.6,279.4z"/>
		<path class="st11" d="M57.9,247.9l-0.9,4.7c0,0,27.5,3.6,44.6,3.5l-0.6-3.3L57.9,247.9z"/>
		<path class="st34" d="M113.7,206.8c0,0,9.5,30,16,32c6.5,2,23-22.8,23-22.8s14.8-0.1,15.5-1.2c0.7-1-3.9-11.5-4.9-11.5
			c-1.1,0-14,4.9-14.5,5.7c-0.5,0.8-15.3,15-16,14.6c-0.7-0.4-6.3-18.2-6.3-18.2L113.7,206.8z"/>
		<path class="st34" d="M154.7,214.4c0.1,0,0.2-0.1,0.4-0.1c-0.1,0-0.1-0.1-0.2-0.1C154.8,214.2,154.8,214.3,154.7,214.4z"/>
		<g>
			<path class="st11" d="M108.3,203.3l1.2,2.1l5.4,10l1.1,2.1l15.2-5.3c0,0-6.3-23.6-8.5-26L108.3,203.3z"/>
			<path class="st35" d="M108.3,203.3l1.2,2.1l5.4,10l1.1,2.1l15.2-5.3c0,0-6.3-23.6-8.5-26L108.3,203.3z"/>
		</g>
		<path class="st17" d="M109.5,205.4l5.4,10c3.3-6.6,2.4-15.6,2.4-15.6L109.5,205.4z"/>
		<g>
			<path class="st11" d="M122.7,186.2c0,0-8-10.4-22.9-11.1c-14.9-0.7-19.6,0.8-25,5.6C66.9,187.9,57,249,57,249s20.8,6.4,44.6,4.9
				c0,0,0.2-17,5.5-28.4C117.6,203.2,122.7,186.2,122.7,186.2z"/>
			<path class="st35" d="M57,249c0,0,20.8,6.4,44.6,4.9c0,0,0-2.1,0.3-5.3c0.1-1.5,0.3-3.3,0.6-5.2c0.3-2,0.6-4.1,1.1-6.3
				c0.2-1.2,0.5-2.3,0.8-3.5c0.7-2.8,1.7-5.6,2.8-8.1c0.7-1.4,1.3-2.8,1.9-4.2c1.1-2.4,2.1-4.7,3-6.9c2-4.6,3.7-8.9,5.1-12.6
				c1-2.7,1.9-5.1,2.6-7.1c0.8-2.3,1.5-4.2,1.9-5.6c0.6-1.9,0.9-2.9,0.9-2.9s-0.5-0.7-1.6-1.8c-3-3-10-8.6-20.8-9.3
				c-0.2,0-0.3,0-0.5,0c-11.3-0.5-16.8,0.2-21.1,2.7c-1.4,0.8-2.6,1.8-3.9,2.9c-0.9,0.8-1.8,2.3-2.7,4.3c-1.5,3.3-3.1,7.9-4.5,13.3
				c-0.2,0.8-0.4,1.6-0.7,2.4c-1,3.7-1.9,7.7-2.8,11.7c-0.3,1.1-0.5,2.3-0.8,3.4c-0.4,1.7-0.7,3.5-1.1,5.2
				c-0.9,4.3-1.7,8.5-2.4,12.2c-1,5.4-1.8,9.9-2.3,12.7C57.2,247.9,57,249,57,249z M100.7,175.7c1.1,0,2.1,0.1,3,0.2
				c4,0.5,10.1,3.7,10,5.3c-0.2,1.5-2.5,5.4-8.5,4.5c-2.1-0.3-4.1-1.3-5.8-2.4c-3.3-2.2-5.7-5.1-5.9-6.1
				C93.2,176,97.1,175.6,100.7,175.7z"/>
			<path class="st11" d="M87.9,196.1c0,0-7.9,19.1-9.5,34.9l21.3,2.7c0,0,9.6-25.8,11.5-33.8C111.2,199.9,94.2,198.2,87.9,196.1z"/>
			<polygon class="st35" points="107.1,200.6 110,200.9 107.9,202.6 			"/>
		</g>
		<path class="st34" d="M95.5,177.2c1.6,4.6,7.6,6.7,10.7,7c4.4,0.4,5.7-3.1,5.7-3.1s-3.6-1.8-3.2-3.8c0.2-1.2,0.8-2.3,1.5-3.4
			c0.4-0.6,0.8-1.1,1.2-1.7l-5.7-12.3C104.3,165.2,100.4,175.5,95.5,177.2z"/>
		<path class="st17" d="M105.4,165.6c-2.7,6,1.1,10.1,3.3,11.7c0.2-1.2,0.8-2.3,1.5-3.4L105.4,165.6z"/>
		<g>
			<g>
				<path class="st34" d="M124.7,149.6c0,0,1.8,10.2-3.5,14.2c-5.3,4.1-5.8-14.9-5.8-14.9L124.7,149.6z"/>
				<path class="st26" d="M124.7,149.6c0,0,1.8,10.2-3.5,14.2c-5.3,4.1-5.8-14.9-5.8-14.9L124.7,149.6z"/>
			</g>
			<path class="st34" d="M105.7,172.3c2.7,3.7,7,4.6,10.7,3.3c2.4-0.8,4.5-2.5,5.7-5c0.2-0.3,0.3-0.6,0.5-1c2.5-6.3,3-21.7-3.7-21.1
				c-5.5,0.5-10.9-1.2-13.7,3.5c-0.8,1.4-1.3,2.9-1.4,4.5C103.3,163.8,102.6,168.1,105.7,172.3z"/>
			<path class="st8" d="M114.6,160.1c-0.1,0.6,0.2,1.1,0.5,1.2c0.4,0.1,0.8-0.4,0.9-1c0.1-0.6-0.2-1.1-0.5-1.2
				C115.1,159.1,114.7,159.5,114.6,160.1z"/>
			<path class="st8" d="M121.3,161.1c-0.1,0.6,0.2,1.1,0.5,1.2c0.4,0.1,0.8-0.4,0.9-1c0.1-0.6-0.2-1.1-0.5-1.2
				C121.8,160.1,121.4,160.5,121.3,161.1z"/>
			<path class="st36" d="M119.1,161.1c0.4,1.9,1.2,3.7,2.1,5.5c-0.9,0.5-2,0.5-2.9,0.1L119.1,161.1z"/>
			<path class="st8" d="M112.8,157.7c0.1,0,0.3,0,0.4-0.1c0.6-0.6,1.5-1,2.4-0.8c0.2,0,0.4-0.1,0.4-0.3c0-0.2-0.1-0.4-0.3-0.4
				c0,0,0,0,0,0c-1.1-0.2-2.2,0.2-3,1c-0.1,0.1-0.1,0.4,0,0.5c0,0,0,0,0,0C112.7,157.6,112.8,157.6,112.8,157.7z"/>
			<path class="st8" d="M124.5,159.2c0.1,0,0.1,0.1,0.2,0c0.2-0.1,0.3-0.3,0.2-0.4c0,0,0,0,0,0c-0.3-1.1-1.2-1.9-2.2-2.3
				c-0.2-0.1-0.4,0.1-0.4,0.2l0,0c0,0.2,0.1,0.4,0.2,0.4l0,0c0.8,0.3,1.5,1,1.7,1.9C124.3,159.1,124.4,159.2,124.5,159.2z"/>
			<path class="st31" d="M113.7,166.9c0,0,1.2,2.6,3.7,2.5"/>
			<g>
				<path class="st34" d="M110.5,148.2l0.1,3.3c-1.1,0.5-1.9,1.6-1.5,2.9c0.8,2.8-1.1,6.9-3.4,8.3c0,0,0-1.2-1-1
					c-1,0.2-1.3,6.3,0.3,9.4c0,0-3.5-3.3-4.6-9.8c-1-6.1-0.8-9.9,0.1-12.8L110.5,148.2z"/>
				<path class="st26" d="M110.5,148.2l0.1,3.3c-1.1,0.5-1.9,1.6-1.5,2.9c0.8,2.8-1.1,6.9-3.4,8.3c0,0,0-1.2-1-1
					c-1,0.2-1.3,6.3,0.3,9.4c0,0-3.5-3.3-4.6-9.8c-1-6.1-0.8-9.9,0.1-12.8L110.5,148.2z"/>
			</g>
			<path class="st8" d="M99.9,152.1c0,0,4.2,0.6,10.7-0.7c10.1-2,14.4,1.7,14.4,1.7s2.4-2.1,2.1-5s-4.3-3.4-4.3-3.4
				s-1.2-3.3-3.9-4.3c-2.7-1-5.3,1.5-5.3,1.5s-3.3-3.2-7.2-2.3c-4.8,1.1-4.7,5.7-4.7,5.7s-4.5,0.5-4.5,2.8S99.9,152.1,99.9,152.1z"
				/>
			<ellipse class="st31" cx="115.4" cy="160.6" rx="3.3" ry="3.8"/>
			<path class="st31" d="M126.9,161.2c0,2.1-1.5,3.8-3.3,3.8c-1.8,0-3.3-1.7-3.3-3.8c0-2.1,1.5-3.8,3.3-3.8
				C125.4,157.4,126.9,159.1,126.9,161.2z"/>
			<path class="st31" d="M118.7,161.1c0,0,1.1-0.7,1.7,0.1"/>
			<path class="st31" d="M112.1,160.6l-5.7-0.8c-0.7-0.1-1.5,0.1-2.1,0.6l-0.3,0.2"/>
			<path class="st34" d="M99.9,162c0.6,1.8,1.8,3.2,3.5,4.1c2.2,1.1,3.7-0.8,3.5-3.1c-0.2-2.1-1.6-5.2-4-5.3
				C100.5,157.7,99.2,159.9,99.9,162z"/>
		</g>
		<path class="st17" d="M63.3,215.8c9.4-3.9,16.9-20.1,16.9-20.1l-5.4-3.2l-7.3,5.9c-0.2,0.8-0.4,1.6-0.7,2.4
			c-1,3.7-1.9,7.7-2.8,11.7C63.8,213.5,63.6,214.7,63.3,215.8z"/>
		<polygon class="st11" points="115.3,217.5 131.6,211.5 132.1,212.9 115.8,218.7 		"/>
		<g>
			
				<rect x="23.3" y="254.7" transform="matrix(0.9877 0.1567 -0.1567 0.9877 42.7985 -4.0681)" class="st11" width="47.8" height="29.5"/>
			<g>
				<polyline class="st37" points="42.6,262.3 33,267.2 40.6,274.9 				"/>
				<polyline class="st37" points="51.8,276.7 61.4,271.7 53.8,264 				"/>
				<line class="st37" x1="44" y1="275.4" x2="50.5" y2="263.5"/>
			</g>
		</g>
		<path class="st34" d="M69.2,183.4c0,0-17.8,17.9-20.2,21.3c-2.4,3.5-7.1,41.9-7.1,41.9s-1,0.3-1.1,1.2s-0.2,11.6,0,12.1
			c0.2,0.5,8.3,5.6,9.5,4.4c1.2-1.2,2.9-13.4,2.9-13.4l-4.3-4.2c0,0,5-28.3,8.2-32.9c3.1-4.6,16.1-14.4,16.1-14.4L69.2,183.4z"/>
		<g>
			<path class="st11" d="M82.9,176.2c2.6,5.5,0.6,17-4.2,21.1c-7.2,6.2-16,11.5-16,11.5L54,197.4c0,0,9.3-9.1,14.9-14.3
				C75.7,176.7,82.9,176.2,82.9,176.2z"/>
			<path class="st35" d="M82.9,176.2c2.6,5.5,0.6,17-4.2,21.1c-7.2,6.2-16,11.5-16,11.5L54,197.4c0,0,9.3-9.1,14.9-14.3
				C75.7,176.7,82.9,176.2,82.9,176.2z"/>
		</g>
		<polygon class="st11" points="54,196.6 52.9,198.1 62,210 63.3,209.1 		"/>
	</g>
</g>
</svg>
