<?xml version="1.0" encoding="utf-8"?>
<!-- Generator: Adobe Illustrator 23.1.0, SVG Export Plug-In . SVG Version: 6.00 Build 0)  -->
<svg version="1.1" xmlns="http://www.w3.org/2000/svg" xmlns:xlink="http://www.w3.org/1999/xlink" x="0px" y="0px"
	 viewBox="0 0 500 500" style="enable-background:new 0 0 500 500;" xml:space="preserve">
<style type="text/css">
	.st0{fill:#EBEBEB;}
	.st1{fill:#F0F0F0;}
	.st2{fill:#F5F5F5;}
	.st3{fill:#407BFF;}
	.st4{opacity:0.7;}
	.st5{fill:#FFFFFF;}
	.st6{fill:#407BFF;enable-background:new    ;}
	.st7{opacity:0.4;}
	.st8{fill:#FFFFFF;enable-background:new    ;}
	.st9{opacity:0.3;fill:#FFFFFF;}
	.st10{opacity:0.7;fill:#FFFFFF;}
	.st11{opacity:0.8;fill:#FFFFFF;}
	.st12{fill:#E4897B;}
	.st13{opacity:0.3;enable-background:new    ;}
	.st14{fill:#263238;}
	.st15{opacity:0.2;enable-background:new    ;}
	.st16{fill:#DE5753;}
	.st17{opacity:0.5;fill:#FFFFFF;}
	.st18{opacity:0.2;fill:#FFFFFF;}
	.st19{fill:#EBB376;}
	.st20{opacity:0.4;fill:#407BFF;}
	.st21{fill:#D58745;}
	.st22{opacity:0.2;fill:#FFFFFF;enable-background:new    ;}
	.st23{fill:#EEC1BB;}
	.st24{fill:#D4827D;}
	.st25{fill:#9F5B53;}
	.st26{opacity:0.3;}
	.st27{fill:#892B29;}
	.st28{opacity:0.6;fill:#FFFFFF;enable-background:new    ;}
	.st29{opacity:5.000000e-02;fill:#FFFFFF;enable-background:new    ;}
	.st30{opacity:0.3;fill:#FFFFFF;enable-background:new    ;}
</style>
<g id="Background_Complete">
	<g>
		<rect y="398.4" class="st0" width="500" height="0.3"/>
		<rect x="416.8" y="414.5" class="st0" width="33.1" height="0.3"/>
		<rect x="322.5" y="417.2" class="st0" width="8.7" height="0.3"/>
		<rect x="396.6" y="405.2" class="st0" width="19.2" height="0.3"/>
		<rect x="52.5" y="406.9" class="st0" width="43.2" height="0.3"/>
		<rect x="104.6" y="406.9" class="st0" width="6.3" height="0.3"/>
		<rect x="131.5" y="411.1" class="st0" width="93.7" height="0.3"/>
		<path class="st0" d="M237,353.8H43.9c-3.1,0-5.7-2.6-5.7-5.7V76.7c0-3.1,2.6-5.7,5.7-5.7H237c3.1,0,5.7,2.6,5.7,5.7v271.4
			C242.7,351.2,240.2,353.8,237,353.8z M43.9,71.2c-3,0-5.5,2.4-5.5,5.5v271.4c0,3,2.4,5.5,5.5,5.5H237c3,0,5.5-2.4,5.5-5.5V76.7
			c0-3-2.4-5.5-5.5-5.5H43.9z"/>
		<path class="st0" d="M453.3,353.8H260.2c-3.1,0-5.7-2.6-5.7-5.7V76.7c0-3.1,2.6-5.7,5.7-5.7h193.1c3.1,0,5.7,2.6,5.7,5.7v271.4
			C459,351.2,456.5,353.8,453.3,353.8z M260.2,71.2c-3,0-5.5,2.4-5.5,5.5v271.4c0,3,2.4,5.5,5.5,5.5h193.1c3,0,5.5-2.4,5.5-5.5V76.7
			c0-3-2.4-5.5-5.5-5.5H260.2z"/>
	</g>
	<polygon class="st1" points="393.9,162.3 285.1,125.5 285,125.5 227.5,66.5 181.4,108.6 180.7,107.9 227.5,65.1 285.6,124.7 
		393.6,161.1 437.8,100.2 438.7,100.8 	"/>
	<g>
		<path class="st1" d="M55.6,252.8c0,3-2.4,5.4-5.4,5.4c-3,0-5.4-2.4-5.4-5.4s2.4-5.4,5.4-5.4C53.2,247.4,55.6,249.8,55.6,252.8z"/>
		<path class="st1" d="M232.9,65.8c0,3-2.4,5.4-5.4,5.4s-5.4-2.4-5.4-5.4c0-3,2.4-5.4,5.4-5.4S232.9,62.9,232.9,65.8z"/>
		<path class="st1" d="M443.6,100.5c0,3-2.4,5.4-5.4,5.4s-5.4-2.4-5.4-5.4s2.4-5.4,5.4-5.4S443.6,97.5,443.6,100.5z"/>
		<path class="st1" d="M444.1,384.4c0,3-2.4,5.4-5.4,5.4c-3,0-5.4-2.4-5.4-5.4s2.4-5.4,5.4-5.4C441.7,379,444.1,381.4,444.1,384.4z"
			/>
		<path class="st1" d="M290.7,125.1c0,3-2.4,5.4-5.4,5.4c-3,0-5.4-2.4-5.4-5.4c0-3,2.4-5.4,5.4-5.4
			C288.3,119.7,290.7,122.1,290.7,125.1z"/>
	</g>
	<polygon class="st1" points="191.4,384.5 190.9,384.4 56,359 56.2,358 190.7,383.4 284.9,124.9 285.8,125.3 	"/>
	
		<rect x="84.7" y="138.9" transform="matrix(0.6629 -0.7487 0.7487 0.6629 -98.3229 120.9448)" class="st1" width="1" height="61.5"/>
	<polygon class="st1" points="438.5,384.8 371.8,343.5 373.2,343.1 443.3,275.6 393.3,161.9 394.2,161.5 444.5,275.9 444.2,276.1 
		374,343.7 439,384 	"/>
	<polygon class="st1" points="56.5,358.7 55.7,358.2 96,295.9 49.5,252.8 49.9,252.4 108.1,189.4 108.4,189.6 373.7,343.1 
		373.2,344 108.3,190.7 50.9,252.8 97.3,295.8 	"/>
</g>
<g id="Shadow">
	<ellipse id="_x3C_Path_x3E__2_" class="st2" cx="250" cy="432.2" rx="193.9" ry="11.3"/>
</g>
<g id="World">
	<g>
		<g>
			<g>
				<path class="st3" d="M241,315.1c2.7,0.2,5.4,0.3,8,0.3c22.6-0.3,43.3-10,58-25.6c12.2-12.9,20.2-29.9,21.8-49
					c0-0.5,0.1-1,0.1-1.5c0.7-10.2-0.6-20.1-3.5-29.3l0,0c-8.8-28.2-32.6-50.2-62.7-55.8c-2.7-0.5-5.5-0.9-8.2-1.1
					c-6.8-0.6-13.4-0.3-19.8,0.8c-19,3.1-35.9,12.8-48.2,26.8c-11,12.6-18.3,28.8-19.8,46.8c-0.8,9.6,0.1,19,2.5,27.9
					C177.9,287.4,205.9,312.2,241,315.1z"/>
			</g>
			<g class="st4">
				<path class="st5" d="M241,315.1c2.7,0.2,5.4,0.3,8,0.3c22.6-0.3,43.3-10,58-25.6c12.2-12.9,20.2-29.9,21.8-49
					c0-0.5,0.1-1,0.1-1.5c0.7-10.2-0.6-20.1-3.5-29.3l0,0c-8.8-28.2-32.6-50.2-62.7-55.8c-2.7-0.5-5.5-0.9-8.2-1.1
					c-6.8-0.6-13.4-0.3-19.8,0.8c-19,3.1-35.9,12.8-48.2,26.8c-11,12.6-18.3,28.8-19.8,46.8c-0.8,9.6,0.1,19,2.5,27.9
					C177.9,287.4,205.9,312.2,241,315.1z"/>
			</g>
			<g>
				<path class="st6" d="M186.8,253.9c-0.3,1.5-2.2,2.1-3.7,2.2c-2.3,0.3-4.6,0.6-7,0.9c-1.1-2.9-4.5-2.9-6.9-1.8
					c8.7,32.2,36.7,57,71.8,59.9c2.7,0.2,5.4,0.3,8,0.3c0-0.1,0.1-0.1,0.1-0.2c1.2-2.1-0.5-4-1.5-5.8c-0.2-0.4-2.2-5.4-1.5-5.4
					c-2.1,0-4.3-0.2-6.3-0.8c-0.2,0-0.3-0.1-0.4-0.2c-0.2-0.3,0.3-0.7,0.6-0.7c1-0.2,2-0.3,2.9-0.6c0.9-0.3,1.9-0.9,2.2-1.8
					c0.4-0.9,0.1-2,0.3-2.9c0.3-1.2,1.2-2.1,2.3-2.6c1-0.5,2.2-0.7,3.4-0.9c-2.5-1.3-0.7-4.1-2.6-6c-0.6-0.6-1.5-1.3-1.1-2.1
					c0.4-0.7,1.7-0.7,1.8-1.5c0.1-0.6-0.5-1-1-1.2c-0.6-0.1-1.2-0.1-1.7-0.4c-0.7-0.4-0.9-1.4-0.5-2.1c0.4-0.6,1.2-0.8,1.8-1.1
					c0.6-0.3,1.2-1.1,0.8-1.7c-0.1-0.1-0.2-0.3-0.4-0.3c-1-0.6-2.4-0.1-3.4,0.6c-1,0.7-2,1.5-3.3,1.5c-0.3-0.5-0.1-1.1,0.4-1.4
					c0.2-0.1,0.4-0.1,0.5-0.3c0.3-0.3,0.1-0.8-0.1-1.1c-0.9-1.7-1.1-3.7-0.6-5.6c2.5,0,5,0.1,7.4,0.1c0.1-0.6,0.1-0.9,0.7-1.1
					c-1.7-2-3.5-3.8-5-6c-0.2-0.3-0.4-0.5-0.7-0.6c-0.3-0.1-0.7,0-1,0c-1.1-0.1-1.2-1.6-1.1-2.7c-0.2-0.3-0.7-0.2-0.9,0.1
					c-0.2,0.3-0.2,0.7-0.5,1c-0.4,0.4-1,0.4-1.5,0.2c-1.7-0.7-2.7-2.9-1.9-4.6c0.1-0.2,0.2-0.4,0.4-0.5c0.4-0.2,0.9,0.1,1.4,0.1
					c1.9,0.3,1.6-1.8,1.2-2.7c-0.6-1.3-2.5-2.2-3.8-2.6c-1.6-0.4-12-2.4-10.3-5.8c0.2-0.3,0.5-0.5,0.8-0.7c1-0.4,2.1-0.3,3.2-0.6
					c1-0.3,2.1-1.4,1.6-2.4c-0.2-0.4-0.6-0.7-0.8-1.1c-0.6-1.1,0.3-2.4-0.1-3.6c-0.2-0.5-0.6-0.9-0.9-1.4c-0.3-0.5-0.3-1.2,0.2-1.5
					c0.5-0.3,1.3,0.2,1.8-0.1c0.6-0.3,0.6-1.3,0-1.6c-0.5-0.4-1.3-0.2-1.9,0.1c-0.3,0.2-0.6,0.4-0.9,0.5c-0.6,0.1-1.1-0.5-1.4-1.1
					c-0.5-0.8-1-1.7-1.5-2.5c-0.6,0-1,0.5-1.2,1.1c-0.2,0.5-0.2,1.1-0.4,1.6c-1.1,2.5-4.9,2.2-4.4,5.6c1-0.1,2,1,1.7,2
					c-0.4,1.2-2.2,1.9-2,3.1c0.1,0.4,0.4,0.8,0.5,1.2c0.2,1.2-1.7,1.7-2.5,1.9c-2.7,0.9-2.8-0.8-5.2-0.9c-1.1,0-2,0.7-3.1,0.8
					c-1,0.1-1.9-0.3-2.9-0.2c-2.7,0.2-1.3,3.8-1.1,5.4c-1.4-1-3.4,0.2-4.5,1.4c-1.8,2-1.6,1.6-3.9,1.7c-0.6,0-1.3,0.3-1.5,0.9
					c-0.4,1,0.5,2,0.5,3.1c0,0.5-0.2,1-0.1,1.5c0.1,1.3,1.7,1.9,2.7,2.9c0.8,0.8,1.2,2.1,1,3.2c-0.7,0-1.4,0-2.1-0.1
					c-0.4-0.8-0.8-1.6-1.2-2.3c-0.4-0.7-0.7-1.4-1.4-1.9c-0.4-0.3-0.8-0.4-1-0.8c-0.5-0.7-0.1-1.7,0-2.5c0.3-2.1-0.7-5.6-1.3-7.6
					c-0.5-2.2-2-3-2.5-5.1c-0.1-0.4-0.6-0.5-0.9-0.3c-0.3,0.2-0.5,0.5-0.6,0.9c-0.2,0.8-0.1,1.7,0.2,2.5c-0.5-1-3,1.7-3.2,2.2
					c-0.3,0.8,0.3,2,0.3,2.9c-0.1,2.2-0.6,3.4-2.8,1.8c-0.9-0.6-1.9-1.3-2.8-0.8c0.2,0.6-0.2,1.2-0.7,1.5c-0.5,0.3-1.2,0.3-1.8,0.1
					c-0.4-0.1-0.8-0.2-1.1-0.5c-0.1-0.2-0.2-0.4-0.4-0.5c-0.6-0.4-1.3,0.3-1.6,1"/>
				<path class="st6" d="M285,190c0.4,0.7,0,1.6-0.5,2.3s-1.1,1.4-0.9,2.2c1,0.1,1.9,0.2,2.9,0.3c0.2,0,0.4,0,0.5,0.2
					c0.1,0.1,0.1,0.3,0.1,0.5c-0.1,0.6-0.2,1.2-0.2,1.9c-0.6,0.5-1.2-1-2-0.9c-0.3,0.1-0.5,0.4-0.7,0.7c-1.6,2.5-4.3,0.6-5.8-0.7
					c-1.7-1.5-4.2-1.6-6.4-1.6c-0.8,0-1.7,0-2.3,0.6c-0.6,0.6-0.6,1.4-0.9,2.2c-0.5,1.3-1.7,2.1-2.4,3.3c-2.5,4.2,2,7.4,5.7,6.2
					c1.9-0.6,1.6-0.9,3.6-0.4c0.8,0.2,1.8,0,2.4,1c0.5,1-0.2,2.3-1.4,2.3c-1.1,0-2.2,0.2-3.2-0.4c0.4,1.3,0,2.8-0.1,4.2
					c-1.3-0.3-2.5,1.3-2,2.5c0.6,0,1.5,0.2,1.4,0.9c0,0.2-0.1,0.4-0.2,0.5c-0.4,0.6-1,1.2-1.4,1.9c-0.6,1-0.6,4.2-2.1,4.5
					c-0.3,0.1-0.5,0-0.8,0.1c-0.5,0.2-0.9,0.8-0.7,1.4c0.1,0.6,0.6,1,1.2,1.1c0.4,0.1,0.8,0.1,1.1,0.2c1.9,0.7,0.2,2.6,0.7,3.5
					c0.2,0.5,3.4,2.5,3.8,2.6c-1.1,0.8-2.1,2-2.2,3.4c0,1.6,1.1,2.3,2.6,2.8c1.6,0.5,3.5,0.7,4.6,1.1c0.6,0.2,1.4,0.5,1.9,0
					c0.6-0.5,0.5-1.7,1.2-2c0.2-0.1,0.5-0.1,0.8-0.1c1.5-0.1,2.7-1.7,2.4-3.2c0.3-0.5,1-0.4,1.6-0.4c0.6,0,1.3-0.2,1.4-0.7
					c0.1-0.7-0.7-1-1.4-1.1c-0.7,0-1.3,0-2,0.2c-0.5,0.1-1,0.3-1.5,0.1c-0.3-0.2-0.6-0.5-0.8-0.8c-0.5-0.8-0.9-1.7-0.8-2.6
					c0.1-0.9,0.8-1.8,1.7-1.8c0.2,0,0.5,0.1,0.7,0c0.6-0.1,0.9-0.9,0.9-1.5c0-0.6-0.3-1.3-0.1-1.9c0.2-0.6,1-1.1,1.4-0.6
					c0.4-0.8,0.6-2-0.2-2.4c-0.3-0.1-0.5-0.1-0.8-0.1c-1.7-0.2-4.1-2.5-2.2-3.9c1.3-0.9,3.3,1,4.4-0.7c0.5-0.8,0.2-2,0.8-2.7
					c0.3-0.2,0.7,0.2,0.8,0.6c0.2,1.2-0.2,2.6-1.2,3.4c1,0.6,2.5-0.1,3.2,0.8c0.7,0.9-0.3,2.5,0.6,3.2c0.2,0.2,0.6,0.3,0.9,0.3
					c1.6,0.2,4.5,0,4.6,2.2c0,0.3,0,0.6,0,0.8c0.2,0.8,1.3,0.9,2.1,0.8c0.4-0.8-0.1-1.7-0.5-2.6c-0.4-0.8-0.3-2.1,0.5-2.3
					c0.6-0.1,1.4,0.4,1.9,0c0.2-0.2,0.4-0.5,0.6-0.6c0.6-0.3,1.2,0.7,1.9,0.9c1,0.3,1.7-1,1.7-2c0-1-0.3-2.2,0.4-2.9
					c0.2-0.2,0.5-0.4,0.7-0.6c0.7-0.7,0.8-1.7,0.9-2.7c0.2-1.6,6.3,2.5,6.7,2.5c3,0.5,4.8-2.4,6.8-4.1c1.1-0.8,2.3-1.4,3.5-2
					c-8.4-27.1-31.2-48.5-58.9-55c-1.2-0.3-2.5-0.6-3.8-0.7c0.4,1.9,1.5,4.9,0.3,6.7c-1.6,2.3-5,0.3-6.3,3c0,0.7,1.1,0.6,1.6,1
					c0.3,0.2,0.4,0.7,0.5,1c0.1,0.4,0.5,0.7,0.8,0.6c0.4,0.6-0.2,1.4-0.8,1.9c-0.7,0.6-1.3,1.3-1.5,2.2c-0.5,1.8,0.7,3.6,1.4,5.3
					c0.6,1.4,1,2.9,1.3,4.4c0-0.7,1-1,1.7-0.7c0.6,0.3,1,1,1.5,1.5c0.9,0.8,2,0.3,2.9,1c1.2,0.9,1.9,2.5,3.4,2.7
					c1.8,0.3,3-1.6,3.8-3.2c1.9,1,3.1,3.5,5.3,3.6c0.8,0.1,1.7-0.3,2.4-0.6c1.6-0.6,3.2-1.3,4.8-1.9c0.7-0.3,1.4-0.5,2.1-0.3
					c0.8,0.3,1.2,1.1,1.5,1.9c0.3,0.8,0.7,1.7,1,2.5c0.1,0.3,0.3,0.7,0.2,1.1c-0.1,0.4-0.4,0.7-0.8,0.9c-1.8,1.2-4.1,1.6-6.2,1.3
					c0.2,2.9,0.8,5.8,1.7,8.5c-1.6-0.4-3.5,0.1-5-0.5"/>
				<path class="st6" d="M266.4,256c-0.6,0.7-1.5,1.3-2.5,1.3c-0.6,0-1.1-0.2-1.7-0.3c-0.6-0.1-1.3,0-1.6,0.5
					c-0.4,0.6,0,1.4,0.4,2.1c0.3,0.5,0.7,1.1,1.3,1.2c0.4,0.1,0.9,0,1.3,0.1c0.9,0.1,1.4,1,2,1.6c0.6,0.7,1.5,1.3,2.3,0.8
					c0.5-0.3,0.7-0.9,1.2-1.2c1.2-0.8,2.7,0.9,3.7,0.3c1.3-0.7,0.8-2.8,0.3-4c-0.5-1.2-1.6-2.1-2.6-3
					C268,252.9,268.4,253.7,266.4,256z"/>
				<path class="st6" d="M307,289.7c12.8-12.7,20.3-31.1,21.7-48.9c0-0.5,0.1-1,0.1-1.5c-2.5-2.5-7.4-4.2-8.7,0.4
					c-0.5,0-0.6-0.3-1-0.6c-0.6-0.4-1.5,0.2-1.8,0.8c-1.1,2.2-1.3,5-4.3,4.4c-3.7-0.7-1.2-2.3-2.4-4.3c-0.2-0.3-0.5-0.5-0.7-0.7
					c-0.9-0.9-0.8-2.3-0.6-3.5c0.7,0.4,1.7,0,1.9-0.8c0.1-0.3,0.1-0.6,0.3-0.8c0.4-0.5,1.3,0,1.5,0.6c0.2,0.6,0,1.3,0.2,1.9
					c0.1,0.6,0.8,1.2,1.4,0.9c0.2-0.1,0.3-0.4,0.4-0.7c0.3-1.1,0.1-2.3-0.6-3.2c0.6-0.2,1.1-0.8,1-1.4c0-0.6-0.5-1.2-1.1-1.3
					c-0.9-0.2-2.2,0.3-2.5-0.5c0.1,0.7-0.2,1.5-0.8,2c-2.4,1.7-7.7,0.2-7.1,5.2c0.1,0.8,0.4,1.6,0.3,2.4c0,0.8-0.5,1.7-1.3,1.9
					c1.4,1.2,0.9,3.8,2.4,4.8c0.7,0.5,1.8,0.4,2.4-0.3c0.1-0.1,0.2-0.2,0.3-0.3c0.3-0.1,0.5,0.2,0.8,0.2c0.5,0.1,0.9-0.4,1.4-0.4
					c0.7,0,1.1,0.8,1.2,1.5c0.1,0.7,0.3,1.6,1,1.7c0.2,0.1,0.5,0,0.7,0.1c0.5,0.1,0.8,0.6,0.8,1.1c0,0.5-0.2,1-0.3,1.4
					c-0.3,0.3-0.8,0.1-1.1-0.2c-0.3-0.3-0.5-0.7-0.8-1c-0.2-0.1-4.4,0.2-4.3-0.1c-0.6,1.5-1,4.7-3.1,3.8c-0.8-0.3-1.6-0.8-2.4-0.6
					c0.4-1,0.7-2.1,1.1-3.1c-0.3-0.3-0.8,0.1-1,0.5c-0.1,0.4-0.2,0.9-0.5,1.2c-0.2,0.2-0.6,0.2-0.9,0.2c-1,0-2,0-2.9-0.1
					c-1.1,0-2.3,0-3,0.9c-0.8,0.9-0.3,2.4,0.5,3.3c0.2,0.2,0.4,0.5,0.4,0.7c0,0.3-0.2,0.5-0.4,0.6c-1,1-1.7,2.4-1.4,3.7
					c0.2,1.4,1.5,2.6,2.9,2.5c0.5,0,1.2-0.2,1.5,0.2c0.2,0.3,0.2,0.7,0.5,0.8c0.4,0.2,0.7-0.3,0.9-0.6c0.5-0.5,1.3-0.7,1.9-0.3
					c0.3,0.2,1.3,3.2,1,3.6c-0.6,1-3.4,0.6-4.5,0.7c-0.4,0-0.9,0.1-1.2,0.4c-0.4,0.5-0.1,1.3,0.4,1.7s1.1,0.8,1.4,1.4
					c0.1,0.4,0.1,0.8,0.1,1.1c0,0.8-0.1,1.6-0.7,2.1c-0.3,0.2-0.6,0.4-0.9,0.6c-0.6,0.5-0.7,1.5-0.5,2.3c0.2,0.8,0.6,1.5,0.8,2.3
					c0.3,1.7-0.6,3.6,0.1,5.2c0.3,0.8,1.4,1.4,2,0.9c0.6-0.5,0.6-1.6,1.3-1.7c0.7-0.1,1.6,1.7,2.1,2c0.5,0.3,1.4-0.2,2.2,0.4
					C306.1,288.1,306.2,289.2,307,289.7z"/>
				<path class="st6" d="M198.4,181.4c0.7-0.9,1.2-2,2.5-2.2c1.8-0.3,2.5,0.7,1.7,2.5c-0.1,0.2-0.1,0.3-0.1,0.5
					c0.1,0.5,0.9,0.2,1.4-0.1c1.1-0.7,2.4-0.7,3.5-0.2c0.3,0.1,0.8-4.9,0.5-5.5c-0.9-2-5.2-1.1-4.3-3.3c1.6,0,3.2,0.2,4.8,0.3
					c0.1-0.8,0.2-1.5,0.3-2.3c-0.1,0.6,2.9,0.5,3.2,0.3c1.3-0.7,1-3,3.3-2.7c3,0.5,3.1,6.3-0.2,5.4c-0.8,1.7-1.1,3.8-1.2,5.7
					c-0.6,0-1.2,0-1.8,0c-0.3,0.4-0.4,1-0.2,1.5c1.5,1,3.6,1.1,5.1,0c1,0.7,2.3,0,3.3-0.7c1.4,2.2,5.4,1.9,6.4-0.5
					c1-2.4-1.5-5.5-4.1-4.9c0-1.2-0.5-2.4-1.3-3.4c3.2,0.1,6.3-2.1,7.3-5.1c0.5-1.5,0.6-3.4,1.9-4.3c0.6-0.4,1.3-0.6,1.9-1
					c1.3-0.9,1.7-2.6,1.9-4.2c0.1-1.1,0.2-2.1,0.3-3.2c-19,3.1-35.9,12.8-48.2,26.8c-0.1,0.6-0.1,1.1,0.1,1.7
					c0.4,0.9,1.5,1.3,2.5,1.6c3.9,1,6.4,0.8,9.1-2.2C198.3,181.6,198.4,181.5,198.4,181.4z"/>
			</g>
			<g class="st7">
				<path class="st8" d="M186.8,253.9c-0.3,1.5-2.2,2.1-3.7,2.2c-2.3,0.3-4.6,0.6-7,0.9c-1.1-2.9-4.5-2.9-6.9-1.8
					c8.7,32.2,36.7,57,71.8,59.9c2.7,0.2,5.4,0.3,8,0.3c0-0.1,0.1-0.1,0.1-0.2c1.2-2.1-0.5-4-1.5-5.8c-0.2-0.4-2.2-5.4-1.5-5.4
					c-2.1,0-4.3-0.2-6.3-0.8c-0.2,0-0.3-0.1-0.4-0.2c-0.2-0.3,0.3-0.7,0.6-0.7c1-0.2,2-0.3,2.9-0.6c0.9-0.3,1.9-0.9,2.2-1.8
					c0.4-0.9,0.1-2,0.3-2.9c0.3-1.2,1.2-2.1,2.3-2.6c1-0.5,2.2-0.7,3.4-0.9c-2.5-1.3-0.7-4.1-2.6-6c-0.6-0.6-1.5-1.3-1.1-2.1
					c0.4-0.7,1.7-0.7,1.8-1.5c0.1-0.6-0.5-1-1-1.2c-0.6-0.1-1.2-0.1-1.7-0.4c-0.7-0.4-0.9-1.4-0.5-2.1c0.4-0.6,1.2-0.8,1.8-1.1
					c0.6-0.3,1.2-1.1,0.8-1.7c-0.1-0.1-0.2-0.3-0.4-0.3c-1-0.6-2.4-0.1-3.4,0.6c-1,0.7-2,1.5-3.3,1.5c-0.3-0.5-0.1-1.1,0.4-1.4
					c0.2-0.1,0.4-0.1,0.5-0.3c0.3-0.3,0.1-0.8-0.1-1.1c-0.9-1.7-1.1-3.7-0.6-5.6c2.5,0,5,0.1,7.4,0.1c0.1-0.6,0.1-0.9,0.7-1.1
					c-1.7-2-3.5-3.8-5-6c-0.2-0.3-0.4-0.5-0.7-0.6c-0.3-0.1-0.7,0-1,0c-1.1-0.1-1.2-1.6-1.1-2.7c-0.2-0.3-0.7-0.2-0.9,0.1
					c-0.2,0.3-0.2,0.7-0.5,1c-0.4,0.4-1,0.4-1.5,0.2c-1.7-0.7-2.7-2.9-1.9-4.6c0.1-0.2,0.2-0.4,0.4-0.5c0.4-0.2,0.9,0.1,1.4,0.1
					c1.9,0.3,1.6-1.8,1.2-2.7c-0.6-1.3-2.5-2.2-3.8-2.6c-1.6-0.4-12-2.4-10.3-5.8c0.2-0.3,0.5-0.5,0.8-0.7c1-0.4,2.1-0.3,3.2-0.6
					c1-0.3,2.1-1.4,1.6-2.4c-0.2-0.4-0.6-0.7-0.8-1.1c-0.6-1.1,0.3-2.4-0.1-3.6c-0.2-0.5-0.6-0.9-0.9-1.4c-0.3-0.5-0.3-1.2,0.2-1.5
					c0.5-0.3,1.3,0.2,1.8-0.1c0.6-0.3,0.6-1.3,0-1.6c-0.5-0.4-1.3-0.2-1.9,0.1c-0.3,0.2-0.6,0.4-0.9,0.5c-0.6,0.1-1.1-0.5-1.4-1.1
					c-0.5-0.8-1-1.7-1.5-2.5c-0.6,0-1,0.5-1.2,1.1c-0.2,0.5-0.2,1.1-0.4,1.6c-1.1,2.5-4.9,2.2-4.4,5.6c1-0.1,2,1,1.7,2
					c-0.4,1.2-2.2,1.9-2,3.1c0.1,0.4,0.4,0.8,0.5,1.2c0.2,1.2-1.7,1.7-2.5,1.9c-2.7,0.9-2.8-0.8-5.2-0.9c-1.1,0-2,0.7-3.1,0.8
					c-1,0.1-1.9-0.3-2.9-0.2c-2.7,0.2-1.3,3.8-1.1,5.4c-1.4-1-3.4,0.2-4.5,1.4c-1.8,2-1.6,1.6-3.9,1.7c-0.6,0-1.3,0.3-1.5,0.9
					c-0.4,1,0.5,2,0.5,3.1c0,0.5-0.2,1-0.1,1.5c0.1,1.3,1.7,1.9,2.7,2.9c0.8,0.8,1.2,2.1,1,3.2c-0.7,0-1.4,0-2.1-0.1
					c-0.4-0.8-0.8-1.6-1.2-2.3c-0.4-0.7-0.7-1.4-1.4-1.9c-0.4-0.3-0.8-0.4-1-0.8c-0.5-0.7-0.1-1.7,0-2.5c0.3-2.1-0.7-5.6-1.3-7.6
					c-0.5-2.2-2-3-2.5-5.1c-0.1-0.4-0.6-0.5-0.9-0.3c-0.3,0.2-0.5,0.5-0.6,0.9c-0.2,0.8-0.1,1.7,0.2,2.5c-0.5-1-3,1.7-3.2,2.2
					c-0.3,0.8,0.3,2,0.3,2.9c-0.1,2.2-0.6,3.4-2.8,1.8c-0.9-0.6-1.9-1.3-2.8-0.8c0.2,0.6-0.2,1.2-0.7,1.5c-0.5,0.3-1.2,0.3-1.8,0.1
					c-0.4-0.1-0.8-0.2-1.1-0.5c-0.1-0.2-0.2-0.4-0.4-0.5c-0.6-0.4-1.3,0.3-1.6,1"/>
				<path class="st8" d="M285,190c0.4,0.7,0,1.6-0.5,2.3s-1.1,1.4-0.9,2.2c1,0.1,1.9,0.2,2.9,0.3c0.2,0,0.4,0,0.5,0.2
					c0.1,0.1,0.1,0.3,0.1,0.5c-0.1,0.6-0.2,1.2-0.2,1.9c-0.6,0.5-1.2-1-2-0.9c-0.3,0.1-0.5,0.4-0.7,0.7c-1.6,2.5-4.3,0.6-5.8-0.7
					c-1.7-1.5-4.2-1.6-6.4-1.6c-0.8,0-1.7,0-2.3,0.6c-0.6,0.6-0.6,1.4-0.9,2.2c-0.5,1.3-1.7,2.1-2.4,3.3c-2.5,4.2,2,7.4,5.7,6.2
					c1.9-0.6,1.6-0.9,3.6-0.4c0.8,0.2,1.8,0,2.4,1c0.5,1-0.2,2.3-1.4,2.3c-1.1,0-2.2,0.2-3.2-0.4c0.4,1.3,0,2.8-0.1,4.2
					c-1.3-0.3-2.5,1.3-2,2.5c0.6,0,1.5,0.2,1.4,0.9c0,0.2-0.1,0.4-0.2,0.5c-0.4,0.6-1,1.2-1.4,1.9c-0.6,1-0.6,4.2-2.1,4.5
					c-0.3,0.1-0.5,0-0.8,0.1c-0.5,0.2-0.9,0.8-0.7,1.4c0.1,0.6,0.6,1,1.2,1.1c0.4,0.1,0.8,0.1,1.1,0.2c1.9,0.7,0.2,2.6,0.7,3.5
					c0.2,0.5,3.4,2.5,3.8,2.6c-1.1,0.8-2.1,2-2.2,3.4c0,1.6,1.1,2.3,2.6,2.8c1.6,0.5,3.5,0.7,4.6,1.1c0.6,0.2,1.4,0.5,1.9,0
					c0.6-0.5,0.5-1.7,1.2-2c0.2-0.1,0.5-0.1,0.8-0.1c1.5-0.1,2.7-1.7,2.4-3.2c0.3-0.5,1-0.4,1.6-0.4c0.6,0,1.3-0.2,1.4-0.7
					c0.1-0.7-0.7-1-1.4-1.1c-0.7,0-1.3,0-2,0.2c-0.5,0.1-1,0.3-1.5,0.1c-0.3-0.2-0.6-0.5-0.8-0.8c-0.5-0.8-0.9-1.7-0.8-2.6
					c0.1-0.9,0.8-1.8,1.7-1.8c0.2,0,0.5,0.1,0.7,0c0.6-0.1,0.9-0.9,0.9-1.5c0-0.6-0.3-1.3-0.1-1.9c0.2-0.6,1-1.1,1.4-0.6
					c0.4-0.8,0.6-2-0.2-2.4c-0.3-0.1-0.5-0.1-0.8-0.1c-1.7-0.2-4.1-2.5-2.2-3.9c1.3-0.9,3.3,1,4.4-0.7c0.5-0.8,0.2-2,0.8-2.7
					c0.3-0.2,0.7,0.2,0.8,0.6c0.2,1.2-0.2,2.6-1.2,3.4c1,0.6,2.5-0.1,3.2,0.8c0.7,0.9-0.3,2.5,0.6,3.2c0.2,0.2,0.6,0.3,0.9,0.3
					c1.6,0.2,4.5,0,4.6,2.2c0,0.3,0,0.6,0,0.8c0.2,0.8,1.3,0.9,2.1,0.8c0.4-0.8-0.1-1.7-0.5-2.6c-0.4-0.8-0.3-2.1,0.5-2.3
					c0.6-0.1,1.4,0.4,1.9,0c0.2-0.2,0.4-0.5,0.6-0.6c0.6-0.3,1.2,0.7,1.9,0.9c1,0.3,1.7-1,1.7-2c0-1-0.3-2.2,0.4-2.9
					c0.2-0.2,0.5-0.4,0.7-0.6c0.7-0.7,0.8-1.7,0.9-2.7c0.2-1.6,6.3,2.5,6.7,2.5c3,0.5,4.8-2.4,6.8-4.1c1.1-0.8,2.3-1.4,3.5-2
					c-8.4-27.1-31.2-48.5-58.9-55c-1.2-0.3-2.5-0.6-3.8-0.7c0.4,1.9,1.5,4.9,0.3,6.7c-1.6,2.3-5,0.3-6.3,3c0,0.7,1.1,0.6,1.6,1
					c0.3,0.2,0.4,0.7,0.5,1c0.1,0.4,0.5,0.7,0.8,0.6c0.4,0.6-0.2,1.4-0.8,1.9c-0.7,0.6-1.3,1.3-1.5,2.2c-0.5,1.8,0.7,3.6,1.4,5.3
					c0.6,1.4,1,2.9,1.3,4.4c0-0.7,1-1,1.7-0.7c0.6,0.3,1,1,1.5,1.5c0.9,0.8,2,0.3,2.9,1c1.2,0.9,1.9,2.5,3.4,2.7
					c1.8,0.3,3-1.6,3.8-3.2c1.9,1,3.1,3.5,5.3,3.6c0.8,0.1,1.7-0.3,2.4-0.6c1.6-0.6,3.2-1.3,4.8-1.9c0.7-0.3,1.4-0.5,2.1-0.3
					c0.8,0.3,1.2,1.1,1.5,1.9c0.3,0.8,0.7,1.7,1,2.5c0.1,0.3,0.3,0.7,0.2,1.1c-0.1,0.4-0.4,0.7-0.8,0.9c-1.8,1.2-4.1,1.6-6.2,1.3
					c0.2,2.9,0.8,5.8,1.7,8.5c-1.6-0.4-3.5,0.1-5-0.5"/>
				<path class="st8" d="M266.4,256c-0.6,0.7-1.5,1.3-2.5,1.3c-0.6,0-1.1-0.2-1.7-0.3c-0.6-0.1-1.3,0-1.6,0.5
					c-0.4,0.6,0,1.4,0.4,2.1c0.3,0.5,0.7,1.1,1.3,1.2c0.4,0.1,0.9,0,1.3,0.1c0.9,0.1,1.4,1,2,1.6c0.6,0.7,1.5,1.3,2.3,0.8
					c0.5-0.3,0.7-0.9,1.2-1.2c1.2-0.8,2.7,0.9,3.7,0.3c1.3-0.7,0.8-2.8,0.3-4c-0.5-1.2-1.6-2.1-2.6-3
					C268,252.9,268.4,253.7,266.4,256z"/>
				<path class="st8" d="M307,289.7c12.8-12.7,20.3-31.1,21.7-48.9c0-0.5,0.1-1,0.1-1.5c-2.5-2.5-7.4-4.2-8.7,0.4
					c-0.5,0-0.6-0.3-1-0.6c-0.6-0.4-1.5,0.2-1.8,0.8c-1.1,2.2-1.3,5-4.3,4.4c-3.7-0.7-1.2-2.3-2.4-4.3c-0.2-0.3-0.5-0.5-0.7-0.7
					c-0.9-0.9-0.8-2.3-0.6-3.5c0.7,0.4,1.7,0,1.9-0.8c0.1-0.3,0.1-0.6,0.3-0.8c0.4-0.5,1.3,0,1.5,0.6c0.2,0.6,0,1.3,0.2,1.9
					c0.1,0.6,0.8,1.2,1.4,0.9c0.2-0.1,0.3-0.4,0.4-0.7c0.3-1.1,0.1-2.3-0.6-3.2c0.6-0.2,1.1-0.8,1-1.4c0-0.6-0.5-1.2-1.1-1.3
					c-0.9-0.2-2.2,0.3-2.5-0.5c0.1,0.7-0.2,1.5-0.8,2c-2.4,1.7-7.7,0.2-7.1,5.2c0.1,0.8,0.4,1.6,0.3,2.4c0,0.8-0.5,1.7-1.3,1.9
					c1.4,1.2,0.9,3.8,2.4,4.8c0.7,0.5,1.8,0.4,2.4-0.3c0.1-0.1,0.2-0.2,0.3-0.3c0.3-0.1,0.5,0.2,0.8,0.2c0.5,0.1,0.9-0.4,1.4-0.4
					c0.7,0,1.1,0.8,1.2,1.5c0.1,0.7,0.3,1.6,1,1.7c0.2,0.1,0.5,0,0.7,0.1c0.5,0.1,0.8,0.6,0.8,1.1c0,0.5-0.2,1-0.3,1.4
					c-0.3,0.3-0.8,0.1-1.1-0.2c-0.3-0.3-0.5-0.7-0.8-1c-0.2-0.1-4.4,0.2-4.3-0.1c-0.6,1.5-1,4.7-3.1,3.8c-0.8-0.3-1.6-0.8-2.4-0.6
					c0.4-1,0.7-2.1,1.1-3.1c-0.3-0.3-0.8,0.1-1,0.5c-0.1,0.4-0.2,0.9-0.5,1.2c-0.2,0.2-0.6,0.2-0.9,0.2c-1,0-2,0-2.9-0.1
					c-1.1,0-2.3,0-3,0.9c-0.8,0.9-0.3,2.4,0.5,3.3c0.2,0.2,0.4,0.5,0.4,0.7c0,0.3-0.2,0.5-0.4,0.6c-1,1-1.7,2.4-1.4,3.7
					c0.2,1.4,1.5,2.6,2.9,2.5c0.5,0,1.2-0.2,1.5,0.2c0.2,0.3,0.2,0.7,0.5,0.8c0.4,0.2,0.7-0.3,0.9-0.6c0.5-0.5,1.3-0.7,1.9-0.3
					c0.3,0.2,1.3,3.2,1,3.6c-0.6,1-3.4,0.6-4.5,0.7c-0.4,0-0.9,0.1-1.2,0.4c-0.4,0.5-0.1,1.3,0.4,1.7s1.1,0.8,1.4,1.4
					c0.1,0.4,0.1,0.8,0.1,1.1c0,0.8-0.1,1.6-0.7,2.1c-0.3,0.2-0.6,0.4-0.9,0.6c-0.6,0.5-0.7,1.5-0.5,2.3c0.2,0.8,0.6,1.5,0.8,2.3
					c0.3,1.7-0.6,3.6,0.1,5.2c0.3,0.8,1.4,1.4,2,0.9c0.6-0.5,0.6-1.6,1.3-1.7c0.7-0.1,1.6,1.7,2.1,2c0.5,0.3,1.4-0.2,2.2,0.4
					C306.1,288.1,306.2,289.2,307,289.7z"/>
				<path class="st8" d="M198.4,181.4c0.7-0.9,1.2-2,2.5-2.2c1.8-0.3,2.5,0.7,1.7,2.5c-0.1,0.2-0.1,0.3-0.1,0.5
					c0.1,0.5,0.9,0.2,1.4-0.1c1.1-0.7,2.4-0.7,3.5-0.2c0.3,0.1,0.8-4.9,0.5-5.5c-0.9-2-5.2-1.1-4.3-3.3c1.6,0,3.2,0.2,4.8,0.3
					c0.1-0.8,0.2-1.5,0.3-2.3c-0.1,0.6,2.9,0.5,3.2,0.3c1.3-0.7,1-3,3.3-2.7c3,0.5,3.1,6.3-0.2,5.4c-0.8,1.7-1.1,3.8-1.2,5.7
					c-0.6,0-1.2,0-1.8,0c-0.3,0.4-0.4,1-0.2,1.5c1.5,1,3.6,1.1,5.1,0c1,0.7,2.3,0,3.3-0.7c1.4,2.2,5.4,1.9,6.4-0.5
					c1-2.4-1.5-5.5-4.1-4.9c0-1.2-0.5-2.4-1.3-3.4c3.2,0.1,6.3-2.1,7.3-5.1c0.5-1.5,0.6-3.4,1.9-4.3c0.6-0.4,1.3-0.6,1.9-1
					c1.3-0.9,1.7-2.6,1.9-4.2c0.1-1.1,0.2-2.1,0.3-3.2c-19,3.1-35.9,12.8-48.2,26.8c-0.1,0.6-0.1,1.1,0.1,1.7
					c0.4,0.9,1.5,1.3,2.5,1.6c3.9,1,6.4,0.8,9.1-2.2C198.3,181.6,198.4,181.5,198.4,181.4z"/>
			</g>
		</g>
	</g>
</g>
<g id="People">
	<g>
		<g>
			<path class="st3" d="M50.2,149.3c0,4.4,2.4,8.3,6,10.3c1.7,1,3.8,1.6,5.9,1.6c2.8,0,5.3-0.9,7.3-2.5c2.8-2.2,4.6-5.6,4.6-9.4
				c0-6.6-5.3-11.9-11.9-11.9C55.6,137.4,50.2,142.7,50.2,149.3z"/>
			
				<ellipse transform="matrix(0.9871 -0.1602 0.1602 0.9871 -23.111 11.882)" class="st9" cx="62.1" cy="149.3" rx="11.2" ry="11.2"/>
			<path class="st3" d="M55.5,149.1c0.1,1.4,1.4,1.7,1.4,1.7s-0.3,0.8,0,1.7c0.3,0.9,2.2,0.9,2.2,0.9s0.2,0.5,0.8,0.6
				c0,0.1,0.1,0.1,0.1,0.1c0.1,0.1,0.2,0.2,0.3,0.4c0.2,1.8,0.2,3.7-0.7,4.7c0,0,0,0,0,0c-0.8,0.1-1.5,0.2-2.3,0.3
				c-0.4,0.1-0.7,0.1-1.1,0.2c1.7,1,3.8,1.6,5.9,1.6c2.8,0,5.3-0.9,7.3-2.5c-0.3,0-0.7,0-1.1,0c-0.6,0-1.3,0-2.1,0c0,0,0,0,0,0
				c-1.3-0.2-1.9-0.8-2.2-1.6c-0.1-0.4-0.2-0.8-0.1-1.2c0.3-0.1,0.7-0.2,1-0.3c0.9-0.4,1.6-1.2,2-2.2c0.1-0.1,0.1-0.3,0.1-0.4
				c0.3-1,0.4-2.3,0.3-3.5c0.3-0.2,0.7-0.5,0.8-1.1c0.2-1.2-0.8-1.5-0.8-1.5s1.2-0.2,1.2-1.7c0-1.5-1.2-1.5-1.2-1.5s0.4-0.6-0.4-1.8
				c-0.8-1.2-2-0.4-2-0.4s-0.9-1.4-2.3-1.1c-1.5,0.3-1.8,1.2-1.8,1.2s0-0.9-1.6-0.4c-1.6,0.5-1.4,2.4-1.4,2.4s-1.1-0.6-1.7,0.6
				c-0.6,1.2,0.7,3.3,0.7,3.3S55.3,147.7,55.5,149.1z"/>
			<path class="st10" d="M50.2,149.3c0,4.4,2.4,8.3,6,10.3c1.7,1,3.8,1.6,5.9,1.6c2.8,0,5.3-0.9,7.3-2.5c2.8-2.2,4.6-5.6,4.6-9.4
				c0-6.6-5.3-11.9-11.9-11.9C55.6,137.4,50.2,142.7,50.2,149.3z"/>
		</g>
		<g>
			<circle class="st3" cx="56.1" cy="358.5" r="10.6"/>
			<path class="st9" d="M66.1,358.5c0,2.3-0.8,4.4-2.1,6.1c-1.8,2.3-4.7,3.9-7.9,3.9c-2.1,0-4-0.6-5.6-1.7c-2.6-1.8-4.4-4.8-4.4-8.2
				c0-5.5,4.5-10,10-10S66.1,353,66.1,358.5z"/>
			<path class="st3" d="M64,364.6c-1.8,2.3-4.7,3.9-7.9,3.9c-2.1,0-4-0.6-5.6-1.7c0.3-0.8,0.5-1.2,0.5-1.2c1.2-0.4,2.5-0.7,3.8-0.9
				c0.3-0.3,0.8-0.5,1.3-0.6c0.3-0.8,0.1-1.7-0.1-2.3c-0.4-0.3-0.7-0.6-1-1c-0.2-0.1-0.4-0.3-0.5-0.5c-0.3-0.1-2.4-1.1-2.5-4.6
				c0-0.1,0-0.3,0-0.4c-0.7-0.1-1.3,0.1-0.9,1.5c0.8,2.3,0,3.5,0,3.5c0-0.7-0.1-1.5-0.1-1.5c0,2.4-1.3,2.5-1.3,2.5s0.8-0.9-0.4-3.5
				c-1.2-2.7-0.9-6.3,1.4-6.4c1.2-0.1,2.1,0.5,2.6,1.1c1.3-1.2,3.3-1.4,4.5-0.5c0,0,2.1-0.5,2.7,0c0.1,0.1,0,0.4-0.2,0.8
				c0.5,0.4,1,0.9,1.2,1.7c0.3,1.4-0.1,2.5-0.6,3.2c0.3,2.6-0.2,4.6-2.3,4.8c0,0.1,0,0.1,0,0.2c0,0.1,0,0.2,0,0.3
				c0,0.5,0.1,0.9,0.1,1.1c0.3,0.1,0.6,0.1,0.9,0.2c1.9,0,4,0.2,4,0.2s0,0,0,0C63.7,364.3,63.8,364.5,64,364.6z"/>
			<circle class="st10" cx="56.1" cy="358.5" r="10.6"/>
		</g>
		<g>
			
				<ellipse transform="matrix(0.7071 -0.7071 0.7071 0.7071 -64.9828 394.6468)" class="st3" cx="443.9" cy="275.8" rx="11.7" ry="11.7"/>
			<path class="st9" d="M454.9,275.8c0,2.3-0.7,4.4-1.8,6.1c-2,3-5.3,4.9-9.2,4.9c-2.5,0-4.9-0.9-6.7-2.3c-2.6-2-4.3-5.2-4.3-8.7
				c0-6.1,4.9-11,11-11C450,264.7,454.9,269.7,454.9,275.8z"/>
			<path class="st3" d="M453.1,281.9c-2,3-5.3,4.9-9.2,4.9c-2.5,0-4.9-0.9-6.7-2.3c-0.1-0.7,0-1.3,0.1-1.8c0.1-1.3,1.7-2.4,1.7-3.4
				c0-0.9-1.6-2.2-0.6-2.7s1.2-2.6,0.4-3.8c-0.7-0.8-1.2-2,0.1-3.6c0.8-1,1.9-1.4,3-1.6c0.8-0.4,1.8-0.6,3.3-0.5
				c1.4,0.1,2.4,0.5,3.2,1.1c0.8,0.6,1.4,1.3,1.7,2.1c0,0,1.2,2.3,0.3,4.8c-0.6,1.6,1.9,1.5,2,2.9c0.1,1.4-1.1,1.5-0.9,2.5
				C451.4,280.9,452.3,281.3,453.1,281.9z"/>
			
				<ellipse transform="matrix(0.7071 -0.7071 0.7071 0.7071 -64.9828 394.6468)" class="st10" cx="443.9" cy="275.8" rx="11.7" ry="11.7"/>
		</g>
	</g>
	<g>
		
			<rect x="300.3" y="178.5" transform="matrix(0.9175 -0.3978 0.3978 0.9175 -42.3998 153.543)" class="st3" width="97.2" height="1"/>
		
			<rect x="199.6" y="102.8" transform="matrix(0.8503 -0.5263 0.5263 0.8503 -43.239 126.1465)" class="st3" width="1" height="72.5"/>
		
			<rect x="93.5" y="282.4" transform="matrix(0.9788 -0.2051 0.2051 0.9788 -54.9472 35.5404)" class="st3" width="101.1" height="1"/>
		
			<rect x="300.3" y="178.5" transform="matrix(0.9175 -0.3978 0.3978 0.9175 -42.3998 153.543)" class="st11" width="97.2" height="1"/>
		
			<rect x="343.7" y="248.3" transform="matrix(0.8474 -0.5309 0.5309 0.8474 -107.7682 228.8059)" class="st3" width="1" height="107.2"/>
		
			<rect x="343.7" y="248.3" transform="matrix(0.8474 -0.5309 0.5309 0.8474 -107.7682 228.8059)" class="st11" width="1" height="107.2"/>
		
			<rect x="199.6" y="102.8" transform="matrix(0.8503 -0.5263 0.5263 0.8503 -43.239 126.1465)" class="st11" width="1" height="72.5"/>
		
			<rect x="93.5" y="282.4" transform="matrix(0.9788 -0.2051 0.2051 0.9788 -54.9472 35.5404)" class="st11" width="101.1" height="1"/>
		<path class="st3" d="M190.9,384.5L94,293.4l13.7-103.6l0.1-0.1l73-81.9l0.2,0l132.3-18.3l80.8,69.9l0,0.3l-20.9,188.1l-0.4,0.1
			L190.9,384.5z M95.1,293l96.1,90.4l181-36.5L393,159.8l-80-69.3l-131.6,18.2l-72.6,81.5L95.1,293z"/>
		<path class="st11" d="M190.9,384.5L94,293.4l13.7-103.6l0.1-0.1l73-81.9l0.2,0l132.3-18.3l80.8,69.9l0,0.3l-20.9,188.1l-0.4,0.1
			L190.9,384.5z M95.1,293l96.1,90.4l181-36.5L393,159.8l-80-69.3l-131.6,18.2l-72.6,81.5L95.1,293z"/>
		<g>
			<polygon class="st3" points="220.7,169.9 219.2,178.6 217.7,169.9 			"/>
			<path class="st3" d="M223.5,169.9c0,2.4-1.9,4.3-4.3,4.3c-2.4,0-4.3-1.9-4.3-4.3c0-2.4,1.9-4.3,4.3-4.3
				C221.6,165.5,223.5,167.5,223.5,169.9z"/>
			<path class="st9" d="M219.6,166.8c0.5,0.6,0.1,1.7-0.9,2.5c-1,0.7-2.1,0.8-2.6,0.2c-0.5-0.6-0.1-1.7,0.9-2.5
				C218,166.3,219.1,166.2,219.6,166.8z"/>
		</g>
		<g>
			<polygon class="st3" points="305.8,198.3 304.3,207.1 302.8,198.3 			"/>
			<circle class="st3" cx="304.3" cy="198.3" r="4.3"/>
			<path class="st9" d="M304.7,195.2c0.5,0.6,0.1,1.7-0.9,2.5c-1,0.7-2.1,0.8-2.6,0.2c-0.5-0.6-0.1-1.7,0.9-2.5
				C303.1,194.7,304.2,194.6,304.7,195.2z"/>
		</g>
		<g>
			<polygon class="st3" points="195,272 193.5,280.8 192,272 			"/>
			<circle class="st3" cx="193.5" cy="272" r="4.3"/>
			<path class="st9" d="M193.9,269c0.5,0.6,0.1,1.7-0.9,2.5c-1,0.7-2.1,0.8-2.6,0.2s-0.1-1.7,0.9-2.5
				C192.3,268.4,193.4,268.3,193.9,269z"/>
		</g>
		<g>
			<polygon class="st3" points="317.2,256.5 315.7,265.2 314.2,256.5 			"/>
			<path class="st3" d="M320.1,256.5c0,2.4-1.9,4.3-4.3,4.3c-2.4,0-4.3-1.9-4.3-4.3c0-2.4,1.9-4.3,4.3-4.3
				C318.1,252.1,320.1,254.1,320.1,256.5z"/>
			<path class="st9" d="M316.2,253.4c0.5,0.6,0.1,1.7-0.9,2.5c-1,0.7-2.1,0.8-2.6,0.2c-0.5-0.6-0.1-1.7,0.9-2.5
				C314.5,252.8,315.7,252.8,316.2,253.4z"/>
		</g>
	</g>
	<g>
		<path class="st3" d="M427.1,161.7c0,7.5-2.5,14.4-6.6,20c-1.5,2-3.2,3.8-5.1,5.4c-1.7,1.5-3.5,2.7-5.5,3.8
			c-4.8,2.6-10.3,4.1-16.1,4.1c-4.9,0-9.6-1.1-13.8-3c-0.4-0.2-0.8-0.4-1.2-0.6l0,0c-2.4-1.2-4.6-2.6-6.5-4.3
			c-3-2.5-5.5-5.5-7.5-8.9c-2.8-4.9-4.4-10.5-4.4-16.5c0-18.4,14.9-33.3,33.3-33.3C412.2,128.4,427.1,143.3,427.1,161.7z"/>
		
			<ellipse transform="matrix(0.7071 -0.7071 0.7071 0.7071 0.9741 325.7829)" class="st10" cx="393.7" cy="161.7" rx="32.4" ry="32.4"/>
		<g>
			<path class="st12" d="M372.3,176.8l3.1-13c0,0,2-1.6,2.1-2.7c0.1-1.1-1.2-7.9-2.1-8.4c-0.9-0.4-5.9,1.4-6.2,2.8
				c-0.2,1.5,1.8,7.2,2.2,7.6l-5.1,15.1L372.3,176.8z"/>
			<path class="st3" d="M374.8,169.4l-1.9,17c-2.9-2.4-5.4-5.4-7.2-8.7c1.2-4.1,2.3-7.8,2.9-9.4c0.2-0.6,0.3-0.9,0.3-0.9l1.1,0.1
				l4.5,0.6l0.5,0.1L374.8,169.4z"/>
			<path class="st3" d="M383.3,180.4l-2.9,10.8c-0.4-0.2-0.8-0.3-1.1-0.5l0,0c-2.3-1.1-4.4-2.5-6.3-4.2c0.2-0.5,6.2-13.9,8.4-13.8
				L383.3,180.4z"/>
			<path class="st13" d="M374.8,169.4l-1.9,17c-2.9-2.4-5.4-5.4-7.2-8.7c1.2-4.1,2.3-7.8,2.9-9.4c0.2-0.6,0.3-0.9,0.3-0.9l1.1,0.1
				l4.5,0.6l0.5,0.1L374.8,169.4z"/>
			<path class="st13" d="M383.3,180.4l-2.9,10.8c-0.4-0.2-0.8-0.3-1.1-0.5l0,0c-2.3-1.1-4.4-2.5-6.3-4.2c0.2-0.5,6.2-13.9,8.4-13.8
				L383.3,180.4z"/>
			<polygon class="st3" points="376.2,167.2 375.1,169.5 368,168.3 368.2,167 			"/>
			<path class="st14" d="M413.4,150.6c-0.8,3.2,3.7,11.9,1.9,27.8c-1.8,15.9-19.3,14.9-27.1,9.6c-7.8-5.3-6.5-34.1-3.8-39.8
				C387.1,142.6,413.4,150.6,413.4,150.6z"/>
			<g>
				<path class="st3" d="M418.1,176.3c-0.2,0.5-0.3,0.9-0.5,1.4c-0.2,0.5-0.3,0.9-0.5,1.3c-0.3,0.9-0.6,1.7-0.9,2.6
					c-0.6,1.7-1.1,3.2-1.5,4.7c-1.6,1.4-3.4,2.7-5.3,3.7c-4.6,2.6-10,4-15.6,4c-4.8,0-9.3-1-13.4-2.9c-0.4-0.2-0.8-0.3-1.1-0.5
					c0-0.3,0-0.6,0-1c0-0.3,0-0.6,0-0.9c0-0.9,0-1.8,0.1-2.6c0-0.5,0-1.1,0.1-1.5c0-0.3,0-0.5,0-0.7c0-0.9,0.1-1.7,0.1-2.5
					c0-0.2,0-0.5,0-0.7c0-0.7,0.1-1.3,0.2-1.9c0.4-3.7,0.9-5.2,1.2-5.7c0.1-0.1,0.1-0.2,0.2-0.3c0.1-0.1,0.1-0.1,0.1-0.1
					s0.5,0,1.3-0.1c2.2-0.2,6.6-0.5,10.7-0.5c0.1,0,0.2,0,0.2,0c0.5,0,1.1,0,1.6,0.1c2.1,0.1,4.2,0.3,6.2,0.5
					c0.8,0.1,1.5,0.2,2.3,0.3c0.8,0.1,1.7,0.3,2.5,0.4c0.1,0,0.2,0,0.3,0.1c3.1,0.5,6.1,1.2,9.1,2.1
					C416.4,175.8,417.2,176.1,418.1,176.3L418.1,176.3z"/>
				<path class="st13" d="M418,176.3C418,176.3,418,176.3,418,176.3c-0.2,0.5-0.3,0.9-0.5,1.4c-0.2,0.5-0.3,0.9-0.5,1.3
					c-0.3,0.9-0.6,1.7-0.9,2.6c-0.6,1.7-1.1,3.2-1.5,4.7c-1.6,1.4-3.4,2.7-5.3,3.7c-4.6,2.6-10,4-15.6,4c-4.8,0-9.3-1-13.4-2.9
					c-0.4-0.2-0.8-0.3-1.1-0.5l0,0c0-0.3,0-0.6,0-0.9c0-0.3,0-0.6,0-0.9c0-0.9,0-1.8,0.1-2.6c0-0.5,0-1.1,0.1-1.5c0-0.3,0-0.5,0-0.7
					c0-0.9,0.1-1.7,0.1-2.5c0-0.2,0-0.5,0-0.7c0-0.7,0.1-1.3,0.2-1.9c0.4-3.7,0.9-5.2,1.2-5.7c0.1-0.1,0.1-0.2,0.2-0.3
					c0.1-0.1,0.1-0.1,0.1-0.1s0.5,0,1.3-0.1c2.2-0.2,6.6-0.5,10.7-0.5c0.1,0,0.2,0,0.2,0c0.5,0,1.1,0,1.6,0.1
					c2.1,0.1,4.2,0.3,6.2,0.5c0.8,0.1,1.5,0.2,2.3,0.3c0.8,0.1,1.7,0.3,2.5,0.4c0.1,0,0.2,0,0.3,0.1c3.1,0.5,6.1,1.2,9.1,2.1
					C416.4,175.8,417.2,176.1,418,176.3z"/>
			</g>
			<path class="st5" d="M399.3,171.2c7.1,0.6,8,2.7,7.3,3.8c-0.8,1.1-10.4,10.6-13.3,16.9C393.2,192,382.7,169.9,399.3,171.2z"/>
			<path class="st12" d="M395.6,178.4c7.1-0.9,9.2-3.9,9.2-3.9c-4.5-4.2-0.8-11.6-0.8-11.6l-8.5,1.6c0.2,1.4,0.3,2.6,0.3,3.6
				c0.1,5.2-2.3,5.2-2.3,5.2C392.1,176.1,395.6,178.4,395.6,178.4z"/>
			<path class="st15" d="M395.6,164.5c0.2,1.4,0.3,2.6,0.3,3.6c5.7,0,8.2-5.2,8.2-5.2L395.6,164.5z"/>
			<g>
				<g>
					<path class="st12" d="M400.3,140.7c-7.4-0.4-10,3.4-11,11c-1.2,9.5,0.5,16.4,9.9,14.8C411.9,164.5,412.5,141.4,400.3,140.7z"/>
					<path class="st16" d="M394.1,151.6c0,0-1.1,1.9-2.3,2.9c0,0,0.6,1,1.9,0.9L394.1,151.6z"/>
					<g>
						<path class="st14" d="M398.7,151.2c0,0.6,0.2,1.1,0.6,1.2c0.4,0,0.8-0.4,0.8-1c0-0.6-0.2-1.1-0.6-1.2
							C399.1,150.2,398.7,150.6,398.7,151.2z"/>
						<path class="st14" d="M399.7,150.2l-1.3-0.6C398.4,149.6,399,150.8,399.7,150.2z"/>
					</g>
					<g>
						<path class="st14" d="M391.1,150.5c0,0.6,0.2,1.1,0.6,1.2c0.4,0,0.8-0.4,0.8-1c0-0.6-0.2-1.1-0.6-1.2
							C391.6,149.5,391.2,149.9,391.1,150.5z"/>
						<path class="st14" d="M392.1,149.5l-1.3-0.6C390.8,148.9,391.4,150.1,392.1,149.5z"/>
					</g>
					<path class="st14" d="M402.2,147.8c-0.1,0-0.2,0-0.3-0.1c-0.9-1.3-2.8-1.2-2.8-1.2c-0.2,0-0.4-0.1-0.4-0.3
						c0-0.2,0.1-0.4,0.3-0.4c0.1,0,2.3-0.2,3.4,1.4c0.1,0.2,0.1,0.4-0.1,0.5C402.3,147.8,402.2,147.8,402.2,147.8z"/>
					<path class="st14" d="M390.7,146.3c-0.1,0-0.2-0.1-0.3-0.2c-0.1-0.2,0-0.4,0.1-0.5c1.8-1.1,3.2-0.5,3.3-0.5
						c0.2,0.1,0.3,0.3,0.2,0.5c-0.1,0.2-0.3,0.3-0.4,0.2c0,0-1.2-0.5-2.7,0.4C390.8,146.3,390.7,146.3,390.7,146.3z"/>
					<g>
						<path class="st14" d="M394.6,158.5c0.4,0.9,0.7,2.6,0.7,2.6c0.2,0,0.3,0,0.5,0c2.2-0.1,3.1-0.9,3.6-1.7
							c0.2-0.4,0.3-0.9,0.3-1.3c0-0.4-0.1-0.8-0.1-0.8c-1.1,0.7-3.1,1-4.2,1.1C394.9,158.5,394.6,158.5,394.6,158.5z"/>
						<path class="st5" d="M395.4,158.4l0.2,0.8c2-0.1,3.5-0.4,4.1-1.1c0-0.4-0.1-0.8-0.1-0.8C398.4,158.1,396.4,158.3,395.4,158.4z
							"/>
						<path class="st16" d="M395.8,161.1c2.2-0.1,3.1-0.9,3.6-1.7c-0.7,0.1-1.6,0.2-2.4,0.6C396.4,160.2,396,160.7,395.8,161.1z"/>
					</g>
					<path class="st14" d="M407.7,153.6c0,0-3.1-6.3-2.3-10.9c0,0-14.3-6.8-15.9,8c0,0-0.7-13.3,12-12.9c12.7,0.4,11.7,19,4.8,24.2
						C406.3,162.1,409.6,157.6,407.7,153.6z"/>
					<path class="st12" d="M406.4,155.1c0.1-1.2,1.5-3.1,3.7-2.8c2.3,0.4,3.1,5.1-2.7,6C406.5,158.4,406.1,157.6,406.4,155.1z"/>
				</g>
				<path class="st14" d="M403.3,142c0,0-1.2,9.1,4.3,17.4c4.2,6.3-0.6,11.8-0.6,11.8s7.4-4.7,7.6-11.8c0,0,6.1-16.9-6.6-21.5
					c0,0-0.1-3.8-8.3-3.1c-8.3,0.7-14.9,7.8-16.2,16.8c-1.3,9,3.4,19.1,3.4,19.1S382.1,138.7,403.3,142z"/>
				<path class="st14" d="M403.8,142.1c-0.6,2.1-0.7,4.3-0.6,6.6c0.1,2.2,0.5,4.4,1.1,6.6c0.6,2.2,1.4,4.3,2.5,6.2
					c1.1,2,2.4,3.8,4.2,5.3c-1.8-1.4-3.2-3.2-4.4-5.1c-1.2-2-2.1-4.1-2.7-6.2c-0.7-2.2-1.1-4.4-1.3-6.7c-0.2-2.3-0.2-4.6,0.4-6.9
					L403.8,142.1z"/>
			</g>
			<g>
				<path class="st3" d="M419.7,181.1c-1.4,1.9-3.1,3.7-4.9,5.2c-1.6,1.4-3.4,2.7-5.3,3.7c0.1-0.4,0.3-0.9,0.4-1.3
					c1.3-3.6,3.5-6.9,5.3-9.1c1.5-1.9,2.7-3.1,2.9-3.3c0,0,0,0,0,0C418.8,177,419.3,178.7,419.7,181.1z"/>
				<path class="st13" d="M419.7,181.1c-1.4,1.9-3.1,3.7-4.9,5.2c-1.6,1.4-3.4,2.7-5.3,3.7c0.1-0.4,0.3-0.9,0.4-1.3
					c1.3-3.6,3.5-6.9,5.3-9.1c1.5-1.9,2.7-3.1,2.9-3.3c0,0,0,0,0,0C418.8,177,419.3,178.7,419.7,181.1z"/>
			</g>
		</g>
	</g>
	<g>
		<circle class="st3" cx="312.1" cy="92" r="18.2"/>
		<path class="st9" d="M329.3,92c0,4.5-1.7,8.6-4.6,11.7c-3.1,3.4-7.6,5.5-12.6,5.5c-5.3,0-10.1-2.4-13.2-6.2
			c-2.5-3-3.9-6.8-3.9-10.9c0-9.5,7.7-17.2,17.2-17.2C321.6,74.9,329.3,82.5,329.3,92z"/>
		<path class="st3" d="M324.7,103.7c-3.1,3.4-7.6,5.5-12.6,5.5c-5.3,0-10.1-2.4-13.2-6.2c0.1,0,0.2-0.1,0.3-0.1
			c0.2-0.3,0.5-0.6,0.8-0.9c0,0,0-0.1,0-0.1l0.3-0.1c0.5-0.3,1.1-0.5,1.9-0.5c0.2,0,0.4,0,0.6,0l1.1-0.2c0,0,0,0.1,0,0.3
			c1.4,0.1,3.4,0.2,5.8,0.4c0.5-0.4,0.9-0.9,1.1-1.5c0.2-0.6,0.2-1.3,0.2-2c-0.8,0-1.7-0.3-2.4-0.6c-1.3-0.7-2.4-1.9-3-3.4
			c-0.1-0.2-0.1-0.4-0.2-0.6c-0.4-1.8-0.6-4.3-0.1-6.5c0,0,0,0,0,0c-0.1,0-0.1,0-0.2,0c-0.1,0-0.2-0.1-0.2-0.2c0,0,0,0,0,0
			c0-0.1,0.1-0.2,0.2-0.2c0,0,0,0,0.1,0c-0.1-1.4,0.1-2.9,0.3-3.9c-0.6-1-0.6-3.1,0-3.9c0.6-0.9,0.1-0.4,1.8-0.6
			c1.7-0.1,0.7-1.6,1.7-1.7c1.1,0,0.9,0.7,2.2,1.2c1.3,0.5,0.8-1,2.3-1.1c1.5-0.1,1.7,1,2.8,1.3c1.1,0.3,1.3,0,2.1,0
			s0.9,2.3,1.2,2.7c0.3,0.4,0.9-0.2,1.6,1c0.1,0.2,0.1,0.3,0.1,0.6c0,1.5-1.9,4.4-1.9,4.4c-0.1,0.7-0.2,1.4-0.4,2.1
			c0.6,0.5,0.7,1.4,0.3,2.3c-0.4,0.7-1,1.4-1.7,1.8c-0.4,0.8-0.7,1.4-1.1,1.9c-0.5,2.6-0.7,5.7,0.2,7.7
			C319.7,102.7,322.6,103.1,324.7,103.7z"/>
		<circle class="st17" cx="312.1" cy="92" r="18.2"/>
	</g>
	<g>
		
			<ellipse transform="matrix(0.7071 -0.7071 0.7071 0.7071 -214.4202 247.0709)" class="st3" cx="191" cy="382.4" rx="18.2" ry="18.2"/>
		<path class="st18" d="M208.2,382.4c0,4.9-2.1,9.3-5.4,12.5c-3.1,2.9-7.2,4.7-11.8,4.7c-3.6,0-6.9-1.1-9.7-3
			c-4.5-3.1-7.4-8.3-7.4-14.1c0-9.5,7.7-17.2,17.2-17.2C200.5,365.2,208.2,372.9,208.2,382.4z"/>
		<path class="st3" d="M202.8,394.8c-3.1,2.9-7.2,4.7-11.8,4.7c-3.6,0-6.9-1.1-9.7-3c1.2-0.2,2.6-0.3,3.9-0.5c1-2.2,0.8-5.8,0.2-8.8
			c-0.4-0.6-0.8-1.3-1.2-2.2c-0.8-0.5-1.5-1.2-1.9-2c-0.4-1-0.3-2,0.4-2.6c-0.4-1.5-0.5-2.9-0.6-4.1l-0.1,0c0,0-1.4-5.3,3.8-7.3
			c5.2-2,10.4,1.5,10.4,1.5s1.1-2.1,2.5-1.5c1.1,0.5,0.5,1.9,0.3,2.4c0.1-0.2,0.5-0.7,1.2-1c0.9-0.4,2.2,0.7-0.7,3.6
			c-0.3,0.3-0.6,0.5-1,0.7c0.2,1.1,0.3,2.5,0.1,3.9c0.5,2.6,0.4,5.3-0.1,7.5c-0.1,0.2-0.1,0.5-0.2,0.7c-0.6,1.8-1.9,3.1-3.4,3.9
			c-0.9,0.4-1.8,0.7-2.8,0.7c0,0.8,0,1.6,0.2,2.3c0.2,0.7,0.6,1.3,1.2,1.7c2.7-0.2,5.1-0.3,6.7-0.5c0-0.2,0-0.3,0-0.3l1.2,0.2
			C201.9,394.7,202.4,394.7,202.8,394.8z"/>
		
			<ellipse transform="matrix(0.7071 -0.7071 0.7071 0.7071 -214.4202 247.0709)" class="st17" cx="191" cy="382.4" rx="18.2" ry="18.2"/>
	</g>
	<g>
		
			<ellipse transform="matrix(0.2298 -0.9732 0.9732 0.2298 -101.6451 251.6726)" class="st3" cx="108.2" cy="190.1" rx="18.2" ry="18.2"/>
		<path class="st18" d="M125.3,190.1c0,4.4-1.7,8.4-4.4,11.4c-3.1,3.5-7.7,5.7-12.8,5.7c-3.8,0-7.3-1.2-10.1-3.3
			c-4.3-3.1-7.1-8.2-7.1-13.9c0-9.5,7.7-17.2,17.2-17.2S125.3,180.6,125.3,190.1z"/>
		<path class="st3" d="M121,201.5c-3.1,3.5-7.7,5.7-12.8,5.7c-3.8,0-7.3-1.2-10.1-3.3l6.8-2.1c0.1,0.1,0.2,0.3,0.4,0.5
			c0.3-0.1,0.6-0.1,0.9-0.2c0.5-0.1,1.1-0.2,1.6-0.3c0.4-0.7,0.6-1.4,0.7-2.1c-0.6,0-0.9,0-0.9,0c0.2-0.7-0.8-2.1-0.8-2.1l-0.3,1.9
			c0,0-0.7-0.1-1.1-0.4c-0.5-0.3-1-2.3-1-2.3s-1.2,2-1.4,2.4c-0.3,0.5-0.9,0-0.9,0s-0.5-1.7,0.1-3.5c0.6-1.8-1.2-1.7-1.2-1.7
			s0,0.7-0.5,1.9c-0.5,1.2-0.5,1.8-0.5,2.5c0,0.7,0.1,1.2-0.5,1.2c-0.5,0-0.6-0.5-0.5-1.2c0.1-0.8-0.7-1.5-0.3-2.1
			c0.5-0.6,0.1-2.3,0.1-2.3c-0.3,1.2-1.6,1.1-1.8,2c-0.2,0.9,0.6,2.1,0.2,2.5c-0.4,0.4-1.1,0-1.1,0s0.6-0.9,0.2-1.5
			c-0.4-0.5-1-0.8-0.7-1.9c0.3-1.1,0.8-1.1,0.6-2.3c-0.2-1.2-0.7-1.2,0-1.6c0.7-0.5,1.7-2.6,1.7-3.6c0-0.9-0.4-3.1,1.2-3.9
			c1.6-0.8,2-1.4,1.7-3.4c-0.3-2,1.3-1.9,3.2-1.5c0,0,1-1.5,1.9-1.3c0.9,0.3,1.6,0.1,1.8-0.4c0.2-0.5,2.7-0.5,3.1,0
			c0.4,0.5,1.7,0.8,2.6,0.5c0.8-0.3,3,1,2.9,1.9c-0.1,0.9-0.1,1.4,1.1,2c1.2,0.5,1.4,0.8,1.9,2.8c0.5,2-0.3,2.9,0.7,3.7
			c1,0.8,0.9,3.9,1,4.9c0.1,1,0,2.1,0,2.1s0,0-0.3,0.1c-0.3,0.1-0.5-1.1-0.5-1.9c0.1-0.8-1.7-2-1.9-2.1c0,0.1,0.4,0.8,0.6,1.3
			c0.2,0.6,0.3,2.1,0.2,3.1c-0.1,1,1.1,1.5,1.1,1.5l-1.3,0.6c0,0-1-2.1-0.6-3.2c0.3-1.1-0.6-2-0.6-2v2c0,0-0.3,0.7-0.9,1.7
			c-0.5,1,0.4,1.3,0.5,1.8c0.1,0.5-1.1,0.5-1.1,0.5l-0.2-1.2l-0.4,1.2c-0.5,0.3-1.4,0.6-2.5,0.8c0.1,0.9,0.3,1.6,0.5,2
			c0.4,0,0.8,0,1.2-0.1c0.8,0,1.6,0,2.5,0h0C118.6,201.3,120,201.4,121,201.5z"/>
		
			<ellipse transform="matrix(0.2298 -0.9732 0.9732 0.2298 -101.6451 251.6726)" class="st17" cx="108.2" cy="190.1" rx="18.2" ry="18.2"/>
	</g>
	<g>
		<circle class="st3" cx="179.8" cy="106.8" r="30.5"/>
		<path class="st10" d="M209.3,106.8c0,6.8-2.3,13-6.1,18c-1,1.4-2.2,2.7-3.5,3.8c-1.2,1.1-2.4,2.1-3.8,2.9
			c-0.1,0.1-0.1,0.1-0.2,0.1c-1.1,0.7-2.1,1.3-3.3,1.8c-3.8,1.8-8.1,2.8-12.6,2.8c-9,0-17.1-4-22.5-10.4l0,0
			c-4.4-5.2-7.1-11.8-7.1-19.1c0-16.3,13.3-29.5,29.5-29.5C196.1,77.3,209.3,90.5,209.3,106.8z"/>
		<g id="_x3C_Group_x3E__4_">
			<path class="st19" d="M186.7,106.8c0.7-1.4,1.1-0.8,3,0.6c1.9,1.5,2.2,2.8,2.2,4.3c0,1.5-0.3,4.6-0.3,4.6l4.9,5.5l-2.2,3.3
				l-5.7-6.4c0,0-2.8-2.1-3.3-4.5C184.8,111.9,186.7,106.8,186.7,106.8z"/>
			<g>
				<path class="st14" d="M186,105.1l4,7.2c0.2,0.3,0.1,0.7-0.1,1l-3.1,3.6c-0.4,0.5-1.1,0.4-1.4-0.1l-3.6-5.9L186,105.1z"/>
				<polygon class="st20" points="185.8,105.9 189.3,112.5 186,116.5 182.4,110.6 				"/>
			</g>
			<path class="st3" d="M195.9,131.5c0,0.2,0,0.3,0.1,0.4c-0.1-0.1-0.2-0.2-0.2-0.3c-1.1,0.7-2.1,1.3-3.3,1.8c0.3-2,0.6-3.9,0.8-5.4
				c0.2-1.4,0.4-2.6,0.6-3.4c0.1-0.8,0.3-1.3,0.3-1.4v0c0.4,0.1,0.7,0.2,1,0.3c1.5,0.8,3,2.5,4.5,4.9
				C198.5,129.7,197.2,130.6,195.9,131.5z"/>
			<g>
				<path class="st3" d="M196,131.9c-0.1-0.1-0.2-0.2-0.2-0.3c-1.1,0.7-2.1,1.3-3.3,1.8c-3.8,1.8-8.1,2.8-12.6,2.8
					c-9,0-17.1-4-22.5-10.4c0.5-0.1,1-0.2,1.6-0.3c0,0,0.1,0,0.2,0c0.1,0,0.2,0,0.3-0.1c1.3-0.3,2.7-0.5,4.1-0.7c0,0,0,0,0,0
					c0.6-0.1,1.2-0.2,1.8-0.3c0.8-0.1,1.6-0.2,2.4-0.3c0.1,0,0.1,0,0.2,0c1.8-0.2,3.7-0.4,5.4-0.5c0.6,0,1.2-0.1,1.7-0.1h0
					c0.8,0,1.5-0.1,2.2-0.1c0.7,0,1.5-0.1,2.2-0.1c0.3,0,0.6,0,0.9,0c0.9,0,1.7-0.1,2.5-0.1c2.6-0.1,4.9-0.1,6.8,0
					c0.4,0,0.8,0,1.2,0c0.7,0,1.3,0,1.8,0.1c1,0,1.5,0.1,1.5,0.1c0.1,0.4,0.2,0.9,0.4,1.4c0,0,0,0,0,0c0.5,2,1,4.3,1.4,6.8
					C195.9,131.7,195.9,131.8,196,131.9z"/>
				<path class="st15" d="M196,131.9c-0.1-0.1-0.2-0.2-0.2-0.3c-1.1,0.7-2.1,1.3-3.3,1.8c-3.8,1.8-8.1,2.8-12.6,2.8
					c-9,0-17.1-4-22.5-10.4c-0.2,0-0.5,0.1-0.7,0.2c0.2-0.1,0.5-0.1,0.7-0.2c0.5-0.1,1-0.2,1.6-0.3c0,0,0.1,0,0.2,0
					c0.1,0,0.2,0,0.3-0.1c1.3-0.3,2.7-0.5,4.1-0.7c0,0,0,0,0,0c0.6-0.1,1.2-0.2,1.8-0.3c0.8-0.1,1.6-0.2,2.4-0.3c0.1,0,0.1,0,0.2,0
					c1.8-0.2,3.7-0.4,5.4-0.5c0.6,0,1.2-0.1,1.7-0.1c0.8-0.1,1.5-0.1,2.2-0.1c0.7,0,1.5-0.1,2.2-0.1c0.3,0,0.6,0,0.9,0
					c0.9,0,1.7-0.1,2.5-0.1c2.6-0.1,4.9-0.1,6.8,0c0.4,0,0.8,0,1.2,0c0.7,0,1.3,0,1.7,0c1,0,1.5,0.1,1.5,0.1v0
					c0.1,0.4,0.2,0.9,0.4,1.4c0,0,0,0,0,0c0.5,2,1,4.3,1.4,6.8C195.9,131.7,195.9,131.8,196,131.9z"/>
			</g>
			<path class="st19" d="M167.6,124.2c3.2,2.9,11.2,1.9,11.2,1.9s5-1.4,3.9-2.9c-2.9-0.5-4.3-1.8-4.9-3.6c-0.3-1-0.4-2.2-0.3-3.3
				c0-0.6,0.1-1.2,0.2-1.9l-9.8-7.3C169.3,111.9,170.8,120.7,167.6,124.2z"/>
			<path class="st15" d="M170.2,111.7c0.4,5.9,5.2,7.5,7.6,7.9c-0.3-1-0.4-2.2-0.3-3.3L170.2,111.7z"/>
			<g>
				<path class="st14" d="M187.2,93.1c0,0,1.4,9.2-3.5,12.7c-4.9,3.5-4.9-13.6-4.9-13.6L187.2,93.1z"/>
				<path class="st19" d="M169.6,113.1c2.4,3.4,6.2,4.3,9.6,3.2c2.2-0.7,4.1-2.2,5.3-4.3c0.2-0.3,0.3-0.6,0.4-0.9
					c2.4-5.6,3.2-15.4-2.8-19.1c-4.2-2.7-9.8-1.4-12.4,2.8c-0.8,1.2-1.2,2.6-1.4,4C167.6,105.4,166.8,109.2,169.6,113.1z"/>
				<path class="st14" d="M177.9,102.3c-0.1,0.5,0.1,1,0.5,1.1c0.4,0.1,0.7-0.3,0.8-0.9c0.1-0.5-0.1-1-0.5-1.1
					C178.3,101.4,178,101.8,177.9,102.3z"/>
				<path class="st14" d="M183.9,103.3c-0.1,0.5,0.1,1,0.5,1.1c0.3,0.1,0.7-0.3,0.8-0.9c0.1-0.5-0.1-1-0.5-1.1
					C184.3,102.4,184,102.8,183.9,103.3z"/>
				<path class="st21" d="M181.9,103.3c0.4,1.7,0.9,3.4,1.8,5c-0.8,0.4-1.8,0.4-2.6,0L181.9,103.3z"/>
				<path class="st14" d="M176.3,100.1c0.1,0,0.2,0,0.3-0.1c0.6-0.6,1.4-0.8,2.2-0.7c0.2,0,0.3-0.1,0.4-0.2c0-0.2-0.1-0.3-0.2-0.4
					c0,0,0,0,0,0c-1-0.2-2,0.1-2.7,0.8c-0.1,0.1-0.1,0.3,0,0.4c0,0,0,0,0,0C176.3,100,176.3,100,176.3,100.1z"/>
				<path class="st14" d="M186.8,101.7c0.1,0,0.1,0,0.2,0c0.2,0,0.3-0.2,0.2-0.4c0,0,0,0,0,0c-0.3-1-1-1.8-1.9-2.1
					c-0.2-0.1-0.3,0-0.4,0.2l0,0c0,0.2,0,0.3,0.2,0.4l0,0c0.7,0.3,1.3,0.9,1.5,1.7C186.6,101.6,186.7,101.7,186.8,101.7z"/>
				<path class="st14" d="M174.5,91.5v2.9c-1,0.4-1.7,1.4-1.4,2.6c0.6,2.5-1.2,6.1-3.2,7.4c0,0,0.1-1.1-0.8-0.9
					c-0.9,0.1-1.3,5.7,0.1,8.5c0,0-2.3-2.7-3.1-8.6c-0.7-5.5-0.3-9.9,1-11.9H174.5z"/>
				<path class="st19" d="M164.6,103.7c0.5,1.6,1.6,2.9,3,3.7c1.9,1,3.4-0.6,3.3-2.7c-0.1-1.9-1.3-4.7-3.4-4.8
					C165.2,99.7,164,101.7,164.6,103.7z"/>
				<path class="st14" d="M174.5,94.4c0,0,1.9,1.9,3.8,0.5c0,0,2.1,1.7,3.8,0.5c0,0,0.9,1.6,2.5,1.8c1.5,0.2,1.5-1.4,1.5-1.4
					s2.4,1.4,3.3,0.7c0.9-0.7-0.5-3.3-0.5-3.3s1.1-0.6,0.4-2.7c-0.7-2.1-4.1-1.6-4.1-1.6s0.1-2-2.2-4c-2.4-2-3.8,0.5-3.8,0.5
					s-2.3-3.1-5.1-2.7c-2.8,0.4-2.5,2.4-2.5,2.4s-3.3-2-4.7,0c-1.5,2,0,3,0,3s-3.3,1.1-3.1,3.3c0.2,2.2,1.8,1.9,1.8,1.9
					s-0.9,1.1,1.2,2c2.1,0.9,4.1-1.3,4.1-1.3s-0.8,1.3,0.7,2.1C173.1,97,174.5,94.4,174.5,94.4z"/>
				<g>
					<path class="st14" d="M180.9,110.2c-0.8,0.6-1.8,2-1.8,2c-0.1-0.1-0.3-0.2-0.4-0.2c-1.9-1.1-2.4-2.2-2.4-3.1
						c0-0.5,0.2-0.9,0.3-1.3c0.2-0.4,0.4-0.6,0.4-0.6c0.6,1.2,2.3,2.3,3.2,2.9C180.7,110.1,180.9,110.2,180.9,110.2z"/>
					<path class="st5" d="M180.3,109.9l-0.6,0.6c-1.8-1-2.9-2-3.1-2.8c0.2-0.4,0.4-0.6,0.4-0.6C177.7,108.1,179.4,109.3,180.3,109.9
						z"/>
					<path class="st16" d="M178.6,112c-1.9-1.1-2.4-2.2-2.4-3.1c0.6,0.4,1.3,0.9,1.8,1.6C178.5,111,178.6,111.5,178.6,112z"/>
				</g>
			</g>
			<path class="st3" d="M178.8,126.1c0,0-11.5-7.8-15.1-8.2c-3.7-0.4-3,4.1-3,4.1s-2.8,0-1.7,3.5c1.1,3.5,16.7,5.4,22.4,3.7
				c5.8-1.7,9.2-4.9,8.2-8c-1-3-3.6-0.4-3.6-0.4s-1.5-2.9-3.8-2.2C180,119.1,178.8,126.1,178.8,126.1z"/>
			<path class="st3" d="M203.2,124.8c-1,1.4-2.2,2.7-3.5,3.8c-1.2,1.1-2.4,2.1-3.8,2.9c0,0.2,0,0.3,0.1,0.4
				c-0.1-0.1-0.2-0.2-0.2-0.3c-0.8-1-1.6-2.3-2.5-3.6c-1-1.7-2-3.4-2.4-4.8v0c-0.1-0.5-0.2-0.9-0.2-1.2l-0.9-1.3l0.3-0.4l2.5-3
				l0.6-0.6l1.1,1.4c0,0,1.4-0.5,5.8,3.3C201.1,122.4,202.2,123.7,203.2,124.8z"/>
		</g>
	</g>
	<g>
		<circle class="st3" cx="95.4" cy="294.7" r="28.9"/>
		<path class="st10" d="M123.3,294.7c0,6.7-2.3,12.8-6.3,17.6c-1.2,1.5-2.5,2.8-3.9,4c-0.5,0.4-0.9,0.8-1.4,1.1
			c-1.3,1-2.8,1.8-4.3,2.5c-3.6,1.7-7.6,2.7-11.9,2.7c-5.1,0-9.9-1.4-14-3.8c-1.1-0.6-2.1-1.3-3-2h0c0,0-0.1-0.1-0.1-0.1
			c-1.1-0.9-2.2-1.9-3.1-2.9c-4.7-5-7.5-11.6-7.5-19c0-15.4,12.5-27.9,27.8-27.9C110.8,266.8,123.3,279.3,123.3,294.7z"/>
		<g>
			<path class="st14" d="M113.1,316.2c-0.5,0.4-0.9,0.8-1.4,1.1c-1.3,1-2.8,1.8-4.3,2.5c-3.6,1.7-7.6,2.7-11.9,2.7
				c-5.1,0-9.9-1.4-14-3.8c-1.1-0.6-2.1-1.3-3-2h0c0,0-0.1-0.1-0.1-0.1c0-0.1,0-0.1,0-0.2v0c0.2-0.9,0.5-1.8,0.7-2.8
				c0.3-1.3,0.6-2.7,0.8-4.1c0.6-3.7,1-7.7,0.8-11.8c-0.5-14.8,2.2-20.2,8.2-23.1c0.3-0.1,0.5-0.3,0.8-0.4c1.4-0.6,2.9-0.7,4.3-0.5
				c0,0,0,0,0,0c5.2,0.7,9.6,5.5,9.6,5.5s1,1.4,2.4,4c2.4,4.7,6,13.5,6.9,25.4v0C113.1,311,113.1,313.5,113.1,316.2z"/>
			<path class="st3" d="M112.9,308.6L112.9,308.6c-1.1-0.8-2.1-1.4-2.9-1.5c0,0-5.9-0.6-11-0.5c-0.6,0-1.1,0-1.7,0.1
				c-2.6,0.1-5.2,0.4-7.8,0.8c-0.8,0.1-1.5,0.2-2.3,0.4c-2.5,0.4-5,1-7.4,1.6c-1.2,0.3-2.3,0.7-3.5,1c-0.4,0.5-0.8,1.7-1.2,3.2
				c1,1.1,2,2,3.1,2.9c0,0,0.1,0.1,0.1,0.1h0c1,0.8,2,1.4,3,2c4.1,2.4,8.9,3.8,14,3.8c4.3,0,8.3-1,11.9-2.7c1.5-0.7,3-1.6,4.3-2.5
				c0.5-0.4,1-0.7,1.4-1.1c1.4-1.2,2.8-2.5,3.9-4C115.7,310.9,114.2,309.6,112.9,308.6z"/>
			<path class="st22" d="M112.9,308.6L112.9,308.6c-1.1-0.8-2.1-1.4-2.9-1.5c0,0-5.9-0.6-11-0.5c-0.6,0-1.1,0-1.7,0.1
				c-2.6,0.1-5.2,0.4-7.8,0.8c-0.8,0.1-1.5,0.2-2.3,0.4c-2.5,0.4-5,1-7.4,1.6c-1.2,0.3-2.3,0.7-3.5,1c-0.4,0.5-0.8,1.7-1.2,3.2
				c1,1.1,2,2,3.1,2.9c0,0,0.1,0.1,0.1,0.1h0c1,0.8,2,1.4,3,2c4.1,2.4,8.9,3.8,14,3.8c4.3,0,8.3-1,11.9-2.7c1.5-0.7,3-1.6,4.3-2.5
				c0.5-0.4,1-0.7,1.4-1.1c1.4-1.2,2.8-2.5,3.9-4C115.7,310.9,114.2,309.6,112.9,308.6z"/>
			<path class="st23" d="M96.8,312.3c-6.5-0.8-8.4-3.6-8.4-3.6c2.6-2.5,2.2-6.2,1.5-8.5c-0.4-1.3-0.8-2.1-0.8-2.1l7.8,1.5
				c-0.2,1.3-0.3,2.4-0.3,3.3c0,1,0.1,1.8,0.2,2.4c0.5,2.3,1.9,2.4,1.9,2.4C100,310.2,96.8,312.3,96.8,312.3z"/>
			<path class="st15" d="M96.6,302.9c0,1,0.1,1.8,0.2,2.4c-3.1-0.4-5.4-2.9-6.9-5c-0.4-1.3-0.8-2.1-0.8-2.1l7.8,1.5
				C96.7,300.9,96.6,302,96.6,302.9z"/>
			<g>
				<path class="st23" d="M95.3,278c6.8,0.3,8.8,4,9.1,11c0.3,8.8-1.9,14.9-10.3,12.7C82.7,298.7,84,277.6,95.3,278z"/>
				<path class="st24" d="M100,288.5c0,0,0.9,1.8,1.9,2.9c0,0-0.6,0.9-1.8,0.7L100,288.5z"/>
				<path class="st14" d="M93,284.3c-0.1,0-0.2,0-0.2-0.1c-0.1-0.1-0.2-0.4,0-0.5c1.2-1.4,3.2-1,3.3-1c0.2,0,0.3,0.2,0.3,0.4
					c0,0.2-0.2,0.3-0.4,0.3c0,0-1.7-0.3-2.7,0.8C93.2,284.3,93.1,284.3,93,284.3z"/>
				<path class="st14" d="M103.6,284c-0.1,0-0.1,0-0.2-0.1c-1.3-0.9-2.3-0.6-2.4-0.6c-0.2,0.1-0.4,0-0.4-0.2c-0.1-0.2,0-0.4,0.2-0.4
					c0.1,0,1.4-0.4,3,0.7c0.2,0.1,0.2,0.3,0.1,0.5C103.8,283.9,103.7,284,103.6,284z"/>
				<g>
					<path class="st14" d="M98.9,294.7c-0.4,0.8-0.9,2.3-0.9,2.3c-0.1,0-0.3,0-0.4-0.1c-2-0.3-2.8-1-3.1-1.8
						c-0.2-0.4-0.2-0.9-0.2-1.2c0-0.4,0.2-0.7,0.2-0.7c1,0.8,2.8,1.2,3.7,1.3C98.7,294.6,98.9,294.7,98.9,294.7z"/>
					<path class="st5" d="M98.3,294.6l-0.3,0.7c-1.9-0.3-3.1-0.7-3.6-1.3c0-0.4,0.2-0.7,0.2-0.7C95.5,294,97.3,294.4,98.3,294.6z"/>
					<path class="st16" d="M97.6,296.9c-2-0.3-2.8-1-3.1-1.8c0.7,0.1,1.5,0.3,2.1,0.7C97.2,296.2,97.5,296.6,97.6,296.9z"/>
				</g>
				<path class="st14" d="M87.5,289.2c0,0,3.4-5.5,3.1-9.8c0,0,13.6-5,13.8,8.7c0,0,1.8-12.1-9.9-12.8c-11.6-0.7-12.2,16.3-6.4,21.7
					C88,297,85.4,292.6,87.5,289.2z"/>
				<path class="st23" d="M88.5,290.7c0-1.1-1.1-3-3.1-2.8c-2.1,0.2-3.3,4.4,1.9,5.7C88.1,293.7,88.5,292.9,88.5,290.7z"/>
				<path class="st14" d="M91.5,273.6c3.7-1,13.4-1.2,15.7,9l-1.4,0.7c0,0-3.3-1.8-7.3-2.2c0,0-0.8-1.5-1.9-2.7c0,0,0.1,1.6,0,2.6
					c0,0-6.4,0.9-9.2,3.5c-4.5,4.1-4.8,6.7-4.8,6.7S79.5,276.9,91.5,273.6z"/>
				<path class="st14" d="M108.2,282.4c-0.1,0-0.2-0.1-0.2-0.2c-1.2-3.5-3.1-5.9-5.9-7.3c-5-2.5-11-0.5-11-0.4c-0.1,0-0.3,0-0.3-0.2
					c0-0.1,0-0.3,0.2-0.3c0.1,0,6.2-2.1,11.4,0.5c2.9,1.4,4.9,4,6.1,7.6C108.5,282.2,108.4,282.4,108.2,282.4
					C108.2,282.4,108.2,282.4,108.2,282.4z"/>
				<path class="st14" d="M94,287.8c0,0,1.6-1.3,2.3,0.5C96.3,288.2,95.2,287.6,94,287.8z"/>
				<path class="st14" d="M101.5,288.8c0,0,0.9-1.8,2-0.5C103.6,288.2,102.2,288.3,101.5,288.8z"/>
			</g>
		</g>
	</g>
	<g>
		
			<ellipse transform="matrix(0.7071 -0.7071 0.7071 0.7071 -133.9134 365.1844)" class="st3" cx="373.9" cy="344.2" rx="35.8" ry="35.8"/>
		<path class="st10" d="M408.6,344.2c0,5.6-1.3,10.9-3.7,15.6c-0.5,0.9-1,1.9-1.5,2.7c-0.4,0.7-0.9,1.4-1.4,2
			c-2,2.8-4.5,5.3-7.3,7.4c-0.6,0.5-1.3,0.9-1.9,1.4c-2.7,1.8-5.6,3.1-8.7,4.1c-3.2,1-6.7,1.5-10.2,1.5c-5.1,0-10-1.1-14.4-3.1
			c-0.6-0.3-1.1-0.5-1.7-0.8v0c-3.1-1.6-6-3.7-8.4-6.2c-2.4-2.4-4.5-5.1-6.1-8.1c-0.5-0.9-0.9-1.8-1.3-2.7h0
			c-1.9-4.3-2.9-8.9-2.9-13.9c0-19.2,15.6-34.8,34.8-34.8C393,309.5,408.6,325.1,408.6,344.2z"/>
		<g id="_x3C_Group_x3E__2_">
			<path class="st25" d="M356.5,342.9c-0.5,0.9-2.2,2.6-2.2,2.6l-3,14.2l-2,9.3c-2.4-2.4-4.5-5.1-6.1-8.1c0.2-0.8,0.5-1.5,0.8-2.3
				c2.1-6.6,4.6-14.2,4.7-15c0.3-1.3-0.9-7.9-0.6-9.1c0.3-1.2,6.3-2.6,7.6-2.6C357.1,331.8,357,342,356.5,342.9z"/>
			<path class="st3" d="M361.2,358.5C361.2,358.5,361.2,358.5,361.2,358.5l-1.3,13l-0.4,4.4c-0.6-0.3-1.1-0.5-1.7-0.8v0
				c-3.1-1.6-6-3.7-8.4-6.2c-2.4-2.4-4.5-5.1-6.1-8.1c-0.5-0.9-0.9-1.8-1.3-2.7l2,0.3l7.3,1.2l1.6,0.3l-1.9,9
				C351.1,368.9,357.8,359.5,361.2,358.5z"/>
			<path class="st26" d="M361.2,358.5C361.2,358.5,361.2,358.5,361.2,358.5l-1.3,13l-0.4,4.4c-0.6-0.3-1.1-0.5-1.7-0.8v0
				c-3.1-1.6-6-3.7-8.4-6.2c-2.4-2.4-4.5-5.1-6.1-8.1c-0.5-0.9-0.9-1.8-1.3-2.7l2,0.3l7.3,1.2l1.6,0.3l-1.9,9
				C351.1,368.9,357.8,359.5,361.2,358.5z"/>
			<g>
				<path class="st3" d="M404.9,359.8c-0.5,0.9-1,1.9-1.5,2.7c-0.4,0.7-0.9,1.4-1.4,2c-2,2.8-4.5,5.3-7.3,7.4
					c-0.6,0.5-1.3,0.9-1.9,1.4c-2.7,1.8-5.6,3.1-8.7,4.1c-3.2,1-6.7,1.5-10.2,1.5c-5.1,0-10-1.1-14.4-3.1c-0.6-0.3-1.1-0.5-1.7-0.8
					v0c1.4-10,3.2-16,3.4-16.5c0,0,0-0.1,0-0.1c3.6-1,7.3-1.8,11-2.2c0.1,0,0.1,0,0.2,0c0,0,0,0,0,0c5.3-0.4,10.7-0.5,16.1-0.3h0
					c3.7,0.1,7.4,0.5,11.1,1.1C400.1,357.2,402.6,358.2,404.9,359.8z"/>
				<path class="st26" d="M404.9,359.8c-0.5,0.9-1,1.9-1.5,2.7c-0.4,0.7-0.9,1.4-1.4,2c-2,2.8-4.5,5.3-7.3,7.4
					c-0.6,0.5-1.3,0.9-1.9,1.4c-2.7,1.8-5.6,3.1-8.7,4.1c-3.2,1-6.7,1.5-10.2,1.5c-5.1,0-10-1.1-14.4-3.1c-0.6-0.3-1.1-0.5-1.7-0.8
					v0c1.4-10,3.2-16,3.4-16.5c0,0,0-0.1,0-0.1c3.6-1,7.3-1.8,11-2.2c0.1,0,0.1,0,0.2,0c0,0,0,0,0,0c5.3-0.4,10.7-0.5,16.1-0.3h0
					c3.7,0.1,7.4,0.5,11.1,1.1C400.1,357.2,402.6,358.2,404.9,359.8z"/>
				<path class="st11" d="M394.8,372c-0.6,0.5-1.3,0.9-1.9,1.4c-2.7,1.8-5.6,3.1-8.7,4.1c-3.2,1-6.7,1.5-10.2,1.5
					c-5.1,0-10-1.1-14.4-3.1c-0.6-0.3-1.1-0.5-1.7-0.8v0c0-0.3,0.1-0.6,0.1-0.9c0.6-0.9,1.2-1.8,2-2.7c3.6-4.6,8.6-9.2,11.2-11.4
					c0.7,0.9,1.9,1.6,3.9,2c3.3,0.6,7-0.9,10.1-2.7c1.4,1.4,3.5,3.6,5.5,6c1.5,1.8,2.8,3.8,3.7,5.5
					C394.5,371.3,394.6,371.6,394.8,372z"/>
			</g>
			<path class="st25" d="M388.5,356c0,0-4.1,5-11.8,5.4c-6.7,0.3-4.5-5-4.5-5c2.5-0.6,3.8-1.8,4.5-3.2c0.9-1.8,0.6-4.1,0.1-6.3
				c0-0.2-0.1-0.3-0.1-0.5l9.8-8.8C385.6,342.9,384.8,352.5,388.5,356z"/>
			<path class="st15" d="M384.9,345.3c-0.5,3.4-4.6,6.7-8.2,7.7c0.9-1.8,0.6-4.1,0.1-6.3l8.1-6.2
				C385.2,342.2,385.2,343.8,384.9,345.3z"/>
			<g>
				<path class="st14" d="M378.5,326.2c2.3,2.6,0.2,5.6-7.5,9c-1.7-4-0.5-10.7,2-11.8C375.5,322.3,376.5,323.9,378.5,326.2z"/>
				<path class="st25" d="M389.3,334.6c-2.1,6.8-2.9,10.9-7.3,13.6c-6.5,4.1-14.3-1.1-14.3-8.4c0-6.6,3.4-16.6,10.8-17.8
					c5.3-0.8,10.3,2.8,11.1,8.1C389.9,331.6,389.8,333.2,389.3,334.6z"/>
				<path class="st14" d="M378.5,334c-0.1,0.6-0.5,0.9-0.9,0.9c-0.4-0.1-0.6-0.6-0.4-1.2c0.1-0.6,0.5-0.9,0.9-0.9
					C378.5,332.9,378.6,333.5,378.5,334z"/>
				<path class="st14" d="M372.1,332.5c-0.1,0.6-0.5,0.9-0.9,0.9c-0.4-0.1-0.6-0.6-0.4-1.2c0.1-0.6,0.5-0.9,0.9-0.9
					C372.1,331.4,372.3,332,372.1,332.5z"/>
				<path class="st27" d="M374.1,333.3c-1.1,1.6-2.4,3-3.8,4.2c0.8,1.2,2.6,1.1,2.6,1.1L374.1,333.3z"/>
				<path class="st14" d="M380.8,332.4c0.1,0,0.1,0,0.2,0c0.2-0.1,0.3-0.3,0.2-0.4c-0.4-1-1.3-1.8-2.4-2c-0.2,0-0.4,0.1-0.4,0.3
					c0,0,0,0,0,0c0,0.2,0.1,0.4,0.3,0.4l0,0c0.8,0.2,1.5,0.8,1.9,1.6C380.6,332.3,380.7,332.4,380.8,332.4z"/>
				<path class="st14" d="M369.7,329.7c0.1,0,0.3,0,0.3-0.1c0.5-0.7,1.4-1.1,2.2-1.1c0.2,0,0.4-0.1,0.4-0.3c0-0.2-0.1-0.3-0.3-0.4
					c-1.1,0-2.1,0.4-2.8,1.3c-0.1,0.1-0.1,0.4,0,0.5c0,0,0,0,0,0C369.6,329.6,369.7,329.7,369.7,329.7z"/>
				<path class="st14" d="M388,327.8c-3.5,0.3-3.9,3.9-0.6,11.7c4-1.8,7.6-7.5,6.5-10C392.9,327,391.1,327.5,388,327.8z"/>
				<path class="st25" d="M391.3,340.9c-0.9,1.6-2.3,2.7-4.1,3.2c-2.3,0.6-3.4-1.4-2.8-3.6c0.6-1.9,2.5-4.6,4.8-4.3
					C391.5,336.6,392.4,339,391.3,340.9z"/>
				<path class="st14" d="M381.3,324.9c0,0-0.7,7.2,5.8,9.3c6.5,2.1,9-1.6,9-1.6s-1.1-0.1-1.7-0.3c0,0,2.8-2.9,1.7-6.6
					c-1.1-3.7-6.9-8.8-12.3-8.3c0,0-4.2-3-9.5-1.5c-5.3,1.5-6,7.5-6,7.5s0.7-3.6,3.1-4c0,0-4.5,6.6-1,9.6
					C370.4,329,372.7,322,381.3,324.9z"/>
				<g>
					<path class="st14" d="M371.7,341.2c0.6,0.8,1.3,2.4,1.3,2.4c0.2,0,0.3-0.1,0.5-0.1c2.1-0.6,2.9-1.6,3.2-2.5
						c0.1-0.5,0.1-1,0-1.4c-0.1-0.4-0.3-0.7-0.3-0.7c-0.9,1-2.9,1.7-3.9,2.1C371.9,341.1,371.7,341.2,371.7,341.2z"/>
					<path class="st5" d="M372.4,341l0.4,0.7c2-0.6,3.3-1.2,3.8-2c-0.1-0.4-0.3-0.7-0.3-0.7C375.4,339.9,373.4,340.7,372.4,341z"/>
					<path class="st16" d="M373.5,343.5c2.1-0.6,2.9-1.6,3.2-2.5c-0.7,0.2-1.6,0.6-2.2,1.1C373.9,342.6,373.6,343.1,373.5,343.5z"/>
				</g>
			</g>
		</g>
	</g>
</g>
<g id="Speech_bubble">
	<g>
		<path class="st3" d="M267.9,175.9l-13.7-0.7c-2-0.1-3.6-1.8-3.5-3.9l0.7-13.7c0.1-2,1.8-3.6,3.9-3.5l13.7,0.7
			c2,0.1,3.6,1.8,3.5,3.9l-0.7,13.7C271.7,174.4,270,176,267.9,175.9z"/>
		<path class="st28" d="M267.6,161.2c-1.4-2.5-4.3-1.7-5.8,0.1c-1.4-1.9-4.2-3-5.8-0.7c-2.7,4,2.3,8,4.7,9.6
			c0.3,0.2,0.5,0.3,0.7,0.5c0.2-0.1,0.4-0.2,0.7-0.4C264.6,168.9,269.9,165.4,267.6,161.2z"/>
		<path class="st3" d="M263.4,174.1c0,0-3.1,6.2-9.4,7.9c0,0,3.5-1.8,3.6-8.4L263.4,174.1z"/>
	</g>
</g>
<g id="Character">
	<g>
		<path class="st19" d="M279.5,239.3c0,0,7.9-7.9,10.5-13.6c0,0-1-3.2-0.1-4.8c0.9-1.6,6.2-6.3,7.6-5.3c1.4,1,3.5,4.9,2.6,6.6
			c-0.8,1.7-6,5-6,5s-6.4,12.9-10.4,15.8C279.7,245.9,279.5,239.3,279.5,239.3z"/>
		<path class="st14" d="M259.4,215.5c4.6,0.6,9.9,23,13.6,25.1c3.7,2.1,13.3-10.3,13.3-10.3l4.4,5c0,0-12.7,17.6-17.7,16.1
			c-5-1.6-14.4-19-14.4-19L259.4,215.5z"/>
		<path class="st29" d="M259.4,215.5c4.6,0.6,9.9,23,13.6,25.1c3.7,2.1,13.3-10.3,13.3-10.3l4.4,5c0,0-12.7,17.6-17.7,16.1
			c-5-1.6-14.4-19-14.4-19L259.4,215.5z"/>
		<polygon class="st19" points="287.5,422.2 281.4,423.3 278.9,415 276.7,407.4 283.7,405 285.7,414.1 		"/>
		<path class="st14" d="M280,423.2c-0.1-0.7,8.2-1.6,8.2-1.6s6,4.3,11.1,4.5c5.1,0.3,2.9,3.7-2.6,4.7c-5.5,1-9.7,1.7-13.6,2.4
			C279.3,433.9,281.1,430.1,280,423.2z"/>
		<g>
			<path class="st3" d="M292.4,422.9c-1.1,0-2.6-0.4-3-0.5c0,0-0.1,0-0.1,0l0,0l0,0c0,0,0,0-0.1-0.1l0,0c0,0,0,0,0,0c0,0,0,0,0-0.1
				c0,0,0,0,0,0h0c0,0,0-0.1,0-0.1c0-0.1,0.4-2.1,1.4-2.8c0.3-0.2,0.7-0.3,1.1-0.2c0.4,0.1,0.6,0.3,0.7,0.6c0.1,0.4-0.5,1-1.1,1.4
				c0.7-0.2,1.4-0.3,1.9-0.1c0.3,0.1,0.4,0.3,0.5,0.5c0.2,0.5,0.1,0.8,0,0.9C293.4,422.8,292.9,422.9,292.4,422.9z M290.1,422.2
				c1.3,0.3,2.9,0.5,3.2,0.1c0,0,0.1-0.1,0-0.4c-0.1-0.1-0.1-0.2-0.3-0.2C292.4,421.4,291,421.8,290.1,422.2z M291.3,419.6
				c-0.2,0-0.3,0-0.5,0.1c-0.6,0.4-0.9,1.3-1.1,2c1.1-0.7,2.2-1.5,2.2-1.9c0-0.1-0.2-0.2-0.3-0.2
				C291.5,419.7,291.4,419.6,291.3,419.6z"/>
		</g>
		<polygon class="st15" points="285.7,414.3 279,415.2 276.7,407.5 283.7,405 		"/>
		<polygon class="st19" points="246.9,424.8 240.8,424.8 239.8,416.3 238.8,408.4 246.2,407.2 246.6,416.5 		"/>
		<path class="st14" d="M239.5,424.5c0-0.7,8.4-0.1,8.4-0.1s5.1,5.2,10.1,6.4c5,1.2,2.2,4.2-3.4,4.2c-5.6,0-9.8,0-13.8,0
			C236.8,434.9,239.3,431.5,239.5,424.5z"/>
		<g>
			<path class="st3" d="M252.2,426.4c-1.2,0-3-0.8-3.5-1.1c0,0-0.1,0-0.1-0.1l0,0h0c0,0,0,0,0,0c0-0.1,0-0.1,0-0.2
				c0-0.1,0.7-2,1.9-2.5c0.4-0.1,0.7-0.1,1.1,0c0.4,0.2,0.6,0.4,0.5,0.7c0,0.4-0.6,0.9-1.3,1.2c0.7-0.1,1.4,0,1.9,0.2
				c0.2,0.1,0.4,0.3,0.4,0.6c0.1,0.5,0,0.8-0.2,0.9C252.8,426.4,252.5,426.4,252.2,426.4z M249.5,425.2c1.2,0.5,2.8,1,3.2,0.7
				c0,0,0.1-0.1,0.1-0.4c0-0.1-0.1-0.2-0.2-0.3C251.9,424.8,250.5,425,249.5,425.2z M251,422.9c-0.1,0-0.2,0-0.3,0.1
				c-0.6,0.3-1.1,1.2-1.4,1.8c1.2-0.5,2.4-1.1,2.5-1.5c0-0.1-0.2-0.2-0.3-0.3C251.3,423,251.1,422.9,251,422.9z"/>
		</g>
		<polygon class="st15" points="246.6,416.7 239.8,416.4 238.8,408.5 246.2,407.2 		"/>
		<g>
			<path class="st3" d="M286.3,409.5l-10,1.8c-10.1-25.1-17.2-46.1-22.3-63.4c-2.7-9.4-4.9-17.7-6.5-25.1L248,350v62.1h-10.1
				c-24.7-117.6-7.2-144.5-7.2-144.5l29.5-5c1.1,4.4,2,11.5,2.5,16.5l1.3,9.8l11.5,59.6L286.3,409.5z"/>
		</g>
		<polygon class="st3" points="274.7,410 287.1,405.9 287,411.2 276.7,414.4 		"/>
		<polygon class="st3" points="236.5,410.6 249.4,408.7 248.3,413.9 237.7,415.3 		"/>
		<path class="st14" d="M257.5,203.2c0,0-0.1,0-0.1,0c-3.8-2.3-7.1-10.6-7.3-11c-0.1-0.1,0-0.3,0.1-0.3c0.1,0,0.3,0,0.3,0.1
			c0,0.1,3.4,8.5,7.1,10.7c0.1,0.1,0.2,0.2,0.1,0.3C257.7,203.1,257.6,203.2,257.5,203.2z"/>
		<path class="st14" d="M227.2,181.2c0,0,1.5-5,11.3-5.8c9.8-0.9,14.7,8.8,12.4,16c0,0,2.1,9.8,6,12.6c0,0-18.9,8.5-28.4,8.6
			c-2.1,0-6.6-10.5-7.2-18.1C220.7,187.2,222.9,181.5,227.2,181.2z"/>
		<polygon class="st14" points="230.7,263.2 230.7,267.6 260.7,265.3 260.7,260 		"/>
		<polygon class="st30" points="230.7,263.2 230.7,267.6 260.7,265.3 260.7,260 		"/>
		
			<rect x="247.4" y="261.4" transform="matrix(0.996 -8.920225e-02 8.920225e-02 0.996 -22.5416 23.417)" class="st5" width="6.6" height="5"/>
		<g>
			
				<rect x="239.5" y="261.3" transform="matrix(0.9987 -5.105561e-02 5.105561e-02 0.9987 -13.2237 12.6095)" class="st3" width="1.5" height="7.6"/>
		</g>
		<g>
			
				<rect x="257.8" y="259.3" transform="matrix(0.9987 -5.092893e-02 5.092893e-02 0.9987 -13.065 13.511)" class="st3" width="1.5" height="7.6"/>
		</g>
		<path class="st14" d="M260.9,260.6l-30.1,2.6c-0.3-4.6-0.6-8.5-1.3-12.8c-0.4-2.8-1.1-5.8-1.9-9.3c-0.7-2.7-1.5-5.8-2.6-9.3
			c0-0.2-0.1-0.4-0.2-0.6c-0.6-2-5-0.5-5.4-2.9c-1.7-10.6,9.7-11.4,14-12.1c4.5-0.8,9-1.3,13.5-1.4c5.8-0.1,12.6,0.6,12.6,0.6
			s1,0.2,1.6,6.4C261.5,227.7,262.1,239.4,260.9,260.6z"/>
		<path class="st19" d="M244.4,221.5c-7.4-0.9-9.6-4.1-9.6-4.1c4.7-4.4,0.8-12.1,0.8-12.1l8.9,1.7c-0.2,1.5-0.3,2.7-0.3,3.8
			c-0.1,5.4,2.4,5.5,2.4,5.5C248,219.1,244.4,221.5,244.4,221.5z"/>
		<path class="st15" d="M244.4,206.9c-0.2,1.5-0.3,2.7-0.3,3.8c-6,0-8.6-5.4-8.6-5.4L244.4,206.9z"/>
		<g>
			<path class="st19" d="M237.6,181.9c7.6-1.7,10.9,1.8,13.3,9.5c2.9,9.6,2.3,17-7.6,17.1C229.7,208.6,225,184.8,237.6,181.9z"/>
			<path class="st21" d="M245.9,192.1c0,0,1.5,1.7,2.9,2.6c0,0-0.4,1.2-1.8,1.3L245.9,192.1z"/>
			<g>
				<path class="st14" d="M241.1,192.5c0.2,0.6-0.1,1.2-0.5,1.3c-0.4,0.1-0.9-0.3-1-0.9c-0.2-0.6,0.1-1.2,0.5-1.3
					C240.5,191.5,240.9,191.9,241.1,192.5z"/>
				<path class="st14" d="M239.9,191.6l1.2-0.9C241.1,190.8,240.7,192.1,239.9,191.6z"/>
			</g>
			<g>
				<path class="st14" d="M248.8,190.4c0.2,0.6-0.1,1.2-0.5,1.3c-0.4,0.1-0.9-0.3-1-0.9c-0.2-0.6,0.1-1.2,0.5-1.3
					C248.1,189.4,248.6,189.8,248.8,190.4z"/>
				<path class="st14" d="M247.6,189.6l1.2-0.9C248.8,188.7,248.4,190,247.6,189.6z"/>
			</g>
			<path class="st14" d="M236.8,189.5c-0.1,0-0.1,0-0.2,0c-0.2-0.1-0.3-0.3-0.2-0.5c0.9-1.8,3.2-2.1,3.3-2.1c0.2,0,0.4,0.1,0.4,0.3
				c0,0.2-0.1,0.4-0.3,0.4c0,0-2,0.2-2.7,1.7C237.1,189.5,236.9,189.5,236.8,189.5z"/>
			<path class="st14" d="M245.3,186.1c-0.1,0-0.2-0.1-0.3-0.2c-0.1-0.2-0.1-0.4,0.1-0.5c0.1,0,1.4-0.9,3.5-0.1
				c0.2,0.1,0.3,0.3,0.2,0.5c-0.1,0.2-0.3,0.3-0.5,0.2c-1.7-0.7-2.8,0-2.8,0C245.4,186.1,245.3,186.1,245.3,186.1z"/>
			<path class="st14" d="M246.5,199.3c-0.2,1-0.3,2.8-0.3,2.8c-0.2,0-0.3,0-0.5,0.1c-2.3,0.3-3.4-0.3-4-1.1
				c-0.3-0.4-0.5-0.9-0.5-1.3c-0.1-0.5,0-0.8,0-0.8c1.3,0.6,3.4,0.5,4.5,0.4C246.3,199.3,246.5,199.3,246.5,199.3z"/>
			<path class="st5" d="M245.8,199.3l-0.1,0.8c-2.1,0.3-3.7,0.1-4.4-0.4c-0.1-0.5,0-0.8,0-0.8C242.5,199.5,244.6,199.4,245.8,199.3z
				"/>
			<path class="st16" d="M245.8,202.2c-2.3,0.3-3.4-0.3-4-1.1c0.8-0.1,1.7-0.1,2.6,0.2C245,201.4,245.5,201.8,245.8,202.2z"/>
			<path class="st14" d="M232.2,196.6c0,0,2.1-7,0.5-11.7c0,0,13.6-9.5,17.8,5.5c0,0-1.6-13.9-14.7-11.2
				c-13.1,2.6-8.7,21.7-0.7,25.9C235.1,205,230.9,201,232.2,196.6z"/>
			<path class="st19" d="M233.8,197.9c-0.3-1.2-2.1-3-4.3-2.2c-2.3,0.8-2.3,5.9,3.8,5.7C234.2,201.3,234.5,200.4,233.8,197.9z"/>
		</g>
		<path class="st14" d="M232.7,184.8c0,0,7.9-2.9,12.3-0.7c0,0-4.8-4.3-12.8-0.3L232.7,184.8z"/>
		<path class="st19" d="M227.8,218.2c0,0,8.7,7.1,16.8,7c8.1-0.1,11-9.2,11-9.2S243,212.2,227.8,218.2z"/>
		<path class="st15" d="M254,347.8c-2.7-9.4-4.9-17.7-6.5-25.1c0,0,0.2-14.4,1.9-26.2C249.4,296.5,253.8,330.3,254,347.8z"/>
		<path class="st19" d="M203.5,233.8c0,0-6-9.5-7.2-15.6c0,0,1.6-2.9,1.1-4.7c-0.5-1.8-4.6-7.6-6.2-6.9c-1.6,0.7-4.5,4-4,5.8
			c0.5,1.8,4.8,6.3,4.8,6.3s3.4,14,6.6,17.7C201.8,240.2,203.5,233.8,203.5,233.8z"/>
		<path class="st14" d="M219.7,223.2c3-0.4,9.2,5.5,8.2,10.6c-0.9,5.1-9.5,19.5-16.1,18.4c-9.3-1.6-19.6-26.2-19.6-26.2l5.1-4.5
			c0,0,12.1,21,14.5,20.6C214.2,241.6,219.7,223.2,219.7,223.2z"/>
		<path class="st29" d="M219.7,223.2c3-0.4,9.2,5.5,8.2,10.6c-0.9,5.1-9.5,19.5-16.1,18.4c-9.3-1.6-19.6-26.2-19.6-26.2l5.1-4.5
			c0,0,12.1,21,14.5,20.6C214.2,241.6,219.7,223.2,219.7,223.2z"/>
		<polygon class="st14" points="190.1,224.5 197.6,220 198.8,221.9 191.7,228.2 		"/>
		<polygon class="st14" points="284.6,230.2 290.7,237.7 291.7,235.3 286.3,229 		"/>
		<g>
			<path class="st3" d="M287.7,220l9.6-11.7c0.3-0.4,0.9-0.4,1.3-0.1l4.3,4c0.3,0.3,0.4,0.9,0.1,1.2l-9.7,11.9
				c-0.3,0.4-1,0.4-1.4,0.1l-4.1-4.3C287.4,220.9,287.4,220.4,287.7,220z"/>
			<path class="st13" d="M287.7,220l9.6-11.7c0.3-0.4,0.9-0.4,1.3-0.1l4.3,4c0.3,0.3,0.4,0.9,0.1,1.2l-9.7,11.9
				c-0.3,0.4-1,0.4-1.4,0.1l-4.1-4.3C287.4,220.9,287.4,220.4,287.7,220z"/>
			<path class="st3" d="M287.3,219.5l9.6-11.7c0.3-0.4,0.9-0.4,1.3-0.1l4.3,4c0.3,0.3,0.4,0.9,0.1,1.2l-9.7,11.9
				c-0.3,0.4-1,0.4-1.4,0.1l-4.1-4.3C287,220.4,287,219.9,287.3,219.5z"/>
			<polygon class="st28" points="297.2,208.3 302,212.9 292.7,224.3 288.1,219.5 			"/>
		</g>
	</g>
</g>
</svg>
