<?xml version="1.0" encoding="utf-8"?>
<!-- Generator: Adobe Illustrator 23.1.0, SVG Export Plug-In . SVG Version: 6.00 Build 0)  -->
<svg version="1.1" xmlns="http://www.w3.org/2000/svg" xmlns:xlink="http://www.w3.org/1999/xlink" x="0px" y="0px"
	 viewBox="0 0 500 500" style="enable-background:new 0 0 500 500;" xml:space="preserve">
<style type="text/css">
	.st0{fill:#EBEBEB;}
	.st1{fill:#F0F0F0;}
	.st2{fill:#F5F5F5;}
	.st3{fill:#E0E0E0;}
	.st4{fill:#FFFFFF;}
	.st5{fill:#E6E6E6;}
	.st6{fill:#407BFF;}
	.st7{opacity:0.3;fill:#263238;}
	.st8{fill:#263238;}
	.st9{opacity:0.1;fill:#FFFFFF;}
	.st10{opacity:0.2;fill:#FFFFFF;}
	.st11{opacity:0.2;}
	.st12{fill:#A02724;}
	.st13{fill:#B55B52;}
	.st14{opacity:0.3;fill:#FFFFFF;}
	.st15{opacity:0.4;fill:#FFFFFF;}
	.st16{opacity:0.3;}
	.st17{opacity:0.5;}
	.st18{fill:#FFC3BD;}
	.st19{fill:#ED847E;}
</style>
<g id="Background_Complete">
	<g>
		<rect y="395.4" class="st0" width="500" height="0.3"/>
		<rect x="396.8" y="411.5" class="st0" width="53.1" height="0.3"/>
		<rect x="272.6" y="408.4" class="st0" width="58.7" height="0.3"/>
		<rect x="380.2" y="406.9" class="st0" width="19.2" height="0.3"/>
		<rect x="100.5" y="403.9" class="st0" width="43.2" height="0.3"/>
		<rect x="79.5" y="403.9" class="st0" width="15.4" height="0.3"/>
		<rect x="131.5" y="408.1" class="st0" width="54.2" height="0.3"/>
		<path class="st0" d="M237,350.8H43.9c-3.1,0-5.7-2.6-5.7-5.7V73.7c0-3.1,2.6-5.7,5.7-5.7H237c3.1,0,5.7,2.6,5.7,5.7v271.4
			C242.7,348.2,240.2,350.8,237,350.8z M43.9,68.2c-3,0-5.5,2.4-5.5,5.5v271.4c0,3,2.4,5.5,5.5,5.5H237c3,0,5.5-2.4,5.5-5.5V73.7
			c0-3-2.4-5.5-5.5-5.5H43.9z"/>
		<path class="st0" d="M453.3,350.8H260.2c-3.1,0-5.7-2.6-5.7-5.7V73.7c0-3.1,2.6-5.7,5.7-5.7h193.1c3.1,0,5.7,2.6,5.7,5.7v271.4
			C459,348.2,456.5,350.8,453.3,350.8z M260.2,68.2c-3,0-5.5,2.4-5.5,5.5v271.4c0,3,2.4,5.5,5.5,5.5h193.1c3,0,5.5-2.4,5.5-5.5V73.7
			c0-3-2.4-5.5-5.5-5.5H260.2z"/>
	</g>
	<g>
		<g>
			
				<rect x="266.7" y="261.9" transform="matrix(-1 -1.224647e-16 1.224647e-16 -1 543.933 648.8314)" class="st1" width="10.5" height="125"/>
			
				<rect x="64.7" y="386.9" transform="matrix(-1 -1.224647e-16 1.224647e-16 -1 337.9307 782.1949)" class="st1" width="208.4" height="8.3"/>
			<rect x="60.7" y="261.9" class="st2" width="206" height="125"/>
			
				<rect x="269.2" y="254" transform="matrix(-1 -1.224647e-16 1.224647e-16 -1 549.2296 515.9203)" class="st3" width="10.9" height="7.9"/>
			<rect x="57.9" y="254" class="st0" width="211.3" height="7.9"/>
			<path class="st4" d="M250.7,314.7H76.8c-4.3,0-7.8-3.5-7.8-7.8v-27.6c0-4.3,3.5-7.8,7.8-7.8h173.9c4.3,0,7.8,3.5,7.8,7.8V307
				C258.4,311.3,255,314.7,250.7,314.7z"/>
			<path class="st4" d="M250.7,370.7H76.8c-4.3,0-7.8-3.5-7.8-7.8v-27.6c0-4.3,3.5-7.8,7.8-7.8h173.9c4.3,0,7.8,3.5,7.8,7.8V363
				C258.4,367.3,255,370.7,250.7,370.7z"/>
			<path class="st2" d="M118.9,276.2h89.6c1,0,1.8-0.8,1.8-1.8v-2.4c0-1-0.8-1.8-1.8-1.8h-89.6c-1,0-1.8,0.8-1.8,1.8v2.4
				C117.2,275.4,118,276.2,118.9,276.2z"/>
			<path class="st2" d="M118.9,332.2h89.6c1,0,1.8-0.8,1.8-1.8v-2.4c0-1-0.8-1.8-1.8-1.8h-89.6c-1,0-1.8,0.8-1.8,1.8v2.4
				C117.2,331.4,118,332.2,118.9,332.2z"/>
		</g>
		<g>
			<g>
				<g>
					<rect x="415.5" y="302.9" class="st5" width="31.7" height="6.1"/>
					
						<rect x="391.2" y="188" transform="matrix(-1 -1.224647e-16 1.224647e-16 -1 788.2515 583.384)" class="st5" width="5.9" height="207.4"/>
					
						<rect x="370.9" y="302.9" transform="matrix(-1 -1.224647e-16 1.224647e-16 -1 786.4259 611.8958)" class="st2" width="44.6" height="6.1"/>
					<rect x="415.5" y="358.7" class="st5" width="31.7" height="6.1"/>
					
						<rect x="370.9" y="358.7" transform="matrix(-1 -1.224647e-16 1.224647e-16 -1 786.4259 723.5032)" class="st2" width="44.6" height="6.1"/>
					<rect x="415.5" y="191.3" class="st5" width="31.7" height="6.1"/>
					
						<rect x="370.9" y="191.3" transform="matrix(-1 -1.224647e-16 1.224647e-16 -1 786.4259 388.6812)" class="st2" width="44.6" height="6.1"/>
					<rect x="415.5" y="247.1" class="st5" width="31.7" height="6.1"/>
					
						<rect x="370.9" y="247.1" transform="matrix(-1 -1.224647e-16 1.224647e-16 -1 786.4259 500.2886)" class="st2" width="44.6" height="6.1"/>
				</g>
			</g>
			
				<rect x="435.8" y="188" transform="matrix(-1 -1.224647e-16 1.224647e-16 -1 877.3697 583.384)" class="st5" width="5.9" height="207.4"/>
			
				<rect x="409.6" y="188" transform="matrix(-1 -1.224647e-16 1.224647e-16 -1 825.1334 583.384)" class="st2" width="5.9" height="207.4"/>
			
				<rect x="370.9" y="188" transform="matrix(-1 -1.224647e-16 1.224647e-16 -1 747.7183 583.384)" class="st2" width="5.9" height="207.4"/>
		</g>
		<g>
			<g>
				
					<rect x="87.9" y="96.4" transform="matrix(-1 -1.224647e-16 1.224647e-16 -1 439.9657 332.9897)" class="st3" width="264.2" height="140.3"/>
				
					<rect x="81.2" y="96.4" transform="matrix(-1 -1.224647e-16 1.224647e-16 -1 429.5382 332.9897)" class="st2" width="267.1" height="140.3"/>
				
					<rect x="155.7" y="42.5" transform="matrix(-1.836970e-16 1 -1 -1.836970e-16 381.2642 -48.2743)" class="st4" width="118.2" height="248"/>
			</g>
		</g>
	</g>
</g>
<g id="Shadow">
	<ellipse id="_x3C_Path_x3E__1_" class="st2" cx="250" cy="429.2" rx="193.9" ry="11.3"/>
</g>
<g id="Desk">
	<g>
		<g>
			<g>
				<g>
					<path class="st6" d="M387.8,277.2H110.5c-1.8,0-3.3-1.5-3.3-3.3l0,0c0-1.8,1.5-3.3,3.3-3.3h277.3c1.8,0,3.3,1.5,3.3,3.3l0,0
						C391.1,275.7,389.6,277.2,387.8,277.2z"/>
					<path class="st7" d="M387.8,277.2h-64.9c-1.8,0-3.3-1.5-3.3-3.3l0,0c0-1.8,1.5-3.3,3.3-3.3h64.9c1.8,0,3.3,1.5,3.3,3.3l0,0
						C391.1,275.7,389.6,277.2,387.8,277.2z"/>
				</g>
				<g>
					<g>
						<rect x="167.5" y="285.6" class="st8" width="213.3" height="23.2"/>
						<rect x="167.5" y="285.6" class="st9" width="213.3" height="23.2"/>
					</g>
					<g>
						<polygon class="st8" points="377.7,424.6 384.1,424.6 383.8,277.2 375,277.2 						"/>
						<polygon class="st9" points="377.7,424.6 384.1,424.6 383.8,277.2 375,277.2 						"/>
					</g>
					<g>
						<polygon class="st8" points="318.9,424.6 312.5,424.6 326.9,277.2 335.8,277.2 						"/>
						<polygon class="st10" points="318.9,424.6 312.5,424.6 326.9,277.2 335.8,277.2 						"/>
					</g>
					<g>
						<polygon class="st8" points="165.3,424.6 171.7,424.6 171.4,277.2 162.6,277.2 						"/>
						<polygon class="st9" points="165.3,424.6 171.7,424.6 171.4,277.2 162.6,277.2 						"/>
					</g>
					<g>
						<polygon class="st8" points="106.5,424.6 100.1,424.6 114.6,277.2 123.4,277.2 						"/>
						<polygon class="st10" points="106.5,424.6 100.1,424.6 114.6,277.2 123.4,277.2 						"/>
					</g>
				</g>
			</g>
		</g>
		<g>
			<polygon class="st8" points="286.1,270.6 271.4,270.6 265.5,241.8 280.2,241.8 			"/>
			<path class="st8" d="M305.6,264.6h-63.9c-2.1,0-3.7-1.7-3.6-3.9l2.4-40.4c0.1-2.1,2-3.8,4.1-3.8h63.9c2.1,0,3.7,1.7,3.6,3.8
				l-2.4,40.4C309.6,262.9,307.8,264.6,305.6,264.6z"/>
			<path class="st6" d="M304.6,264.6h-63.9c-2.1,0-3.7-1.7-3.6-3.9l2.4-40.4c0.1-2.1,2-3.8,4.1-3.8h63.9c2.1,0,3.7,1.7,3.6,3.8
				l-2.4,40.4C308.6,262.9,306.8,264.6,304.6,264.6z"/>
			<path class="st4" d="M240.8,262.6c-0.5,0-0.9-0.2-1.2-0.5c-0.3-0.3-0.5-0.8-0.4-1.2l2.4-40.4c0.1-1.1,1-2,2.1-2h63.9
				c0.5,0,0.9,0.2,1.2,0.5c0.3,0.3,0.5,0.8,0.4,1.2l-2.4,40.4c-0.1,1.1-1,2-2.1,2H240.8z"/>
			<polygon class="st11" points="268.8,216.5 273,230.7 285.3,216.5 			"/>
		</g>
	</g>
</g>
<g id="Character">
	<g>
		<g>
			<path class="st8" d="M169.6,182c0.1,0.8,0.6,1.4,1.1,1.3c0.5,0,0.8-0.7,0.7-1.5s-0.6-1.4-1.1-1.3
				C169.8,180.6,169.5,181.2,169.6,182z"/>
			<path class="st12" d="M170.4,183.1c0,0,1.7,3.8,3.5,5.6c-1.1,1.1-3.1,0.7-3.1,0.7L170.4,183.1z"/>
			<path class="st8" d="M167,179.1c-0.1,0-0.2,0-0.2,0c-0.2-0.1-0.3-0.4-0.3-0.6c0.9-2.3,3-2.7,3.1-2.7c0.2-0.1,0.5,0.1,0.5,0.4
				c0,0.2-0.1,0.5-0.4,0.5c-0.1,0-1.7,0.3-2.4,2.1C167.3,178.9,167.2,179,167,179.1z"/>
			<path class="st13" d="M146.9,194.1l6,4.6l8.2,6.3c-0.3,0.3-0.7,1.9-0.8,3c-0.3,2.3-0.6,4.1,4.5,5.4c1.1,0.3,2,1.1,2.2,2.3
				c0.2,1.4-0.6,3-5.4,3.8c-5.5,0.9-9.9-0.6-13.3-2.3c-2-1-2.1-2.2-1.2-4.2C149.7,207.1,148.4,199.8,146.9,194.1z"/>
			<path class="st6" d="M140,214.7c2-3.9,2.8-6.9,2.8-6.9s15.2-0.8,20.2,0.7s8.1,8,8.1,8L140,214.7z"/>
			<g>
				<path class="st13" d="M146.4,226c-0.4,1.1-0.8,2.5-1.2,3.8l-1.1,3.9c-0.7,2.6-1.4,5.2-1.9,7.8c-0.6,2.6-1,5.2-1.3,7.7
					c-0.3,2.5-0.4,5-0.2,7.2c0.1,1.1,0.2,2.1,0.5,3c0.1,0.2,0.1,0.4,0.2,0.6c0.1,0.2,0.1,0.4,0.2,0.5l0,0c0,0,0,0,0,0
					c-0.1-0.1-0.1-0.2-0.2-0.3c-0.1-0.2-0.2-0.3-0.3-0.4c-0.2-0.2-0.3-0.3-0.4-0.4c-0.2-0.1-0.2-0.1-0.2-0.1
					c0.1,0.1,0.5,0.3,0.9,0.5c0.5,0.2,1,0.4,1.5,0.6c1.1,0.4,2.4,0.7,3.7,1.1c5.2,1.3,10.8,2.3,16.3,3.5l-0.2,6.9
					c-3,0.4-5.9,0.6-8.8,0.7c-3,0.1-5.9,0.1-9-0.1c-1.5-0.1-3.1-0.3-4.7-0.6c-0.8-0.1-1.7-0.3-2.6-0.6c-0.9-0.3-1.9-0.5-3-1.1
					c-0.6-0.3-1.2-0.7-2-1.2c-0.4-0.3-0.8-0.7-1.2-1.2c-0.2-0.3-0.4-0.5-0.6-0.9c-0.1-0.2-0.2-0.3-0.3-0.5l-0.1-0.2l-0.7-1.4
					c-0.2-0.5-0.4-0.9-0.6-1.4c-0.7-1.8-1.1-3.7-1.4-5.4c-1-7-0.2-13.1,0.8-19.2c0.6-3,1.2-6,2-8.9c0.4-1.5,0.8-2.9,1.3-4.3
					c0.5-1.5,0.9-2.8,1.5-4.4L146.4,226z"/>
				<g>
					<path class="st6" d="M137.1,213.5c9.5-2.5,15.1,5.2,11.9,18c-3.2,12.8-4.3,13.2-4.3,13.2l-19.5-3.3
						C127.6,228.9,127.4,216.1,137.1,213.5z"/>
				</g>
				<path class="st13" d="M167.6,262.3l-1.5-0.1c-4.2,0-4.9,1.1-7.5,3.5l-1,5.3c6.7,3.5,10.4-0.3,10.4-0.3h6.3l-2.2-5.1
					C171.4,263.7,169.6,262.4,167.6,262.3z"/>
			</g>
			<path class="st13" d="M144.3,184.1c1.7,9.1,2.2,14.5,7.4,18.6c7.8,6.1,18.6,0.3,19.7-9.2c0.9-8.5-2-22-11.4-24.4
				C150.7,166.8,142.6,175,144.3,184.1z"/>
			<path class="st8" d="M162.4,187.3c6.5-0.5,4.6-7.4,2.6-8.8c3-1.2,5.2-6,2.2-9.3c1.7-4.5-3.2-9.9-11.8-9.1c-6.3,0.6-7,3.9-7,3.9
				s-7.6-0.8-10.7,5.4c-2.7,5.3,0.6,8.2,0.6,8.2s-5.6,1.6-4.1,9c1.7,7.9,7.8,6.1,7.8,6.1s-1.4,7.3,6.9,7.4c7.1,0.1,7.2-5.2,7.2-5.2
				S165.2,194,162.4,187.3z"/>
			<path class="st13" d="M157.5,187.8c0.8,2.1,2.4,3.7,4,4.5c2.4,1.2,4.2-1.3,3.8-3.9c-0.4-2.3-2.4-5.3-4.9-5.5
				C157.9,182.9,156.6,185.4,157.5,187.8z"/>
			<g>
				<g>
					<g>
						<g>
							<g>
								<polygon class="st13" points="254.5,413.2 263.4,409.6 257.1,388.2 248.2,391.8 								"/>
								<polygon class="st11" points="251.2,402.2 260.2,398.9 257.1,388.2 248.2,391.8 								"/>
								<path class="st8" d="M262.6,405.9l-10.2,3.5c-0.4,0.1-0.6,0.5-0.5,0.9l2.3,8.2c0.2,0.9,1.3,1.4,2.1,1.1
									c3.5-1.3,4.9-2,9.3-3.9c2.7-1.2,9.1-3.9,12.5-6c3.4-2,1.3-5.4-0.3-4.9c-3.9,1.3-10.3,2.2-13.6,1.1
									C263.8,405.7,263.1,405.7,262.6,405.9z"/>
								<g>
									<path class="st8" d="M183.1,289.9c0,0,67.2,6.1,68.9,25.4c3.5,39.3,8.9,77.3,8.9,77.3l-13.7,5c0,0-16.7-43.2-16.5-74
										c-19.4-5.5-70.3,2.6-78.7-12.4c-7.4-13.2-0.9-22.7-0.9-22.7L183.1,289.9z"/>
								</g>
								<polygon class="st6" points="246.2,400.7 263.2,394.9 262.5,387.2 243.3,393.4 								"/>
								<path class="st6" d="M266.3,406.4c-0.8,0.3-1.8,0.4-2.5,0.5c-0.1,0-0.2,0-0.2-0.1c0-0.1,0-0.2,0-0.2
									c0.2-0.3,2.2-2.9,3.4-2.9c0.3,0,0.5,0.2,0.7,0.4c0.3,0.4,0.3,0.9,0.1,1.2C267.6,405.8,267,406.2,266.3,406.4z M264.3,406.4
									c1.7-0.2,2.9-0.7,3.2-1.3c0.1-0.2,0.1-0.5-0.1-0.8c-0.1-0.1-0.2-0.2-0.3-0.2C266.3,404.1,265.1,405.4,264.3,406.4z"/>
								<path class="st6" d="M263.9,406.9c0,0-0.1,0-0.1,0c-0.1,0-0.1-0.1-0.2-0.1c0-0.1-1.2-2.6-0.5-3.8c0.2-0.3,0.4-0.5,0.8-0.6
									c0.4-0.1,0.8,0,1,0.4C265.4,403.6,264.7,406,263.9,406.9C263.9,406.9,263.9,406.9,263.9,406.9z M263.8,402.8
									c-0.2,0.1-0.3,0.2-0.4,0.3c-0.4,0.7,0.1,2.2,0.4,3.1c0.6-0.9,1-2.7,0.6-3.3c-0.1-0.1-0.2-0.2-0.5-0.2
									C263.9,402.8,263.9,402.8,263.8,402.8z"/>
							</g>
							<g>
								<polygon class="st13" points="206.9,419.5 216.4,419.1 218,396.6 208.5,397.1 								"/>
								<path class="st8" d="M216.6,417.4l-10.8-0.3c-0.4,0-0.7,0.3-0.7,0.6l-0.8,8.5c-0.1,0.9,0.7,1.7,1.6,1.8
									c3.7,0.1,5.5-0.1,10.3,0c2.9,0.1,8.6,0.5,12.6,0c3.9-0.5,3.4-4.4,1.6-4.6c-4.1-0.3-9.6-3.2-12.3-5.4
									C217.8,417.7,217.2,417.5,216.6,417.4z"/>
								<path class="st6" d="M220,419.2c-0.9,0-1.9-0.2-2.5-0.4c-0.1,0-0.1-0.1-0.2-0.2c0-0.1,0-0.2,0.1-0.2c0.3-0.2,3.1-2,4.2-1.5
									c0.3,0.1,0.4,0.3,0.5,0.6c0.1,0.5,0,0.9-0.3,1.2C221.4,419.1,220.7,419.2,220,419.2z M218,418.5c1.7,0.4,3,0.4,3.4,0
									c0.2-0.2,0.3-0.4,0.2-0.8c0-0.2-0.1-0.3-0.2-0.3C220.8,417.1,219.2,417.8,218,418.5z"/>
								<path class="st6" d="M217.5,418.8c0,0-0.1,0-0.1,0c-0.1,0-0.1-0.1-0.1-0.2c0-0.1-0.1-2.9,0.9-3.8c0.3-0.2,0.6-0.3,1-0.3
									c0.4,0.1,0.7,0.3,0.8,0.7c0.2,1.1-1.3,3-2.3,3.5C217.5,418.8,217.5,418.8,217.5,418.8z M218.9,415c-0.2,0-0.3,0.1-0.5,0.2
									c-0.6,0.5-0.7,2.1-0.7,3c0.9-0.7,1.9-2.2,1.7-2.9c0-0.1-0.1-0.3-0.4-0.3C219,415,218.9,415,218.9,415z"/>
								<g>
									<polygon class="st11" points="208.4,397.1 218,396.6 217.1,409.5 207.6,409.4 									"/>
								</g>
								<path class="st8" d="M160.8,288.9c0,0,72.4,11.1,71.2,27.7c-2.1,30-12.1,88.6-12.1,88.6l-14.3,0.2c0,0-3.4-60.1,2-82.1
									c-17.8,0-68-0.6-74.9-9.8c-7.6-10.1,0.2-26,0.2-26L160.8,288.9z"/>
								<polygon class="st6" points="203.9,406.6 221.2,406.3 222,397.2 203.1,398 								"/>
							</g>
							<path class="st6" d="M173.5,212.5c-5.8-1.1-32.1-0.8-32.1-0.8c-5.4-0.1-10.1,3.9-10.7,9.3c-0.9,8.1,4.2,26.2,4.4,35.5
								c0.2,11.4-1.9,15.9-2.2,31.2l50.2,2.3c0-30.7-1.3-56.2-2.6-68.4C180.1,217.3,179.3,213.6,173.5,212.5z"/>
							<path class="st14" d="M173.5,212.5c-5.8-1.1-32.1-0.8-32.1-0.8c-5.4-0.1-10.1,3.9-10.7,9.3c-0.9,8.1,4.2,26.2,4.4,35.5
								c0.2,11.4-1.9,15.9-2.2,31.2l50.2,2.3c0-30.7-1.3-56.2-2.6-68.4C180.1,217.3,179.3,213.6,173.5,212.5z"/>
							<g>
								<path class="st13" d="M180.4,222.2c1.6,5.4,3.1,10.9,4.8,16.4c1.6,5.4,3.3,10.9,5.2,16c0.5,1.3,1,2.5,1.4,3.8l0.8,1.8
									l0.1,0.2l0,0.1l0,0.1l0,0l0-0.1c-0.2-0.4-0.5-0.7-0.6-0.8c-0.3-0.3-0.5-0.4-0.5-0.4c0,0,0.3,0.3,0.8,0.5
									c0.4,0.2,1,0.4,1.5,0.6c1.1,0.4,2.4,0.7,3.7,1.1c5.2,1.3,10.9,2.4,16.5,3.5l-0.2,6.9c-3,0.4-6,0.6-9,0.7
									c-3,0.1-6,0.1-9.1-0.2c-1.6-0.1-3.1-0.3-4.8-0.6c-0.8-0.2-1.7-0.4-2.6-0.6c-0.9-0.3-1.9-0.6-3.2-1.3
									c-0.6-0.4-1.4-0.8-2.2-1.7c-0.4-0.4-0.9-1-1.3-1.7l-0.3-0.6l-1.1-2.1c-0.7-1.4-1.4-2.8-2-4.2c-1.2-2.8-2.3-5.6-3.4-8.4
									c-1-2.8-2-5.6-2.9-8.4c-1.8-5.6-3.5-11.2-5-17L180.4,222.2z"/>
								<g>
									<path class="st6" d="M166.1,216.6c6.9-7,15.6-3.2,19.4,9.5c3.8,12.6,3.1,13.6,3.1,13.6l-18.4,7.1
										C165.8,234.7,159.1,223.7,166.1,216.6z"/>
								</g>
								<path class="st13" d="M218.9,262.3l-1.5-0.1c-4.2,0-4.9,1.1-7.5,3.5l-1,5.3c6.7,3.5,10.4-0.3,10.4-0.3h6.3l-2.2-5.1
									C222.6,263.7,220.9,262.4,218.9,262.3z"/>
							</g>
						</g>
					</g>
				</g>
			</g>
		</g>
		<g>
			<path class="st6" d="M135.1,327.1h64.1c1.4,0,2.5-1.1,2.5-2.5v-4.1c0-1.4-1.1-2.5-2.5-2.5h-64.1c-1.4,0-2.5,1.1-2.5,2.5v4.1
				C132.6,325.9,133.7,327.1,135.1,327.1z"/>
			<g>
				<polygon class="st6" points="135.4,429.7 132.6,429.7 135.8,327.1 139.7,327.1 				"/>
				<polygon class="st15" points="135.4,429.7 132.6,429.7 135.8,327.1 139.7,327.1 				"/>
			</g>
			<g>
				<polygon class="st6" points="161.5,429.7 164.4,429.7 161.1,327.1 157.2,327.1 				"/>
				<polygon class="st15" points="161.5,429.7 164.4,429.7 161.1,327.1 157.2,327.1 				"/>
			</g>
			<g>
				<polygon class="st6" points="172.8,429.7 169.9,429.7 173.2,327.1 177.1,327.1 				"/>
				<polygon class="st15" points="172.8,429.7 169.9,429.7 173.2,327.1 177.1,327.1 				"/>
			</g>
			<g>
				<polygon class="st6" points="198.9,429.7 201.7,429.7 198.5,327.1 194.5,327.1 				"/>
				<polygon class="st15" points="198.9,429.7 201.7,429.7 198.5,327.1 194.5,327.1 				"/>
			</g>
			<g class="st16">
				<polygon class="st6" points="135.8,327.1 139.7,327.1 139.6,331.4 135.7,331.4 				"/>
				<polygon class="st6" points="161.2,331.4 157.3,331.4 157.2,327.1 161.1,327.1 				"/>
				<polygon class="st6" points="177.1,327.1 176.9,331.4 173.1,331.4 173.2,327.1 				"/>
				<polygon class="st6" points="198.6,331.4 194.7,331.4 194.5,327.1 198.5,327.1 				"/>
			</g>
		</g>
	</g>
</g>
<g id="Telecommuting">
	<g>
		<g>
			<path class="st6" d="M389,201.6H228.8c-5.3,0-9.4-4.3-9.1-9.7l6.1-101.4c0.3-5.3,4.9-9.7,10.2-9.7h160.1c5.3,0,9.4,4.3,9.1,9.7
				l-6.1,101.4C398.9,197.3,394.3,201.6,389,201.6z"/>
			<polygon class="st6" points="250.3,180.2 265,230.7 308.9,180.2 			"/>
			<path class="st9" d="M381.2,160.8h-89.8c-3,0-5.3-2.4-5.1-5.4l3.4-56.8c0.2-3,2.8-5.4,5.7-5.4h89.8c3,0,5.3,2.4,5.1,5.4
				l-3.4,56.8C386.7,158.4,384.2,160.8,381.2,160.8z"/>
			<path class="st9" d="M333.2,185.3h-89.8c-3,0-5.3-2.4-5.1-5.4l3.4-56.8c0.2-3,2.8-5.4,5.7-5.4h89.8c3,0,5.3,2.4,5.1,5.4
				l-3.4,56.8C338.7,182.9,336.1,185.3,333.2,185.3z"/>
			<g class="st17">
				<path class="st4" d="M242.2,89.7c-0.1,1.6-1.4,3-2.9,3c-1.5,0-2.6-1.3-2.4-3c0.1-1.6,1.4-3,2.9-3S242.3,88.1,242.2,89.7z"/>
				<path class="st4" d="M252,89.7c-0.1,1.6-1.4,3-2.9,3c-1.5,0-2.6-1.3-2.4-3c0.1-1.6,1.4-3,2.9-3C251.1,86.8,252.2,88.1,252,89.7z
					"/>
				<path class="st4" d="M261.9,89.7c-0.1,1.6-1.4,3-2.9,3c-1.5,0-2.6-1.3-2.4-3c0.1-1.6,1.4-3,2.9-3
					C260.9,86.8,262,88.1,261.9,89.7z"/>
			</g>
			<path class="st7" d="M387.8,200.7H227.6c-2.6,0-5.1-1-6.8-2.9c-1.8-1.9-2.7-4.4-2.5-7l6.1-101.4c0.3-5.5,5-9.9,10.5-9.9H395
				c2.6,0,5.1,1,6.8,2.9c1.8,1.9,2.7,4.4,2.5,7l-6.1,101.4C397.9,196.2,393.2,200.7,387.8,200.7z M234.9,80c-5.2,0-9.7,4.2-10,9.4
				l-6.1,101.4c-0.2,2.5,0.7,4.9,2.4,6.6c1.7,1.8,4,2.8,6.5,2.8h160.1c5.2,0,9.7-4.2,10-9.4l6.1-101.4c0.2-2.5-0.7-4.9-2.4-6.6
				c-1.7-1.8-4-2.8-6.5-2.8H234.9z"/>
		</g>
		<g>
			<path class="st8" d="M301.1,141.4c-0.7,1.4-1.3,2.7-2,4c-0.7,1.3-1.4,2.5-2.1,3.8c-1.5,2.5-3,4.9-4.6,7.3
				c-0.8,1.2-1.7,2.4-2.5,3.6c-0.9,1.2-1.8,2.3-2.7,3.5c-1.8,2.3-3.9,4.5-6.1,6.6c-0.6,0.5-1.2,1-1.7,1.6c-0.6,0.5-1.2,1-1.8,1.5
				l-1.9,1.4c0,0-0.3,0.3-0.6,0.4c-0.3,0.2-0.5,0.3-0.8,0.4c-0.6,0.3-1.1,0.5-1.7,0.6c-1.2,0.3-2.4,0.3-3.6,0
				c-1.2-0.3-2.3-0.8-3.2-1.5c-0.5-0.4-0.9-0.8-1.3-1.3l-0.3-0.4l-0.1-0.2l0-0.1l-0.2-0.3l-0.7-1.3c-0.2-0.4-0.4-0.8-0.5-1.2
				c-0.7-1.6-1.1-3.1-1.5-4.7c-0.7-3-1.2-5.9-1.5-8.8c-0.3-2.9-0.4-5.7-0.4-8.7c0-1.9,1.6-3.4,3.5-3.4c1.6,0,2.8,1.1,3.3,2.5l0,0.1
				c1.5,5.1,3,10.4,4.9,15c0.5,1.1,1,2.2,1.5,3c0.1,0.2,0.3,0.4,0.4,0.6c0.1,0.2,0.3,0.3,0.4,0.5l0.1,0.1l0,0l0-0.1
				c0-0.1-0.1-0.1-0.1-0.2c-0.2-0.2-0.3-0.4-0.5-0.6c-0.4-0.3-0.9-0.6-1.4-0.7c-0.5-0.1-1-0.1-1.5,0c-0.3,0-0.5,0.1-0.8,0.2
				c-0.1,0.1-0.2,0.1-0.4,0.2c-0.1,0.1-0.3,0.2-0.2,0.1l1.3-1.2c0.4-0.4,0.8-0.8,1.2-1.3c0.4-0.4,0.8-0.9,1.2-1.3
				c3.2-3.8,6.1-8.1,8.9-12.5c1.4-2.2,2.7-4.5,4-6.8l1.9-3.5l1.8-3.4l0.1-0.2c1.8-3.4,6-4.6,9.3-2.8
				C301.3,134.1,302.6,138.1,301.1,141.4z"/>
			<path class="st18" d="M259.9,147.4l-4.9-2.8l5.2-5.4c0,0,2.2,1.6,4.2,3.8c1.3,1.4,0.9,3.7-0.8,4.5l0,0
				C262.5,148.2,261.1,148.1,259.9,147.4z"/>
			<path class="st18" d="M253.9,138.9l2.6-1.9c0.7-0.5,1.7-0.4,2.2,0.3l1.5,1.9l-5.2,5.4l-1.6-3.8
				C253,140.2,253.3,139.3,253.9,138.9z"/>
			<path class="st4" d="M290.6,136.9c0.8-2.7,3-4.7,5.8-5.2c2.1-0.4,3.1-0.7,5.9-0.9c4.7-0.3,12.5,0,17.9,0.3
				c3.1,0.2,6.3,0.6,8.8,1.1l0.1,0c2.8,0.5,4.7,3.1,4.2,5.9c-1.2,7.2-4.9,19.8-5.3,31.6c-0.5,15.6-0.3,24.5-0.6,28.3l-40-0.8
				C284.6,159.3,288,145.5,290.6,136.9z"/>
			<path class="st8" d="M330.1,131.7L330.1,131.7c-2.8-0.5-6.1-0.9-9.4-1.1c-0.6,0-1.2-0.1-1.8-0.1c-1.8,7.2-12.2,19.4-15.3,37.9
				c-1.2-15.4-2.2-31.6-0.4-37.9c-1.1,0-6.3,0.3-8.5,0.7c-2.9,0.5-5.3,2.8-6.3,5.9c-2.5,7.2-7.2,23.5-4.3,63.3h44.5
				c0.3-4-0.7-12.4,0.9-25.3c1.6-12.5,3.8-29.6,5.1-37.2C335.1,135,333.1,132.2,330.1,131.7z"/>
			<path class="st10" d="M302.6,198.3c-0.1,0-0.3-0.1-0.3-0.2c-0.9-11.2,0.8-27.4,0.8-27.6c0-0.1,0.2-0.3,0.3-0.2
				c0.1,0,0.3,0.1,0.2,0.3c0,0.2-1.8,16.3-0.8,27.5C302.9,198.2,302.8,198.3,302.6,198.3C302.6,198.3,302.6,198.3,302.6,198.3z"/>
			<path class="st16" d="M328.6,147.5c-1.7,7.5-0.8,17.8,1,27.3c1.3-10.6,3.1-24.4,4.4-32.9C332.1,140.7,329.9,141.5,328.6,147.5z"
				/>
			<path class="st18" d="M303.1,130.8c5.2-1.1,6.1-4.3,5.7-7.9c-0.1-0.9-0.2-1.8-0.4-2.6l6.5-5.3l4.8-3.9
				c-1.3,5.7-2.7,16.2,1.2,20.1c0,0-3.2,5.3-12.1,4.6C301.2,135.3,303.1,130.8,303.1,130.8z"/>
			<polygon class="st3" points="311,134.5 309.5,135.9 314.1,137.6 313.5,135.9 			"/>
			<path class="st2" d="M314.5,140.1c0,0-1.8-4.6-3.5-5.5c6-1.6,8.9-4.9,8.9-4.9l2.7,1.1C322.6,130.7,323.5,135.9,314.5,140.1z"/>
			<polygon class="st3" points="308.4,134.2 309.5,135.9 304.7,136.3 305.7,134.8 			"/>
			<path class="st2" d="M302.3,138.8c0,0,2.6-2.9,6.2-4.6c-2.6-0.8-2.8-4.4-2.8-4.4l-2.5,0.5C303.1,130.3,298.4,134.8,302.3,138.8z"
				/>
			<path class="st11" d="M308.4,120.3c0.2,0.9,0.4,1.8,0.4,2.6c2.4-0.4,5.7-3,6-5.5c0.1-0.9,0.1-1.8,0.1-2.5L308.4,120.3z"/>
			<path class="st8" d="M300.5,94.1c-2.3,2.9-2.1,13.2,2.8,13.3C308.2,107.5,304.7,88.9,300.5,94.1z"/>
			<path class="st18" d="M321.6,101.6c-0.5,7.8-0.4,12.4-4.3,16.4c-5.9,6.1-15.5,2.6-17.4-5.2c-1.7-7-0.6-18.6,7.1-21.8
				C314.5,88,322.1,93.8,321.6,101.6z"/>
			<path class="st8" d="M317.8,95.1c-4.9,4.9,1.5,8.4-1,11.1c4.6,2.4,2.9,4.2,2.9,4.2s-0.8,1.9,0,4.1c5.2-1.3,14.9-18.7,4.3-21.3
				C317.7,96,317.8,95.1,317.8,95.1z"/>
			<path class="st8" d="M319.8,98.6c-4.7,0.7-10.5-1.5-14.1-3.4s-4.2,1.7-2.8,2.8c-2.3,0.1-5.3-1.8-4.5-5.9
				c0.7-3.8,5.6-7.3,12.6-4.1c4.9,2.2,11-0.7,13.4,1.9C326.7,92.5,322.9,98.1,319.8,98.6z"/>
			<path class="st8" d="M323,93.5c3.1-0.4,3.3-2.4,2.4-5.8c3.4,4.8,2,6.3,0,7.4C323.2,94.4,323,93.5,323,93.5z"/>
			<path class="st18" d="M323.7,107.6c-0.8,1.7-2.1,2.9-3.4,3.5c-1.9,0.9-2.9-0.9-2.4-3c0.5-1.9,2-4.6,4-4.6
				C323.9,103.5,324.6,105.7,323.7,107.6z"/>
			<path class="st8" d="M309.5,104c0,0.6-0.3,1.2-0.8,1.2c-0.4,0-0.7-0.5-0.7-1.1c0-0.6,0.3-1.2,0.8-1.2
				C309.1,102.8,309.5,103.4,309.5,104z"/>
			<path class="st8" d="M302.3,104.1c0,0.6-0.3,1.2-0.8,1.2c-0.4,0-0.7-0.5-0.7-1.1c0-0.6,0.3-1.2,0.8-1.2
				C302,102.9,302.3,103.4,302.3,104.1z"/>
			<path class="st19" d="M305,104.3c0,0-1.4,3.7-3,5.5c1.1,1,3,0.5,3,0.5L305,104.3z"/>
			<path class="st8" d="M307.5,112c2.5-0.3,3.6-2,3.7-2.1c0.1-0.1,0-0.2-0.1-0.3c-0.1-0.1-0.2,0-0.3,0.1c0,0-1.3,2-4.1,2
				c-0.1,0-0.2,0.1-0.2,0.2c0,0.1,0.1,0.2,0.2,0.2C307,112,307.3,112,307.5,112z"/>
			<path class="st8" d="M312.9,101.5c0.1,0,0.1,0,0.2-0.1c0.2-0.1,0.2-0.4,0.1-0.5c-1.2-1.6-3-1.5-3-1.5c-0.2,0-0.4,0.2-0.3,0.4
				c0,0.2,0.2,0.4,0.4,0.3c0.1,0,1.4-0.1,2.4,1.2C312.7,101.4,312.8,101.5,312.9,101.5z"/>
			<path class="st8" d="M299.4,101.8c0.1,0,0.2-0.1,0.3-0.2c0.7-1.5,2.1-1.7,2.1-1.7c0.2,0,0.3-0.2,0.3-0.4c0-0.2-0.2-0.3-0.4-0.3
				c0,0,0,0,0,0c-0.1,0-1.8,0.3-2.7,2.1c-0.1,0.2,0,0.4,0.2,0.5C299.3,101.8,299.3,101.8,299.4,101.8z"/>
			<path class="st8" d="M335.8,136.2c1.2,2.6,2.2,5,3.2,7.5c1,2.5,1.9,5,2.8,7.6c1.7,5.1,3.2,10.4,4.2,15.9c0.2,1.4,0.5,2.8,0.7,4.2
				l0.1,1.1l0.1,0.5l0,0.3l0,0.4c0.1,1,0.1,2,0,3.1c-0.2,2.1-1,4.5-2.3,6.3c-1.3,1.9-2.9,3.3-4.5,4.2c-1.6,1-3.2,1.6-4.8,2
				c-1.6,0.4-3.1,0.7-4.6,0.8c-1.5,0.1-3,0.2-4.4,0.1c-1.5-0.1-2.8-0.2-4.4-0.5c-1.9-0.3-3.1-2.1-2.8-4c0.2-1.4,1.3-2.5,2.7-2.8
				l0.4-0.1c1-0.2,2.3-0.5,3.4-0.8c1.1-0.3,2.3-0.7,3.3-1c2.1-0.8,4-1.8,5-2.8c0.5-0.5,0.8-1,0.9-1.3c0.1-0.3,0.1-0.6,0-1.1
				c0-0.2-0.1-0.5-0.2-0.8l-0.4-1.6c-0.2-1.1-0.6-2.3-0.9-3.5c-0.6-2.3-1.3-4.7-2.1-7.1c-0.8-2.4-1.6-4.7-2.5-7.1
				c-0.9-2.4-1.8-4.7-2.7-7c-0.9-2.3-1.9-4.7-2.8-6.9l0-0.1c-1.5-3.5,0.1-7.6,3.7-9C330.2,131.3,334.2,132.9,335.8,136.2z"/>
			<path class="st18" d="M318.7,185.9l-4.4,2.1l7.6,2.7c0,0,5.1-1.6,2.6-4.4l-1.4-0.4C320.9,185.1,319.9,185.2,318.7,185.9z"/>
			<path class="st18" d="M314.9,193.4l3.3,0.6c1,0.2,2-0.3,2.5-1.1l1.2-2.2l-7.6-2.7l-1.1,2.1C312.5,191.4,313.3,193.1,314.9,193.4z
				"/>
		</g>
	</g>
</g>
</svg>
