<?xml version="1.0" encoding="utf-8"?>
<!-- Generator: Adobe Illustrator 23.1.0, SVG Export Plug-In . SVG Version: 6.00 Build 0)  -->
<svg version="1.1" xmlns="http://www.w3.org/2000/svg" xmlns:xlink="http://www.w3.org/1999/xlink" x="0px" y="0px"
	 viewBox="0 0 500 500" style="enable-background:new 0 0 500 500;" xml:space="preserve">
<style type="text/css">
	.st0{fill:#EBEBEB;}
	.st1{fill:#F0F0F0;}
	.st2{fill:#F5F5F5;}
	.st3{fill:#E6E6E6;}
	.st4{fill:#FAFAFA;}
	.st5{fill:#FFFFFF;}
	.st6{fill:#E0E0E0;}
	.st7{opacity:0.5;fill:#EBEBEB;}
	.st8{fill:#407BFF;}
	.st9{opacity:0.2;fill:#407BFF;}
	.st10{opacity:0.6;fill:#407BFF;}
	.st11{opacity:0.3;}
	.st12{fill:#263238;}
	.st13{fill:#FFC3BD;}
	.st14{opacity:0.2;}
	.st15{fill:#ED847E;}
	.st16{opacity:0.8;fill:#FFFFFF;}
	.st17{opacity:0.3;fill:#407BFF;}
	.st18{opacity:0.2;fill:#FFFFFF;}
	.st19{opacity:0.4;fill:#FFFFFF;}
	.st20{opacity:0.8;fill:#407BFF;}
	.st21{fill:#A02724;}
	.st22{fill:#B55B52;}
	.st23{opacity:0.5;fill:#FFFFFF;}
	.st24{opacity:0.6;fill:#FFFFFF;}
	.st25{opacity:0.7;fill:#FFFFFF;}
</style>
<g id="Background_Complete">
	<g>
		<rect y="398" class="st0" width="500" height="0.3"/>
		<rect x="290.2" y="404.8" class="st0" width="25.5" height="0.3"/>
		<rect x="395.1" y="410.2" class="st0" width="60.3" height="0.3"/>
		<rect x="222.5" y="404.9" class="st0" width="62.3" height="0.3"/>
		<rect x="169" y="412.4" class="st0" width="13" height="0.3"/>
		<rect x="194.7" y="412.4" class="st0" width="59.4" height="0.3"/>
		<rect x="52.5" y="408.2" class="st0" width="38.5" height="0.3"/>
		<path class="st0" d="M237,353.4H43.9c-3.1,0-5.7-2.6-5.7-5.7V76.2c0-3.1,2.6-5.7,5.7-5.7H237c3.1,0,5.7,2.6,5.7,5.7v271.4
			C242.7,350.8,240.2,353.4,237,353.4z M43.9,70.8c-3,0-5.5,2.4-5.5,5.5v271.4c0,3,2.4,5.5,5.5,5.5H237c3,0,5.5-2.4,5.5-5.5V76.2
			c0-3-2.4-5.5-5.5-5.5H43.9z"/>
		<path class="st0" d="M453.3,353.4H260.2c-3.1,0-5.7-2.6-5.7-5.7V76.2c0-3.1,2.6-5.7,5.7-5.7h193.1c3.1,0,5.7,2.6,5.7,5.7v271.4
			C459,350.8,456.5,353.4,453.3,353.4z M260.2,70.8c-3,0-5.5,2.4-5.5,5.5v271.4c0,3,2.4,5.5,5.5,5.5h193.1c3,0,5.5-2.4,5.5-5.5V76.2
			c0-3-2.4-5.5-5.5-5.5H260.2z"/>
	</g>
	<g>
		<g>
			<g>
				<path class="st1" d="M120.6,272.1c0,0-0.4,13-17.6,13c-17.2,0-17.6-13-17.6-13H120.6z"/>
			</g>
			<g>
				<path class="st1" d="M162.3,272.1c0,0-0.4,13-17.6,13c-17.2,0-17.6-13-17.6-13H162.3z"/>
			</g>
			<g>
				<g>
					<rect x="71.3" y="293.7" class="st1" width="39.4" height="95.4"/>
					<rect x="78.9" y="389.1" class="st1" width="127.5" height="8.9"/>
					
						<rect x="110.8" y="293.7" transform="matrix(-1 -1.224647e-16 1.224647e-16 -1 324.7596 682.8502)" class="st2" width="103.2" height="95.4"/>
					
						<rect x="126.3" y="305.3" transform="matrix(-1 -1.224647e-16 1.224647e-16 -1 324.7596 640.0223)" class="st1" width="72.2" height="29.4"/>
					
						<rect x="126.3" y="343" transform="matrix(-1 -1.224647e-16 1.224647e-16 -1 324.7596 715.4461)" class="st1" width="72.2" height="29.4"/>
				</g>
				<rect x="110.8" y="285.2" class="st1" width="108.5" height="8.6"/>
				
					<rect x="65.8" y="285.2" transform="matrix(-1 -1.224647e-16 1.224647e-16 -1 176.6014 578.9093)" class="st3" width="44.9" height="8.6"/>
			</g>
		</g>
		<g>
			<g>
				<rect x="191.1" y="91.5" class="st4" width="201" height="144.3"/>
				<polygon class="st5" points="202.6,235.8 253.7,91.5 292.1,91.5 240.9,235.8 				"/>
				<polygon class="st5" points="305.7,235.8 356.8,91.5 370.8,91.5 319.7,235.8 				"/>
				<g>
					<path class="st6" d="M401.7,86.6H181.6c-0.5,0-0.9,0.4-0.9,0.9l0,0c0,0.5,0.4,0.9,0.9,0.9h220.1c0.5,0,0.9-0.4,0.9-0.9l0,0
						C402.6,87,402.2,86.6,401.7,86.6z"/>
					
						<rect x="290.4" y="91.2" transform="matrix(-1 -1.224647e-16 1.224647e-16 -1 583.2503 327.3378)" class="st1" width="2.4" height="144.9"/>
					
						<rect x="292.8" y="91.2" transform="matrix(-1 -1.224647e-16 1.224647e-16 -1 586.822 327.3378)" class="st6" width="1.2" height="144.9"/>
					
						<rect x="290.4" y="61.8" transform="matrix(6.123234e-17 -1 1 6.123234e-17 127.9563 455.294)" class="st1" width="2.4" height="203.7"/>
					<path class="st1" d="M393.5,234.8L393.5,234.8V92.5v-2.4h-2.4h-199h-2.4v2.4v142.3h0v2.4h0l0,0h2.4l0,0h199l0,0h2.4l0,0l0,0
						V234.8z M192.1,234.8V92.5h199v142.3H192.1z"/>
					
						<rect x="393.5" y="90.1" transform="matrix(-1 -1.224647e-16 1.224647e-16 -1 788.172 327.3378)" class="st6" width="1.2" height="147"/>
				</g>
			</g>
			<g>
				<polygon class="st7" points="363.9,84.4 363.9,253.8 407,253.8 399.1,84.4 				"/>
				<polygon class="st7" points="220.5,84.4 220.5,253.8 177.5,253.8 185.4,84.4 				"/>
			</g>
		</g>
		<g>
			<g>
				<rect x="247.9" y="276.2" class="st0" width="211.2" height="34.8"/>
				<rect x="378.8" y="278.3" class="st2" width="77.7" height="30.7"/>
				<rect x="298.4" y="278.3" class="st2" width="77.7" height="30.7"/>
				<polygon class="st2" points="290.7,398 286.1,398 296,311.1 300.7,311.1 				"/>
				<polygon class="st2" points="249.7,398 245,398 255,311.1 259.6,311.1 				"/>
				<polygon class="st2" points="416.2,398 420.9,398 410.9,311.1 406.2,311.1 				"/>
				<polygon class="st2" points="457.3,398 461.9,398 452,311.1 447.3,311.1 				"/>
			</g>
			<g>
				<polygon class="st6" points="349.8,237.9 333.4,237.9 326.6,276.2 343,276.2 				"/>
				<polygon class="st3" points="386.1,204.6 294.8,204.6 297.5,260.1 388.9,260.1 				"/>
				<polygon class="st4" points="384,205.9 297,205.9 299.6,258.8 386.6,258.8 				"/>
			</g>
		</g>
		<g>
			<path class="st6" d="M409.1,270.1h1.8c0.4,0,0.7,0.3,0.7,0.7v0c0,0.4-0.3,0.7-0.7,0.7h-1.8c-0.4,0-0.7-0.3-0.7-0.7v0
				C408.4,270.4,408.7,270.1,409.1,270.1z"/>
			<path class="st3" d="M443.9,207.3l-19.8,19.8c-5.5-5.5-5.5-14.3,0-19.8C429.6,201.9,438.4,201.9,443.9,207.3z"/>
			<path class="st3" d="M416.4,209.6l7.7,7.7l10-10l-7.7-7.7c-2.8-2.8-7.2-2.8-10,0l0,0C413.6,202.4,413.6,206.9,416.4,209.6z"/>
			
				<rect x="398.5" y="192.1" transform="matrix(-0.7071 -0.7071 0.7071 -0.7071 529.4193 649.9949)" class="st3" width="1.7" height="46.6"/>
			
				<rect x="393.8" y="228.7" transform="matrix(-0.8601 0.5101 -0.5101 -0.8601 862.5323 267.5129)" class="st3" width="1.7" height="46.6"/>
			<circle class="st3" cx="416.4" cy="199.6" r="2.9"/>
			<circle class="st3" cx="382.8" cy="231.9" r="1.8"/>
			<polygon class="st3" points="399.3,270.9 412.8,270.9 413.9,276.2 398.2,276.2 			"/>
		</g>
	</g>
</g>
<g id="Shadow">
	<ellipse id="_x3C_Path_x3E__1_" class="st2" cx="250" cy="431.8" rx="193.9" ry="11.3"/>
</g>
<g id="Board">
	<g>
		<g>
			<path class="st8" d="M343.3,267.4H104.8c-6.6,0-12.1-5.4-12.3-12l-3.1-135.1c-0.2-6.6,5.1-12,11.7-12h238.6
				c6.6,0,12.1,5.4,12.3,12l3.1,135.1C355.2,262,349.9,267.4,343.3,267.4z"/>
			<path class="st8" d="M343.3,267.9H104.8c-6.9,0-12.6-5.6-12.8-12.5l-3.1-135.1c-0.1-3.3,1.2-6.5,3.5-8.8c2.3-2.4,5.4-3.7,8.8-3.7
				h238.6c6.9,0,12.6,5.6,12.8,12.5l3.1,135.1c0.1,3.3-1.2,6.5-3.5,8.8C349.7,266.6,346.6,267.9,343.3,267.9z M101.1,108.7
				c-3.1,0-5.9,1.2-8,3.4c-2.1,2.2-3.3,5.1-3.2,8.1L93,255.4c0.1,6.3,5.4,11.5,11.8,11.5h238.6c3.1,0,5.9-1.2,8-3.4
				c2.1-2.2,3.3-5.1,3.2-8.1l-3.1-135.1c-0.1-6.3-5.4-11.5-11.8-11.5H101.1z"/>
		</g>
		<g>
			<path class="st2" d="M345.3,267.4H106.8c-6.6,0-12.1-5.4-12.3-12l-3.1-135.1c-0.2-6.6,5.1-12,11.7-12h238.6
				c6.6,0,12.1,5.4,12.3,12l3.1,135.1C357.2,262,351.9,267.4,345.3,267.4z"/>
			<path class="st8" d="M345.3,267.9H106.8c-6.9,0-12.6-5.6-12.8-12.5l-3.1-135.1c-0.1-3.3,1.2-6.5,3.5-8.8c2.3-2.4,5.4-3.7,8.8-3.7
				h238.6c6.9,0,12.6,5.6,12.8,12.5l3.1,135.1c0.1,3.3-1.2,6.5-3.5,8.8C351.7,266.6,348.6,267.9,345.3,267.9z M103.1,108.7
				c-3.1,0-5.9,1.2-8,3.4c-2.1,2.2-3.3,5.1-3.2,8.1L95,255.4c0.1,6.3,5.4,11.5,11.8,11.5h238.6c3.1,0,5.9-1.2,8-3.4
				c2.1-2.2,3.3-5.1,3.2-8.1l-3.1-135.1c-0.1-6.3-5.4-11.5-11.8-11.5H103.1z"/>
		</g>
		<g>
			<path class="st6" d="M138.2,146.1l-16.1-15c7.6-8.2,21.2-8.2,30,0c2.8,2.6,5,5.9,6.2,9.5L138.2,146.1z"/>
			<path class="st9" d="M134.9,146.4l-21,1.9c-0.5-3.1-0.3-6.2,0.5-9.1c0.8-2.9,2.3-5.6,4.4-7.8L134.9,146.4z"/>
			<path class="st5" d="M138.2,147.6l-11.6,12.6c-1.6-1.5-2.9-3.2-3.9-5.1c-1-1.9-1.7-3.9-2-6L138.2,147.6z"/>
			<path class="st10" d="M139.4,149.3l20.1-5.5c2.5,7.3,1,15.2-4,20.5c-7.6,8.2-21.2,8.2-30,0L139.4,149.3z"/>
		</g>
		<g>
			<path class="st9" d="M193.5,146.1l-16.1-15c7.6-8.2,21.2-8.2,30,0c2.8,2.6,5,5.9,6.2,9.5L193.5,146.1z"/>
			<path class="st6" d="M190.1,146.4l-21,1.9c-0.5-3.1-0.3-6.2,0.5-9.1c0.8-2.9,2.3-5.6,4.4-7.8L190.1,146.4z"/>
			<path class="st10" d="M193.5,147.6l-11.6,12.6c-1.6-1.5-2.9-3.2-3.9-5.1c-1-1.9-1.7-3.9-2-6L193.5,147.6z"/>
			<path class="st5" d="M194.6,149.3l20.1-5.5c2.5,7.3,1,15.2-4,20.5c-7.6,8.2-21.2,8.2-30,0L194.6,149.3z"/>
		</g>
		<g class="st11">
			<path class="st8" d="M106.9,247.9C106.9,247.9,106.9,247.9,106.9,247.9c-0.3,0-0.5-0.3-0.5-0.5c1.1-11.8,8.4-23.1,19.5-30.2
				c9.6-6.2,21.8-9.3,35.4-9c3.5,0.1,7,0.4,10.4,0.6c5.1,0.4,10.5,0.9,15.7,0.5c5.9-0.3,16.6-2.1,22.8-10.2c2.2-2.9,3.6-6.3,5-9.7
				c1.7-4,3.4-8.2,6.4-11.4c4.1-4.3,10.4-6.7,18.6-7.3c4.3-0.3,8.6-0.1,12.9,0.1c3.7,0.2,7.5,0.3,11.3,0.2c6.6-0.3,15.8-1.9,21.7-8
				c2.7-2.8,4.6-6.4,6.5-9.8c1-1.8,2-3.7,3.1-5.4c3.8-6,9.1-10.9,15.3-14.3c0.2-0.1,0.5,0,0.7,0.2c0.1,0.2,0,0.5-0.2,0.7
				c-6.1,3.3-11.3,8.1-15,14c-1.1,1.7-2.1,3.6-3,5.4c-1.9,3.5-3.8,7.2-6.6,10.1c-4.9,5-12.7,7.9-22.4,8.3c-3.8,0.2-7.6,0-11.3-0.2
				c-4.2-0.2-8.5-0.4-12.7-0.1c-8,0.5-14.1,2.9-18,6.9c-2.9,3.1-4.6,7.2-6.2,11.1c-1.4,3.4-2.9,6.9-5.1,9.9
				c-6.4,8.4-17.5,10.3-23.5,10.6c-5.3,0.3-10.6-0.1-15.8-0.5c-3.4-0.3-6.9-0.6-10.4-0.6c-13.3-0.3-25.4,2.8-34.8,8.8
				c-10.8,7-18,18-19.1,29.4C107.4,247.8,107.2,247.9,106.9,247.9z"/>
			<path class="st8" d="M313.1,138.5c0,0-0.1,0-0.1,0c-0.3-0.1-0.4-0.3-0.4-0.6l1.1-4.2c0.1-0.4,0.3-0.9,0.5-1.4c0-0.1,0-0.1,0-0.1
				c-3.2,0.1-6.3,0.5-9.4,1.2c-0.3,0.1-0.5-0.1-0.6-0.4c-0.1-0.3,0.1-0.5,0.4-0.6c3.1-0.7,6.3-1.1,9.5-1.2c0.3,0,0.7,0.2,0.9,0.5
				c0.2,0.3,0.3,0.7,0.1,1.1c-0.2,0.5-0.4,1.1-0.4,1.3l-1.1,4.2C313.5,138.4,313.3,138.5,313.1,138.5z"/>
		</g>
	</g>
</g>
<g id="Character_2">
	<g>
		<path class="st12" d="M354.4,127.5c0,0-14-6.1-18.1,11.2c-3.3,13.9-10.3,19.2-10.3,19.2s24.8,9.6,38.6-1.6L354.4,127.5z"/>
		<path class="st13" d="M338.2,185.7c-0.5,1.4-1,2.6-1.5,3.8c-0.5,1.2-1.1,2.4-1.7,3.6c-1.2,2.4-2.4,4.7-3.8,7
			c-2.7,4.6-5.7,9-9.3,13.1l-0.7,0.8c-0.2,0.3-0.4,0.4-0.9,0.9c-0.8,0.9-2.1,1.6-3.3,2c-1.3,0.4-2.5,0.4-3.5,0.2
			c-1-0.2-1.9-0.5-2.7-0.8c-1.6-0.7-2.9-1.5-4-2.4c-1.2-0.9-2.2-1.8-3.2-2.8c-3.9-3.9-7.1-8-9.9-12.5l3.5-2.7
			c3.4,3.6,7.1,7.1,10.9,10c1.9,1.4,3.9,2.7,5.5,3.2c0.8,0.3,1.4,0.2,1.2,0.1c0,0-0.1,0-0.1,0c-0.1,0.1,0.2-0.3,0.4-0.5l0.5-0.7
			c2.9-3.8,5.5-8,7.9-12.3c1.2-2.2,2.3-4.4,3.3-6.6c0.5-1.1,1.1-2.2,1.5-3.3c0.5-1.1,1-2.3,1.4-3.3L338.2,185.7z"/>
		<path class="st12" d="M335.3,173.7c-3.7-0.1-10.3,13.5-10.3,13.5l9.7,11.8c0,0,11.3-14.2,9.8-18.8
			C342.9,175.3,340.8,173.9,335.3,173.7z"/>
		<polygon class="st14" points="334.7,177 329.6,192.8 334.2,198.4 		"/>
		<path class="st13" d="M296.4,200.4l-10.4-2.6l7-5.5c0,0,5.2,2.2,5.5,5.8L296.4,200.4z"/>
		<polygon class="st13" points="281.2,193.3 286.5,189.3 293,192.2 285.9,197.7 		"/>
		<polygon class="st13" points="361.7,417.8 352.9,417.8 353.4,397.5 362.2,397.5 		"/>
		<path class="st12" d="M352.1,416.8l9.9,0c0.4,0,0.7,0.2,0.7,0.6l1.1,7.8c0.1,0.8-0.6,1.6-1.4,1.6c-3.4-0.1-5.1-0.3-9.4-0.3
			c-2.7,0-10.3,0.3-14,0.3c-3.6,0-3.9-3.6-2.3-4c6.9-1.5,11.7-3.5,14.1-5.5C351,417,351.6,416.8,352.1,416.8z"/>
		<g class="st14">
			<polygon points="353.4,397.5 353.2,408 361.9,408 362.2,397.5 			"/>
		</g>
		<path class="st12" d="M331.8,178.1c-0.2,5.6,0.8,18.5,6.6,48.7l35.7-1.1c-1-14.5-1.3-23.4,4.7-53.4c0,0-7.5-1.4-15.2-1.5
			c-6-0.1-10.9-0.2-16.2,0.5c-4.1,0.5-8.6,1.4-11.5,2C333.6,173.7,331.9,175.7,331.8,178.1z"/>
		<path class="st13" d="M361.4,152.6c-0.9,5.2-1.6,14.8,2.1,18.2c0,0-3.5,6.5-12.4,8.8c-8.2-4.2-3.8-8.3-3.8-8.3
			c5.8-1.6,5.5-5.9,4.4-9.9L361.4,152.6z"/>
		<g>
			<polygon class="st6" points="351.2,179.6 352.3,177.5 358,178.8 			"/>
			<path class="st5" d="M352.3,177.5c1.8-0.8,10.3-6.4,10.7-8.1c0.7,0.7,4.3,0.9,4.3,0.9s-2.1,9.9-6.3,17.1
				C358.1,181,355.3,179.5,352.3,177.5z"/>
			<polygon class="st6" points="351.2,179.6 350.8,177.5 347.3,177.7 			"/>
			<path class="st5" d="M350.8,177.5c-2.8-1.9-2.1-5.8-1.9-7.5c-0.7,0.7-4.3,0.9-4.3,0.9s-5.1,9.3-0.9,16.5
				C345.7,182.3,347.7,179.5,350.8,177.5z"/>
		</g>
		<path class="st14" d="M357.5,156.2l-5.7,5.2c0.3,1,0.5,1.9,0.6,2.9c2.2-0.4,5.2-2.9,5.4-5.2C357.8,157.8,357.7,156.7,357.5,156.2z
			"/>
		<path class="st13" d="M364.3,140.6c-0.1,8.7,0,12.4-4.1,17.1c-6.3,7-17,5-19.5-3.6c-2.2-7.7-1.7-20.7,6.6-24.5
			C355.6,125.7,364.4,131.9,364.3,140.6z"/>
		<path class="st5" d="M363.6,144.8C363.6,144.8,363.6,144.8,363.6,144.8l-11-0.5c-0.1,0-0.2-0.1-0.2-0.3c0-0.1,0.1-0.2,0.3-0.2
			l11,0.5c0.1,0,0.2,0.1,0.2,0.3C363.8,144.7,363.7,144.8,363.6,144.8z"/>
		<path class="st12" d="M338.4,226.8c0,0,4.5,65.2,7,91.9c2.6,27.7,6,87.2,6,87.2h11.9c0,0,2.5-60.5,1.5-87.8
			c-1-29.8-0.4-92.1-0.4-92.1L338.4,226.8z"/>
		<polygon class="st8" points="364.4,406.3 350.4,406.3 349.4,401.9 365,401.4 		"/>
		<path class="st14" d="M364.4,249.3c-1.4-1.6-3-0.8-4.8,3.8c-5.9,15.6,0.4,40.4,5,54.7C364.3,290,364.3,266.5,364.4,249.3z"/>
		<path class="st12" d="M350,144.3c0,0.7-0.3,1.3-0.8,1.3c-0.5,0-0.9-0.5-0.9-1.2c0-0.7,0.3-1.3,0.8-1.3
			C349.5,143.1,350,143.6,350,144.3z"/>
		<path class="st12" d="M342,144.5c0,0.7-0.3,1.3-0.8,1.3c-0.5,0-0.9-0.5-0.9-1.2c0-0.7,0.3-1.3,0.8-1.3
			C341.5,143.3,342,143.8,342,144.5z"/>
		<path class="st12" d="M341.3,143.3l-1.7-0.4C339.6,142.9,340.5,144.2,341.3,143.3z"/>
		<path class="st15" d="M345.1,145.1c0,0-1.1,3.1-2.3,4.6c1,0.8,2.5,0.4,2.5,0.4L345.1,145.1z"/>
		<path class="st12" d="M349.3,152.7c-0.3,0.1-0.7,0.1-1,0.1c-0.1,0-0.2-0.1-0.2-0.2c0-0.1,0.1-0.2,0.2-0.2c3.1-0.2,4.5-2.4,4.5-2.4
			c0.1-0.1,0.2-0.1,0.3-0.1c0.1,0.1,0.1,0.2,0.1,0.3C353,150.3,351.9,152.2,349.3,152.7z"/>
		<path class="st13" d="M367,148.4c-0.5,1.7-1.8,3-3.1,3.7c-2,1-3.4-0.7-3.2-2.8c0.2-1.9,1.4-4.7,3.6-4.8
			C366.4,144.4,367.7,146.5,367,148.4z"/>
		<path class="st12" d="M353.1,141.9c-0.2,0-0.4,0-0.4-0.2c-1-1.7-3.4-1.9-3.4-1.9c-0.2,0-0.4-0.2-0.4-0.5c0-0.2,0.2-0.4,0.5-0.4
			c0.1,0,2.9,0.3,4.1,2.4c0.1,0.2,0,0.5-0.2,0.6C353.2,141.9,353.2,141.9,353.1,141.9z"/>
		<path class="st12" d="M339.4,140.5c-0.1,0-0.3,0-0.4-0.1c-0.2-0.2-0.1-0.4,0-0.6c1.7-1.5,3.6-1.1,3.6-1.1c0.2,0.1,0.4,0.3,0.3,0.5
			c-0.1,0.2-0.3,0.4-0.5,0.3l0,0c-0.1,0-1.5-0.4-2.9,0.9C339.6,140.4,339.5,140.5,339.4,140.5z"/>
		<path class="st13" d="M383.2,182.4c1.2,4.7,2.4,9.4,3.6,14.1c1.3,4.7,2.6,9.3,4.1,13.9c1.5,4.4,3.4,9,5.1,13.6
			c1.8,4.6,3.5,9.2,5.1,13.9l-4,1.9c-2.6-4.2-5-8.6-7.4-12.9c-1.2-2.2-2.3-4.4-3.4-6.6c-1.1-2.2-2.2-4.6-3.2-7
			c-1.9-4.7-3.5-9.5-4.9-14.3c-1.5-4.8-2.7-9.6-3.8-14.5L383.2,182.4z"/>
		<path class="st12" d="M378.8,172.3c3.6,1,8.3,13.2,8.3,13.2l-13.6,10.3c0,0-5.4-10.1-4-14.8C370.9,176.1,374.7,171.2,378.8,172.3z
			"/>
		<path class="st8" d="M348.8,418.3c-0.9,0-1.7-0.1-2.1-0.5c-0.3-0.3-0.4-0.6-0.4-1c0-0.2,0.1-0.4,0.4-0.6c1.1-0.6,4.6,1.2,5,1.4
			c0.1,0,0.1,0.1,0.1,0.2c0,0.1-0.1,0.2-0.2,0.2C350.8,418.2,349.8,418.3,348.8,418.3z M347.2,416.5c-0.2,0-0.3,0-0.4,0.1
			c-0.1,0-0.1,0.1-0.1,0.2c0,0.3,0.1,0.5,0.2,0.7c0.5,0.5,2,0.6,3.9,0.2C349.7,417.1,348.1,416.5,347.2,416.5z"/>
		<path class="st8" d="M351.5,418C351.5,418,351.5,418,351.5,418c-1.1-0.5-3.2-2.4-3-3.4c0-0.2,0.2-0.5,0.8-0.6
			c0.4,0,0.8,0.1,1.2,0.4c1.1,0.9,1.3,3.3,1.3,3.4c0,0.1,0,0.1-0.1,0.2C351.6,418,351.6,418,351.5,418z M349.4,414.5
			c0,0-0.1,0-0.1,0c-0.4,0-0.4,0.2-0.4,0.2c-0.1,0.6,1.3,2.1,2.4,2.7c-0.1-0.7-0.4-2.1-1.1-2.7C349.9,414.5,349.7,414.5,349.4,414.5
			z"/>
		<polygon class="st13" points="413.3,417.8 404.5,417.8 399.2,397.5 408,397.5 		"/>
		<path class="st12" d="M413.3,416.8l-9.9,0c-0.4,0-0.6,0.2-0.6,0.6l0.6,7.8c0.1,0.8,0.9,1.6,1.8,1.6c3.4-0.1,5-0.3,9.4-0.3
			c2.7,0,5.3,0.3,9,0.3c3.6,0,3.1-3.6,1.5-4c-7.2-1.5-7.4-3.5-10.2-5.5C414.4,417,413.9,416.8,413.3,416.8z"/>
		<g class="st14">
			<polygon points="399.2,397.5 401.9,408 410.7,408 408,397.5 			"/>
		</g>
		<path class="st12" d="M374.1,225.7c10.2,13.6,16.3,63.5,20.8,90.2c4.7,27.8,16.2,90,16.2,90h-11.9c0,0-16.1-63.3-24.6-90.1
			c-9.3-29.6-23.3-90.1-23.3-90.1S364.5,225.7,374.1,225.7z"/>
		<polygon class="st8" points="411.9,406.3 397.9,406.3 396.9,401.9 412.5,401.4 		"/>
		<path class="st8" d="M414.5,417c0.8-0.4,1.5-0.8,1.7-1.4c0.1-0.4,0.1-0.7-0.1-1.1c-0.1-0.2-0.3-0.3-0.6-0.3
			c-1.2-0.1-3.6,3.1-3.9,3.4c-0.1,0.1-0.1,0.2,0,0.2c0,0.1,0.1,0.1,0.2,0.1C412.6,417.8,413.6,417.4,414.5,417z M415.1,414.7
			c0.1-0.1,0.3-0.1,0.4-0.1c0.1,0,0.2,0,0.2,0.1c0.1,0.2,0.2,0.5,0.1,0.7c-0.3,0.7-1.5,1.4-3.4,1.9
			C413.2,416.3,414.4,415.1,415.1,414.7z"/>
		<path class="st8" d="M411.9,417.9C412,417.9,412,417.9,411.9,417.9c0.8-0.9,1.9-3.5,1.3-4.4c-0.1-0.2-0.4-0.4-1-0.2
			c-0.4,0.1-0.7,0.4-0.9,0.8c-0.6,1.3,0.2,3.5,0.3,3.6c0,0.1,0.1,0.1,0.2,0.1C411.8,418,411.9,417.9,411.9,417.9z M412.3,413.8
			c0,0,0.1,0,0.1,0c0.4-0.1,0.4,0,0.5,0c0.3,0.5-0.3,2.4-1,3.5c-0.2-0.7-0.6-2.1-0.2-2.9C411.9,414.1,412,413.9,412.3,413.8z"/>
		<path class="st12" d="M349.3,143.1l-1.7-0.4C347.6,142.7,348.5,144,349.3,143.1z"/>
		<path class="st8" d="M374.5,223.6l1,3.2c0.1,0.2-0.2,0.5-0.6,0.5l-36.7,1.1c-0.3,0-0.6-0.1-0.6-0.3l-0.4-3.2
			c0-0.2,0.2-0.4,0.6-0.4l36.1-1.1C374.2,223.4,374.4,223.5,374.5,223.6z"/>
		<g>
			<path class="st12" d="M369.8,227.8l1,0c0.2,0,0.3-0.1,0.3-0.2l-0.6-4.1c0-0.1-0.2-0.2-0.4-0.2l-1,0c-0.2,0-0.3,0.1-0.3,0.2
				l0.6,4.1C369.4,227.7,369.6,227.8,369.8,227.8z"/>
			<path class="st12" d="M341,228.7l1,0c0.2,0,0.3-0.1,0.3-0.2l-0.6-4.1c0-0.1-0.2-0.2-0.4-0.2l-1,0c-0.2,0-0.3,0.1-0.3,0.2l0.6,4.1
				C340.6,228.6,340.8,228.7,341,228.7z"/>
			<path class="st12" d="M355.4,228.2l1,0c0.2,0,0.3-0.1,0.3-0.2l-0.6-4.1c0-0.1-0.2-0.2-0.4-0.2l-1,0c-0.2,0-0.3,0.1-0.3,0.2
				l0.6,4.1C355,228.1,355.2,228.2,355.4,228.2z"/>
		</g>
		<path class="st13" d="M400.1,236.3l7,6.4l-8.9,1.1c0,0-3.3-4.6-1.7-7.8L400.1,236.3z"/>
		<polygon class="st13" points="408.3,250 400.9,250.6 398.3,243.9 407.1,242.7 		"/>
		<path class="st12" d="M355.5,128.4c0,0-7.4-3.4-15.5,6.9c9.8,2.9,16.4,0.9,16.4,0.9L355.5,128.4z"/>
		<path class="st12" d="M354.4,127.5c0,0,1.8,25.8,0,38.6c10.3-3.3,20.2-13.5,20.2-13.5S373.2,124.4,354.4,127.5z"/>
		<g>
			<path class="st5" d="M349.2,150.3c-2.3,0-4.5-2.9-4.8-6.4c-0.2-2.2,0.4-4.2,1.4-5.4c0.6-0.7,1.4-1.1,2.2-1.1
				c2.3,0,4.5,2.9,4.8,6.4l0,0c0.2,2.2-0.4,4.2-1.4,5.4C350.8,149.9,350,150.3,349.2,150.3z M348.1,138c-0.7,0-1.3,0.3-1.9,0.9
				c-1,1.1-1.5,3-1.3,5c0.3,3.3,2.2,5.9,4.3,5.9c0.7,0,1.3-0.3,1.9-0.9c1-1.1,1.5-3,1.3-5l0,0C352.1,140.6,350.2,138,348.1,138z"/>
			<path class="st5" d="M340.5,150.3c-1.9,0-3.6-2.8-3.9-6.4c-0.2-2.4,0.3-4.6,1.3-5.7c0.4-0.5,1-0.7,1.5-0.7c1.9,0,3.6,2.8,3.9,6.4
				l0,0c0.2,2.4-0.3,4.6-1.3,5.7C341.6,150,341,150.3,340.5,150.3z M339.4,138c-0.4,0-0.8,0.2-1.2,0.6c-0.9,1-1.4,3.1-1.2,5.3
				c0.3,3.2,1.8,5.9,3.4,5.9c0.4,0,0.8-0.2,1.2-0.6c0.9-1,1.4-3.1,1.2-5.3l0,0C342.5,140.7,341,138,339.4,138z"/>
			<path class="st5" d="M344.7,144.1c0,0-0.1,0-0.1,0c-0.8-0.4-1.3,0-1.4,0c-0.1,0.1-0.3,0-0.3-0.1c-0.1-0.1,0-0.3,0.1-0.3
				c0,0,0.8-0.5,1.9,0c0.1,0.1,0.2,0.2,0.1,0.3C344.9,144.1,344.8,144.1,344.7,144.1z"/>
		</g>
	</g>
</g>
<g id="Desk">
	<g>
		<g>
			<g>
				<g>
					<rect x="113.3" y="296.4" class="st8" width="273.3" height="9.3"/>
					<rect x="113.3" y="296.4" class="st16" width="273.3" height="9.3"/>
				</g>
				<rect x="306.7" y="296.4" class="st17" width="80" height="9.3"/>
			</g>
			<polygon class="st8" points="326.2,430.2 320.8,430.2 313.8,305.7 326.2,305.7 			"/>
			<polygon class="st8" points="381.3,430.2 386.7,430.2 379.6,305.7 367.2,305.7 			"/>
			<polygon class="st8" points="118.7,430.2 113.3,430.2 120.4,305.7 132.8,305.7 			"/>
			<polygon class="st8" points="173.8,430.2 179.2,430.2 186.2,305.7 173.8,305.7 			"/>
		</g>
		<g>
			<g>
				<path class="st8" d="M302.4,251.7h-58.3c-1.3,0-2.6,1.1-2.9,2.4l-6.4,36.5c-0.2,1.3,0.7,2.4,2,2.4h58.3c1.3,0,2.6-1.1,2.9-2.4
					l6.4-36.5C304.7,252.8,303.8,251.7,302.4,251.7z"/>
				<path class="st18" d="M302.4,251.7h-58.3c-1.3,0-2.6,1.1-2.9,2.4l-6.4,36.5c-0.2,1.3,0.7,2.4,2,2.4h58.3c1.3,0,2.6-1.1,2.9-2.4
					l6.4-36.5C304.7,252.8,303.8,251.7,302.4,251.7z"/>
			</g>
			<g>
				<path class="st8" d="M301.3,251.7H243c-1.3,0-2.6,1.1-2.9,2.4l-6.4,36.5c-0.2,1.3,0.7,2.4,2,2.4h58.3c1.3,0,2.6-1.1,2.9-2.4
					l6.4-36.5C303.6,252.8,302.7,251.7,301.3,251.7z"/>
				<path class="st19" d="M301.3,251.7H243c-1.3,0-2.6,1.1-2.9,2.4l-6.4,36.5c-0.2,1.3,0.7,2.4,2,2.4h58.3c1.3,0,2.6-1.1,2.9-2.4
					l6.4-36.5C303.6,252.8,302.7,251.7,301.3,251.7z"/>
			</g>
			<path class="st5" d="M235.8,292.1c-0.3,0-0.6-0.1-0.8-0.3c-0.2-0.2-0.3-0.6-0.2-0.9l6.4-36.5c0.1-0.9,1-1.6,1.9-1.6h58.3
				c0.3,0,0.6,0.1,0.8,0.3c0.2,0.2,0.3,0.6,0.2,0.9l-6.4,36.5c-0.1,0.9-1,1.6-1.9,1.6H235.8z"/>
			<g>
				<path class="st8" d="M294.4,293.1h-73.3c-1.8,0-3.3,1.5-3.3,3.3h79.8C297.6,294.6,296.2,293.1,294.4,293.1z"/>
			</g>
			<path class="st19" d="M294.4,293.1h-73.3c-1.8,0-3.3,1.5-3.3,3.3h79.8C297.6,294.6,296.2,293.1,294.4,293.1z"/>
			<path class="st20" d="M294.4,293.1h-16.3c-1.8,0-3.3,1.5-3.3,3.3h22.8C297.6,294.6,296.2,293.1,294.4,293.1z"/>
		</g>
		<g>
			<path class="st8" d="M332.8,280.1h-10.7c-0.7,0-1.2,0.5-1.2,1.2v13.9c0,0.7,0.5,1.2,1.2,1.2h10.7c0.7,0,1.2-0.5,1.2-1.2v-13.9
				C334,280.6,333.5,280.1,332.8,280.1z"/>
			<g>
				<path class="st5" d="M322.6,288l0.2-0.9l-0.9,0l0-1l1.1,0l0.3-1.3l1,0l-0.3,1.3l0.8,0l0.3-1.3l1,0l-0.3,1.3l0.5,0l0,1l-0.7,0
					l-0.2,0.9l0.9,0l0,1l-1.1,0l-0.3,1.3l-1,0l0.3-1.3l-0.8,0l-0.3,1.3l-1,0l0.3-1.3l-0.5,0l0-1L322.6,288z M323.7,288l0.8,0
					l0.2-0.9l-0.8,0L323.7,288z"/>
				<path class="st5" d="M330.4,284.8l0,5.5l-1.5,0l0-3.6c-0.2,0.2-0.5,0.3-0.7,0.5c-0.2,0.1-0.5,0.2-0.9,0.3l0-1.2
					c0.5-0.2,0.9-0.4,1.2-0.6c0.3-0.2,0.5-0.5,0.7-0.9L330.4,284.8z"/>
			</g>
			<path class="st8" d="M335.2,294.6c-2.6,0-4.6-2.8-4.6-6.4c0-3.5,2.1-6.4,4.6-6.4s4.6,2.9,4.6,6.4
				C339.8,291.8,337.8,294.6,335.2,294.6z M335.2,283.3c-1.7,0-3.1,2.2-3.1,4.9c0,2.7,1.4,4.9,3.1,4.9c1.7,0,3.1-2.2,3.1-4.9
				C338.4,285.6,336.9,283.3,335.2,283.3z"/>
		</g>
	</g>
</g>
<g id="Character_1">
	<g>
		<g>
			<g>
				<g>
					<path class="st8" d="M181.6,249.7l-0.9,1.4l-1,1.6c-0.6,1.1-1.3,2.1-1.9,3.2c-1.2,2.2-2.4,4.4-3.6,6.6
						c-2.2,4.5-4.2,9.1-5.6,13.7c-0.4,1.2-0.7,2.3-1,3.5l-0.4,1.7l-0.2,0.9l-0.1,0.4c0,0.1-0.1,0.3-0.1,0.3c0,0.1-0.1,0-0.2-0.3
						c-0.1-0.2-0.3-0.5-0.5-0.6c-0.2-0.1-0.2,0-0.1,0.1c0.1,0.1,0.4,0.3,0.7,0.5c0.7,0.4,1.6,0.7,2.7,0.9c1.1,0.3,2.2,0.4,3.4,0.6
						c2.4,0.3,5,0.5,7.5,0.6l0.3,0c1.9,0.1,3.4,1.8,3.3,3.7c-0.1,1.5-1,2.7-2.3,3.1c-1.5,0.5-2.8,0.9-4.2,1.3
						c-1.4,0.4-2.8,0.6-4.3,0.8c-3,0.4-6,0.6-9.8-0.3c-0.9-0.2-1.9-0.6-3-1.1c-1.1-0.6-2.2-1.3-3.2-2.4c-1-1.1-1.9-2.6-2.3-4.1
						c-0.4-1.5-0.5-3-0.4-4.2c0-0.4,0-0.5,0.1-0.7l0.1-0.6l0.1-1.1c0.1-0.7,0.2-1.5,0.3-2.2c0.2-1.5,0.5-2.9,0.9-4.3
						c1.4-5.7,3.3-11.1,5.7-16.3c1.2-2.6,2.5-5.1,3.9-7.6c0.7-1.2,1.4-2.5,2.2-3.7c0.4-0.6,0.8-1.2,1.2-1.8c0.4-0.6,0.8-1.2,1.3-1.9
						c2.3-3.1,6.6-3.8,9.8-1.6c3,2.2,3.8,6.3,1.8,9.4L181.6,249.7z"/>
					<path class="st12" d="M208.3,209.3c0.1,0.7,0.5,1.2,1,1.1c0.4-0.1,0.7-0.7,0.6-1.3c-0.1-0.7-0.5-1.2-1-1.1
						C208.5,208.1,208.2,208.7,208.3,209.3z"/>
					<path class="st21" d="M208.8,210.5c0,0,2.1,3.7,4.1,5.3c-1,1.3-3.1,1.1-3.1,1.1L208.8,210.5z"/>
					<path class="st12" d="M205.3,206c0.1,0,0.2,0,0.2-0.1c1.3-1.2,2.7-1,2.7-0.9c0.2,0,0.4-0.1,0.5-0.3c0-0.2-0.1-0.4-0.3-0.5
						c-0.1,0-1.9-0.4-3.5,1.1c-0.2,0.2-0.2,0.4,0,0.6C205.1,205.9,205.2,206,205.3,206z"/>
					<path class="st22" d="M188.5,216.8c0.3,6.3-0.2,17.7-5.1,21.1c0,0,0.7,6.5,12.1,8.2c12.5,1.9,6.9-5.3,6.9-5.3
						c-6.6-2.6-5.6-7.7-3.7-12.3L188.5,216.8z"/>
					<path class="st6" d="M181.4,240.4c-0.5-2.8-1-6.1,1.2-6.6c2.4-0.6,14.6,1.1,18.4,4c3.9,2.9,1.9,8,1.9,8L181.4,240.4z"/>
					<path class="st8" d="M214.4,251c0.5,10.1,0,30.1-6.8,60.3h-45.2c-0.3-6.3,6.2-33.4,5.6-63.2c-0.1-6.3,5-11.5,11.2-11.5
						c0.9,0,1.8,0,2.8,0.1c5.8,0.4,14.1,1.4,19.1,2.5c1.9,0.4,3.7,0.9,5.4,1.4C211,242.1,214.2,246.3,214.4,251z"/>
					<path class="st14" d="M207.6,269.2c-0.7,5.1-2.4,14,3.6,23.8c0.7-4.1,1.2-7.9,1.7-11.4L207.6,269.2z"/>
					<path class="st22" d="M242.8,281.5l7.6-2.6l-3.1-8c0,0-5.5,0.5-7.7,6.3L242.8,281.5z"/>
					<polygon class="st22" points="254.4,276.7 255.2,270.2 247.3,270.9 250.4,278.9 					"/>
					<path class="st8" d="M214.3,250.1c0.4,1.5,0.9,3.2,1.4,4.8c0.5,1.6,1,3.2,1.6,4.9c1.1,3.2,2.3,6.4,3.5,9.5
						c1.3,3.1,2.6,6.1,4.2,8.9c1.5,2.8,3.2,5.4,5,7.4l-7.3-1.1c1.4-0.6,2.9-1.2,4.3-2c1.5-0.7,2.9-1.4,4.4-2.2l4.5-2.4
						c1.5-0.8,3-1.6,4.5-2.4l0.2-0.1c1.8-0.9,3.9-0.1,4.7,1.6c0.6,1.2,0.4,2.7-0.3,3.7c-1.2,1.5-2.3,2.9-3.6,4.3
						c-1.2,1.3-2.6,2.6-3.9,3.9c-1.4,1.2-2.8,2.5-4.3,3.6c-1.5,1.1-3.1,2.2-4.8,3.3c-2.3,1.4-5.1,1-6.9-0.8l-0.4-0.4
						c-3.2-3-5.6-6.3-7.7-9.7c-2.1-3.3-3.8-6.7-5.4-10.2c-1.6-3.4-2.9-6.9-4.1-10.4c-0.6-1.8-1.2-3.5-1.7-5.3
						c-0.5-1.8-1-3.5-1.5-5.5c-0.9-3.8,1.4-7.5,5.1-8.5c3.7-0.9,7.4,1.3,8.4,4.9L214.3,250.1z"/>
					<path class="st22" d="M185.6,211.3c1.7,8.2,2.4,13.1,7.2,16.7c7.2,5.5,16.9,0.1,17.6-8.4c0.7-7.7-2.3-19.8-10.9-21.9
						C191,195.6,183.8,203.1,185.6,211.3z"/>
					<path class="st12" d="M203.3,212.1c3.9-0.3,3.7-2.1,2.8-3.4c-0.9-1.3-1.9-6.1-1.9-6.1s5.4,1.4,4.3-3.8
						c-1.1-5.2-8.5-11.8-14.9-7.8c-12.8-2.1-17,3.1-15,7.8c-10.2,4.5-2.8,13.6,1.2,13.6c-3.6,3.2,1.8,7.9,10.5,13.1
						C196.7,217.8,206.1,219.9,203.3,212.1z"/>
					<path class="st12" d="M195.3,193.6c-0.3,0-0.5-0.1-0.7-0.3c-3-3-7.2-4.2-11.6-3.2c-0.5,0.1-1.1-0.2-1.2-0.7
						c-0.1-0.5,0.2-1.1,0.7-1.2c5.1-1.2,10.1,0.2,13.5,3.7c0.4,0.4,0.4,1,0,1.4C195.8,193.5,195.6,193.6,195.3,193.6z"/>
					<path class="st12" d="M182.1,221.6c-0.3,0-0.5-0.1-0.7-0.3c-2.8-2.8-4-5.1-3.6-7c0.2-1.4,1.2-2.4,2.8-3.2
						c0.5-0.2,1.1,0,1.3,0.5c0.2,0.5,0,1.1-0.5,1.3c-1,0.5-1.6,1.1-1.7,1.8c-0.1,0.8,0.3,2.4,3.1,5.2c0.4,0.4,0.4,1,0,1.4
						C182.6,221.5,182.3,221.6,182.1,221.6z"/>
					<path class="st22" d="M198.4,211.5c0.7,2.1,2.2,3.8,3.7,4.8c2.3,1.5,3.8-0.2,3.5-2.7c-0.3-2.2-1.8-5.7-4.2-6.2
						C199,206.9,197.7,209.1,198.4,211.5z"/>
					<g>
						<path class="st8" d="M276.6,422.9c1.1,0,2.1-0.2,2.5-0.6c0.1-0.2,0.2-0.5,0-0.9c-0.1-0.2-0.3-0.4-0.6-0.5
							c-1.4-0.4-4.4,1.3-4.5,1.4c-0.1,0-0.1,0.1-0.1,0.2c0,0.1,0.1,0.1,0.2,0.2C274.6,422.8,275.6,422.9,276.6,422.9z M278,421.3
							c0.1,0,0.3,0,0.4,0c0.2,0,0.3,0.1,0.4,0.3c0.1,0.2,0.1,0.4,0,0.4c-0.4,0.5-2.5,0.6-4.1,0.3C275.5,422,277,421.3,278,421.3z"/>
						<path class="st8" d="M274.1,422.7C274.1,422.7,274.1,422.7,274.1,422.7c1.1-0.5,3.1-2.3,3-3.3c0-0.2-0.2-0.5-0.7-0.6
							c-0.4,0-0.8,0.1-1.1,0.3c-1.1,0.9-1.3,3.2-1.3,3.3c0,0.1,0,0.1,0.1,0.2C274,422.7,274,422.7,274.1,422.7z M276.1,419.3
							c0,0,0.1,0,0.1,0c0.4,0,0.4,0.2,0.4,0.2c0.1,0.6-1.3,2-2.3,2.6c0.1-0.7,0.4-2,1.1-2.6C275.6,419.4,275.9,419.3,276.1,419.3z"
							/>
						<polygon class="st22" points="264.5,422.5 272.9,422.5 271.3,402.9 262.8,402.9 						"/>
						<path class="st12" d="M272.9,421.5h-9.2c-0.3,0-0.6,0.2-0.6,0.6l-0.6,7.5c-0.1,0.8,0.6,1.5,1.4,1.5c3.3-0.1,8.1-0.3,12.3-0.3
							c4.9,0,5.4,0.3,11.1,0.3c3.5,0,3.9-3.5,2.4-3.8c-6.8-1.4-8.5-1.6-14.7-5.1C274.4,421.8,273.6,421.5,272.9,421.5z"/>
						<polygon class="st14" points="271.3,402.9 272.1,413 263.7,413 262.8,402.9 						"/>
					</g>
					<path class="st8" d="M224,422.9c0.9,0,1.7-0.1,2-0.6c0.1-0.2,0.2-0.5,0-1c-0.1-0.2-0.3-0.4-0.6-0.5c-1.2-0.3-3.6,1.3-3.7,1.4
						c-0.1,0-0.1,0.1-0.1,0.2c0,0.1,0.1,0.1,0.2,0.2C222.2,422.8,223.1,422.9,224,422.9z M225,421.3c0.1,0,0.2,0,0.2,0
						c0.2,0,0.3,0.1,0.4,0.3c0.2,0.3,0.1,0.5,0,0.5c-0.4,0.5-2.1,0.5-3.4,0.3C223.1,421.9,224.3,421.3,225,421.3z"/>
					<path class="st8" d="M221.8,422.7C221.8,422.7,221.9,422.7,221.8,422.7c1-0.5,2.7-2.4,2.5-3.3c0-0.2-0.2-0.5-0.6-0.5
						c-0.3,0-0.6,0-0.9,0.3c-1,0.8-1.2,3.2-1.2,3.3c0,0.1,0,0.1,0.1,0.2C221.7,422.7,221.8,422.7,221.8,422.7z M223.5,419.3
						C223.6,419.3,223.6,419.3,223.5,419.3c0.4,0,0.4,0.2,0.4,0.2c0.1,0.6-1,2-1.8,2.6c0.1-0.7,0.4-2.1,1-2.6
						C223.2,419.3,223.4,419.3,223.5,419.3z"/>
					<polygon class="st22" points="214.1,422.5 222.5,422.5 226.8,402.9 218.3,402.9 					"/>
					<path class="st12" d="M223.1,421.5h-9.5c-0.3,0-0.6,0.2-0.7,0.6l-1.7,7.5c-0.2,0.8,0.4,1.5,1.2,1.5c3.3-0.1,4.9-0.3,9.1-0.3
						c2.6,0,5.9,0.3,9.4,0.3c3.5,0,4-3.5,2.6-3.8c-6.5-1.4-7-3.4-9.1-5.3C224.1,421.7,223.6,421.5,223.1,421.5z"/>
					<path d="M194,311.4c0,0,46.9,14.2,48.1,33.1c2.1,34.7-14.9,64.3-14.9,64.3h-12.7c0,0,4.8-14.7,6.5-46.1
						c2.2-39.5-72.5,0.9-58.7-51.3H194z"/>
					<g class="st14">
						<polygon points="218.3,402.9 226.8,402.9 224.6,413 216.1,413 						"/>
					</g>
					<path class="st12" d="M207.5,311.4c0,0,60.6,4,63,36.2c2.8,37,3.6,61.2,3.6,61.2h-12.6c0,0-6.5-22.7-12-55.3
						c-1.7-9.8-22.4-11.5-42-12.6c-16.9-1-29.9-2-31.3-20.7l0.2-8.7H207.5z"/>
					<path class="st8" d="M277.2,405.4c0.1,0-0.8,5.9-0.8,5.9H259l-0.5-5.3L277.2,405.4z"/>
					<path class="st8" d="M231,405.4c0.1,0-1.6,5.9-1.6,5.9H212l0.3-5.3L231,405.4z"/>
				</g>
			</g>
		</g>
		<g>
			<g>
				<path class="st8" d="M204.8,338.1l-8.5-57.7c-0.5-3.2-3.2-5.6-6.5-5.6h-50.1c-4,0-7.1,3.6-6.5,7.5l8.2,55.8l0,0
					c0,2.7,2.2,4.9,4.9,4.9h91.3l0,0c0-2.7-2.2-4.9-4.9-4.9H204.8z"/>
				<path class="st23" d="M204.8,338.1l-8.5-57.7c-0.5-3.2-3.2-5.6-6.5-5.6h-50.1c-4,0-7.1,3.6-6.5,7.5l8.2,55.8l0,0
					c0,2.7,2.2,4.9,4.9,4.9h91.3l0,0c0-2.7-2.2-4.9-4.9-4.9H204.8z"/>
			</g>
			<path class="st17" d="M189.8,274.8h-50.1c-4,0-7.1,3.6-6.5,7.5l8.2,55.8c0,2.7,2.2,4.9,4.9,4.9h53.1L189.8,274.8z"/>
			<g>
				<polygon class="st8" points="142.1,431.8 139.2,431.8 146.3,343 149.2,343 				"/>
				<polygon class="st24" points="142.1,431.8 139.2,431.8 146.3,343 149.2,343 				"/>
			</g>
			<g>
				<polygon class="st8" points="190.2,431.8 187.4,431.8 194.5,343 197.3,343 				"/>
				<polygon class="st24" points="190.2,431.8 187.4,431.8 194.5,343 197.3,343 				"/>
			</g>
			<g>
				<polygon class="st8" points="194.6,431.8 191.8,431.8 184.7,343 187.5,343 				"/>
				<polygon class="st25" points="194.6,431.8 191.8,431.8 184.7,343 187.5,343 				"/>
			</g>
			<g>
				<polygon class="st8" points="242.7,431.8 239.9,431.8 232.8,343 235.7,343 				"/>
				<polygon class="st25" points="242.7,431.8 239.9,431.8 232.8,343 235.7,343 				"/>
			</g>
		</g>
	</g>
</g>
</svg>
